<?xml version="1.0" encoding="UTF-8"?>
<svg xmlns="http://www.w3.org/2000/svg" xmlns:xlink="http://www.w3.org/1999/xlink" width="184.669pt" height="72.139pt" viewBox="0 0 184.669 72.139">
<defs>
<clipPath id="clip-0">
<path clip-rule="nonzero" d="M 19 0 L 70 0 L 70 71.289062 L 19 71.289062 Z M 19 0 "/>
</clipPath>
<clipPath id="clip-1">
<path clip-rule="nonzero" d="M 36 0 L 86 0 L 86 71.289062 L 36 71.289062 Z M 36 0 "/>
</clipPath>
<clipPath id="clip-2">
<path clip-rule="nonzero" d="M 52 0 L 103 0 L 103 71.289062 L 52 71.289062 Z M 52 0 "/>
</clipPath>
<clipPath id="clip-3">
<path clip-rule="nonzero" d="M 69 0 L 120 0 L 120 71.289062 L 69 71.289062 Z M 69 0 "/>
</clipPath>
<clipPath id="clip-4">
<path clip-rule="nonzero" d="M 86 0 L 137 0 L 137 71.289062 L 86 71.289062 Z M 86 0 "/>
</clipPath>
<clipPath id="clip-5">
<path clip-rule="nonzero" d="M 103 0 L 154 0 L 154 71.289062 L 103 71.289062 Z M 103 0 "/>
</clipPath>
<clipPath id="clip-6">
<path clip-rule="nonzero" d="M 120 0 L 171 0 L 171 71.289062 L 120 71.289062 Z M 120 0 "/>
</clipPath>
<clipPath id="clip-7">
<path clip-rule="nonzero" d="M 137 0 L 183.417969 0 L 183.417969 71.289062 L 137 71.289062 Z M 137 0 "/>
</clipPath>
<clipPath id="clip-8">
<path clip-rule="nonzero" d="M 0.925781 0 L 48 0 L 48 71.289062 L 0.925781 71.289062 Z M 0.925781 0 "/>
</clipPath>
<clipPath id="clip-9">
<path clip-rule="nonzero" d="M 14 0 L 65 0 L 65 71.289062 L 14 71.289062 Z M 14 0 "/>
</clipPath>
<clipPath id="clip-10">
<path clip-rule="nonzero" d="M 31 0 L 81 0 L 81 71.289062 L 31 71.289062 Z M 31 0 "/>
</clipPath>
<clipPath id="clip-11">
<path clip-rule="nonzero" d="M 47 0 L 98 0 L 98 71.289062 L 47 71.289062 Z M 47 0 "/>
</clipPath>
<clipPath id="clip-12">
<path clip-rule="nonzero" d="M 64 0 L 115 0 L 115 71.289062 L 64 71.289062 Z M 64 0 "/>
</clipPath>
<clipPath id="clip-13">
<path clip-rule="nonzero" d="M 81 0 L 132 0 L 132 71.289062 L 81 71.289062 Z M 81 0 "/>
</clipPath>
<clipPath id="clip-14">
<path clip-rule="nonzero" d="M 98 0 L 149 0 L 149 71.289062 L 98 71.289062 Z M 98 0 "/>
</clipPath>
<clipPath id="clip-15">
<path clip-rule="nonzero" d="M 115 0 L 165 0 L 165 71.289062 L 115 71.289062 Z M 115 0 "/>
</clipPath>
</defs>
<path fill="none" stroke-width="0.3985" stroke-linecap="butt" stroke-linejoin="miter" stroke="rgb(0%, 0%, 0%)" stroke-opacity="1" stroke-miterlimit="10" d="M -8.504822 0.000925841 L 110.551737 0.000925841 " transform="matrix(0.988205, 0, 0, -0.988205, 41.748262, 69.122009)"/>
<path fill="none" stroke-width="0.3985" stroke-linecap="butt" stroke-linejoin="miter" stroke="rgb(0%, 0%, 0%)" stroke-opacity="1" stroke-miterlimit="10" d="M -8.504822 14.729328 L 110.551737 14.729328 " transform="matrix(0.988205, 0, 0, -0.988205, 41.748262, 69.122009)"/>
<path fill="none" stroke-width="0.3985" stroke-linecap="butt" stroke-linejoin="miter" stroke="rgb(0%, 0%, 0%)" stroke-opacity="1" stroke-miterlimit="10" d="M -8.504822 29.45773 L 110.551737 29.45773 " transform="matrix(0.988205, 0, 0, -0.988205, 41.748262, 69.122009)"/>
<path fill="none" stroke-width="0.3985" stroke-linecap="butt" stroke-linejoin="miter" stroke="rgb(0%, 0%, 0%)" stroke-opacity="1" stroke-miterlimit="10" d="M -8.504822 44.190085 L 110.551737 44.190085 " transform="matrix(0.988205, 0, 0, -0.988205, 41.748262, 69.122009)"/>
<path fill="none" stroke-width="0.3985" stroke-linecap="butt" stroke-linejoin="miter" stroke="rgb(0%, 0%, 0%)" stroke-opacity="1" stroke-miterlimit="10" d="M -8.504822 58.918486 L 110.551737 58.918486 " transform="matrix(0.988205, 0, 0, -0.988205, 41.748262, 69.122009)"/>
<g clip-path="url(#clip-0)">
<path fill="none" stroke-width="0.3985" stroke-linecap="butt" stroke-linejoin="miter" stroke="rgb(0%, 0%, 0%)" stroke-opacity="1" stroke-miterlimit="10" d="M -17.00745 0.000925841 L 22.110174 67.757109 " transform="matrix(0.988205, 0, 0, -0.988205, 41.748262, 69.122009)"/>
</g>
<g clip-path="url(#clip-1)">
<path fill="none" stroke-width="0.3985" stroke-linecap="butt" stroke-linejoin="miter" stroke="rgb(0%, 0%, 0%)" stroke-opacity="1" stroke-miterlimit="10" d="M 0.00175924 0.000925841 L 39.119383 67.757109 " transform="matrix(0.988205, 0, 0, -0.988205, 41.748262, 69.122009)"/>
</g>
<g clip-path="url(#clip-2)">
<path fill="none" stroke-width="0.3985" stroke-linecap="butt" stroke-linejoin="miter" stroke="rgb(0%, 0%, 0%)" stroke-opacity="1" stroke-miterlimit="10" d="M 17.007016 0.000925841 L 56.128592 67.757109 " transform="matrix(0.988205, 0, 0, -0.988205, 41.748262, 69.122009)"/>
</g>
<g clip-path="url(#clip-3)">
<path fill="none" stroke-width="0.3985" stroke-linecap="butt" stroke-linejoin="miter" stroke="rgb(0%, 0%, 0%)" stroke-opacity="1" stroke-miterlimit="10" d="M 34.016225 0.000925841 L 73.133848 67.757109 " transform="matrix(0.988205, 0, 0, -0.988205, 41.748262, 69.122009)"/>
</g>
<g clip-path="url(#clip-4)">
<path fill="none" stroke-width="0.3985" stroke-linecap="butt" stroke-linejoin="miter" stroke="rgb(0%, 0%, 0%)" stroke-opacity="1" stroke-miterlimit="10" d="M 51.025434 0.000925841 L 90.143058 67.757109 " transform="matrix(0.988205, 0, 0, -0.988205, 41.748262, 69.122009)"/>
</g>
<g clip-path="url(#clip-5)">
<path fill="none" stroke-width="0.3985" stroke-linecap="butt" stroke-linejoin="miter" stroke="rgb(0%, 0%, 0%)" stroke-opacity="1" stroke-miterlimit="10" d="M 68.034643 0.000925841 L 107.152267 67.757109 " transform="matrix(0.988205, 0, 0, -0.988205, 41.748262, 69.122009)"/>
</g>
<g clip-path="url(#clip-6)">
<path fill="none" stroke-width="0.3985" stroke-linecap="butt" stroke-linejoin="miter" stroke="rgb(0%, 0%, 0%)" stroke-opacity="1" stroke-miterlimit="10" d="M 85.0399 0.000925841 L 124.161476 67.757109 " transform="matrix(0.988205, 0, 0, -0.988205, 41.748262, 69.122009)"/>
</g>
<g clip-path="url(#clip-7)">
<path fill="none" stroke-width="0.3985" stroke-linecap="butt" stroke-linejoin="miter" stroke="rgb(0%, 0%, 0%)" stroke-opacity="1" stroke-miterlimit="10" d="M 102.049109 0.000925841 L 141.166732 67.757109 " transform="matrix(0.988205, 0, 0, -0.988205, 41.748262, 69.122009)"/>
</g>
<g clip-path="url(#clip-8)">
<path fill="none" stroke-width="0.3985" stroke-linecap="butt" stroke-linejoin="miter" stroke="rgb(0%, 0%, 0%)" stroke-opacity="1" stroke-miterlimit="10" d="M 0.00175924 0.000925841 L -39.119817 67.757109 " transform="matrix(0.988205, 0, 0, -0.988205, 41.748262, 69.122009)"/>
</g>
<g clip-path="url(#clip-9)">
<path fill="none" stroke-width="0.3985" stroke-linecap="butt" stroke-linejoin="miter" stroke="rgb(0%, 0%, 0%)" stroke-opacity="1" stroke-miterlimit="10" d="M 17.007016 0.000925841 L -22.110608 67.757109 " transform="matrix(0.988205, 0, 0, -0.988205, 41.748262, 69.122009)"/>
</g>
<g clip-path="url(#clip-10)">
<path fill="none" stroke-width="0.3985" stroke-linecap="butt" stroke-linejoin="miter" stroke="rgb(0%, 0%, 0%)" stroke-opacity="1" stroke-miterlimit="10" d="M 34.016225 0.000925841 L -5.101399 67.757109 " transform="matrix(0.988205, 0, 0, -0.988205, 41.748262, 69.122009)"/>
</g>
<g clip-path="url(#clip-11)">
<path fill="none" stroke-width="0.3985" stroke-linecap="butt" stroke-linejoin="miter" stroke="rgb(0%, 0%, 0%)" stroke-opacity="1" stroke-miterlimit="10" d="M 51.025434 0.000925841 L 11.903858 67.757109 " transform="matrix(0.988205, 0, 0, -0.988205, 41.748262, 69.122009)"/>
</g>
<g clip-path="url(#clip-12)">
<path fill="none" stroke-width="0.3985" stroke-linecap="butt" stroke-linejoin="miter" stroke="rgb(0%, 0%, 0%)" stroke-opacity="1" stroke-miterlimit="10" d="M 68.034643 0.000925841 L 28.913067 67.757109 " transform="matrix(0.988205, 0, 0, -0.988205, 41.748262, 69.122009)"/>
</g>
<g clip-path="url(#clip-13)">
<path fill="none" stroke-width="0.3985" stroke-linecap="butt" stroke-linejoin="miter" stroke="rgb(0%, 0%, 0%)" stroke-opacity="1" stroke-miterlimit="10" d="M 85.0399 0.000925841 L 45.922276 67.757109 " transform="matrix(0.988205, 0, 0, -0.988205, 41.748262, 69.122009)"/>
</g>
<g clip-path="url(#clip-14)">
<path fill="none" stroke-width="0.3985" stroke-linecap="butt" stroke-linejoin="miter" stroke="rgb(0%, 0%, 0%)" stroke-opacity="1" stroke-miterlimit="10" d="M 102.049109 0.000925841 L 62.931485 67.757109 " transform="matrix(0.988205, 0, 0, -0.988205, 41.748262, 69.122009)"/>
</g>
<g clip-path="url(#clip-15)">
<path fill="none" stroke-width="0.3985" stroke-linecap="butt" stroke-linejoin="miter" stroke="rgb(0%, 0%, 0%)" stroke-opacity="1" stroke-miterlimit="10" d="M 119.058318 0.000925841 L 79.940694 67.757109 " transform="matrix(0.988205, 0, 0, -0.988205, 41.748262, 69.122009)"/>
</g>
</svg>
