<?xml version="1.0" encoding="UTF-8"?>
<svg xmlns="http://www.w3.org/2000/svg" xmlns:xlink="http://www.w3.org/1999/xlink" width="103.198pt" height="77.629pt" viewBox="0 0 103.198 77.629">
<defs>
<clipPath id="clip-0">
<path clip-rule="nonzero" d="M 1.976562 74 L 100.425781 74 L 100.425781 75.167969 L 1.976562 75.167969 Z M 1.976562 74 "/>
</clipPath>
<clipPath id="clip-1">
<path clip-rule="nonzero" d="M 1.976562 62 L 100.425781 62 L 100.425781 64 L 1.976562 64 Z M 1.976562 62 "/>
</clipPath>
<clipPath id="clip-2">
<path clip-rule="nonzero" d="M 1.976562 50 L 100.425781 50 L 100.425781 52 L 1.976562 52 Z M 1.976562 50 "/>
</clipPath>
<clipPath id="clip-3">
<path clip-rule="nonzero" d="M 1.976562 38 L 100.425781 38 L 100.425781 39 L 1.976562 39 Z M 1.976562 38 "/>
</clipPath>
<clipPath id="clip-4">
<path clip-rule="nonzero" d="M 1.976562 26 L 100.425781 26 L 100.425781 27 L 1.976562 27 Z M 1.976562 26 "/>
</clipPath>
<clipPath id="clip-5">
<path clip-rule="nonzero" d="M 1.976562 14 L 100.425781 14 L 100.425781 15 L 1.976562 15 Z M 1.976562 14 "/>
</clipPath>
<clipPath id="clip-6">
<path clip-rule="nonzero" d="M 1.976562 2.089844 L 100.425781 2.089844 L 100.425781 3 L 1.976562 3 Z M 1.976562 2.089844 "/>
</clipPath>
<clipPath id="clip-7">
<path clip-rule="nonzero" d="M 1.976562 2.089844 L 8 2.089844 L 8 75.167969 L 1.976562 75.167969 Z M 1.976562 2.089844 "/>
</clipPath>
<clipPath id="clip-8">
<path clip-rule="nonzero" d="M 1.976562 2.089844 L 22 2.089844 L 22 75.167969 L 1.976562 75.167969 Z M 1.976562 2.089844 "/>
</clipPath>
<clipPath id="clip-9">
<path clip-rule="nonzero" d="M 1.976562 2.089844 L 36 2.089844 L 36 75.167969 L 1.976562 75.167969 Z M 1.976562 2.089844 "/>
</clipPath>
<clipPath id="clip-10">
<path clip-rule="nonzero" d="M 1.976562 2.089844 L 8 2.089844 L 8 75.167969 L 1.976562 75.167969 Z M 1.976562 2.089844 "/>
</clipPath>
<clipPath id="clip-11">
<path clip-rule="nonzero" d="M 1.976562 2.089844 L 50 2.089844 L 50 75.167969 L 1.976562 75.167969 Z M 1.976562 2.089844 "/>
</clipPath>
<clipPath id="clip-12">
<path clip-rule="nonzero" d="M 1.976562 2.089844 L 22 2.089844 L 22 75.167969 L 1.976562 75.167969 Z M 1.976562 2.089844 "/>
</clipPath>
<clipPath id="clip-13">
<path clip-rule="nonzero" d="M 10 2.089844 L 64 2.089844 L 64 75.167969 L 10 75.167969 Z M 10 2.089844 "/>
</clipPath>
<clipPath id="clip-14">
<path clip-rule="nonzero" d="M 1.976562 2.089844 L 36 2.089844 L 36 75.167969 L 1.976562 75.167969 Z M 1.976562 2.089844 "/>
</clipPath>
<clipPath id="clip-15">
<path clip-rule="nonzero" d="M 24 2.089844 L 78 2.089844 L 78 75.167969 L 24 75.167969 Z M 24 2.089844 "/>
</clipPath>
<clipPath id="clip-16">
<path clip-rule="nonzero" d="M 1.976562 2.089844 L 50 2.089844 L 50 75.167969 L 1.976562 75.167969 Z M 1.976562 2.089844 "/>
</clipPath>
<clipPath id="clip-17">
<path clip-rule="nonzero" d="M 38 2.089844 L 92 2.089844 L 92 75.167969 L 38 75.167969 Z M 38 2.089844 "/>
</clipPath>
<clipPath id="clip-18">
<path clip-rule="nonzero" d="M 10 2.089844 L 64 2.089844 L 64 75.167969 L 10 75.167969 Z M 10 2.089844 "/>
</clipPath>
<clipPath id="clip-19">
<path clip-rule="nonzero" d="M 52 2.089844 L 100.425781 2.089844 L 100.425781 75.167969 L 52 75.167969 Z M 52 2.089844 "/>
</clipPath>
<clipPath id="clip-20">
<path clip-rule="nonzero" d="M 24 2.089844 L 78 2.089844 L 78 75.167969 L 24 75.167969 Z M 24 2.089844 "/>
</clipPath>
<clipPath id="clip-21">
<path clip-rule="nonzero" d="M 66 2.089844 L 100.425781 2.089844 L 100.425781 75.167969 L 66 75.167969 Z M 66 2.089844 "/>
</clipPath>
<clipPath id="clip-22">
<path clip-rule="nonzero" d="M 38 2.089844 L 92 2.089844 L 92 75.167969 L 38 75.167969 Z M 38 2.089844 "/>
</clipPath>
<clipPath id="clip-23">
<path clip-rule="nonzero" d="M 80 2.089844 L 100.425781 2.089844 L 100.425781 75.167969 L 80 75.167969 Z M 80 2.089844 "/>
</clipPath>
<clipPath id="clip-24">
<path clip-rule="nonzero" d="M 52 2.089844 L 100.425781 2.089844 L 100.425781 75.167969 L 52 75.167969 Z M 52 2.089844 "/>
</clipPath>
<clipPath id="clip-25">
<path clip-rule="nonzero" d="M 94 2.089844 L 100.425781 2.089844 L 100.425781 75.167969 L 94 75.167969 Z M 94 2.089844 "/>
</clipPath>
<clipPath id="clip-26">
<path clip-rule="nonzero" d="M 66 2.089844 L 100.425781 2.089844 L 100.425781 75.167969 L 66 75.167969 Z M 66 2.089844 "/>
</clipPath>
<clipPath id="clip-27">
<path clip-rule="nonzero" d="M 80 2.089844 L 100.425781 2.089844 L 100.425781 75.167969 L 80 75.167969 Z M 80 2.089844 "/>
</clipPath>
<clipPath id="clip-28">
<path clip-rule="nonzero" d="M 94 2.089844 L 100.425781 2.089844 L 100.425781 75.167969 L 94 75.167969 Z M 94 2.089844 "/>
</clipPath>
</defs>
<g clip-path="url(#clip-0)">
<path fill="none" stroke-width="0.3985" stroke-linecap="butt" stroke-linejoin="miter" stroke="rgb(0%, 0%, 0%)" stroke-opacity="1" stroke-miterlimit="10" d="M -7.087077 0.0000114149 L 92.127237 0.0000114149 " transform="matrix(0.992288, 0, 0, -0.992288, 9.008987, 75.16798)"/>
</g>
<g clip-path="url(#clip-1)">
<path fill="none" stroke-width="0.3985" stroke-linecap="butt" stroke-linejoin="miter" stroke="rgb(0%, 0%, 0%)" stroke-opacity="1" stroke-miterlimit="10" d="M -7.087077 12.274353 L 92.127237 12.274353 " transform="matrix(0.992288, 0, 0, -0.992288, 9.008987, 75.16798)"/>
</g>
<g clip-path="url(#clip-2)">
<path fill="none" stroke-width="0.3985" stroke-linecap="butt" stroke-linejoin="miter" stroke="rgb(0%, 0%, 0%)" stroke-opacity="1" stroke-miterlimit="10" d="M -7.087077 24.548695 L 92.127237 24.548695 " transform="matrix(0.992288, 0, 0, -0.992288, 9.008987, 75.16798)"/>
</g>
<g clip-path="url(#clip-3)">
<path fill="none" stroke-width="0.3985" stroke-linecap="butt" stroke-linejoin="miter" stroke="rgb(0%, 0%, 0%)" stroke-opacity="1" stroke-miterlimit="10" d="M -7.087077 36.823036 L 92.127237 36.823036 " transform="matrix(0.992288, 0, 0, -0.992288, 9.008987, 75.16798)"/>
</g>
<g clip-path="url(#clip-4)">
<path fill="none" stroke-width="0.3985" stroke-linecap="butt" stroke-linejoin="miter" stroke="rgb(0%, 0%, 0%)" stroke-opacity="1" stroke-miterlimit="10" d="M -7.087077 49.097378 L 92.127237 49.097378 " transform="matrix(0.992288, 0, 0, -0.992288, 9.008987, 75.16798)"/>
</g>
<g clip-path="url(#clip-5)">
<path fill="none" stroke-width="0.3985" stroke-linecap="butt" stroke-linejoin="miter" stroke="rgb(0%, 0%, 0%)" stroke-opacity="1" stroke-miterlimit="10" d="M -7.087077 61.371719 L 92.127237 61.371719 " transform="matrix(0.992288, 0, 0, -0.992288, 9.008987, 75.16798)"/>
</g>
<g clip-path="url(#clip-6)">
<path fill="none" stroke-width="0.3985" stroke-linecap="butt" stroke-linejoin="miter" stroke="rgb(0%, 0%, 0%)" stroke-opacity="1" stroke-miterlimit="10" d="M -7.087077 73.646061 L 92.127237 73.646061 " transform="matrix(0.992288, 0, 0, -0.992288, 9.008987, 75.16798)"/>
</g>
<g clip-path="url(#clip-7)">
<path fill="none" stroke-width="0.3985" stroke-linecap="butt" stroke-linejoin="miter" stroke="rgb(0%, 0%, 0%)" stroke-opacity="1" stroke-miterlimit="10" d="M -49.606372 0.0000114149 L -7.087077 73.646061 " transform="matrix(0.992288, 0, 0, -0.992288, 9.008987, 75.16798)"/>
</g>
<g clip-path="url(#clip-8)">
<path fill="none" stroke-width="0.3985" stroke-linecap="butt" stroke-linejoin="miter" stroke="rgb(0%, 0%, 0%)" stroke-opacity="1" stroke-miterlimit="10" d="M -35.434586 0.0000114149 L 7.088646 73.646061 " transform="matrix(0.992288, 0, 0, -0.992288, 9.008987, 75.16798)"/>
</g>
<g clip-path="url(#clip-9)">
<path fill="none" stroke-width="0.3985" stroke-linecap="butt" stroke-linejoin="miter" stroke="rgb(0%, 0%, 0%)" stroke-opacity="1" stroke-miterlimit="10" d="M -21.258863 0.0000114149 L 21.260432 73.646061 " transform="matrix(0.992288, 0, 0, -0.992288, 9.008987, 75.16798)"/>
</g>
<g clip-path="url(#clip-10)">
<path fill="none" stroke-width="0.3985" stroke-linecap="butt" stroke-linejoin="miter" stroke="rgb(0%, 0%, 0%)" stroke-opacity="1" stroke-miterlimit="10" d="M -7.087077 0.0000114149 L -49.606372 73.646061 " transform="matrix(0.992288, 0, 0, -0.992288, 9.008987, 75.16798)"/>
</g>
<g clip-path="url(#clip-11)">
<path fill="none" stroke-width="0.3985" stroke-linecap="butt" stroke-linejoin="miter" stroke="rgb(0%, 0%, 0%)" stroke-opacity="1" stroke-miterlimit="10" d="M -7.087077 0.0000114149 L 35.432219 73.646061 " transform="matrix(0.992288, 0, 0, -0.992288, 9.008987, 75.16798)"/>
</g>
<g clip-path="url(#clip-12)">
<path fill="none" stroke-width="0.3985" stroke-linecap="butt" stroke-linejoin="miter" stroke="rgb(0%, 0%, 0%)" stroke-opacity="1" stroke-miterlimit="10" d="M 7.088646 0.0000114149 L -35.434586 73.646061 " transform="matrix(0.992288, 0, 0, -0.992288, 9.008987, 75.16798)"/>
</g>
<g clip-path="url(#clip-13)">
<path fill="none" stroke-width="0.3985" stroke-linecap="butt" stroke-linejoin="miter" stroke="rgb(0%, 0%, 0%)" stroke-opacity="1" stroke-miterlimit="10" d="M 7.088646 0.0000114149 L 49.607942 73.646061 " transform="matrix(0.992288, 0, 0, -0.992288, 9.008987, 75.16798)"/>
</g>
<g clip-path="url(#clip-14)">
<path fill="none" stroke-width="0.3985" stroke-linecap="butt" stroke-linejoin="miter" stroke="rgb(0%, 0%, 0%)" stroke-opacity="1" stroke-miterlimit="10" d="M 21.260432 0.0000114149 L -21.258863 73.646061 " transform="matrix(0.992288, 0, 0, -0.992288, 9.008987, 75.16798)"/>
</g>
<g clip-path="url(#clip-15)">
<path fill="none" stroke-width="0.3985" stroke-linecap="butt" stroke-linejoin="miter" stroke="rgb(0%, 0%, 0%)" stroke-opacity="1" stroke-miterlimit="10" d="M 21.260432 0.0000114149 L 63.779728 73.646061 " transform="matrix(0.992288, 0, 0, -0.992288, 9.008987, 75.16798)"/>
</g>
<g clip-path="url(#clip-16)">
<path fill="none" stroke-width="0.3985" stroke-linecap="butt" stroke-linejoin="miter" stroke="rgb(0%, 0%, 0%)" stroke-opacity="1" stroke-miterlimit="10" d="M 35.432219 0.0000114149 L -7.087077 73.646061 " transform="matrix(0.992288, 0, 0, -0.992288, 9.008987, 75.16798)"/>
</g>
<g clip-path="url(#clip-17)">
<path fill="none" stroke-width="0.3985" stroke-linecap="butt" stroke-linejoin="miter" stroke="rgb(0%, 0%, 0%)" stroke-opacity="1" stroke-miterlimit="10" d="M 35.432219 0.0000114149 L 77.955451 73.646061 " transform="matrix(0.992288, 0, 0, -0.992288, 9.008987, 75.16798)"/>
</g>
<g clip-path="url(#clip-18)">
<path fill="none" stroke-width="0.3985" stroke-linecap="butt" stroke-linejoin="miter" stroke="rgb(0%, 0%, 0%)" stroke-opacity="1" stroke-miterlimit="10" d="M 49.607942 0.0000114149 L 7.088646 73.646061 " transform="matrix(0.992288, 0, 0, -0.992288, 9.008987, 75.16798)"/>
</g>
<g clip-path="url(#clip-19)">
<path fill="none" stroke-width="0.3985" stroke-linecap="butt" stroke-linejoin="miter" stroke="rgb(0%, 0%, 0%)" stroke-opacity="1" stroke-miterlimit="10" d="M 49.607942 0.0000114149 L 92.127237 73.646061 " transform="matrix(0.992288, 0, 0, -0.992288, 9.008987, 75.16798)"/>
</g>
<g clip-path="url(#clip-20)">
<path fill="none" stroke-width="0.3985" stroke-linecap="butt" stroke-linejoin="miter" stroke="rgb(0%, 0%, 0%)" stroke-opacity="1" stroke-miterlimit="10" d="M 63.779728 0.0000114149 L 21.260432 73.646061 " transform="matrix(0.992288, 0, 0, -0.992288, 9.008987, 75.16798)"/>
</g>
<g clip-path="url(#clip-21)">
<path fill="none" stroke-width="0.3985" stroke-linecap="butt" stroke-linejoin="miter" stroke="rgb(0%, 0%, 0%)" stroke-opacity="1" stroke-miterlimit="10" d="M 63.779728 0.0000114149 L 106.299023 73.646061 " transform="matrix(0.992288, 0, 0, -0.992288, 9.008987, 75.16798)"/>
</g>
<g clip-path="url(#clip-22)">
<path fill="none" stroke-width="0.3985" stroke-linecap="butt" stroke-linejoin="miter" stroke="rgb(0%, 0%, 0%)" stroke-opacity="1" stroke-miterlimit="10" d="M 77.955451 0.0000114149 L 35.432219 73.646061 " transform="matrix(0.992288, 0, 0, -0.992288, 9.008987, 75.16798)"/>
</g>
<g clip-path="url(#clip-23)">
<path fill="none" stroke-width="0.3985" stroke-linecap="butt" stroke-linejoin="miter" stroke="rgb(0%, 0%, 0%)" stroke-opacity="1" stroke-miterlimit="10" d="M 77.955451 0.0000114149 L 120.474746 73.646061 " transform="matrix(0.992288, 0, 0, -0.992288, 9.008987, 75.16798)"/>
</g>
<g clip-path="url(#clip-24)">
<path fill="none" stroke-width="0.3985" stroke-linecap="butt" stroke-linejoin="miter" stroke="rgb(0%, 0%, 0%)" stroke-opacity="1" stroke-miterlimit="10" d="M 92.127237 0.0000114149 L 49.607942 73.646061 " transform="matrix(0.992288, 0, 0, -0.992288, 9.008987, 75.16798)"/>
</g>
<g clip-path="url(#clip-25)">
<path fill="none" stroke-width="0.3985" stroke-linecap="butt" stroke-linejoin="miter" stroke="rgb(0%, 0%, 0%)" stroke-opacity="1" stroke-miterlimit="10" d="M 92.127237 0.0000114149 L 134.646532 73.646061 " transform="matrix(0.992288, 0, 0, -0.992288, 9.008987, 75.16798)"/>
</g>
<g clip-path="url(#clip-26)">
<path fill="none" stroke-width="0.3985" stroke-linecap="butt" stroke-linejoin="miter" stroke="rgb(0%, 0%, 0%)" stroke-opacity="1" stroke-miterlimit="10" d="M 106.299023 0.0000114149 L 63.779728 73.646061 " transform="matrix(0.992288, 0, 0, -0.992288, 9.008987, 75.16798)"/>
</g>
<g clip-path="url(#clip-27)">
<path fill="none" stroke-width="0.3985" stroke-linecap="butt" stroke-linejoin="miter" stroke="rgb(0%, 0%, 0%)" stroke-opacity="1" stroke-miterlimit="10" d="M 120.474746 0.0000114149 L 77.955451 73.646061 " transform="matrix(0.992288, 0, 0, -0.992288, 9.008987, 75.16798)"/>
</g>
<g clip-path="url(#clip-28)">
<path fill="none" stroke-width="0.3985" stroke-linecap="butt" stroke-linejoin="miter" stroke="rgb(0%, 0%, 0%)" stroke-opacity="1" stroke-miterlimit="10" d="M 134.646532 0.0000114149 L 92.127237 73.646061 " transform="matrix(0.992288, 0, 0, -0.992288, 9.008987, 75.16798)"/>
</g>
</svg>
