<?xml version="1.0" encoding="UTF-8"?>
<svg xmlns="http://www.w3.org/2000/svg" xmlns:xlink="http://www.w3.org/1999/xlink" width="200.627pt" height="169.94pt" viewBox="0 0 200.627 169.94">
<defs>
<g>
<g id="glyph-0-0">
<path d="M 3.953125 -6.921875 C 3.90625 -7.046875 3.890625 -7.109375 3.734375 -7.109375 C 3.5625 -7.109375 3.53125 -7.0625 3.484375 -6.921875 L 1.4375 -0.96875 C 1.25 -0.46875 0.859375 -0.3125 0.3125 -0.3125 L 0.3125 0 C 0.546875 -0.015625 0.96875 -0.03125 1.328125 -0.03125 C 1.640625 -0.03125 2.15625 -0.015625 2.46875 0 L 2.46875 -0.3125 C 1.984375 -0.3125 1.734375 -0.5625 1.734375 -0.8125 C 1.734375 -0.84375 1.734375 -0.9375 1.75 -0.96875 L 2.203125 -2.265625 L 4.65625 -2.265625 L 5.1875 -0.75 C 5.203125 -0.703125 5.21875 -0.640625 5.21875 -0.609375 C 5.21875 -0.3125 4.65625 -0.3125 4.390625 -0.3125 L 4.390625 0 C 4.75 -0.03125 5.453125 -0.03125 5.828125 -0.03125 C 6.25 -0.03125 6.703125 -0.015625 7.125 0 L 7.125 -0.3125 L 6.953125 -0.3125 C 6.34375 -0.3125 6.21875 -0.375 6.109375 -0.703125 Z M 3.421875 -5.796875 L 4.546875 -2.578125 L 2.3125 -2.578125 Z M 3.421875 -5.796875 "/>
</g>
<g id="glyph-0-1">
<path d="M 2.203125 -3.640625 L 2.203125 -6.078125 C 2.203125 -6.40625 2.21875 -6.484375 2.6875 -6.484375 L 3.921875 -6.484375 C 4.890625 -6.484375 5.234375 -5.640625 5.234375 -5.109375 C 5.234375 -4.46875 4.75 -3.640625 3.640625 -3.640625 Z M 4.546875 -3.546875 C 5.515625 -3.734375 6.203125 -4.375 6.203125 -5.109375 C 6.203125 -5.96875 5.28125 -6.78125 4 -6.78125 L 0.359375 -6.78125 L 0.359375 -6.484375 L 0.59375 -6.484375 C 1.359375 -6.484375 1.375 -6.375 1.375 -6.015625 L 1.375 -0.78125 C 1.375 -0.421875 1.359375 -0.3125 0.59375 -0.3125 L 0.359375 -0.3125 L 0.359375 0 L 4.25 0 C 5.578125 0 6.46875 -0.890625 6.46875 -1.8125 C 6.46875 -2.6875 5.65625 -3.421875 4.546875 -3.546875 Z M 3.9375 -0.3125 L 2.6875 -0.3125 C 2.21875 -0.3125 2.203125 -0.375 2.203125 -0.703125 L 2.203125 -3.421875 L 4.078125 -3.421875 C 5.0625 -3.421875 5.46875 -2.5 5.46875 -1.828125 C 5.46875 -1.125 4.953125 -0.3125 3.9375 -0.3125 Z M 3.9375 -0.3125 "/>
</g>
<g id="glyph-0-2">
<path d="M 0.5625 -3.40625 C 0.5625 -1.34375 2.171875 0.21875 4.015625 0.21875 C 5.640625 0.21875 6.609375 -1.15625 6.609375 -2.3125 C 6.609375 -2.421875 6.609375 -2.484375 6.484375 -2.484375 C 6.375 -2.484375 6.375 -2.421875 6.359375 -2.328125 C 6.28125 -0.90625 5.21875 -0.09375 4.140625 -0.09375 C 3.53125 -0.09375 1.578125 -0.421875 1.578125 -3.390625 C 1.578125 -6.359375 3.515625 -6.703125 4.125 -6.703125 C 5.203125 -6.703125 6.09375 -5.796875 6.296875 -4.34375 C 6.3125 -4.203125 6.3125 -4.171875 6.453125 -4.171875 C 6.609375 -4.171875 6.609375 -4.203125 6.609375 -4.40625 L 6.609375 -6.765625 C 6.609375 -6.9375 6.609375 -7 6.5 -7 C 6.453125 -7 6.421875 -7 6.34375 -6.890625 L 5.84375 -6.15625 C 5.46875 -6.515625 4.96875 -7 4.015625 -7 C 2.15625 -7 0.5625 -5.421875 0.5625 -3.40625 Z M 0.5625 -3.40625 "/>
</g>
<g id="glyph-0-3">
<path d="M 0.34375 -6.78125 L 0.34375 -6.484375 L 0.59375 -6.484375 C 1.34375 -6.484375 1.375 -6.375 1.375 -6.015625 L 1.375 -0.78125 C 1.375 -0.421875 1.34375 -0.3125 0.59375 -0.3125 L 0.34375 -0.3125 L 0.34375 0 L 3.984375 0 C 5.65625 0 7.03125 -1.46875 7.03125 -3.34375 C 7.03125 -5.234375 5.6875 -6.78125 3.984375 -6.78125 Z M 2.71875 -0.3125 C 2.25 -0.3125 2.21875 -0.375 2.21875 -0.703125 L 2.21875 -6.078125 C 2.21875 -6.40625 2.25 -6.484375 2.71875 -6.484375 L 3.703125 -6.484375 C 4.328125 -6.484375 5.015625 -6.265625 5.515625 -5.5625 C 5.9375 -4.96875 6.03125 -4.109375 6.03125 -3.34375 C 6.03125 -2.234375 5.84375 -1.640625 5.484375 -1.15625 C 5.28125 -0.890625 4.71875 -0.3125 3.71875 -0.3125 Z M 2.71875 -0.3125 "/>
</g>
<g id="glyph-1-0">
<path d="M 3.015625 -3.140625 L 4.703125 -3.140625 C 6.109375 -3.140625 7.5 -4.171875 7.5 -5.28125 C 7.5 -6.046875 6.84375 -6.78125 5.53125 -6.78125 L 2.3125 -6.78125 C 2.125 -6.78125 2.015625 -6.78125 2.015625 -6.59375 C 2.015625 -6.484375 2.109375 -6.484375 2.3125 -6.484375 C 2.4375 -6.484375 2.609375 -6.46875 2.734375 -6.453125 C 2.890625 -6.4375 2.953125 -6.40625 2.953125 -6.296875 C 2.953125 -6.265625 2.9375 -6.234375 2.90625 -6.109375 L 1.578125 -0.78125 C 1.484375 -0.390625 1.453125 -0.3125 0.671875 -0.3125 C 0.5 -0.3125 0.390625 -0.3125 0.390625 -0.125 C 0.390625 0 0.515625 0 0.546875 0 C 0.828125 0 1.53125 -0.03125 1.8125 -0.03125 C 2.015625 -0.03125 2.234375 -0.015625 2.4375 -0.015625 C 2.65625 -0.015625 2.875 0 3.09375 0 C 3.15625 0 3.296875 0 3.296875 -0.203125 C 3.296875 -0.3125 3.203125 -0.3125 3.015625 -0.3125 C 2.640625 -0.3125 2.359375 -0.3125 2.359375 -0.484375 C 2.359375 -0.546875 2.390625 -0.59375 2.390625 -0.65625 Z M 3.734375 -6.109375 C 3.8125 -6.453125 3.828125 -6.484375 4.265625 -6.484375 L 5.21875 -6.484375 C 6.046875 -6.484375 6.5625 -6.21875 6.5625 -5.53125 C 6.5625 -5.140625 6.375 -4.28125 5.984375 -3.921875 C 5.484375 -3.484375 4.890625 -3.40625 4.453125 -3.40625 L 3.046875 -3.40625 Z M 3.734375 -6.109375 "/>
</g>
<g id="glyph-1-1">
<path d="M 4.734375 -2.34375 C 4.734375 -3.90625 3.8125 -4.390625 3.078125 -4.390625 C 1.71875 -4.390625 0.40625 -2.96875 0.40625 -1.5625 C 0.40625 -0.640625 1 0.109375 2.015625 0.109375 C 2.640625 0.109375 3.359375 -0.125 4.109375 -0.71875 C 4.25 -0.203125 4.578125 0.109375 5.015625 0.109375 C 5.546875 0.109375 5.859375 -0.4375 5.859375 -0.59375 C 5.859375 -0.671875 5.796875 -0.703125 5.734375 -0.703125 C 5.671875 -0.703125 5.640625 -0.671875 5.609375 -0.59375 C 5.421875 -0.109375 5.0625 -0.109375 5.046875 -0.109375 C 4.734375 -0.109375 4.734375 -0.890625 4.734375 -1.125 C 4.734375 -1.328125 4.734375 -1.34375 4.84375 -1.46875 C 5.78125 -2.640625 5.984375 -3.796875 5.984375 -3.8125 C 5.984375 -3.828125 5.96875 -3.90625 5.859375 -3.90625 C 5.765625 -3.90625 5.765625 -3.875 5.71875 -3.703125 C 5.53125 -3.078125 5.203125 -2.3125 4.734375 -1.734375 Z M 4.078125 -0.984375 C 3.203125 -0.21875 2.4375 -0.109375 2.03125 -0.109375 C 1.4375 -0.109375 1.140625 -0.5625 1.140625 -1.1875 C 1.140625 -1.671875 1.40625 -2.75 1.71875 -3.265625 C 2.1875 -3.984375 2.71875 -4.171875 3.078125 -4.171875 C 4.046875 -4.171875 4.046875 -2.875 4.046875 -2.09375 C 4.046875 -1.734375 4.046875 -1.15625 4.078125 -0.984375 Z M 4.078125 -0.984375 "/>
</g>
<g id="glyph-1-2">
<path d="M 3.3125 -3 C 3.375 -3.265625 3.609375 -4.171875 4.296875 -4.171875 C 4.359375 -4.171875 4.59375 -4.171875 4.796875 -4.046875 C 4.515625 -4 4.328125 -3.75 4.328125 -3.515625 C 4.328125 -3.34375 4.4375 -3.15625 4.703125 -3.15625 C 4.921875 -3.15625 5.234375 -3.34375 5.234375 -3.734375 C 5.234375 -4.25 4.65625 -4.390625 4.3125 -4.390625 C 3.734375 -4.390625 3.390625 -3.859375 3.265625 -3.640625 C 3.015625 -4.296875 2.484375 -4.390625 2.203125 -4.390625 C 1.15625 -4.390625 0.59375 -3.109375 0.59375 -2.859375 C 0.59375 -2.765625 0.703125 -2.765625 0.71875 -2.765625 C 0.796875 -2.765625 0.828125 -2.78125 0.84375 -2.875 C 1.1875 -3.921875 1.84375 -4.171875 2.171875 -4.171875 C 2.359375 -4.171875 2.71875 -4.078125 2.71875 -3.515625 C 2.71875 -3.203125 2.546875 -2.53125 2.171875 -1.140625 C 2.015625 -0.53125 1.671875 -0.109375 1.234375 -0.109375 C 1.171875 -0.109375 0.9375 -0.109375 0.734375 -0.234375 C 0.984375 -0.28125 1.203125 -0.5 1.203125 -0.78125 C 1.203125 -1.046875 0.984375 -1.125 0.828125 -1.125 C 0.53125 -1.125 0.28125 -0.859375 0.28125 -0.546875 C 0.28125 -0.09375 0.78125 0.109375 1.21875 0.109375 C 1.875 0.109375 2.234375 -0.59375 2.265625 -0.640625 C 2.390625 -0.28125 2.75 0.109375 3.34375 0.109375 C 4.359375 0.109375 4.921875 -1.171875 4.921875 -1.421875 C 4.921875 -1.515625 4.84375 -1.515625 4.8125 -1.515625 C 4.71875 -1.515625 4.703125 -1.484375 4.6875 -1.40625 C 4.359375 -0.34375 3.671875 -0.109375 3.359375 -0.109375 C 2.96875 -0.109375 2.8125 -0.421875 2.8125 -0.765625 C 2.8125 -0.984375 2.875 -1.203125 2.984375 -1.640625 Z M 3.3125 -3 "/>
</g>
<g id="glyph-1-3">
<path d="M 4.828125 -3.78125 C 4.875 -3.921875 4.875 -3.9375 4.875 -4.015625 C 4.875 -4.1875 4.734375 -4.28125 4.578125 -4.28125 C 4.484375 -4.28125 4.328125 -4.21875 4.234375 -4.078125 C 4.21875 -4.03125 4.140625 -3.71875 4.09375 -3.53125 C 4.03125 -3.28125 3.953125 -3.015625 3.890625 -2.75 L 3.453125 -0.953125 C 3.40625 -0.8125 2.984375 -0.109375 2.328125 -0.109375 C 1.8125 -0.109375 1.703125 -0.546875 1.703125 -0.921875 C 1.703125 -1.375 1.875 -1.984375 2.21875 -2.859375 C 2.375 -3.265625 2.421875 -3.375 2.421875 -3.578125 C 2.421875 -4.03125 2.09375 -4.390625 1.59375 -4.390625 C 0.65625 -4.390625 0.28125 -2.953125 0.28125 -2.859375 C 0.28125 -2.765625 0.390625 -2.765625 0.40625 -2.765625 C 0.5 -2.765625 0.515625 -2.78125 0.5625 -2.9375 C 0.828125 -3.875 1.234375 -4.171875 1.5625 -4.171875 C 1.65625 -4.171875 1.8125 -4.171875 1.8125 -3.859375 C 1.8125 -3.609375 1.71875 -3.34375 1.65625 -3.15625 C 1.25 -2.109375 1.078125 -1.546875 1.078125 -1.078125 C 1.078125 -0.1875 1.703125 0.109375 2.28125 0.109375 C 2.671875 0.109375 3.015625 -0.0625 3.296875 -0.34375 C 3.15625 0.171875 3.046875 0.671875 2.640625 1.1875 C 2.390625 1.53125 2 1.8125 1.546875 1.8125 C 1.40625 1.8125 0.96875 1.78125 0.796875 1.40625 C 0.953125 1.40625 1.078125 1.40625 1.21875 1.28125 C 1.328125 1.1875 1.421875 1.0625 1.421875 0.875 C 1.421875 0.5625 1.15625 0.53125 1.046875 0.53125 C 0.828125 0.53125 0.5 0.6875 0.5 1.171875 C 0.5 1.671875 0.9375 2.03125 1.546875 2.03125 C 2.578125 2.03125 3.59375 1.140625 3.875 0.015625 Z M 4.828125 -3.78125 "/>
</g>
<g id="glyph-2-0">
<path d="M 6.546875 -2.28125 C 6.71875 -2.28125 6.890625 -2.28125 6.890625 -2.484375 C 6.890625 -2.6875 6.71875 -2.6875 6.546875 -2.6875 L 1.171875 -2.6875 C 1 -2.6875 0.828125 -2.6875 0.828125 -2.484375 C 0.828125 -2.28125 1 -2.28125 1.171875 -2.28125 Z M 6.546875 -2.28125 "/>
</g>
<g id="glyph-3-0">
<path d="M 2.15625 -2.53125 L 2.984375 -2.53125 C 2.890625 -2.109375 2.734375 -1.46875 2.734375 -0.921875 C 2.734375 -0.640625 2.765625 -0.453125 2.8125 -0.3125 C 2.921875 0.046875 3.015625 0.0625 3.125 0.0625 C 3.28125 0.0625 3.453125 -0.078125 3.453125 -0.25 C 3.453125 -0.296875 3.4375 -0.328125 3.390625 -0.390625 C 3.265625 -0.65625 3.140625 -1.046875 3.140625 -1.625 C 3.140625 -1.75 3.140625 -2.03125 3.234375 -2.53125 L 4.109375 -2.53125 C 4.234375 -2.53125 4.28125 -2.53125 4.359375 -2.578125 C 4.453125 -2.65625 4.484375 -2.765625 4.484375 -2.796875 C 4.484375 -3 4.296875 -3 4.171875 -3 L 1.5625 -3 C 1.265625 -3 1.078125 -2.9375 0.765625 -2.640625 C 0.578125 -2.484375 0.3125 -2.109375 0.3125 -2.046875 C 0.3125 -1.953125 0.40625 -1.953125 0.4375 -1.953125 C 0.5 -1.953125 0.515625 -1.96875 0.5625 -2.03125 C 0.90625 -2.53125 1.34375 -2.53125 1.5 -2.53125 L 1.921875 -2.53125 C 1.703125 -1.765625 1.328125 -0.9375 1.125 -0.515625 C 1.078125 -0.4375 1.015625 -0.28125 0.984375 -0.25 C 0.984375 -0.234375 0.96875 -0.203125 0.96875 -0.15625 C 0.96875 -0.046875 1.046875 0.0625 1.203125 0.0625 C 1.484375 0.0625 1.5625 -0.25 1.734375 -0.875 Z M 2.15625 -2.53125 "/>
</g>
<g id="glyph-4-0">
<path d="M 3.515625 -1.265625 L 3.28125 -1.265625 C 3.25 -1.109375 3.1875 -0.703125 3.09375 -0.625 C 3.03125 -0.59375 2.5 -0.59375 2.40625 -0.59375 L 1.125 -0.59375 C 1.859375 -1.234375 2.09375 -1.4375 2.515625 -1.765625 C 3.03125 -2.171875 3.515625 -2.59375 3.515625 -3.265625 C 3.515625 -4.109375 2.78125 -4.609375 1.890625 -4.609375 C 1.015625 -4.609375 0.4375 -4.015625 0.4375 -3.375 C 0.4375 -3.015625 0.734375 -2.984375 0.8125 -2.984375 C 0.96875 -2.984375 1.171875 -3.09375 1.171875 -3.34375 C 1.171875 -3.484375 1.125 -3.71875 0.765625 -3.71875 C 0.984375 -4.21875 1.453125 -4.359375 1.78125 -4.359375 C 2.46875 -4.359375 2.84375 -3.828125 2.84375 -3.265625 C 2.84375 -2.65625 2.40625 -2.171875 2.1875 -1.921875 L 0.5 -0.265625 C 0.4375 -0.203125 0.4375 -0.1875 0.4375 0 L 3.296875 0 Z M 3.515625 -1.265625 "/>
</g>
</g>
</defs>
<path fill="none" stroke-width="0.3985" stroke-linecap="butt" stroke-linejoin="miter" stroke="rgb(0%, 0%, 0%)" stroke-opacity="1" stroke-miterlimit="10" d="M -16.437411 34.582299 L 175.833453 34.582299 " transform="matrix(0.998144, 0, 0, -0.998144, 16.606126, 167.635311)"/>
<path fill-rule="nonzero" fill="rgb(0%, 0%, 0%)" fill-opacity="1" d="M 194.101562 133.117188 L 190.917969 131.527344 L 192.113281 133.117188 L 190.917969 134.707031 "/>
<path fill="none" stroke-width="0.3985" stroke-linecap="butt" stroke-linejoin="miter" stroke="rgb(0%, 0%, 0%)" stroke-opacity="1" stroke-miterlimit="10" d="M 34.58305 -0.00141036 L 34.58305 159.395949 " transform="matrix(0.998144, 0, 0, -0.998144, 16.606126, 167.635311)"/>
<path fill-rule="nonzero" fill="rgb(0%, 0%, 0%)" fill-opacity="1" d="M 51.125 6.546875 L 49.535156 9.730469 L 51.125 8.535156 L 52.714844 9.730469 "/>
<path fill="none" stroke-width="0.3985" stroke-linecap="butt" stroke-linejoin="miter" stroke="rgb(0%, 0%, 0%)" stroke-opacity="1" stroke-miterlimit="10" d="M 11.528549 11.527797 L 11.528549 149.85872 L 149.859471 149.85872 L 149.859471 11.527797 Z M 11.528549 11.527797 " transform="matrix(0.998144, 0, 0, -0.998144, 16.606126, 167.635311)"/>
<path fill="none" stroke-width="0.3985" stroke-linecap="butt" stroke-linejoin="miter" stroke="rgb(0%, 0%, 0%)" stroke-opacity="1" stroke-dasharray="2.98883 2.98883" stroke-miterlimit="10" d="M 34.58305 34.582299 L 34.58305 126.804218 L 126.80497 126.804218 L 126.80497 34.582299 Z M 34.58305 34.582299 " transform="matrix(0.998144, 0, 0, -0.998144, 16.606126, 167.635311)"/>
<path fill="none" stroke-width="0.3985" stroke-linecap="butt" stroke-linejoin="miter" stroke="rgb(0%, 0%, 0%)" stroke-opacity="1" stroke-dasharray="2.98883 2.98883" stroke-miterlimit="10" d="M 11.528549 34.582299 L 149.859471 34.582299 " transform="matrix(0.998144, 0, 0, -0.998144, 16.606126, 167.635311)"/>
<path fill="none" stroke-width="0.3985" stroke-linecap="butt" stroke-linejoin="miter" stroke="rgb(0%, 0%, 0%)" stroke-opacity="1" stroke-miterlimit="10" d="M 57.637552 34.582299 C 57.637552 47.316868 47.317619 57.6368 34.58305 57.6368 C 21.848481 57.6368 11.528549 47.316868 11.528549 34.582299 C 11.528549 21.851643 21.848481 11.527797 34.58305 11.527797 C 47.317619 11.527797 57.637552 21.851643 57.637552 34.582299 Z M 57.637552 34.582299 " transform="matrix(0.998144, 0, 0, -0.998144, 16.606126, 167.635311)"/>
<path fill="none" stroke-width="0.3985" stroke-linecap="butt" stroke-linejoin="miter" stroke="rgb(0%, 0%, 0%)" stroke-opacity="1" stroke-miterlimit="10" d="M 149.859471 34.582299 C 149.859471 47.316868 139.535625 57.6368 126.80497 57.6368 C 114.0704 57.6368 103.750468 47.316868 103.750468 34.582299 C 103.750468 21.851643 114.0704 11.527797 126.80497 11.527797 C 139.535625 11.527797 149.859471 21.851643 149.859471 34.582299 Z M 149.859471 34.582299 " transform="matrix(0.998144, 0, 0, -0.998144, 16.606126, 167.635311)"/>
<path fill="none" stroke-width="0.3985" stroke-linecap="butt" stroke-linejoin="miter" stroke="rgb(0%, 0%, 0%)" stroke-opacity="1" stroke-miterlimit="10" d="M 57.637552 126.804218 C 57.637552 139.538787 47.317619 149.85872 34.58305 149.85872 C 21.848481 149.85872 11.528549 139.538787 11.528549 126.804218 C 11.528549 114.069649 21.848481 103.749717 34.58305 103.749717 C 47.317619 103.749717 57.637552 114.069649 57.637552 126.804218 Z M 57.637552 126.804218 " transform="matrix(0.998144, 0, 0, -0.998144, 16.606126, 167.635311)"/>
<path fill="none" stroke-width="0.3985" stroke-linecap="butt" stroke-linejoin="miter" stroke="rgb(0%, 0%, 0%)" stroke-opacity="1" stroke-miterlimit="10" d="M 149.859471 126.804218 C 149.859471 139.538787 139.535625 149.85872 126.80497 149.85872 C 114.0704 149.85872 103.750468 139.538787 103.750468 126.804218 C 103.750468 114.069649 114.0704 103.749717 126.80497 103.749717 C 139.535625 103.749717 149.859471 114.069649 149.859471 126.804218 Z M 149.859471 126.804218 " transform="matrix(0.998144, 0, 0, -0.998144, 16.606126, 167.635311)"/>
<g fill="rgb(0%, 0%, 0%)" fill-opacity="1">
<use xlink:href="#glyph-0-0" x="17.140134" y="166.437538"/>
</g>
<g fill="rgb(0%, 0%, 0%)" fill-opacity="1">
<use xlink:href="#glyph-0-1" x="169.698501" y="166.437538"/>
</g>
<g fill="rgb(0%, 0%, 0%)" fill-opacity="1">
<use xlink:href="#glyph-0-2" x="169.698501" y="21.454087"/>
</g>
<g fill="rgb(0%, 0%, 0%)" fill-opacity="1">
<use xlink:href="#glyph-0-3" x="17.00239" y="21.454087"/>
</g>
<path fill="none" stroke-width="0.3985" stroke-linecap="butt" stroke-linejoin="miter" stroke="rgb(0%, 0%, 0%)" stroke-opacity="1" stroke-miterlimit="10" d="M 34.58305 34.582299 L 50.882829 50.882078 " transform="matrix(0.998144, 0, 0, -0.998144, 16.606126, 167.635311)"/>
<path fill-rule="nonzero" fill="rgb(0%, 0%, 0%)" fill-opacity="1" d="M 69.003906 116.847656 C 69.003906 115.957031 68.285156 115.234375 67.394531 115.234375 C 66.503906 115.234375 65.785156 115.957031 65.785156 116.847656 C 65.785156 117.734375 66.503906 118.457031 67.394531 118.457031 C 68.285156 118.457031 69.003906 117.734375 69.003906 116.847656 Z M 69.003906 116.847656 "/>
<g fill="rgb(0%, 0%, 0%)" fill-opacity="1">
<use xlink:href="#glyph-1-0" x="70.907171" y="113.334266"/>
</g>
<path fill="none" stroke-width="0.3985" stroke-linecap="butt" stroke-linejoin="miter" stroke="rgb(0%, 0%, 0%)" stroke-opacity="1" stroke-miterlimit="10" d="M 46.112258 53.026683 C 42.507913 56.627114 36.668952 56.627114 35.659266 55.617428 " transform="matrix(0.998144, 0, 0, -0.998144, 16.606126, 167.635311)"/>
<path fill-rule="nonzero" fill="rgb(0%, 0%, 0%)" fill-opacity="1" stroke-width="0.3985" stroke-linecap="butt" stroke-linejoin="miter" stroke="rgb(0%, 0%, 0%)" stroke-opacity="1" stroke-miterlimit="10" d="M 5.099776 0.000345311 L 0.644427 1.677328 L 2.10556 0.000345311 L 0.641659 -1.679404 Z M 5.099776 0.000345311 " transform="matrix(-0.705788, 0.705788, 0.705788, 0.705788, 53.614741, 110.705084)"/>
<path fill="none" stroke-width="0.3985" stroke-linecap="butt" stroke-linejoin="miter" stroke="rgb(0%, 0%, 0%)" stroke-opacity="1" stroke-miterlimit="10" d="M 126.80497 34.582299 L 143.104749 18.28252 " transform="matrix(0.998144, 0, 0, -0.998144, 16.606126, 167.635311)"/>
<path fill-rule="nonzero" fill="rgb(0%, 0%, 0%)" fill-opacity="1" d="M 161.054688 149.386719 C 161.054688 148.496094 160.335938 147.777344 159.445312 147.777344 C 158.554688 147.777344 157.835938 148.496094 157.835938 149.386719 C 157.835938 150.277344 158.554688 150.996094 159.445312 150.996094 C 160.335938 150.996094 161.054688 150.277344 161.054688 149.386719 Z M 161.054688 149.386719 "/>
<g fill="rgb(0%, 0%, 0%)" fill-opacity="1">
<use xlink:href="#glyph-1-0" x="148.164537" y="152.78492"/>
</g>
<path fill="none" stroke-width="0.3985" stroke-linecap="butt" stroke-linejoin="miter" stroke="rgb(0%, 0%, 0%)" stroke-opacity="1" stroke-miterlimit="10" d="M 126.80497 126.804218 L 110.50519 110.504439 " transform="matrix(0.998144, 0, 0, -0.998144, 16.606126, 167.635311)"/>
<path fill-rule="nonzero" fill="rgb(0%, 0%, 0%)" fill-opacity="1" d="M 128.515625 57.335938 C 128.515625 56.445312 127.792969 55.726562 126.90625 55.726562 C 126.015625 55.726562 125.292969 56.445312 125.292969 57.335938 C 125.292969 58.226562 126.015625 58.945312 126.90625 58.945312 C 127.792969 58.945312 128.515625 58.226562 128.515625 57.335938 Z M 128.515625 57.335938 "/>
<g fill="rgb(0%, 0%, 0%)" fill-opacity="1">
<use xlink:href="#glyph-1-0" x="123.021282" y="67.646208"/>
</g>
<path fill="none" stroke-width="0.3985" stroke-linecap="butt" stroke-linejoin="miter" stroke="rgb(0%, 0%, 0%)" stroke-opacity="1" stroke-miterlimit="10" d="M 34.58305 126.804218 L 18.283271 143.103997 " transform="matrix(0.998144, 0, 0, -0.998144, 16.606126, 167.635311)"/>
<path fill-rule="nonzero" fill="rgb(0%, 0%, 0%)" fill-opacity="1" d="M 36.464844 24.796875 C 36.464844 23.90625 35.746094 23.1875 34.855469 23.1875 C 33.964844 23.1875 33.246094 23.90625 33.246094 24.796875 C 33.246094 25.6875 33.964844 26.40625 34.855469 26.40625 C 35.746094 26.40625 36.464844 25.6875 36.464844 24.796875 Z M 36.464844 24.796875 "/>
<g fill="rgb(0%, 0%, 0%)" fill-opacity="1">
<use xlink:href="#glyph-1-0" x="30.971419" y="35.106704"/>
</g>
<path fill="none" stroke-width="0.3985" stroke-linecap="butt" stroke-linejoin="miter" stroke="rgb(0%, 0%, 0%)" stroke-opacity="1" stroke-miterlimit="10" d="M 40.25373 34.582299 C 40.25373 36.085087 39.654962 37.529173 38.590487 38.593649 " transform="matrix(0.998144, 0, 0, -0.998144, 16.606126, 167.635311)"/>
<g fill="rgb(0%, 0%, 0%)" fill-opacity="1">
<use xlink:href="#glyph-1-1" x="58.380461" y="130.927557"/>
</g>
<path fill="none" stroke-width="0.3985" stroke-linecap="butt" stroke-linejoin="miter" stroke="rgb(0%, 0%, 0%)" stroke-opacity="1" stroke-miterlimit="10" d="M 130.812406 30.574862 C 131.876882 31.635424 132.471736 33.07951 132.471736 34.582299 " transform="matrix(0.998144, 0, 0, -0.998144, 16.606126, 167.635311)"/>
<g fill="rgb(0%, 0%, 0%)" fill-opacity="1">
<use xlink:href="#glyph-1-1" x="156.393238" y="145.686118"/>
</g>
<g fill="rgb(0%, 0%, 0%)" fill-opacity="1">
<use xlink:href="#glyph-2-0" x="165.001856" y="145.686118"/>
</g>
<g fill="rgb(0%, 0%, 0%)" fill-opacity="1">
<use xlink:href="#glyph-3-0" x="176.138528" y="141.770398"/>
</g>
<path fill="none" stroke-width="0.398" stroke-linecap="butt" stroke-linejoin="miter" stroke="rgb(0%, 0%, 0%)" stroke-opacity="1" stroke-miterlimit="10" d="M -0.00181288 0.000523146 L 4.909645 0.000523146 " transform="matrix(0.998144, 0, 0, -0.998144, 176.138528, 143.199741)"/>
<g fill="rgb(0%, 0%, 0%)" fill-opacity="1">
<use xlink:href="#glyph-4-0" x="176.606658" y="149.114744"/>
</g>
<g fill="rgb(0%, 0%, 0%)" fill-opacity="1">
<use xlink:href="#glyph-3-0" x="140.723371" y="139.627383"/>
</g>
<path fill="none" stroke-width="0.398" stroke-linecap="butt" stroke-linejoin="miter" stroke="rgb(0%, 0%, 0%)" stroke-opacity="1" stroke-miterlimit="10" d="M -0.000716198 -0.00187206 L 4.910742 -0.00187206 " transform="matrix(0.998144, 0, 0, -0.998144, 140.723371, 141.056725)"/>
<g fill="rgb(0%, 0%, 0%)" fill-opacity="1">
<use xlink:href="#glyph-4-0" x="141.191501" y="146.971728"/>
</g>
<g fill="rgb(0%, 0%, 0%)" fill-opacity="1">
<use xlink:href="#glyph-1-2" x="191.256422" y="140.911994"/>
</g>
<g fill="rgb(0%, 0%, 0%)" fill-opacity="1">
<use xlink:href="#glyph-1-3" x="42.37921" y="7.723614"/>
</g>
</svg>
