<?xml version="1.0" encoding="UTF-8"?>
<svg xmlns="http://www.w3.org/2000/svg" xmlns:xlink="http://www.w3.org/1999/xlink" width="97.334pt" height="80.896pt" viewBox="0 0 97.334 80.896">
<defs>
<g>
<g id="glyph-0-0">
<path d="M 1.65625 -1.5 C 1.6875 -1.625 1.796875 -2.078125 2.140625 -2.078125 C 2.171875 -2.078125 2.28125 -2.078125 2.390625 -2.015625 C 2.25 -1.984375 2.15625 -1.875 2.15625 -1.75 C 2.15625 -1.671875 2.203125 -1.578125 2.34375 -1.578125 C 2.453125 -1.578125 2.609375 -1.671875 2.609375 -1.859375 C 2.609375 -2.125 2.3125 -2.1875 2.15625 -2.1875 C 1.859375 -2.1875 1.6875 -1.921875 1.625 -1.8125 C 1.5 -2.140625 1.234375 -2.1875 1.09375 -2.1875 C 0.578125 -2.1875 0.296875 -1.546875 0.296875 -1.421875 C 0.296875 -1.375 0.34375 -1.375 0.359375 -1.375 C 0.390625 -1.375 0.40625 -1.390625 0.421875 -1.4375 C 0.59375 -1.953125 0.921875 -2.078125 1.078125 -2.078125 C 1.171875 -2.078125 1.359375 -2.03125 1.359375 -1.75 C 1.359375 -1.59375 1.265625 -1.265625 1.078125 -0.5625 C 1 -0.265625 0.828125 -0.046875 0.609375 -0.046875 C 0.578125 -0.046875 0.46875 -0.046875 0.359375 -0.125 C 0.484375 -0.140625 0.59375 -0.25 0.59375 -0.390625 C 0.59375 -0.515625 0.484375 -0.5625 0.421875 -0.5625 C 0.265625 -0.5625 0.140625 -0.4375 0.140625 -0.265625 C 0.140625 -0.046875 0.390625 0.046875 0.609375 0.046875 C 0.9375 0.046875 1.109375 -0.296875 1.125 -0.328125 C 1.1875 -0.140625 1.359375 0.046875 1.671875 0.046875 C 2.171875 0.046875 2.453125 -0.578125 2.453125 -0.703125 C 2.453125 -0.765625 2.40625 -0.765625 2.390625 -0.765625 C 2.359375 -0.765625 2.34375 -0.734375 2.328125 -0.703125 C 2.171875 -0.171875 1.828125 -0.046875 1.671875 -0.046875 C 1.484375 -0.046875 1.40625 -0.21875 1.40625 -0.375 C 1.40625 -0.484375 1.4375 -0.59375 1.484375 -0.8125 Z M 1.65625 -1.5 "/>
</g>
<g id="glyph-0-1">
<path d="M 2.40625 -1.890625 C 2.421875 -1.953125 2.421875 -1.96875 2.421875 -2 C 2.421875 -2.09375 2.359375 -2.140625 2.28125 -2.140625 C 2.234375 -2.140625 2.15625 -2.109375 2.109375 -2.03125 C 2.09375 -2 2.0625 -1.859375 2.046875 -1.765625 C 2 -1.640625 1.96875 -1.5 1.9375 -1.359375 L 1.71875 -0.46875 C 1.703125 -0.40625 1.484375 -0.046875 1.15625 -0.046875 C 0.90625 -0.046875 0.859375 -0.265625 0.859375 -0.453125 C 0.859375 -0.6875 0.9375 -0.984375 1.109375 -1.421875 C 1.1875 -1.625 1.203125 -1.6875 1.203125 -1.78125 C 1.203125 -2 1.046875 -2.1875 0.796875 -2.1875 C 0.328125 -2.1875 0.140625 -1.46875 0.140625 -1.421875 C 0.140625 -1.375 0.1875 -1.375 0.203125 -1.375 C 0.25 -1.375 0.25 -1.390625 0.28125 -1.46875 C 0.421875 -1.9375 0.609375 -2.078125 0.78125 -2.078125 C 0.828125 -2.078125 0.90625 -2.078125 0.90625 -1.921875 C 0.90625 -1.796875 0.859375 -1.671875 0.828125 -1.578125 C 0.625 -1.046875 0.53125 -0.765625 0.53125 -0.53125 C 0.53125 -0.09375 0.84375 0.046875 1.140625 0.046875 C 1.328125 0.046875 1.5 -0.03125 1.640625 -0.171875 C 1.578125 0.09375 1.515625 0.328125 1.3125 0.59375 C 1.1875 0.765625 1 0.90625 0.765625 0.90625 C 0.703125 0.90625 0.484375 0.890625 0.390625 0.703125 C 0.46875 0.703125 0.546875 0.703125 0.609375 0.640625 C 0.65625 0.59375 0.703125 0.53125 0.703125 0.4375 C 0.703125 0.28125 0.578125 0.265625 0.53125 0.265625 C 0.40625 0.265625 0.25 0.34375 0.25 0.578125 C 0.25 0.828125 0.46875 1.015625 0.765625 1.015625 C 1.28125 1.015625 1.796875 0.5625 1.9375 0 Z M 2.40625 -1.890625 "/>
</g>
</g>
<clipPath id="clip-0">
<path clip-rule="nonzero" d="M 94 39 L 96.671875 39 L 96.671875 42 L 94 42 Z M 94 39 "/>
</clipPath>
<clipPath id="clip-1">
<path clip-rule="nonzero" d="M 48 1 L 49 1 L 49 80.570312 L 48 80.570312 Z M 48 1 "/>
</clipPath>
<clipPath id="clip-2">
<path clip-rule="nonzero" d="M 47 0.222656 L 50 0.222656 L 50 2 L 47 2 Z M 47 0.222656 "/>
</clipPath>
<clipPath id="clip-3">
<path clip-rule="nonzero" d="M 0.0976562 0.320312 L 96.574219 0.320312 L 96.574219 80.46875 L 0.0976562 80.46875 Z M 0.0976562 0.320312 "/>
</clipPath>
</defs>
<path fill="none" stroke-width="0.3985" stroke-linecap="butt" stroke-linejoin="miter" stroke="rgb(0%, 0%, 0%)" stroke-opacity="1" stroke-miterlimit="10" d="M -0.00235109 115.284669 L 192.280953 115.284669 " transform="matrix(0.496602, 0, 0, -0.496602, 0.0988238, 97.645133)"/>
<g clip-path="url(#clip-0)">
<path fill-rule="nonzero" fill="rgb(0%, 0%, 0%)" fill-opacity="1" d="M 96.574219 40.394531 L 94.992188 39.605469 L 95.585938 40.394531 L 94.992188 41.1875 "/>
</g>
<g clip-path="url(#clip-1)">
<path fill="none" stroke-width="0.3985" stroke-linecap="butt" stroke-linejoin="miter" stroke="rgb(0%, 0%, 0%)" stroke-opacity="1" stroke-miterlimit="10" d="M 97.134344 34.587823 L 97.134344 193.991429 " transform="matrix(0.496602, 0, 0, -0.496602, 0.0988238, 97.645133)"/>
</g>
<g clip-path="url(#clip-2)">
<path fill-rule="nonzero" fill="rgb(0%, 0%, 0%)" fill-opacity="1" d="M 48.335938 0.320312 L 47.546875 1.902344 L 48.335938 1.308594 L 49.128906 1.902344 "/>
</g>
<g clip-path="url(#clip-3)">
<path fill="none" stroke-width="0.79701" stroke-linecap="butt" stroke-linejoin="miter" stroke="rgb(0%, 0%, 100%)" stroke-opacity="1" stroke-miterlimit="10" d="M -0.00235109 0.00121225 C -0.00235109 0.00121225 1.421387 4.988229 1.964138 6.844594 C 2.506889 8.708826 3.38001 11.627096 3.922761 13.412668 C 4.465512 15.19824 5.338633 18.006386 5.88925 19.713299 C 6.432001 21.428077 7.305122 24.110369 7.847873 25.746488 C 8.390624 27.390472 9.263746 29.954774 9.814362 31.5201 C 10.357113 33.093291 11.230235 35.547469 11.772986 37.042001 C 12.315737 38.544399 13.188858 40.888454 13.739475 42.312192 C 14.282226 43.743796 15.155347 45.985593 15.698098 47.346404 C 16.240849 48.707214 17.11397 50.838888 17.656721 52.136771 C 18.207338 53.434654 19.080459 55.464071 19.62321 56.699026 C 20.165961 57.933981 21.039082 59.869006 21.581833 61.041034 C 22.13245 62.213061 23.005571 64.045829 23.548322 65.154929 C 24.091073 66.271895 24.964195 68.002405 25.506946 69.064309 C 26.057562 70.118348 26.930684 71.762332 27.473435 72.753443 C 28.016186 73.752419 28.889307 75.309879 29.432058 76.245928 C 29.974809 77.189842 30.84793 78.660776 31.398547 79.549629 C 31.941298 80.430616 32.814419 81.815025 33.35717 82.648816 C 33.899921 83.490473 34.773042 84.788356 35.323659 85.574952 C 35.86641 86.353682 36.739531 87.572905 37.282282 88.312305 C 37.825033 89.051705 38.698154 90.192268 39.248771 90.876607 C 39.791522 91.568811 40.664643 92.630715 41.207394 93.275723 C 41.750145 93.920732 42.623267 94.911842 43.166018 95.509655 C 43.716635 96.115333 44.589756 97.03565 45.132507 97.594133 C 45.675258 98.14475 46.548379 99.002139 47.09113 99.521293 C 47.641747 100.03258 48.514868 100.827041 49.057619 101.298999 C 49.60037 101.778822 50.473491 102.510356 51.016242 102.942984 C 51.566859 103.383477 52.43998 104.052083 52.982731 104.453247 C 53.525482 104.854411 54.398603 105.467956 54.941354 105.837656 C 55.484105 106.19949 56.357226 106.757972 56.907843 107.096209 C 57.450594 107.426579 58.323716 107.93 58.866467 108.236772 C 59.409218 108.535679 60.282339 108.991904 60.832956 109.259347 C 61.375707 109.534655 62.248828 109.943685 62.791579 110.187529 C 63.33433 110.431374 64.207451 110.793208 64.758068 111.013455 C 65.300819 111.225836 66.17394 111.54834 66.716691 111.744989 C 67.259442 111.933772 68.132563 112.216946 68.675314 112.382131 C 69.225931 112.547316 70.099052 112.799027 70.641803 112.940614 C 71.184554 113.090067 72.057675 113.302448 72.600426 113.428304 C 73.151043 113.546293 74.024165 113.735076 74.566916 113.837333 C 75.109667 113.939591 75.982788 114.09691 76.525539 114.183435 C 77.076156 114.269961 77.949277 114.395816 78.492028 114.46661 C 79.034779 114.537403 79.9079 114.639661 80.450651 114.694722 C 80.993402 114.75765 81.866523 114.83631 82.41714 114.883505 C 82.959891 114.922835 83.833012 114.985763 84.375763 115.025093 C 84.918514 115.056556 85.791635 115.103752 86.342252 115.12735 C 86.885003 115.150948 87.758124 115.182412 88.300875 115.198144 C 88.843626 115.213876 89.716748 115.229608 90.267365 115.245339 C 90.810116 115.253205 91.683237 115.261071 92.225988 115.268937 C 92.768739 115.276803 93.64186 115.276803 94.184611 115.276803 C 94.735228 115.284669 95.608349 115.284669 96.1511 115.284669 C 96.693851 115.284669 97.566972 115.284669 98.109723 115.284669 C 98.66034 115.284669 99.533461 115.284669 100.076212 115.284669 C 100.618963 115.284669 101.492084 115.292535 102.034835 115.300401 C 102.585452 115.300401 103.458573 115.316133 104.001324 115.323999 C 104.544075 115.331865 105.417197 115.355463 105.959948 115.371195 C 106.502699 115.386927 107.37582 115.41839 107.926437 115.441988 C 108.469188 115.465586 109.342309 115.512782 109.88506 115.544246 C 110.427811 115.57571 111.300932 115.638637 111.851549 115.685833 C 112.3943 115.725163 113.267421 115.811688 113.810172 115.86675 C 114.352923 115.921812 115.226044 116.024069 115.776661 116.094863 C 116.319412 116.165656 117.192533 116.291512 117.735284 116.385903 C 118.278035 116.472429 119.151156 116.621882 119.693907 116.724139 C 120.244524 116.834263 121.117646 117.01518 121.660397 117.141035 C 122.203148 117.259024 123.076269 117.471405 123.61902 117.620858 C 124.169637 117.762445 125.042758 118.014156 125.585509 118.179341 C 126.12826 118.344526 127.001381 118.627701 127.544132 118.816484 C 128.094749 119.013133 128.96787 119.335637 129.510621 119.548018 C 130.053372 119.768264 130.926493 120.130098 131.469244 120.373943 C 132.011995 120.617788 132.885116 121.026817 133.435733 121.29426 C 133.978484 121.569568 134.851605 122.025794 135.394356 122.3247 C 135.937107 122.631472 136.810229 123.134894 137.360845 123.465264 C 137.903596 123.8035 138.776718 124.361983 139.319469 124.723817 C 139.86222 125.093517 140.735341 125.707061 141.285958 126.108225 C 141.828709 126.501523 142.70183 127.177995 143.244581 127.610623 C 143.787332 128.051116 144.660453 128.78265 145.203204 129.254608 C 145.753821 129.726565 146.626942 130.521027 147.169693 131.04018 C 147.712444 131.551467 148.585565 132.408856 149.128316 132.967339 C 149.678933 133.517956 150.552054 134.446139 151.094805 135.043952 C 151.637556 135.641764 152.510678 136.632875 153.053428 137.277883 C 153.604045 137.922892 154.477167 138.984796 155.019918 139.677 C 155.562669 140.361338 156.43579 141.501902 156.978541 142.241302 C 157.521292 142.980702 158.394413 144.192059 158.94503 144.978655 C 159.487781 145.76525 160.360902 147.063133 160.903653 147.896924 C 161.446404 148.738582 162.319525 150.115124 162.870142 151.003977 C 163.412893 151.89283 164.286014 153.355898 164.828765 154.299813 C 165.371516 155.243728 166.244637 156.793321 166.795254 157.792298 C 167.338005 158.791274 168.211126 160.435259 168.753877 161.489297 C 169.296628 162.543335 170.16975 164.273846 170.712501 165.390811 C 171.263118 166.499911 172.136239 168.332679 172.67899 169.504707 C 173.221741 170.676734 174.094862 172.611759 174.637613 173.846715 C 175.18823 175.08167 176.061351 177.103221 176.604102 178.401103 C 177.146853 179.698986 178.019974 181.83066 178.562725 183.199337 C 179.113342 184.560147 179.986463 186.794079 180.529214 188.225683 C 181.071965 189.657287 181.945086 192.001342 182.487837 193.495874 C 183.030588 194.998271 183.903709 197.45245 184.454326 199.017775 C 184.997077 200.5831 185.870199 203.155268 186.41295 204.791387 C 186.955701 206.427506 187.828822 209.109797 188.379439 210.824576 C 188.92219 212.531488 189.795311 215.331769 190.338062 217.117341 C 190.880813 218.902913 191.753934 221.829049 192.304551 223.685414 C 192.847302 225.549646 194.263174 230.536662 194.263174 230.536662 " transform="matrix(0.496602, 0, 0, -0.496602, 0.0988238, 97.645133)"/>
</g>
<path fill-rule="nonzero" fill="rgb(100%, 0%, 0%)" fill-opacity="1" stroke-width="0.3985" stroke-linecap="butt" stroke-linejoin="miter" stroke="rgb(100%, 0%, 0%)" stroke-opacity="1" stroke-miterlimit="10" d="M 99.132297 115.284669 C 99.132297 116.385903 98.235578 117.274756 97.134344 117.274756 C 96.033111 117.274756 95.144257 116.385903 95.144257 115.284669 C 95.144257 114.183435 96.033111 113.286716 97.134344 113.286716 C 98.235578 113.286716 99.132297 114.183435 99.132297 115.284669 Z M 99.132297 115.284669 " transform="matrix(0.496602, 0, 0, -0.496602, 0.0988238, 97.645133)"/>
<g fill="rgb(0%, 0%, 0%)" fill-opacity="1">
<use xlink:href="#glyph-0-0" x="91.998011" y="38.648314"/>
</g>
<g fill="rgb(0%, 0%, 0%)" fill-opacity="1">
<use xlink:href="#glyph-0-1" x="50.084302" y="4.200024"/>
</g>
</svg>
