<?xml version="1.0" encoding="UTF-8"?>
<svg xmlns="http://www.w3.org/2000/svg" xmlns:xlink="http://www.w3.org/1999/xlink" width="225.586pt" height="159.404pt" viewBox="0 0 225.586 159.404">
<defs>
<clipPath id="clip-0">
<path clip-rule="nonzero" d="M 0.214844 76 L 224.960938 76 L 224.960938 158.808594 L 0.214844 158.808594 Z M 0.214844 76 "/>
</clipPath>
</defs>
<g clip-path="url(#clip-0)">
<path fill="none" stroke-width="0.49814" stroke-linecap="butt" stroke-linejoin="miter" stroke="rgb(0%, 0%, 0%)" stroke-opacity="1" stroke-miterlimit="10" d="M -66.33327 -44.221559 L 103.180984 -44.221559 L 154.775517 29.482677 L -14.738736 29.482677 Z M -66.33327 -44.221559 " transform="matrix(0.996275, 0, 0, -0.996275, 68.531491, 112.521291)"/>
</g>
<path fill="none" stroke-width="0.79701" stroke-linecap="butt" stroke-linejoin="miter" stroke="rgb(0%, 0%, 0%)" stroke-opacity="1" stroke-miterlimit="10" d="M 29.480669 -29.479144 C 39.502375 -27.334436 47.085308 -13.811406 44.219163 -7.369441 C 41.356939 -0.927476 26.191071 2.969854 14.738253 3.683449 C 3.285435 4.400966 -10.4454 0.609499 -14.738736 -3.683837 C -19.035993 -7.981095 -15.958122 -13.4154 -7.371449 -18.426253 C 1.219144 -23.437106 19.458963 -31.627772 29.480669 -29.479144 Z M 29.480669 -29.479144 " transform="matrix(0.996275, 0, 0, -0.996275, 68.531491, 112.521291)"/>
<path fill="none" stroke-width="0.79701" stroke-linecap="butt" stroke-linejoin="miter" stroke="rgb(0%, 0%, 0%)" stroke-opacity="1" stroke-miterlimit="10" d="M 7.370966 -14.740649 L -5.054224 -20.951284 " transform="matrix(0.996275, 0, 0, -0.996275, 68.531491, 112.521291)"/>
<path fill-rule="nonzero" fill="rgb(0%, 0%, 0%)" fill-opacity="1" d="M 61.1875 134.550781 L 65.804688 134.550781 L 63.496094 133.394531 L 63.957031 130.855469 "/>
<path fill="none" stroke-width="0.79701" stroke-linecap="butt" stroke-linejoin="miter" stroke="rgb(0%, 0%, 0%)" stroke-opacity="1" stroke-miterlimit="10" d="M 7.370966 -14.740649 L 7.370966 -23.205775 " transform="matrix(0.996275, 0, 0, -0.996275, 68.531491, 112.521291)"/>
<path fill-rule="nonzero" fill="rgb(0%, 0%, 0%)" fill-opacity="1" d="M 75.875 138.222656 L 77.9375 134.089844 L 75.875 135.640625 L 73.808594 134.089844 "/>
<path fill="none" stroke-width="0.79701" stroke-linecap="butt" stroke-linejoin="miter" stroke="rgb(0%, 0%, 0%)" stroke-opacity="1" stroke-miterlimit="10" d="M 7.370966 -14.740649 L 19.596193 -17.798916 " transform="matrix(0.996275, 0, 0, -0.996275, 68.531491, 112.521291)"/>
<path fill-rule="nonzero" fill="rgb(0%, 0%, 0%)" fill-opacity="1" d="M 90.558594 130.878906 L 87.054688 127.875 L 88.054688 130.253906 L 86.054688 131.878906 "/>
<path fill="none" stroke-width="0.79701" stroke-linecap="butt" stroke-linejoin="miter" stroke="rgb(0%, 0%, 0%)" stroke-opacity="1" stroke-miterlimit="10" d="M 25.795065 14.740261 C 25.795065 31.023573 17.545585 44.221171 7.370966 44.221171 C -2.807574 44.221171 -11.057053 31.023573 -11.057053 14.740261 C -11.057053 -1.543051 -2.807574 -14.740649 7.370966 -14.740649 C 17.545585 -14.740649 25.795065 -1.543051 25.795065 14.740261 Z M 25.795065 14.740261 " transform="matrix(0.996275, 0, 0, -0.996275, 68.531491, 112.521291)"/>
<path fill="none" stroke-width="0.79701" stroke-linecap="butt" stroke-linejoin="miter" stroke="rgb(0%, 0%, 0%)" stroke-opacity="1" stroke-miterlimit="10" d="M 99.499301 51.592379 C 109.67392 51.592379 117.923399 64.789977 117.923399 81.073289 C 117.923399 97.35268 109.67392 110.554199 99.499301 110.554199 " transform="matrix(0.996275, 0, 0, -0.996275, 68.531491, 112.521291)"/>
<path fill="none" stroke-width="0.79701" stroke-linecap="butt" stroke-linejoin="miter" stroke="rgb(0%, 0%, 0%)" stroke-opacity="1" stroke-miterlimit="10" d="M -11.057053 14.740261 L 81.071281 51.592379 " transform="matrix(0.996275, 0, 0, -0.996275, 68.531491, 112.521291)"/>
<path fill="none" stroke-width="0.79701" stroke-linecap="butt" stroke-linejoin="miter" stroke="rgb(0%, 0%, 0%)" stroke-opacity="1" stroke-miterlimit="10" d="M 25.795065 14.740261 L 117.923399 51.592379 " transform="matrix(0.996275, 0, 0, -0.996275, 68.531491, 112.521291)"/>
</svg>
