<?xml version="1.0" encoding="UTF-8"?>
<svg xmlns="http://www.w3.org/2000/svg" xmlns:xlink="http://www.w3.org/1999/xlink" width="217.378pt" height="180.965pt" viewBox="0 0 217.378 180.965">
<defs>
<g>
<g id="glyph-0-0">
<path d="M 1.265625 -0.765625 L 2.3125 -1.78125 C 3.859375 -3.15625 4.46875 -3.703125 4.46875 -4.6875 C 4.46875 -5.828125 3.5625 -6.625 2.359375 -6.625 C 1.234375 -6.625 0.5 -5.703125 0.5 -4.8125 C 0.5 -4.265625 1 -4.265625 1.03125 -4.265625 C 1.1875 -4.265625 1.546875 -4.375 1.546875 -4.796875 C 1.546875 -5.046875 1.359375 -5.3125 1.015625 -5.3125 C 0.9375 -5.3125 0.921875 -5.3125 0.890625 -5.296875 C 1.109375 -5.9375 1.65625 -6.3125 2.21875 -6.3125 C 3.125 -6.3125 3.5625 -5.5 3.5625 -4.6875 C 3.5625 -3.890625 3.0625 -3.109375 2.515625 -2.5 L 0.609375 -0.375 C 0.5 -0.265625 0.5 -0.234375 0.5 0 L 4.1875 0 L 4.46875 -1.734375 L 4.21875 -1.734375 C 4.15625 -1.4375 4.09375 -1 4 -0.84375 C 3.921875 -0.765625 3.265625 -0.765625 3.046875 -0.765625 Z M 1.265625 -0.765625 "/>
</g>
<g id="glyph-0-1">
<path d="M 2.921875 -1.640625 L 2.921875 -0.78125 C 2.921875 -0.421875 2.90625 -0.3125 2.171875 -0.3125 L 1.953125 -0.3125 L 1.953125 0 C 2.359375 -0.03125 2.875 -0.03125 3.296875 -0.03125 C 3.71875 -0.03125 4.25 -0.03125 4.65625 0 L 4.65625 -0.3125 L 4.4375 -0.3125 C 3.703125 -0.3125 3.6875 -0.421875 3.6875 -0.78125 L 3.6875 -1.640625 L 4.6875 -1.640625 L 4.6875 -1.953125 L 3.6875 -1.953125 L 3.6875 -6.46875 C 3.6875 -6.671875 3.6875 -6.734375 3.53125 -6.734375 C 3.4375 -6.734375 3.40625 -6.734375 3.328125 -6.609375 L 0.28125 -1.953125 L 0.28125 -1.640625 Z M 2.984375 -1.953125 L 0.5625 -1.953125 L 2.984375 -5.65625 Z M 2.984375 -1.953125 "/>
</g>
<g id="glyph-0-2">
<path d="M 1.625 -4.546875 C 1.15625 -4.84375 1.125 -5.171875 1.125 -5.34375 C 1.125 -5.953125 1.765625 -6.375 2.46875 -6.375 C 3.203125 -6.375 3.828125 -5.859375 3.828125 -5.140625 C 3.828125 -4.578125 3.453125 -4.09375 2.859375 -3.75 Z M 3.078125 -3.59375 C 3.78125 -3.96875 4.265625 -4.484375 4.265625 -5.140625 C 4.265625 -6.046875 3.390625 -6.625 2.484375 -6.625 C 1.484375 -6.625 0.6875 -5.890625 0.6875 -4.953125 C 0.6875 -4.78125 0.703125 -4.328125 1.125 -3.859375 C 1.234375 -3.75 1.59375 -3.5 1.84375 -3.328125 C 1.265625 -3.046875 0.421875 -2.484375 0.421875 -1.5 C 0.421875 -0.453125 1.4375 0.21875 2.46875 0.21875 C 3.59375 0.21875 4.546875 -0.609375 4.546875 -1.671875 C 4.546875 -2.03125 4.4375 -2.46875 4.046875 -2.890625 C 3.859375 -3.09375 3.703125 -3.203125 3.078125 -3.59375 Z M 2.078125 -3.1875 L 3.296875 -2.40625 C 3.578125 -2.21875 4.046875 -1.921875 4.046875 -1.3125 C 4.046875 -0.578125 3.296875 -0.0625 2.484375 -0.0625 C 1.625 -0.0625 0.921875 -0.671875 0.921875 -1.5 C 0.921875 -2.078125 1.234375 -2.71875 2.078125 -3.1875 Z M 2.078125 -3.1875 "/>
</g>
<g id="glyph-0-3">
<path d="M 2.921875 -6.359375 C 2.921875 -6.59375 2.921875 -6.625 2.6875 -6.625 C 2.078125 -5.984375 1.203125 -5.984375 0.890625 -5.984375 L 0.890625 -5.671875 C 1.078125 -5.671875 1.671875 -5.671875 2.1875 -5.9375 L 2.1875 -0.78125 C 2.1875 -0.421875 2.15625 -0.3125 1.265625 -0.3125 L 0.9375 -0.3125 L 0.9375 0 C 1.296875 -0.03125 2.15625 -0.03125 2.546875 -0.03125 C 2.953125 -0.03125 3.8125 -0.03125 4.15625 0 L 4.15625 -0.3125 L 3.84375 -0.3125 C 2.953125 -0.3125 2.921875 -0.421875 2.921875 -0.78125 Z M 2.921875 -6.359375 "/>
</g>
<g id="glyph-1-0">
<path d="M 1.78125 -1.140625 C 1.375 -0.484375 1 -0.34375 0.5625 -0.3125 C 0.4375 -0.296875 0.34375 -0.296875 0.34375 -0.109375 C 0.34375 -0.046875 0.390625 0 0.484375 0 C 0.75 0 1.046875 -0.03125 1.328125 -0.03125 C 1.65625 -0.03125 2 0 2.328125 0 C 2.390625 0 2.515625 0 2.515625 -0.1875 C 2.515625 -0.296875 2.421875 -0.3125 2.359375 -0.3125 C 2.125 -0.328125 1.890625 -0.40625 1.890625 -0.65625 C 1.890625 -0.78125 1.953125 -0.890625 2.03125 -1.03125 L 2.78125 -2.296875 L 5.28125 -2.296875 C 5.296875 -2.09375 5.4375 -0.734375 5.4375 -0.640625 C 5.4375 -0.34375 4.921875 -0.3125 4.71875 -0.3125 C 4.578125 -0.3125 4.484375 -0.3125 4.484375 -0.109375 C 4.484375 0 4.59375 0 4.625 0 C 5.03125 0 5.453125 -0.03125 5.859375 -0.03125 C 6.109375 -0.03125 6.734375 0 6.984375 0 C 7.046875 0 7.171875 0 7.171875 -0.203125 C 7.171875 -0.3125 7.0625 -0.3125 6.9375 -0.3125 C 6.3125 -0.3125 6.3125 -0.375 6.296875 -0.671875 L 5.6875 -6.875 C 5.671875 -7.078125 5.671875 -7.109375 5.5 -7.109375 C 5.34375 -7.109375 5.296875 -7.046875 5.234375 -6.953125 Z M 2.96875 -2.609375 L 4.921875 -5.890625 L 5.25 -2.609375 Z M 2.96875 -2.609375 "/>
</g>
<g id="glyph-1-1">
<path d="M 1.59375 -0.78125 C 1.484375 -0.390625 1.46875 -0.3125 0.6875 -0.3125 C 0.515625 -0.3125 0.421875 -0.3125 0.421875 -0.109375 C 0.421875 0 0.5 0 0.6875 0 L 4.234375 0 C 5.796875 0 6.96875 -1.171875 6.96875 -2.140625 C 6.96875 -2.859375 6.40625 -3.4375 5.4375 -3.546875 C 6.46875 -3.734375 7.515625 -4.46875 7.515625 -5.421875 C 7.515625 -6.15625 6.859375 -6.78125 5.671875 -6.78125 L 2.328125 -6.78125 C 2.140625 -6.78125 2.03125 -6.78125 2.03125 -6.59375 C 2.03125 -6.484375 2.125 -6.484375 2.3125 -6.484375 C 2.328125 -6.484375 2.53125 -6.484375 2.6875 -6.453125 C 2.875 -6.4375 2.96875 -6.421875 2.96875 -6.296875 C 2.96875 -6.265625 2.953125 -6.234375 2.921875 -6.109375 Z M 3.09375 -3.640625 L 3.703125 -6.109375 C 3.796875 -6.453125 3.8125 -6.484375 4.25 -6.484375 L 5.53125 -6.484375 C 6.40625 -6.484375 6.609375 -5.890625 6.609375 -5.453125 C 6.609375 -4.578125 5.75 -3.640625 4.546875 -3.640625 Z M 2.640625 -0.3125 C 2.5 -0.3125 2.484375 -0.3125 2.421875 -0.3125 C 2.328125 -0.328125 2.296875 -0.34375 2.296875 -0.421875 C 2.296875 -0.453125 2.296875 -0.46875 2.34375 -0.640625 L 3.03125 -3.421875 L 4.90625 -3.421875 C 5.859375 -3.421875 6.046875 -2.6875 6.046875 -2.25 C 6.046875 -1.265625 5.171875 -0.3125 4 -0.3125 Z M 2.640625 -0.3125 "/>
</g>
<g id="glyph-1-2">
<path d="M 3.015625 -3.140625 L 4.703125 -3.140625 C 6.109375 -3.140625 7.5 -4.171875 7.5 -5.28125 C 7.5 -6.046875 6.84375 -6.78125 5.53125 -6.78125 L 2.3125 -6.78125 C 2.125 -6.78125 2.015625 -6.78125 2.015625 -6.59375 C 2.015625 -6.484375 2.109375 -6.484375 2.3125 -6.484375 C 2.4375 -6.484375 2.609375 -6.46875 2.734375 -6.453125 C 2.890625 -6.4375 2.953125 -6.40625 2.953125 -6.296875 C 2.953125 -6.265625 2.9375 -6.234375 2.90625 -6.109375 L 1.578125 -0.78125 C 1.484375 -0.390625 1.453125 -0.3125 0.671875 -0.3125 C 0.5 -0.3125 0.390625 -0.3125 0.390625 -0.125 C 0.390625 0 0.515625 0 0.546875 0 C 0.828125 0 1.53125 -0.03125 1.8125 -0.03125 C 2.015625 -0.03125 2.234375 -0.015625 2.4375 -0.015625 C 2.65625 -0.015625 2.875 0 3.09375 0 C 3.15625 0 3.296875 0 3.296875 -0.203125 C 3.296875 -0.3125 3.203125 -0.3125 3.015625 -0.3125 C 2.640625 -0.3125 2.359375 -0.3125 2.359375 -0.484375 C 2.359375 -0.546875 2.390625 -0.59375 2.390625 -0.65625 Z M 3.734375 -6.109375 C 3.8125 -6.453125 3.828125 -6.484375 4.265625 -6.484375 L 5.21875 -6.484375 C 6.046875 -6.484375 6.5625 -6.21875 6.5625 -5.53125 C 6.5625 -5.140625 6.375 -4.28125 5.984375 -3.921875 C 5.484375 -3.484375 4.890625 -3.40625 4.453125 -3.40625 L 3.046875 -3.40625 Z M 3.734375 -6.109375 "/>
</g>
<g id="glyph-1-3">
<path d="M 7.546875 -6.90625 C 7.546875 -6.9375 7.53125 -7 7.4375 -7 C 7.40625 -7 7.40625 -7 7.296875 -6.890625 L 6.59375 -6.125 C 6.515625 -6.265625 6.046875 -7 4.953125 -7 C 2.734375 -7 0.5 -4.8125 0.5 -2.5 C 0.5 -0.859375 1.671875 0.21875 3.1875 0.21875 C 4.046875 0.21875 4.8125 -0.171875 5.34375 -0.640625 C 6.265625 -1.453125 6.421875 -2.359375 6.421875 -2.390625 C 6.421875 -2.484375 6.328125 -2.484375 6.3125 -2.484375 C 6.25 -2.484375 6.203125 -2.46875 6.1875 -2.390625 C 6.09375 -2.09375 5.859375 -1.390625 5.171875 -0.8125 C 4.484375 -0.265625 3.859375 -0.09375 3.34375 -0.09375 C 2.453125 -0.09375 1.40625 -0.609375 1.40625 -2.15625 C 1.40625 -2.71875 1.609375 -4.328125 2.609375 -5.5 C 3.203125 -6.203125 4.140625 -6.703125 5.03125 -6.703125 C 6.046875 -6.703125 6.625 -5.9375 6.625 -4.78125 C 6.625 -4.375 6.59375 -4.375 6.59375 -4.265625 C 6.59375 -4.171875 6.703125 -4.171875 6.75 -4.171875 C 6.875 -4.171875 6.875 -4.1875 6.921875 -4.375 Z M 7.546875 -6.90625 "/>
</g>
<g id="glyph-1-4">
<path d="M 1.578125 -0.78125 C 1.484375 -0.390625 1.453125 -0.3125 0.671875 -0.3125 C 0.5 -0.3125 0.390625 -0.3125 0.390625 -0.125 C 0.390625 0 0.484375 0 0.671875 0 L 3.96875 0 C 6.03125 0 7.984375 -2.09375 7.984375 -4.265625 C 7.984375 -5.671875 7.140625 -6.78125 5.65625 -6.78125 L 2.3125 -6.78125 C 2.125 -6.78125 2.015625 -6.78125 2.015625 -6.59375 C 2.015625 -6.484375 2.109375 -6.484375 2.3125 -6.484375 C 2.4375 -6.484375 2.609375 -6.46875 2.734375 -6.453125 C 2.890625 -6.4375 2.953125 -6.40625 2.953125 -6.296875 C 2.953125 -6.265625 2.9375 -6.234375 2.90625 -6.109375 Z M 3.734375 -6.109375 C 3.8125 -6.453125 3.828125 -6.484375 4.265625 -6.484375 L 5.328125 -6.484375 C 6.296875 -6.484375 7.125 -5.953125 7.125 -4.640625 C 7.125 -4.15625 6.921875 -2.53125 6.078125 -1.4375 C 5.796875 -1.0625 5.015625 -0.3125 3.78125 -0.3125 L 2.65625 -0.3125 C 2.53125 -0.3125 2.5 -0.3125 2.4375 -0.3125 C 2.34375 -0.328125 2.3125 -0.34375 2.3125 -0.421875 C 2.3125 -0.453125 2.3125 -0.46875 2.359375 -0.640625 Z M 3.734375 -6.109375 "/>
</g>
<g id="glyph-1-5">
<path d="M 3.3125 -3 C 3.375 -3.265625 3.609375 -4.171875 4.296875 -4.171875 C 4.359375 -4.171875 4.59375 -4.171875 4.796875 -4.046875 C 4.515625 -4 4.328125 -3.75 4.328125 -3.515625 C 4.328125 -3.34375 4.4375 -3.15625 4.703125 -3.15625 C 4.921875 -3.15625 5.234375 -3.34375 5.234375 -3.734375 C 5.234375 -4.25 4.65625 -4.390625 4.3125 -4.390625 C 3.734375 -4.390625 3.390625 -3.859375 3.265625 -3.640625 C 3.015625 -4.296875 2.484375 -4.390625 2.203125 -4.390625 C 1.15625 -4.390625 0.59375 -3.109375 0.59375 -2.859375 C 0.59375 -2.765625 0.703125 -2.765625 0.71875 -2.765625 C 0.796875 -2.765625 0.828125 -2.78125 0.84375 -2.875 C 1.1875 -3.921875 1.84375 -4.171875 2.171875 -4.171875 C 2.359375 -4.171875 2.71875 -4.078125 2.71875 -3.515625 C 2.71875 -3.203125 2.546875 -2.53125 2.171875 -1.140625 C 2.015625 -0.53125 1.671875 -0.109375 1.234375 -0.109375 C 1.171875 -0.109375 0.9375 -0.109375 0.734375 -0.234375 C 0.984375 -0.28125 1.203125 -0.5 1.203125 -0.78125 C 1.203125 -1.046875 0.984375 -1.125 0.828125 -1.125 C 0.53125 -1.125 0.28125 -0.859375 0.28125 -0.546875 C 0.28125 -0.09375 0.78125 0.109375 1.21875 0.109375 C 1.875 0.109375 2.234375 -0.59375 2.265625 -0.640625 C 2.390625 -0.28125 2.75 0.109375 3.34375 0.109375 C 4.359375 0.109375 4.921875 -1.171875 4.921875 -1.421875 C 4.921875 -1.515625 4.84375 -1.515625 4.8125 -1.515625 C 4.71875 -1.515625 4.703125 -1.484375 4.6875 -1.40625 C 4.359375 -0.34375 3.671875 -0.109375 3.359375 -0.109375 C 2.96875 -0.109375 2.8125 -0.421875 2.8125 -0.765625 C 2.8125 -0.984375 2.875 -1.203125 2.984375 -1.640625 Z M 3.3125 -3 "/>
</g>
<g id="glyph-1-6">
<path d="M 4.828125 -3.78125 C 4.875 -3.921875 4.875 -3.9375 4.875 -4.015625 C 4.875 -4.1875 4.734375 -4.28125 4.578125 -4.28125 C 4.484375 -4.28125 4.328125 -4.21875 4.234375 -4.078125 C 4.21875 -4.03125 4.140625 -3.71875 4.09375 -3.53125 C 4.03125 -3.28125 3.953125 -3.015625 3.890625 -2.75 L 3.453125 -0.953125 C 3.40625 -0.8125 2.984375 -0.109375 2.328125 -0.109375 C 1.8125 -0.109375 1.703125 -0.546875 1.703125 -0.921875 C 1.703125 -1.375 1.875 -1.984375 2.21875 -2.859375 C 2.375 -3.265625 2.421875 -3.375 2.421875 -3.578125 C 2.421875 -4.03125 2.09375 -4.390625 1.59375 -4.390625 C 0.65625 -4.390625 0.28125 -2.953125 0.28125 -2.859375 C 0.28125 -2.765625 0.390625 -2.765625 0.40625 -2.765625 C 0.5 -2.765625 0.515625 -2.78125 0.5625 -2.9375 C 0.828125 -3.875 1.234375 -4.171875 1.5625 -4.171875 C 1.65625 -4.171875 1.8125 -4.171875 1.8125 -3.859375 C 1.8125 -3.609375 1.71875 -3.34375 1.65625 -3.15625 C 1.25 -2.109375 1.078125 -1.546875 1.078125 -1.078125 C 1.078125 -0.1875 1.703125 0.109375 2.28125 0.109375 C 2.671875 0.109375 3.015625 -0.0625 3.296875 -0.34375 C 3.15625 0.171875 3.046875 0.671875 2.640625 1.1875 C 2.390625 1.53125 2 1.8125 1.546875 1.8125 C 1.40625 1.8125 0.96875 1.78125 0.796875 1.40625 C 0.953125 1.40625 1.078125 1.40625 1.21875 1.28125 C 1.328125 1.1875 1.421875 1.0625 1.421875 0.875 C 1.421875 0.5625 1.15625 0.53125 1.046875 0.53125 C 0.828125 0.53125 0.5 0.6875 0.5 1.171875 C 0.5 1.671875 0.9375 2.03125 1.546875 2.03125 C 2.578125 2.03125 3.59375 1.140625 3.875 0.015625 Z M 4.828125 -3.78125 "/>
</g>
<g id="glyph-2-0">
<path d="M 3.59375 -2.21875 C 3.59375 -2.984375 3.5 -3.53125 3.171875 -4.015625 C 2.96875 -4.34375 2.53125 -4.609375 1.96875 -4.609375 C 0.359375 -4.609375 0.359375 -2.71875 0.359375 -2.21875 C 0.359375 -1.71875 0.359375 0.140625 1.96875 0.140625 C 3.59375 0.140625 3.59375 -1.71875 3.59375 -2.21875 Z M 1.96875 -0.0625 C 1.65625 -0.0625 1.234375 -0.25 1.09375 -0.8125 C 1 -1.21875 1 -1.796875 1 -2.3125 C 1 -2.8125 1 -3.34375 1.09375 -3.734375 C 1.25 -4.28125 1.6875 -4.421875 1.96875 -4.421875 C 2.34375 -4.421875 2.71875 -4.1875 2.84375 -3.796875 C 2.953125 -3.40625 2.953125 -2.90625 2.953125 -2.3125 C 2.953125 -1.796875 2.953125 -1.28125 2.859375 -0.84375 C 2.71875 -0.203125 2.25 -0.0625 1.96875 -0.0625 Z M 1.96875 -0.0625 "/>
</g>
</g>
<clipPath id="clip-0">
<path clip-rule="nonzero" d="M 24 55 L 205 55 L 205 163.359375 L 24 163.359375 Z M 24 55 "/>
</clipPath>
<clipPath id="clip-1">
<path clip-rule="nonzero" d="M 39 134 L 76 134 L 76 163.359375 L 39 163.359375 Z M 39 134 "/>
</clipPath>
<clipPath id="clip-2">
<path clip-rule="nonzero" d="M 75 159 L 79 159 L 79 163.359375 L 75 163.359375 Z M 75 159 "/>
</clipPath>
<clipPath id="clip-3">
<path clip-rule="nonzero" d="M 20.859375 127 L 28 127 L 28 135 L 20.859375 135 Z M 20.859375 127 "/>
</clipPath>
<clipPath id="clip-4">
<path clip-rule="nonzero" d="M 20.859375 25 L 108 25 L 108 26 L 20.859375 26 Z M 20.859375 25 "/>
</clipPath>
<clipPath id="clip-5">
<path clip-rule="nonzero" d="M 106 25 L 108 25 L 108 163.359375 L 106 163.359375 Z M 106 25 "/>
</clipPath>
<clipPath id="clip-6">
<path clip-rule="nonzero" d="M 20.859375 117 L 194 117 L 194 118 L 20.859375 118 Z M 20.859375 117 "/>
</clipPath>
<clipPath id="clip-7">
<path clip-rule="nonzero" d="M 192 117 L 194 117 L 194 163.359375 L 192 163.359375 Z M 192 117 "/>
</clipPath>
<clipPath id="clip-8">
<path clip-rule="nonzero" d="M 20.859375 151 L 65 151 L 65 153 L 20.859375 153 Z M 20.859375 151 "/>
</clipPath>
<clipPath id="clip-9">
<path clip-rule="nonzero" d="M 63 151 L 65 151 L 65 163.359375 L 63 163.359375 Z M 63 151 "/>
</clipPath>
<clipPath id="clip-10">
<path clip-rule="nonzero" d="M 20.859375 14 L 119 14 L 119 163.359375 L 20.859375 163.359375 Z M 20.859375 14 "/>
</clipPath>
<clipPath id="clip-11">
<path clip-rule="nonzero" d="M 20.859375 100 L 65 100 L 65 163.359375 L 20.859375 163.359375 Z M 20.859375 100 "/>
</clipPath>
</defs>
<path fill="none" stroke-width="0.19925" stroke-linecap="butt" stroke-linejoin="miter" stroke="rgb(50%, 50%, 50%)" stroke-opacity="1" stroke-miterlimit="10" d="M 43.172027 -2.126566 L 43.172027 2.12776 M 86.342075 -2.126566 L 86.342075 2.12776 M 172.682172 -2.126566 L 172.682172 2.12776 " transform="matrix(0.997147, 0, 0, -0.997147, 20.861308, 163.35997)"/>
<path fill="none" stroke-width="0.19925" stroke-linecap="butt" stroke-linejoin="miter" stroke="rgb(50%, 50%, 50%)" stroke-opacity="1" stroke-miterlimit="10" d="M -2.125184 11.529585 L 2.125224 11.529585 M -2.125184 46.112633 L 2.125224 46.112633 M -2.125184 138.340623 L 2.125224 138.340623 " transform="matrix(0.997147, 0, 0, -0.997147, 20.861308, 163.35997)"/>
<path fill="none" stroke-width="0.3985" stroke-linecap="butt" stroke-linejoin="miter" stroke="rgb(0%, 0%, 0%)" stroke-opacity="1" stroke-miterlimit="10" d="M -0.0019385 0.000596923 L 192.273226 0.000596923 " transform="matrix(0.997147, 0, 0, -0.997147, 20.861308, 163.35997)"/>
<path fill-rule="nonzero" fill="rgb(0%, 0%, 0%)" fill-opacity="1" d="M 214.574219 163.359375 L 211.394531 161.769531 L 212.585938 163.359375 L 211.394531 164.949219 "/>
<path fill="none" stroke-width="0.3985" stroke-linecap="butt" stroke-linejoin="miter" stroke="rgb(0%, 0%, 0%)" stroke-opacity="1" stroke-miterlimit="10" d="M -0.0019385 0.000596923 L -0.0019385 159.404629 " transform="matrix(0.997147, 0, 0, -0.997147, 20.861308, 163.35997)"/>
<path fill-rule="nonzero" fill="rgb(0%, 0%, 0%)" fill-opacity="1" d="M 20.859375 2.425781 L 19.273438 5.605469 L 20.859375 4.410156 L 22.449219 5.605469 "/>
<g fill="rgb(0%, 0%, 0%)" fill-opacity="1">
<use xlink:href="#glyph-0-0" x="61.425239" y="175.391543"/>
</g>
<g fill="rgb(0%, 0%, 0%)" fill-opacity="1">
<use xlink:href="#glyph-0-1" x="104.472066" y="175.391543"/>
</g>
<g fill="rgb(0%, 0%, 0%)" fill-opacity="1">
<use xlink:href="#glyph-0-2" x="190.56572" y="175.391543"/>
</g>
<g fill="rgb(0%, 0%, 0%)" fill-opacity="1">
<use xlink:href="#glyph-0-3" x="10.264629" y="155.065703"/>
</g>
<g fill="rgb(0%, 0%, 0%)" fill-opacity="1">
<use xlink:href="#glyph-0-1" x="10.264629" y="120.579382"/>
</g>
<g fill="rgb(0%, 0%, 0%)" fill-opacity="1">
<use xlink:href="#glyph-0-3" x="5.297841" y="28.617519"/>
<use xlink:href="#glyph-0-0" x="10.264948" y="28.617519"/>
</g>
<path fill-rule="nonzero" fill="rgb(0%, 0%, 100%)" fill-opacity="0.1" d="M 63.910156 151.863281 L 193.050781 117.378906 L 81.128906 66.796875 L 35.929688 139.21875 Z M 63.910156 151.863281 "/>
<g clip-path="url(#clip-0)">
<path fill="none" stroke-width="0.79701" stroke-linecap="butt" stroke-linejoin="miter" stroke="rgb(0%, 0%, 100%)" stroke-opacity="1" stroke-miterlimit="10" d="M 43.172027 11.529585 L 172.682172 46.112633 L 60.440046 96.839398 L 15.111496 24.210297 Z M 43.172027 11.529585 " transform="matrix(0.997147, 0, 0, -0.997147, 20.861308, 163.35997)"/>
</g>
<path fill-rule="nonzero" fill="rgb(0%, 0%, 100%)" fill-opacity="0.1" d="M 63.910156 151.863281 L 50.640625 145.871094 "/>
<g clip-path="url(#clip-1)">
<path fill="none" stroke-width="0.79701" stroke-linecap="butt" stroke-linejoin="miter" stroke="rgb(0%, 0%, 100%)" stroke-opacity="1" stroke-miterlimit="10" d="M 43.172027 11.529585 L 29.864527 17.538919 " transform="matrix(0.997147, 0, 0, -0.997147, 20.861308, 163.35997)"/>
</g>
<path fill="none" stroke-width="0.79701" stroke-linecap="round" stroke-linejoin="round" stroke="rgb(0%, 0%, 100%)" stroke-opacity="1" stroke-miterlimit="10" d="M -2.549732 3.109541 C -2.084655 1.243248 -1.046137 0.362647 -0.00129647 0.00079616 C -1.044805 -0.363299 -2.082313 -1.244873 -2.550037 -3.111397 " transform="matrix(-0.90862, -0.410615, -0.410615, 0.90862, 50.280399, 145.705775)"/>
<path fill-rule="nonzero" fill="rgb(0%, 0%, 100%)" fill-opacity="0.1" stroke-width="0.79701" stroke-linecap="butt" stroke-linejoin="miter" stroke="rgb(0%, 0%, 100%)" stroke-opacity="1" stroke-miterlimit="10" d="M 172.682172 46.112633 L 117.285833 71.148911 " transform="matrix(0.997147, 0, 0, -0.997147, 20.861308, 163.35997)"/>
<path fill="none" stroke-width="0.79701" stroke-linecap="round" stroke-linejoin="round" stroke="rgb(0%, 0%, 100%)" stroke-opacity="1" stroke-miterlimit="10" d="M -2.550699 3.109527 C -2.085622 1.243234 -1.047103 0.362634 -0.00226308 0.000782462 C -1.045772 -0.363313 -2.083279 -1.244887 -2.551003 -3.111411 " transform="matrix(-0.90862, -0.410615, -0.410615, 0.90862, 137.45139, 92.252266)"/>
<path fill-rule="nonzero" fill="rgb(0%, 0%, 0%)" fill-opacity="1" d="M 65.894531 151.863281 C 65.894531 150.765625 65.007812 149.878906 63.910156 149.878906 C 62.8125 149.878906 61.921875 150.765625 61.921875 151.863281 C 61.921875 152.960938 62.8125 153.851562 63.910156 153.851562 C 65.007812 153.851562 65.894531 152.960938 65.894531 151.863281 Z M 65.894531 151.863281 "/>
<g fill="rgb(0%, 0%, 0%)" fill-opacity="1">
<use xlink:href="#glyph-1-0" x="67.418092" y="162.162397"/>
</g>
<g clip-path="url(#clip-2)">
<g fill="rgb(0%, 0%, 0%)" fill-opacity="1">
<use xlink:href="#glyph-2-0" x="74.868772" y="163.653131"/>
</g>
</g>
<path fill-rule="nonzero" fill="rgb(0%, 0%, 0%)" fill-opacity="1" d="M 195.039062 117.378906 C 195.039062 116.28125 194.148438 115.390625 193.050781 115.390625 C 191.953125 115.390625 191.0625 116.28125 191.0625 117.378906 C 191.0625 118.476562 191.953125 119.367188 193.050781 119.367188 C 194.148438 119.367188 195.039062 118.476562 195.039062 117.378906 Z M 195.039062 117.378906 "/>
<g fill="rgb(0%, 0%, 0%)" fill-opacity="1">
<use xlink:href="#glyph-1-1" x="196.558572" y="112.378846"/>
</g>
<g fill="rgb(0%, 0%, 0%)" fill-opacity="1">
<use xlink:href="#glyph-2-0" x="204.09401" y="113.868584"/>
</g>
<path fill-rule="nonzero" fill="rgb(0%, 0%, 0%)" fill-opacity="1" d="M 108.941406 25.414062 C 108.941406 24.316406 108.054688 23.429688 106.957031 23.429688 C 105.859375 23.429688 104.96875 24.316406 104.96875 25.414062 C 104.96875 26.511719 105.859375 27.402344 106.957031 27.402344 C 108.054688 27.402344 108.941406 26.511719 108.941406 25.414062 Z M 108.941406 25.414062 "/>
<g fill="rgb(0%, 0%, 0%)" fill-opacity="1">
<use xlink:href="#glyph-1-2" x="110.464918" y="21.906721"/>
</g>
<path fill-rule="nonzero" fill="rgb(0%, 0%, 0%)" fill-opacity="1" d="M 83.113281 66.796875 C 83.113281 65.703125 82.226562 64.8125 81.128906 64.8125 C 80.03125 64.8125 79.140625 65.703125 79.140625 66.796875 C 79.140625 67.894531 80.03125 68.785156 81.128906 68.785156 C 82.226562 68.785156 83.113281 67.894531 83.113281 66.796875 Z M 83.113281 66.796875 "/>
<g fill="rgb(0%, 0%, 0%)" fill-opacity="1">
<use xlink:href="#glyph-1-3" x="66.060975" y="61.799573"/>
</g>
<g fill="rgb(0%, 0%, 0%)" fill-opacity="1">
<use xlink:href="#glyph-2-0" x="73.16066" y="63.290307"/>
</g>
<path fill-rule="nonzero" fill="rgb(0%, 0%, 0%)" fill-opacity="1" d="M 37.914062 139.21875 C 37.914062 138.121094 37.023438 137.234375 35.929688 137.234375 C 34.832031 137.234375 33.941406 138.121094 33.941406 139.21875 C 33.941406 140.316406 34.832031 141.207031 35.929688 141.207031 C 37.023438 141.207031 37.914062 140.316406 37.914062 139.21875 Z M 37.914062 139.21875 "/>
<g clip-path="url(#clip-3)">
<g fill="rgb(0%, 0%, 0%)" fill-opacity="1">
<use xlink:href="#glyph-1-4" x="19.737524" y="134.219352"/>
</g>
</g>
<g fill="rgb(0%, 0%, 0%)" fill-opacity="1">
<use xlink:href="#glyph-2-0" x="27.96199" y="135.710087"/>
</g>
<g clip-path="url(#clip-4)">
<path fill="none" stroke-width="0.3985" stroke-linecap="butt" stroke-linejoin="miter" stroke="rgb(50%, 50%, 50%)" stroke-opacity="1" stroke-dasharray="2.98883 2.98883" stroke-miterlimit="10" d="M -0.0019385 138.340623 L 86.342075 138.340623 " transform="matrix(0.997147, 0, 0, -0.997147, 20.861308, 163.35997)"/>
</g>
<g clip-path="url(#clip-5)">
<path fill="none" stroke-width="0.3985" stroke-linecap="butt" stroke-linejoin="miter" stroke="rgb(50%, 50%, 50%)" stroke-opacity="1" stroke-dasharray="2.98883 2.98883" stroke-miterlimit="10" d="M 86.342075 0.000596923 L 86.342075 138.340623 " transform="matrix(0.997147, 0, 0, -0.997147, 20.861308, 163.35997)"/>
</g>
<g clip-path="url(#clip-6)">
<path fill="none" stroke-width="0.3985" stroke-linecap="butt" stroke-linejoin="miter" stroke="rgb(50%, 50%, 50%)" stroke-opacity="1" stroke-dasharray="2.98883 2.98883" stroke-miterlimit="10" d="M -0.0019385 46.112633 L 172.682172 46.112633 " transform="matrix(0.997147, 0, 0, -0.997147, 20.861308, 163.35997)"/>
</g>
<g clip-path="url(#clip-7)">
<path fill="none" stroke-width="0.3985" stroke-linecap="butt" stroke-linejoin="miter" stroke="rgb(50%, 50%, 50%)" stroke-opacity="1" stroke-dasharray="2.98883 2.98883" stroke-miterlimit="10" d="M 172.682172 0.000596923 L 172.682172 46.112633 " transform="matrix(0.997147, 0, 0, -0.997147, 20.861308, 163.35997)"/>
</g>
<g clip-path="url(#clip-8)">
<path fill="none" stroke-width="0.3985" stroke-linecap="butt" stroke-linejoin="miter" stroke="rgb(50%, 50%, 50%)" stroke-opacity="1" stroke-dasharray="2.98883 2.98883" stroke-miterlimit="10" d="M -0.0019385 11.529585 L 43.172027 11.529585 " transform="matrix(0.997147, 0, 0, -0.997147, 20.861308, 163.35997)"/>
</g>
<g clip-path="url(#clip-9)">
<path fill="none" stroke-width="0.3985" stroke-linecap="butt" stroke-linejoin="miter" stroke="rgb(50%, 50%, 50%)" stroke-opacity="1" stroke-dasharray="2.98883 2.98883" stroke-miterlimit="10" d="M 43.172027 0.000596923 L 43.172027 11.529585 " transform="matrix(0.997147, 0, 0, -0.997147, 20.861308, 163.35997)"/>
</g>
<g clip-path="url(#clip-10)">
<path fill="none" stroke-width="0.79701" stroke-linecap="butt" stroke-linejoin="miter" stroke="rgb(50%, 50%, 50%)" stroke-opacity="1" stroke-dasharray="0.79701 1.99255" stroke-miterlimit="10" d="M -0.0019385 0.000596923 L 86.342075 138.340623 " transform="matrix(0.997147, 0, 0, -0.997147, 20.861308, 163.35997)"/>
</g>
<g clip-path="url(#clip-11)">
<path fill="none" stroke-width="0.79701" stroke-linecap="butt" stroke-linejoin="miter" stroke="rgb(50%, 50%, 50%)" stroke-opacity="1" stroke-dasharray="0.79701 1.99255" stroke-miterlimit="10" d="M -0.0019385 0.000596923 L 32.379515 51.879086 " transform="matrix(0.997147, 0, 0, -0.997147, 20.861308, 163.35997)"/>
</g>
<g fill="rgb(0%, 0%, 0%)" fill-opacity="1">
<use xlink:href="#glyph-1-5" x="205.385316" y="159.850014"/>
</g>
<g fill="rgb(0%, 0%, 0%)" fill-opacity="1">
<use xlink:href="#glyph-1-6" x="24.371265" y="10.213181"/>
</g>
</svg>
