<?xml version="1.0" encoding="UTF-8"?>
<svg xmlns="http://www.w3.org/2000/svg" xmlns:xlink="http://www.w3.org/1999/xlink" width="198.649pt" height="178.641pt" viewBox="0 0 198.649 178.641">
<defs>
<g>
<g id="glyph-0-0">
<path d="M 6.546875 -2.28125 C 6.71875 -2.28125 6.890625 -2.28125 6.890625 -2.484375 C 6.890625 -2.6875 6.71875 -2.6875 6.546875 -2.6875 L 1.171875 -2.6875 C 1 -2.6875 0.828125 -2.6875 0.828125 -2.484375 C 0.828125 -2.28125 1 -2.28125 1.171875 -2.28125 Z M 6.546875 -2.28125 "/>
</g>
<g id="glyph-1-0">
<path d="M 1.265625 -0.765625 L 2.3125 -1.78125 C 3.859375 -3.15625 4.46875 -3.703125 4.46875 -4.6875 C 4.46875 -5.828125 3.5625 -6.625 2.359375 -6.625 C 1.234375 -6.625 0.5 -5.703125 0.5 -4.8125 C 0.5 -4.265625 1 -4.265625 1.03125 -4.265625 C 1.1875 -4.265625 1.546875 -4.375 1.546875 -4.796875 C 1.546875 -5.046875 1.359375 -5.3125 1.015625 -5.3125 C 0.9375 -5.3125 0.921875 -5.3125 0.890625 -5.296875 C 1.109375 -5.9375 1.65625 -6.3125 2.21875 -6.3125 C 3.125 -6.3125 3.5625 -5.5 3.5625 -4.6875 C 3.5625 -3.890625 3.0625 -3.109375 2.515625 -2.5 L 0.609375 -0.375 C 0.5 -0.265625 0.5 -0.234375 0.5 0 L 4.1875 0 L 4.46875 -1.734375 L 4.21875 -1.734375 C 4.15625 -1.4375 4.09375 -1 4 -0.84375 C 3.921875 -0.765625 3.265625 -0.765625 3.046875 -0.765625 Z M 1.265625 -0.765625 "/>
</g>
<g id="glyph-1-1">
<path d="M 2.921875 -6.359375 C 2.921875 -6.59375 2.921875 -6.625 2.6875 -6.625 C 2.078125 -5.984375 1.203125 -5.984375 0.890625 -5.984375 L 0.890625 -5.671875 C 1.078125 -5.671875 1.671875 -5.671875 2.1875 -5.9375 L 2.1875 -0.78125 C 2.1875 -0.421875 2.15625 -0.3125 1.265625 -0.3125 L 0.9375 -0.3125 L 0.9375 0 C 1.296875 -0.03125 2.15625 -0.03125 2.546875 -0.03125 C 2.953125 -0.03125 3.8125 -0.03125 4.15625 0 L 4.15625 -0.3125 L 3.84375 -0.3125 C 2.953125 -0.3125 2.921875 -0.421875 2.921875 -0.78125 Z M 2.921875 -6.359375 "/>
</g>
<g id="glyph-2-0">
<path d="M 7.171875 -3.375 C 7.171875 -5.390625 5.671875 -7 3.859375 -7 C 2.078125 -7 0.5625 -5.421875 0.5625 -3.375 C 0.5625 -1.328125 2.09375 0.21875 3.859375 0.21875 C 5.671875 0.21875 7.171875 -1.359375 7.171875 -3.375 Z M 6.140625 -3.515625 C 6.140625 -0.875 4.78125 -0.046875 3.859375 -0.046875 C 2.90625 -0.046875 1.578125 -0.921875 1.578125 -3.515625 C 1.578125 -6.078125 3.03125 -6.75 3.859375 -6.75 C 4.71875 -6.75 6.140625 -6.046875 6.140625 -3.515625 Z M 6.140625 -3.515625 "/>
</g>
<g id="glyph-3-0">
<path d="M 4.515625 -4.96875 C 4.515625 -5.625 4.34375 -7 3.328125 -7 C 1.953125 -7 0.421875 -4.203125 0.421875 -1.921875 C 0.421875 -1 0.703125 0.109375 1.609375 0.109375 C 3.015625 0.109375 4.515625 -2.75 4.515625 -4.96875 Z M 1.46875 -3.609375 C 1.640625 -4.25 1.84375 -5.03125 2.234375 -5.75 C 2.5 -6.234375 2.875 -6.78125 3.3125 -6.78125 C 3.8125 -6.78125 3.859375 -6.15625 3.859375 -5.578125 C 3.859375 -5.09375 3.78125 -4.59375 3.546875 -3.609375 Z M 3.453125 -3.296875 C 3.34375 -2.828125 3.140625 -1.984375 2.765625 -1.265625 C 2.421875 -0.59375 2.03125 -0.109375 1.609375 -0.109375 C 1.28125 -0.109375 1.078125 -0.390625 1.078125 -1.328125 C 1.078125 -1.734375 1.140625 -2.3125 1.390625 -3.296875 Z M 3.453125 -3.296875 "/>
</g>
<g id="glyph-3-1">
<path d="M 3.015625 -3.140625 L 4.703125 -3.140625 C 6.109375 -3.140625 7.5 -4.171875 7.5 -5.28125 C 7.5 -6.046875 6.84375 -6.78125 5.53125 -6.78125 L 2.3125 -6.78125 C 2.125 -6.78125 2.015625 -6.78125 2.015625 -6.59375 C 2.015625 -6.484375 2.109375 -6.484375 2.3125 -6.484375 C 2.4375 -6.484375 2.609375 -6.46875 2.734375 -6.453125 C 2.890625 -6.4375 2.953125 -6.40625 2.953125 -6.296875 C 2.953125 -6.265625 2.9375 -6.234375 2.90625 -6.109375 L 1.578125 -0.78125 C 1.484375 -0.390625 1.453125 -0.3125 0.671875 -0.3125 C 0.5 -0.3125 0.390625 -0.3125 0.390625 -0.125 C 0.390625 0 0.515625 0 0.546875 0 C 0.828125 0 1.53125 -0.03125 1.8125 -0.03125 C 2.015625 -0.03125 2.234375 -0.015625 2.4375 -0.015625 C 2.65625 -0.015625 2.875 0 3.09375 0 C 3.15625 0 3.296875 0 3.296875 -0.203125 C 3.296875 -0.3125 3.203125 -0.3125 3.015625 -0.3125 C 2.640625 -0.3125 2.359375 -0.3125 2.359375 -0.484375 C 2.359375 -0.546875 2.390625 -0.59375 2.390625 -0.65625 Z M 3.734375 -6.109375 C 3.8125 -6.453125 3.828125 -6.484375 4.265625 -6.484375 L 5.21875 -6.484375 C 6.046875 -6.484375 6.5625 -6.21875 6.5625 -5.53125 C 6.5625 -5.140625 6.375 -4.28125 5.984375 -3.921875 C 5.484375 -3.484375 4.890625 -3.40625 4.453125 -3.40625 L 3.046875 -3.40625 Z M 3.734375 -6.109375 "/>
</g>
<g id="glyph-3-2">
<path d="M 9.203125 -6.015625 C 9.296875 -6.375 9.3125 -6.484375 10.0625 -6.484375 C 10.28125 -6.484375 10.375 -6.484375 10.375 -6.671875 C 10.375 -6.78125 10.28125 -6.78125 10.109375 -6.78125 L 8.796875 -6.78125 C 8.53125 -6.78125 8.53125 -6.78125 8.40625 -6.59375 L 4.78125 -0.9375 L 4 -6.5625 C 3.96875 -6.78125 3.953125 -6.78125 3.703125 -6.78125 L 2.328125 -6.78125 C 2.140625 -6.78125 2.03125 -6.78125 2.03125 -6.59375 C 2.03125 -6.484375 2.125 -6.484375 2.328125 -6.484375 C 2.453125 -6.484375 2.640625 -6.46875 2.75 -6.453125 C 2.90625 -6.4375 2.96875 -6.40625 2.96875 -6.296875 C 2.96875 -6.265625 2.96875 -6.234375 2.9375 -6.109375 L 1.671875 -1.046875 C 1.5625 -0.65625 1.40625 -0.34375 0.59375 -0.3125 C 0.546875 -0.3125 0.421875 -0.296875 0.421875 -0.125 C 0.421875 -0.03125 0.484375 0 0.5625 0 C 0.875 0 1.21875 -0.03125 1.546875 -0.03125 C 1.890625 -0.03125 2.25 0 2.578125 0 C 2.625 0 2.75 0 2.75 -0.203125 C 2.75 -0.3125 2.640625 -0.3125 2.578125 -0.3125 C 2 -0.3125 1.890625 -0.515625 1.890625 -0.75 C 1.890625 -0.8125 1.90625 -0.859375 1.9375 -0.96875 L 3.296875 -6.390625 L 4.15625 -0.234375 C 4.171875 -0.109375 4.1875 0 4.296875 0 C 4.40625 0 4.46875 -0.109375 4.515625 -0.171875 L 8.53125 -6.46875 L 8.546875 -6.46875 L 7.125 -0.78125 C 7.03125 -0.390625 7 -0.3125 6.21875 -0.3125 C 6.046875 -0.3125 5.9375 -0.3125 5.9375 -0.125 C 5.9375 0 6.0625 0 6.09375 0 C 6.375 0 7.046875 -0.03125 7.328125 -0.03125 C 7.734375 -0.03125 8.15625 0 8.5625 0 C 8.625 0 8.75 0 8.75 -0.203125 C 8.75 -0.3125 8.671875 -0.3125 8.484375 -0.3125 C 8.109375 -0.3125 7.828125 -0.3125 7.828125 -0.484375 C 7.828125 -0.53125 7.828125 -0.546875 7.875 -0.71875 Z M 9.203125 -6.015625 "/>
</g>
<g id="glyph-3-3">
<path d="M 4.359375 -0.0625 C 5.890625 -0.640625 7.359375 -2.421875 7.359375 -4.328125 C 7.359375 -5.9375 6.296875 -7 4.8125 -7 C 2.671875 -7 0.484375 -4.75 0.484375 -2.4375 C 0.484375 -0.78125 1.59375 0.21875 3.03125 0.21875 C 3.28125 0.21875 3.625 0.171875 4 0.0625 C 3.96875 0.6875 3.96875 0.703125 3.96875 0.828125 C 3.96875 1.15625 3.96875 1.921875 4.796875 1.921875 C 5.96875 1.921875 6.453125 0.109375 6.453125 0 C 6.453125 -0.0625 6.375 -0.09375 6.34375 -0.09375 C 6.265625 -0.09375 6.234375 -0.046875 6.21875 0.015625 C 5.984375 0.71875 5.40625 0.96875 5.0625 0.96875 C 4.59375 0.96875 4.453125 0.703125 4.359375 -0.0625 Z M 2.46875 -0.140625 C 1.703125 -0.453125 1.359375 -1.21875 1.359375 -2.109375 C 1.359375 -2.796875 1.625 -4.21875 2.375 -5.28125 C 3.09375 -6.296875 4.03125 -6.75 4.765625 -6.75 C 5.75 -6.75 6.484375 -5.984375 6.484375 -4.65625 C 6.484375 -3.65625 5.96875 -1.328125 4.296875 -0.390625 C 4.25 -0.75 4.15625 -1.46875 3.421875 -1.46875 C 2.90625 -1.46875 2.421875 -0.96875 2.421875 -0.453125 C 2.421875 -0.265625 2.46875 -0.15625 2.46875 -0.140625 Z M 3.09375 -0.03125 C 2.953125 -0.03125 2.640625 -0.03125 2.640625 -0.453125 C 2.640625 -0.859375 3.015625 -1.25 3.421875 -1.25 C 3.84375 -1.25 4.03125 -1.015625 4.03125 -0.40625 C 4.03125 -0.265625 4.03125 -0.25 3.921875 -0.203125 C 3.671875 -0.09375 3.375 -0.03125 3.09375 -0.03125 Z M 3.09375 -0.03125 "/>
</g>
<g id="glyph-3-4">
<path d="M 3.3125 -3 C 3.375 -3.265625 3.609375 -4.171875 4.296875 -4.171875 C 4.359375 -4.171875 4.59375 -4.171875 4.796875 -4.046875 C 4.515625 -4 4.328125 -3.75 4.328125 -3.515625 C 4.328125 -3.34375 4.4375 -3.15625 4.703125 -3.15625 C 4.921875 -3.15625 5.234375 -3.34375 5.234375 -3.734375 C 5.234375 -4.25 4.65625 -4.390625 4.3125 -4.390625 C 3.734375 -4.390625 3.390625 -3.859375 3.265625 -3.640625 C 3.015625 -4.296875 2.484375 -4.390625 2.203125 -4.390625 C 1.15625 -4.390625 0.59375 -3.109375 0.59375 -2.859375 C 0.59375 -2.765625 0.703125 -2.765625 0.71875 -2.765625 C 0.796875 -2.765625 0.828125 -2.78125 0.84375 -2.875 C 1.1875 -3.921875 1.84375 -4.171875 2.171875 -4.171875 C 2.359375 -4.171875 2.71875 -4.078125 2.71875 -3.515625 C 2.71875 -3.203125 2.546875 -2.53125 2.171875 -1.140625 C 2.015625 -0.53125 1.671875 -0.109375 1.234375 -0.109375 C 1.171875 -0.109375 0.9375 -0.109375 0.734375 -0.234375 C 0.984375 -0.28125 1.203125 -0.5 1.203125 -0.78125 C 1.203125 -1.046875 0.984375 -1.125 0.828125 -1.125 C 0.53125 -1.125 0.28125 -0.859375 0.28125 -0.546875 C 0.28125 -0.09375 0.78125 0.109375 1.21875 0.109375 C 1.875 0.109375 2.234375 -0.59375 2.265625 -0.640625 C 2.390625 -0.28125 2.75 0.109375 3.34375 0.109375 C 4.359375 0.109375 4.921875 -1.171875 4.921875 -1.421875 C 4.921875 -1.515625 4.84375 -1.515625 4.8125 -1.515625 C 4.71875 -1.515625 4.703125 -1.484375 4.6875 -1.40625 C 4.359375 -0.34375 3.671875 -0.109375 3.359375 -0.109375 C 2.96875 -0.109375 2.8125 -0.421875 2.8125 -0.765625 C 2.8125 -0.984375 2.875 -1.203125 2.984375 -1.640625 Z M 3.3125 -3 "/>
</g>
<g id="glyph-3-5">
<path d="M 4.828125 -3.78125 C 4.875 -3.921875 4.875 -3.9375 4.875 -4.015625 C 4.875 -4.1875 4.734375 -4.28125 4.578125 -4.28125 C 4.484375 -4.28125 4.328125 -4.21875 4.234375 -4.078125 C 4.21875 -4.03125 4.140625 -3.71875 4.09375 -3.53125 C 4.03125 -3.28125 3.953125 -3.015625 3.890625 -2.75 L 3.453125 -0.953125 C 3.40625 -0.8125 2.984375 -0.109375 2.328125 -0.109375 C 1.8125 -0.109375 1.703125 -0.546875 1.703125 -0.921875 C 1.703125 -1.375 1.875 -1.984375 2.21875 -2.859375 C 2.375 -3.265625 2.421875 -3.375 2.421875 -3.578125 C 2.421875 -4.03125 2.09375 -4.390625 1.59375 -4.390625 C 0.65625 -4.390625 0.28125 -2.953125 0.28125 -2.859375 C 0.28125 -2.765625 0.390625 -2.765625 0.40625 -2.765625 C 0.5 -2.765625 0.515625 -2.78125 0.5625 -2.9375 C 0.828125 -3.875 1.234375 -4.171875 1.5625 -4.171875 C 1.65625 -4.171875 1.8125 -4.171875 1.8125 -3.859375 C 1.8125 -3.609375 1.71875 -3.34375 1.65625 -3.15625 C 1.25 -2.109375 1.078125 -1.546875 1.078125 -1.078125 C 1.078125 -0.1875 1.703125 0.109375 2.28125 0.109375 C 2.671875 0.109375 3.015625 -0.0625 3.296875 -0.34375 C 3.15625 0.171875 3.046875 0.671875 2.640625 1.1875 C 2.390625 1.53125 2 1.8125 1.546875 1.8125 C 1.40625 1.8125 0.96875 1.78125 0.796875 1.40625 C 0.953125 1.40625 1.078125 1.40625 1.21875 1.28125 C 1.328125 1.1875 1.421875 1.0625 1.421875 0.875 C 1.421875 0.5625 1.15625 0.53125 1.046875 0.53125 C 0.828125 0.53125 0.5 0.6875 0.5 1.171875 C 0.5 1.671875 0.9375 2.03125 1.546875 2.03125 C 2.578125 2.03125 3.59375 1.140625 3.875 0.015625 Z M 4.828125 -3.78125 "/>
</g>
</g>
<clipPath id="clip-0">
<path clip-rule="nonzero" d="M 12 15.027344 L 170 15.027344 L 170 111 L 12 111 Z M 12 15.027344 "/>
</clipPath>
</defs>
<path fill="none" stroke-width="0.19925" stroke-linecap="butt" stroke-linejoin="miter" stroke="rgb(50%, 50%, 50%)" stroke-opacity="1" stroke-miterlimit="10" d="M 16.138331 78.5691 L 16.138331 82.823726 M 112.973167 78.5691 L 112.973167 82.823726 " transform="matrix(0.997994, 0, 0, -0.997994, 18.616692, 176.095116)"/>
<path fill="none" stroke-width="0.3985" stroke-linecap="butt" stroke-linejoin="miter" stroke="rgb(0%, 0%, 0%)" stroke-opacity="1" stroke-miterlimit="10" d="M -16.438724 80.694456 L 175.837528 80.694456 " transform="matrix(0.997994, 0, 0, -0.997994, 18.616692, 176.095116)"/>
<path fill-rule="nonzero" fill="rgb(0%, 0%, 0%)" fill-opacity="1" d="M 196.089844 95.5625 L 192.910156 93.96875 L 194.101562 95.5625 L 192.910156 97.152344 "/>
<path fill="none" stroke-width="0.3985" stroke-linecap="butt" stroke-linejoin="miter" stroke="rgb(0%, 0%, 0%)" stroke-opacity="1" stroke-miterlimit="10" d="M 80.697498 0.001369 L 80.697498 159.39918 " transform="matrix(0.997994, 0, 0, -0.997994, 18.616692, 176.095116)"/>
<path fill-rule="nonzero" fill="rgb(0%, 0%, 0%)" fill-opacity="1" d="M 99.152344 15.027344 L 97.558594 18.207031 L 99.152344 17.015625 L 100.742188 18.207031 "/>
<g fill="rgb(0%, 0%, 0%)" fill-opacity="1">
<use xlink:href="#glyph-0-0" x="28.371089" y="107.603758"/>
</g>
<g fill="rgb(0%, 0%, 0%)" fill-opacity="1">
<use xlink:href="#glyph-1-0" x="36.10355" y="107.603758"/>
</g>
<g fill="rgb(0%, 0%, 0%)" fill-opacity="1">
<use xlink:href="#glyph-1-1" x="128.877111" y="107.603758"/>
</g>
<path fill="none" stroke-width="0.79701" stroke-linecap="butt" stroke-linejoin="miter" stroke="rgb(0%, 0%, 100%)" stroke-opacity="1" stroke-miterlimit="10" d="M 112.973167 80.694456 L 112.910541 82.74153 L 112.714836 84.780776 L 112.389966 86.804366 L 111.939845 88.804471 L 111.364472 90.76935 L 110.663848 92.691173 L 109.841887 94.569941 L 108.902503 96.389997 L 107.84961 98.147428 L 106.687122 99.834405 L 105.422868 101.4431 L 104.056847 102.969599 L 102.596888 104.406074 L 101.050818 105.74861 L 99.418638 106.98938 L 97.712091 108.124469 L 95.939003 109.146049 L 94.103291 110.058035 L 92.216694 110.848683 L 90.279215 111.517994 L 88.306508 112.065968 L 86.302489 112.484777 L 84.274985 112.77442 L 82.231825 112.938812 L 80.184751 112.970125 L 78.137676 112.872273 L 76.102344 112.645255 L 74.086583 112.289072 L 72.094306 111.807637 L 70.137256 111.200952 L 68.227175 110.469015 L 66.364063 109.615741 L 64.555749 108.648959 L 62.817889 107.568667 L 61.146568 106.382695 L 59.557443 105.091042 L 58.054429 103.701536 L 56.641439 102.218092 L 55.322387 100.648538 L 54.109016 99.000702 L 53.001326 97.278498 L 52.007144 95.48584 L 51.126472 93.638385 L 50.363222 91.736132 L 49.725224 89.790825 L 49.212477 87.806376 L 48.821067 85.794528 L 48.562736 83.76311 L 48.433571 81.71995 L 48.433571 79.672876 L 48.562736 77.625802 L 48.821067 75.594384 L 49.212477 73.58645 L 49.725224 71.602002 L 50.363222 69.656694 L 51.126472 67.754441 L 52.007144 65.906986 L 53.001326 64.114328 L 54.109016 62.392124 L 55.322387 60.744288 L 56.641439 59.174734 L 58.054429 57.69129 L 59.557443 56.301784 L 61.146568 55.010131 L 62.817889 53.820245 L 64.555749 52.743867 L 66.364063 51.773171 L 68.227175 50.923811 L 70.137256 50.191874 L 72.094306 49.585189 L 74.086583 49.09984 L 76.102344 48.747571 L 78.137676 48.520553 L 80.184751 48.422701 L 82.231825 48.454014 L 84.274985 48.614492 L 86.302489 48.908049 L 88.306508 49.326858 L 90.279215 49.874832 L 92.216694 50.544143 L 94.103291 51.334791 L 95.939003 52.242863 L 97.712091 53.268357 L 99.418638 54.403446 L 101.050818 55.644216 L 102.596888 56.982838 L 104.056847 58.423227 L 105.422868 59.949726 L 106.687122 61.558421 L 107.84961 63.245398 L 108.902503 65.002829 L 109.841887 66.822885 L 110.663848 68.697739 L 111.364472 70.623476 L 111.939845 72.588355 L 112.389966 74.58846 L 112.714836 76.608136 L 112.910541 78.647382 L 112.973167 80.694456 " transform="matrix(0.997994, 0, 0, -0.997994, 18.616692, 176.095116)"/>
<g fill="rgb(0%, 0%, 0%)" fill-opacity="1">
<use xlink:href="#glyph-2-0" x="95.281625" y="109.59775"/>
</g>
<g clip-path="url(#clip-0)">
<path fill="none" stroke-width="0.3985" stroke-linecap="butt" stroke-linejoin="miter" stroke="rgb(100%, 0%, 0%)" stroke-opacity="1" stroke-dasharray="2.98883 2.98883" stroke-miterlimit="10" d="M 0.000496708 71.378898 L 6.051695 74.870275 L 12.102894 78.365566 L 18.158007 81.860858 L 24.209206 85.356149 L 30.260404 88.847526 L 36.311603 92.342818 L 42.366716 95.838109 L 48.417915 99.3334 L 54.469113 102.824778 L 60.520312 106.320069 L 66.575425 109.81536 L 72.626623 113.310652 L 78.677822 116.802029 L 84.729021 120.29732 L 90.784134 123.792612 L 96.835332 127.283989 L 108.93773 134.274572 L 114.992843 137.769863 L 121.044041 141.26124 L 133.146439 148.251823 L 139.201551 151.747114 L 145.25275 155.238492 " transform="matrix(0.997994, 0, 0, -0.997994, 18.616692, 176.095116)"/>
</g>
<path fill="none" stroke-width="0.3985" stroke-linecap="butt" stroke-linejoin="miter" stroke="rgb(100%, 0%, 0%)" stroke-opacity="1" stroke-dasharray="2.98883 2.98883" stroke-miterlimit="10" d="M 0.000496708 90.013928 L 6.051695 86.518637 L 12.102894 83.02726 L 18.158007 79.531968 L 30.260404 72.541386 L 36.311603 69.050008 L 42.366716 65.554717 L 54.469113 58.564134 L 60.520312 55.072757 L 66.575425 51.577466 L 78.677822 44.586883 L 84.729021 41.095506 L 90.784134 37.600214 L 96.835332 34.104923 L 102.886531 30.613546 L 108.93773 27.118254 L 114.992843 23.622963 L 121.044041 20.127672 L 127.09524 16.636294 L 133.146439 13.141003 L 139.201551 9.645712 L 145.25275 6.15042 " transform="matrix(0.997994, 0, 0, -0.997994, 18.616692, 176.095116)"/>
<path fill-rule="nonzero" fill="rgb(0%, 0%, 0%)" fill-opacity="1" d="M 84.535156 67.664062 C 84.535156 66.839844 83.867188 66.171875 83.042969 66.171875 C 82.21875 66.171875 81.550781 66.839844 81.550781 67.664062 C 81.550781 68.488281 82.21875 69.15625 83.042969 69.15625 C 83.867188 69.15625 84.535156 68.488281 84.535156 67.664062 Z M 84.535156 67.664062 "/>
<path fill-rule="nonzero" fill="rgb(0%, 0%, 0%)" fill-opacity="1" d="M 84.535156 123.457031 C 84.535156 122.632812 83.867188 121.96875 83.042969 121.96875 C 82.21875 121.96875 81.550781 122.632812 81.550781 123.457031 C 81.550781 124.28125 82.21875 124.949219 83.042969 124.949219 C 83.867188 124.949219 84.535156 124.28125 84.535156 123.457031 Z M 84.535156 123.457031 "/>
<path fill-rule="nonzero" fill="rgb(0%, 0%, 0%)" fill-opacity="1" d="M 132.855469 95.5625 C 132.855469 94.738281 132.1875 94.070312 131.363281 94.070312 C 130.539062 94.070312 129.871094 94.738281 129.871094 95.5625 C 129.871094 96.382812 130.539062 97.050781 131.363281 97.050781 C 132.1875 97.050781 132.855469 96.382812 132.855469 95.5625 Z M 132.855469 95.5625 "/>
<path fill-rule="nonzero" fill="rgb(0%, 0%, 0%)" fill-opacity="1" d="M 36.214844 95.5625 C 36.214844 94.738281 35.546875 94.070312 34.722656 94.070312 C 33.898438 94.070312 33.230469 94.738281 33.230469 95.5625 C 33.230469 96.382812 33.898438 97.050781 34.722656 97.050781 C 35.546875 97.050781 36.214844 96.382812 36.214844 95.5625 Z M 36.214844 95.5625 "/>
<path fill="none" stroke-width="0.3985" stroke-linecap="butt" stroke-linejoin="miter" stroke="rgb(0%, 0%, 0%)" stroke-opacity="1" stroke-miterlimit="10" d="M 80.697498 80.694456 L 64.555749 108.648959 " transform="matrix(0.997994, 0, 0, -0.997994, 18.616692, 176.095116)"/>
<path fill="none" stroke-width="0.3985" stroke-linecap="butt" stroke-linejoin="miter" stroke="rgb(0%, 0%, 0%)" stroke-opacity="1" stroke-miterlimit="10" d="M 89.198923 80.694456 C 89.198923 85.391376 85.394418 89.199795 80.697498 89.199795 C 79.202312 89.199795 77.734524 88.808385 76.442871 88.060792 " transform="matrix(0.997994, 0, 0, -0.997994, 18.616692, 176.095116)"/>
<g fill="rgb(0%, 0%, 0%)" fill-opacity="1">
<use xlink:href="#glyph-3-0" x="105.163765" y="84.31456"/>
</g>
<path fill="none" stroke-width="0.3985" stroke-linecap="butt" stroke-linejoin="miter" stroke="rgb(0%, 0%, 0%)" stroke-opacity="1" stroke-miterlimit="10" d="M 59.647468 105.81515 L 62.481276 100.906869 L 67.389558 103.740677 " transform="matrix(0.997994, 0, 0, -0.997994, 18.616692, 176.095116)"/>
<path fill="none" stroke-width="0.3985" stroke-linecap="butt" stroke-linejoin="miter" stroke="rgb(0%, 0%, 0%)" stroke-opacity="1" stroke-miterlimit="10" d="M 80.697498 80.694456 L 64.555749 52.743867 " transform="matrix(0.997994, 0, 0, -0.997994, 18.616692, 176.095116)"/>
<g fill="rgb(0%, 0%, 0%)" fill-opacity="1">
<use xlink:href="#glyph-3-1" x="134.875057" y="92.050015"/>
</g>
<g fill="rgb(0%, 0%, 0%)" fill-opacity="1">
<use xlink:href="#glyph-3-2" x="77.678001" y="64.153077"/>
</g>
<g fill="rgb(0%, 0%, 0%)" fill-opacity="1">
<use xlink:href="#glyph-3-3" x="30.793222" y="90.115902"/>
</g>
<g fill="rgb(0%, 0%, 0%)" fill-opacity="1">
<use xlink:href="#glyph-3-4" x="186.892522" y="103.356293"/>
</g>
<g fill="rgb(0%, 0%, 0%)" fill-opacity="1">
<use xlink:href="#glyph-3-5" x="102.661793" y="9.58374"/>
</g>
</svg>
