<?xml version="1.0" encoding="UTF-8"?>
<svg xmlns="http://www.w3.org/2000/svg" xmlns:xlink="http://www.w3.org/1999/xlink" width="198.65pt" height="165.773pt" viewBox="0 0 198.65 165.773">
<defs>
<g>
<g id="glyph-0-0">
<path d="M 2.75 -1.859375 L 2.75 -2.4375 L 0.109375 -2.4375 L 0.109375 -1.859375 Z M 2.75 -1.859375 "/>
</g>
<g id="glyph-0-1">
<path d="M 4.46875 -1.734375 L 4.21875 -1.734375 C 4.15625 -1.4375 4.09375 -1 4 -0.84375 C 3.921875 -0.765625 3.265625 -0.765625 3.046875 -0.765625 L 1.265625 -0.765625 L 2.3125 -1.78125 C 3.859375 -3.15625 4.46875 -3.703125 4.46875 -4.6875 C 4.46875 -5.828125 3.5625 -6.625 2.359375 -6.625 C 1.234375 -6.625 0.5 -5.703125 0.5 -4.8125 C 0.5 -4.265625 1 -4.265625 1.03125 -4.265625 C 1.1875 -4.265625 1.546875 -4.375 1.546875 -4.796875 C 1.546875 -5.046875 1.359375 -5.3125 1.015625 -5.3125 C 0.9375 -5.3125 0.921875 -5.3125 0.890625 -5.296875 C 1.109375 -5.9375 1.65625 -6.3125 2.21875 -6.3125 C 3.125 -6.3125 3.5625 -5.5 3.5625 -4.6875 C 3.5625 -3.890625 3.0625 -3.109375 2.515625 -2.5 L 0.609375 -0.375 C 0.5 -0.265625 0.5 -0.234375 0.5 0 L 4.1875 0 Z M 4.46875 -1.734375 "/>
</g>
<g id="glyph-1-0">
<path d="M 6.546875 -2.28125 C 6.71875 -2.28125 6.890625 -2.28125 6.890625 -2.484375 C 6.890625 -2.6875 6.71875 -2.6875 6.546875 -2.6875 L 1.171875 -2.6875 C 1 -2.6875 0.828125 -2.6875 0.828125 -2.484375 C 0.828125 -2.28125 1 -2.28125 1.171875 -2.28125 Z M 6.546875 -2.28125 "/>
</g>
<g id="glyph-2-0">
<path d="M 1.078125 -3.890625 C 1.4375 -3.796875 1.640625 -3.796875 1.75 -3.796875 C 2.671875 -3.796875 3.21875 -4.421875 3.21875 -4.53125 C 3.21875 -4.609375 3.171875 -4.625 3.140625 -4.625 C 3.125 -4.625 3.109375 -4.625 3.078125 -4.609375 C 2.90625 -4.546875 2.546875 -4.40625 2.03125 -4.40625 C 1.828125 -4.40625 1.46875 -4.421875 1.015625 -4.59375 C 0.9375 -4.625 0.921875 -4.625 0.921875 -4.625 C 0.828125 -4.625 0.828125 -4.546875 0.828125 -4.4375 L 0.828125 -2.390625 C 0.828125 -2.265625 0.828125 -2.1875 0.9375 -2.1875 C 1 -2.1875 1.015625 -2.1875 1.078125 -2.28125 C 1.375 -2.65625 1.8125 -2.71875 2.046875 -2.71875 C 2.46875 -2.71875 2.65625 -2.390625 2.6875 -2.328125 C 2.8125 -2.09375 2.859375 -1.828125 2.859375 -1.421875 C 2.859375 -1.21875 2.859375 -0.8125 2.640625 -0.5 C 2.46875 -0.25 2.171875 -0.078125 1.828125 -0.078125 C 1.375 -0.078125 0.90625 -0.328125 0.734375 -0.796875 C 1 -0.78125 1.140625 -0.953125 1.140625 -1.140625 C 1.140625 -1.4375 0.875 -1.484375 0.78125 -1.484375 C 0.78125 -1.484375 0.4375 -1.484375 0.4375 -1.109375 C 0.4375 -0.484375 1.015625 0.140625 1.84375 0.140625 C 2.734375 0.140625 3.515625 -0.515625 3.515625 -1.40625 C 3.515625 -2.1875 2.921875 -2.90625 2.0625 -2.90625 C 1.75 -2.90625 1.390625 -2.84375 1.078125 -2.578125 Z M 1.078125 -3.890625 "/>
</g>
<g id="glyph-2-1">
<path d="M 3.6875 -1.140625 L 3.6875 -1.390625 L 2.90625 -1.390625 L 2.90625 -4.5 C 2.90625 -4.640625 2.90625 -4.703125 2.765625 -4.703125 C 2.671875 -4.703125 2.640625 -4.703125 2.578125 -4.59375 L 0.265625 -1.390625 L 0.265625 -1.140625 L 2.328125 -1.140625 L 2.328125 -0.578125 C 2.328125 -0.328125 2.328125 -0.25 1.75 -0.25 L 1.5625 -0.25 L 1.5625 0 C 1.921875 -0.015625 2.359375 -0.03125 2.609375 -0.03125 C 2.875 -0.03125 3.3125 -0.015625 3.671875 0 L 3.671875 -0.25 L 3.484375 -0.25 C 2.90625 -0.25 2.90625 -0.328125 2.90625 -0.578125 L 2.90625 -1.140625 Z M 2.375 -3.9375 L 2.375 -1.390625 L 0.53125 -1.390625 Z M 2.375 -3.9375 "/>
</g>
<g id="glyph-2-2">
<path d="M 3.515625 -1.265625 L 3.28125 -1.265625 C 3.265625 -1.109375 3.1875 -0.703125 3.09375 -0.640625 C 3.046875 -0.59375 2.515625 -0.59375 2.40625 -0.59375 L 1.125 -0.59375 C 1.859375 -1.234375 2.109375 -1.4375 2.515625 -1.765625 C 3.03125 -2.171875 3.515625 -2.609375 3.515625 -3.265625 C 3.515625 -4.109375 2.78125 -4.625 1.890625 -4.625 C 1.03125 -4.625 0.4375 -4.015625 0.4375 -3.375 C 0.4375 -3.03125 0.734375 -2.984375 0.8125 -2.984375 C 0.96875 -2.984375 1.171875 -3.109375 1.171875 -3.359375 C 1.171875 -3.484375 1.125 -3.734375 0.765625 -3.734375 C 0.984375 -4.21875 1.453125 -4.375 1.78125 -4.375 C 2.484375 -4.375 2.84375 -3.828125 2.84375 -3.265625 C 2.84375 -2.65625 2.40625 -2.1875 2.1875 -1.9375 L 0.515625 -0.265625 C 0.4375 -0.203125 0.4375 -0.1875 0.4375 0 L 3.3125 0 Z M 3.515625 -1.265625 "/>
</g>
<g id="glyph-2-3">
<path d="M 1.90625 -2.328125 C 2.453125 -2.328125 2.84375 -1.953125 2.84375 -1.203125 C 2.84375 -0.34375 2.328125 -0.078125 1.9375 -0.078125 C 1.65625 -0.078125 1.03125 -0.15625 0.75 -0.578125 C 1.078125 -0.578125 1.15625 -0.8125 1.15625 -0.96875 C 1.15625 -1.1875 0.984375 -1.34375 0.765625 -1.34375 C 0.578125 -1.34375 0.375 -1.21875 0.375 -0.9375 C 0.375 -0.28125 1.09375 0.140625 1.9375 0.140625 C 2.90625 0.140625 3.578125 -0.515625 3.578125 -1.203125 C 3.578125 -1.75 3.140625 -2.296875 2.375 -2.453125 C 3.09375 -2.71875 3.359375 -3.234375 3.359375 -3.671875 C 3.359375 -4.21875 2.734375 -4.625 1.953125 -4.625 C 1.1875 -4.625 0.59375 -4.25 0.59375 -3.6875 C 0.59375 -3.453125 0.75 -3.328125 0.953125 -3.328125 C 1.171875 -3.328125 1.3125 -3.484375 1.3125 -3.671875 C 1.3125 -3.875 1.171875 -4.03125 0.953125 -4.046875 C 1.203125 -4.34375 1.671875 -4.421875 1.9375 -4.421875 C 2.25 -4.421875 2.6875 -4.265625 2.6875 -3.671875 C 2.6875 -3.375 2.59375 -3.046875 2.40625 -2.84375 C 2.1875 -2.578125 1.984375 -2.5625 1.640625 -2.53125 C 1.46875 -2.515625 1.453125 -2.515625 1.421875 -2.515625 C 1.40625 -2.515625 1.34375 -2.5 1.34375 -2.421875 C 1.34375 -2.328125 1.40625 -2.328125 1.53125 -2.328125 Z M 1.90625 -2.328125 "/>
</g>
<g id="glyph-3-0">
<path d="M 2.171875 -2.53125 L 3 -2.53125 C 2.890625 -2.109375 2.734375 -1.484375 2.734375 -0.921875 C 2.734375 -0.640625 2.78125 -0.453125 2.8125 -0.3125 C 2.921875 0.046875 3.015625 0.0625 3.125 0.0625 C 3.296875 0.0625 3.453125 -0.078125 3.453125 -0.25 C 3.453125 -0.296875 3.4375 -0.328125 3.40625 -0.390625 C 3.265625 -0.65625 3.140625 -1.046875 3.140625 -1.625 C 3.140625 -1.75 3.140625 -2.03125 3.234375 -2.53125 L 4.109375 -2.53125 C 4.234375 -2.53125 4.296875 -2.53125 4.375 -2.578125 C 4.46875 -2.65625 4.484375 -2.765625 4.484375 -2.796875 C 4.484375 -3 4.3125 -3 4.1875 -3 L 1.5625 -3 C 1.28125 -3 1.078125 -2.9375 0.765625 -2.640625 C 0.578125 -2.484375 0.3125 -2.109375 0.3125 -2.046875 C 0.3125 -1.96875 0.40625 -1.96875 0.4375 -1.96875 C 0.515625 -1.96875 0.515625 -1.984375 0.5625 -2.046875 C 0.90625 -2.53125 1.34375 -2.53125 1.5 -2.53125 L 1.921875 -2.53125 C 1.703125 -1.765625 1.328125 -0.9375 1.125 -0.515625 C 1.078125 -0.4375 1.015625 -0.28125 0.984375 -0.265625 C 0.984375 -0.234375 0.96875 -0.203125 0.96875 -0.15625 C 0.96875 -0.046875 1.046875 0.0625 1.21875 0.0625 C 1.484375 0.0625 1.5625 -0.25 1.734375 -0.875 Z M 2.171875 -2.53125 "/>
</g>
<g id="glyph-4-0">
<path d="M 3.3125 -3 C 3.375 -3.265625 3.609375 -4.171875 4.296875 -4.171875 C 4.359375 -4.171875 4.59375 -4.171875 4.796875 -4.046875 C 4.515625 -4 4.328125 -3.75 4.328125 -3.515625 C 4.328125 -3.34375 4.4375 -3.15625 4.703125 -3.15625 C 4.921875 -3.15625 5.234375 -3.34375 5.234375 -3.734375 C 5.234375 -4.25 4.65625 -4.390625 4.3125 -4.390625 C 3.734375 -4.390625 3.390625 -3.859375 3.265625 -3.640625 C 3.015625 -4.296875 2.484375 -4.390625 2.203125 -4.390625 C 1.15625 -4.390625 0.59375 -3.109375 0.59375 -2.859375 C 0.59375 -2.765625 0.703125 -2.765625 0.71875 -2.765625 C 0.796875 -2.765625 0.828125 -2.78125 0.84375 -2.875 C 1.1875 -3.921875 1.84375 -4.171875 2.171875 -4.171875 C 2.359375 -4.171875 2.71875 -4.078125 2.71875 -3.515625 C 2.71875 -3.203125 2.546875 -2.53125 2.171875 -1.140625 C 2.015625 -0.53125 1.671875 -0.109375 1.234375 -0.109375 C 1.171875 -0.109375 0.9375 -0.109375 0.734375 -0.234375 C 0.984375 -0.28125 1.203125 -0.5 1.203125 -0.78125 C 1.203125 -1.046875 0.984375 -1.125 0.828125 -1.125 C 0.53125 -1.125 0.28125 -0.859375 0.28125 -0.546875 C 0.28125 -0.09375 0.78125 0.109375 1.21875 0.109375 C 1.875 0.109375 2.234375 -0.59375 2.265625 -0.640625 C 2.390625 -0.28125 2.75 0.109375 3.34375 0.109375 C 4.359375 0.109375 4.921875 -1.171875 4.921875 -1.421875 C 4.921875 -1.515625 4.84375 -1.515625 4.8125 -1.515625 C 4.71875 -1.515625 4.703125 -1.484375 4.6875 -1.40625 C 4.359375 -0.34375 3.671875 -0.109375 3.359375 -0.109375 C 2.96875 -0.109375 2.8125 -0.421875 2.8125 -0.765625 C 2.8125 -0.984375 2.875 -1.203125 2.984375 -1.640625 Z M 3.3125 -3 "/>
</g>
<g id="glyph-4-1">
<path d="M 4.828125 -3.78125 C 4.875 -3.921875 4.875 -3.9375 4.875 -4.015625 C 4.875 -4.1875 4.734375 -4.28125 4.578125 -4.28125 C 4.484375 -4.28125 4.328125 -4.21875 4.234375 -4.078125 C 4.21875 -4.03125 4.140625 -3.71875 4.09375 -3.53125 C 4.03125 -3.28125 3.953125 -3.015625 3.890625 -2.75 L 3.453125 -0.953125 C 3.40625 -0.8125 2.984375 -0.109375 2.328125 -0.109375 C 1.8125 -0.109375 1.703125 -0.546875 1.703125 -0.921875 C 1.703125 -1.375 1.875 -1.984375 2.21875 -2.859375 C 2.375 -3.265625 2.421875 -3.375 2.421875 -3.578125 C 2.421875 -4.03125 2.09375 -4.390625 1.59375 -4.390625 C 0.65625 -4.390625 0.28125 -2.953125 0.28125 -2.859375 C 0.28125 -2.765625 0.390625 -2.765625 0.40625 -2.765625 C 0.5 -2.765625 0.515625 -2.78125 0.5625 -2.9375 C 0.828125 -3.875 1.234375 -4.171875 1.5625 -4.171875 C 1.65625 -4.171875 1.8125 -4.171875 1.8125 -3.859375 C 1.8125 -3.609375 1.71875 -3.34375 1.65625 -3.15625 C 1.25 -2.109375 1.078125 -1.546875 1.078125 -1.078125 C 1.078125 -0.1875 1.703125 0.109375 2.28125 0.109375 C 2.671875 0.109375 3.015625 -0.0625 3.296875 -0.34375 C 3.15625 0.171875 3.046875 0.671875 2.640625 1.1875 C 2.390625 1.53125 2 1.8125 1.546875 1.8125 C 1.40625 1.8125 0.96875 1.78125 0.796875 1.40625 C 0.953125 1.40625 1.078125 1.40625 1.21875 1.28125 C 1.328125 1.1875 1.421875 1.0625 1.421875 0.875 C 1.421875 0.5625 1.15625 0.53125 1.046875 0.53125 C 0.828125 0.53125 0.5 0.6875 0.5 1.171875 C 0.5 1.671875 0.9375 2.03125 1.546875 2.03125 C 2.578125 2.03125 3.59375 1.140625 3.875 0.015625 Z M 4.828125 -3.78125 "/>
</g>
</g>
</defs>
<path fill="none" stroke-width="0.19925" stroke-linecap="butt" stroke-linejoin="miter" stroke="rgb(50%, 50%, 50%)" stroke-opacity="1" stroke-miterlimit="10" d="M 24.284254 70.725431 L 24.284254 74.975093 M 60.70769 70.725431 L 60.70769 74.975093 " transform="matrix(0.998241, 0, 0, -0.998241, 2.188145, 155.495571)"/>
<path fill="none" stroke-width="0.3985" stroke-linecap="butt" stroke-linejoin="miter" stroke="rgb(0%, 0%, 0%)" stroke-opacity="1" stroke-miterlimit="10" d="M -0.00064586 72.850262 L 192.275027 72.850262 " transform="matrix(0.998241, 0, 0, -0.998241, 2.188145, 155.495571)"/>
<path fill-rule="nonzero" fill="rgb(0%, 0%, 0%)" fill-opacity="1" d="M 196.117188 82.773438 L 192.933594 81.179688 L 194.125 82.773438 L 192.933594 84.363281 "/>
<path fill="none" stroke-width="0.3985" stroke-linecap="butt" stroke-linejoin="miter" stroke="rgb(0%, 0%, 0%)" stroke-opacity="1" stroke-miterlimit="10" d="M 121.419939 -7.846355 L 121.419939 151.555094 " transform="matrix(0.998241, 0, 0, -0.998241, 2.188145, 155.495571)"/>
<path fill-rule="nonzero" fill="rgb(0%, 0%, 0%)" fill-opacity="1" d="M 123.394531 2.21875 L 121.800781 5.402344 L 123.394531 4.207031 L 124.984375 5.402344 "/>
<g fill="rgb(0%, 0%, 0%)" fill-opacity="1">
<use xlink:href="#glyph-0-0" x="22.286733" y="95.032101"/>
<use xlink:href="#glyph-0-1" x="25.598457" y="95.032101"/>
</g>
<g fill="rgb(0%, 0%, 0%)" fill-opacity="1">
<use xlink:href="#glyph-1-0" x="55.74678" y="96.810967"/>
</g>
<g fill="rgb(0%, 0%, 0%)" fill-opacity="1">
<use xlink:href="#glyph-2-0" x="64.675049" y="92.895865"/>
</g>
<path fill="none" stroke-width="0.398" stroke-linecap="butt" stroke-linejoin="miter" stroke="rgb(0%, 0%, 0%)" stroke-opacity="1" stroke-miterlimit="10" d="M 0.000733042 0.000129216 L 3.972562 0.000129216 " transform="matrix(0.998241, 0, 0, -0.998241, 64.675049, 94.324348)"/>
<g fill="rgb(0%, 0%, 0%)" fill-opacity="1">
<use xlink:href="#glyph-2-1" x="64.675049" y="100.240923"/>
</g>
<path fill="none" stroke-width="0.79701" stroke-linecap="butt" stroke-linejoin="miter" stroke="rgb(100%, 0%, 0%)" stroke-opacity="1" stroke-miterlimit="10" d="M 14.571859 11.331907 L 97.13504 121.420061 " transform="matrix(0.998241, 0, 0, -0.998241, 2.188145, 155.495571)"/>
<path fill="none" stroke-width="0.3985" stroke-linecap="butt" stroke-linejoin="miter" stroke="rgb(0%, 0%, 0%)" stroke-opacity="1" stroke-dasharray="2.98883 2.98883" stroke-miterlimit="10" d="M 14.571859 67.242743 L 106.847434 120.520041 " transform="matrix(0.998241, 0, 0, -0.998241, 2.188145, 155.495571)"/>
<path fill="none" stroke-width="0.3985" stroke-linecap="butt" stroke-linejoin="miter" stroke="rgb(0%, 0%, 0%)" stroke-opacity="1" stroke-miterlimit="10" d="M 169.985825 72.850262 C 169.985825 72.850262 169.942781 75.057268 169.89191 75.902505 C 169.837126 76.743828 169.707993 78.097772 169.602338 78.939096 C 169.496684 79.776506 169.285375 81.11871 169.124936 81.952208 C 168.968411 82.781792 168.671013 84.108344 168.459704 84.930101 C 168.248395 85.747946 167.868821 87.054932 167.610554 87.861038 C 167.348374 88.66323 166.886624 89.942824 166.577487 90.729364 C 166.264436 91.515903 165.724424 92.764192 165.364416 93.531166 C 165.004408 94.294227 164.386133 95.507298 163.979167 96.24688 C 163.572201 96.990375 162.879577 98.160402 162.425654 98.876505 C 161.97173 99.588695 161.208669 100.715677 160.711702 101.396563 C 160.214734 102.081361 159.381237 103.157472 158.841224 103.810965 C 158.301212 104.460545 157.401192 105.481873 156.822048 106.096235 C 156.242904 106.714509 155.284187 107.67714 154.665912 108.256284 C 154.047637 108.835427 153.030223 109.735448 152.37673 110.271547 C 151.723236 110.811559 150.651038 111.645056 149.96624 112.142024 C 149.281442 112.638992 148.158373 113.405966 147.44227 113.859889 C 146.726166 114.309899 145.55614 115.002524 144.816558 115.40949 C 144.073063 115.820369 142.863905 116.43473 142.096931 116.794738 C 141.33387 117.15866 140.085581 117.694759 139.299041 118.00781 C 138.512501 118.32086 137.232907 118.778697 136.426802 119.040876 C 135.620697 119.303056 134.317624 119.68263 133.495866 119.893939 C 132.678021 120.105248 131.351469 120.398733 130.517972 120.559172 C 129.688388 120.715697 128.346184 120.930919 127.50486 121.036574 C 126.66745 121.142229 125.313506 121.271362 124.468269 121.322233 C 123.623033 121.377017 122.265176 121.420061 121.419939 121.420061 C 120.570789 121.420061 119.212933 121.377017 118.367696 121.322233 C 117.526372 121.271362 116.172429 121.142229 115.331105 121.036574 C 114.493695 120.930919 113.147577 120.715697 112.317993 120.559172 C 111.488409 120.398733 110.161857 120.105248 109.340099 119.893939 C 108.522255 119.68263 107.215269 119.303056 106.409163 119.040876 C 105.606971 118.778697 104.327377 118.32086 103.540837 118.00781 C 102.754298 117.694759 101.506008 117.15866 100.739034 116.794738 C 99.972061 116.43473 98.762903 115.820369 98.019407 115.40949 C 97.279825 115.002524 96.109799 114.309899 95.393696 113.859889 C 94.681506 113.405966 93.554523 112.638992 92.869725 112.142024 C 92.184927 111.645056 91.112729 110.811559 90.459236 110.271547 C 89.809656 109.735448 88.788328 108.835427 88.170053 108.256284 C 87.555691 107.67714 86.593061 106.714509 86.013917 106.096235 C 85.434774 105.481873 84.534753 104.460545 83.998654 103.810965 C 83.458642 103.157472 82.625145 102.081361 82.128177 101.396563 C 81.631209 100.715677 80.864235 99.588695 80.410312 98.876505 C 79.960301 98.160402 79.267677 96.990375 78.856798 96.24688 C 78.449832 95.507298 77.835471 94.294227 77.475462 93.531166 C 77.111541 92.764192 76.571529 91.515903 76.262391 90.729364 C 75.949341 89.942824 75.491504 88.66323 75.229324 87.861038 C 74.967145 87.054932 74.587571 85.747946 74.376262 84.930101 C 74.164952 84.108344 73.871467 82.781792 73.711029 81.952208 C 73.554504 81.11871 73.339281 79.776506 73.233627 78.939096 C 73.127972 78.097772 72.998839 76.743828 72.947968 75.902505 C 72.893184 75.057268 72.85014 73.699411 72.85014 72.850262 C 72.85014 72.005025 72.893184 70.647168 72.947968 69.801932 C 72.998839 68.956695 73.127972 67.602751 73.233627 66.765341 C 73.339281 65.924017 73.554504 64.581813 73.711029 63.752229 C 73.871467 62.918732 74.164952 61.59218 74.376262 60.774335 C 74.587571 59.952577 74.967145 58.649504 75.229324 57.843399 C 75.491504 57.037294 75.949341 55.757699 76.262391 54.97116 C 76.571529 54.18462 77.111541 52.936331 77.475462 52.17327 C 77.835471 51.406296 78.449832 50.197138 78.856798 49.453643 C 79.267677 48.710148 79.960301 47.540121 80.410312 46.827931 C 80.864235 46.111828 81.631209 44.988759 82.128177 44.303961 C 82.625145 43.619163 83.458642 42.546964 83.998654 41.893471 C 84.534753 41.239978 85.434774 40.222564 86.013917 39.604289 C 86.593061 38.986014 87.555691 38.027297 88.170053 37.448153 C 88.788328 36.869009 89.809656 35.968989 90.459236 35.428977 C 91.112729 34.888964 92.184927 34.055467 92.869725 33.558499 C 93.554523 33.061532 94.681506 32.298471 95.393696 31.844547 C 96.109799 31.390624 97.279825 30.698 98.019407 30.291034 C 98.762903 29.884068 99.972061 29.265793 100.739034 28.905785 C 101.506008 28.545777 102.754298 28.005764 103.540837 27.692714 C 104.327377 27.383576 105.606971 26.921827 106.409163 26.659647 C 107.215269 26.397467 108.522255 26.021806 109.340099 25.810497 C 110.161857 25.599188 111.488409 25.30179 112.317993 25.145265 C 113.147577 24.984826 114.493695 24.773517 115.331105 24.667863 C 116.172429 24.562208 117.526372 24.433075 118.367696 24.378291 C 119.212933 24.32742 120.570789 24.284376 121.419939 24.284376 C 122.265176 24.284376 123.623033 24.32742 124.468269 24.378291 C 125.313506 24.433075 126.66745 24.562208 127.50486 24.667863 C 128.346184 24.773517 129.688388 24.984826 130.517972 25.145265 C 131.351469 25.30179 132.678021 25.599188 133.495866 25.810497 C 134.317624 26.021806 135.620697 26.397467 136.426802 26.659647 C 137.232907 26.921827 138.512501 27.383576 139.299041 27.692714 C 140.085581 28.005764 141.33387 28.545777 142.096931 28.905785 C 142.863905 29.265793 144.073063 29.884068 144.816558 30.291034 C 145.55614 30.698 146.726166 31.390624 147.44227 31.844547 C 148.158373 32.298471 149.281442 33.061532 149.96624 33.558499 C 150.651038 34.055467 151.723236 34.888964 152.37673 35.428977 C 153.030223 35.968989 154.047637 36.869009 154.665912 37.448153 C 155.284187 38.027297 156.242904 38.986014 156.822048 39.604289 C 157.401192 40.222564 158.301212 41.239978 158.841224 41.893471 C 159.381237 42.546964 160.214734 43.619163 160.711702 44.303961 C 161.208669 44.988759 161.97173 46.111828 162.425654 46.827931 C 162.879577 47.540121 163.572201 48.710148 163.979167 49.453643 C 164.386133 50.197138 165.004408 51.406296 165.364416 52.17327 C 165.724424 52.936331 166.264436 54.18462 166.577487 54.97116 C 166.886624 55.757699 167.348374 57.037294 167.610554 57.843399 C 167.868821 58.649504 168.248395 59.952577 168.459704 60.774335 C 168.671013 61.59218 168.968411 62.918732 169.124936 63.752229 C 169.285375 64.581813 169.496684 65.924017 169.602338 66.765341 C 169.707993 67.602751 169.837126 68.956695 169.89191 69.801932 C 169.942781 70.647168 169.985825 72.850262 169.985825 72.850262 " transform="matrix(0.998241, 0, 0, -0.998241, 2.188145, 155.495571)"/>
<path fill="none" stroke-width="1.59404" stroke-linecap="butt" stroke-linejoin="miter" stroke="rgb(0%, 0%, 0%)" stroke-opacity="1" stroke-miterlimit="10" d="M 97.13504 114.912522 C 97.13504 114.912522 96.818076 114.728605 96.696769 114.654255 C 96.575462 114.583819 96.379805 114.466425 96.258498 114.395988 C 96.137191 114.321639 95.945447 114.204245 95.82414 114.129895 C 95.706746 114.055546 95.515003 113.934239 95.393696 113.859889 C 95.276302 113.781627 95.084558 113.660319 94.967164 113.582057 C 94.84977 113.507707 94.658027 113.382487 94.540633 113.304224 C 94.423239 113.225962 94.235408 113.100742 94.118014 113.018566 C 94.004534 112.940303 93.816703 112.81117 93.699309 112.732907 C 93.585828 112.650731 93.397998 112.521598 93.284517 112.439422 C 93.171036 112.357246 92.987119 112.2242 92.869725 112.142024 C 92.756244 112.059848 92.57624 111.926802 92.462759 111.840713 C 92.349279 111.758537 92.165361 111.621577 92.055794 111.535489 C 91.942313 111.453313 91.762309 111.31244 91.652741 111.226351 C 91.53926 111.140262 91.363169 110.999389 91.249688 110.9133 C 91.140121 110.827212 90.96403 110.682426 90.854462 110.596337 C 90.744894 110.506335 90.568803 110.361549 90.459236 110.271547 C 90.353581 110.181545 90.17749 110.036759 90.071836 109.946757 C 89.962268 109.856755 89.79009 109.708056 89.684435 109.618054 C 89.578781 109.524138 89.406603 109.375439 89.300948 109.281524 C 89.195294 109.187609 89.027029 109.03891 88.921375 108.944995 C 88.81572 108.85108 88.647455 108.698468 88.545714 108.600639 C 88.440059 108.506724 88.275708 108.350199 88.170053 108.256284 C 88.068312 108.158455 87.90396 108.00193 87.802219 107.904102 C 87.700477 107.806273 87.540039 107.649748 87.438297 107.55192 C 87.336556 107.454091 87.176118 107.293653 87.074376 107.191912 C 86.976548 107.094083 86.816109 106.933645 86.718281 106.831903 C 86.620453 106.730162 86.463928 106.569724 86.366099 106.467982 C 86.268271 106.366241 86.111746 106.201889 86.013917 106.096235 C 85.916089 105.994493 85.763477 105.830142 85.669562 105.724487 C 85.571733 105.622746 85.419121 105.454481 85.325206 105.348826 C 85.231291 105.243172 85.082592 105.074907 84.988677 104.969252 C 84.894761 104.863598 84.746062 104.69142 84.652147 104.585765 C 84.562145 104.480111 84.413446 104.307933 84.323444 104.198365 C 84.233442 104.092711 84.088656 103.91662 83.998654 103.810965 C 83.908652 103.701397 83.763866 103.525307 83.673864 103.415739 C 83.587775 103.306171 83.442989 103.13008 83.3569 103.020512 C 83.270811 102.907032 83.129939 102.730941 83.04385 102.61746 C 82.957761 102.507892 82.816888 102.327888 82.734712 102.214407 C 82.648623 102.100926 82.511664 101.920922 82.429488 101.807441 C 82.343399 101.693961 82.210353 101.513956 82.128177 101.396563 C 82.042088 101.283082 81.912955 101.099164 81.830779 100.985684 C 81.748603 100.872203 81.61947 100.684372 81.537294 100.570892 C 81.455118 100.453498 81.329898 100.265667 81.247722 100.152186 C 81.169459 100.034792 81.044239 99.846962 80.965976 99.729568 C 80.887714 99.612174 80.762494 99.420431 80.688144 99.303037 C 80.609881 99.185643 80.488574 98.993899 80.410312 98.876505 C 80.335962 98.755198 80.214655 98.563455 80.140306 98.446061 C 80.065956 98.324754 79.948562 98.13301 79.874213 98.011703 C 79.803776 97.890396 79.686382 97.694739 79.615946 97.573432 C 79.541596 97.452125 79.428115 97.256468 79.357679 97.135161 C 79.287243 97.013854 79.173762 96.814284 79.107239 96.692977 C 79.036802 96.57167 78.927235 96.372101 78.856798 96.24688 C 78.790275 96.125573 78.68462 95.926003 78.614184 95.800783 C 78.547661 95.675563 78.442006 95.475993 78.379396 95.350773 C 78.312873 95.225553 78.207218 95.025983 78.144608 94.900763 C 78.081998 94.775543 77.980256 94.57206 77.917646 94.446839 C 77.855036 94.317706 77.753295 94.118136 77.690685 93.989003 C 77.631988 93.863783 77.534159 93.656387 77.475462 93.531166 C 77.412852 93.402033 77.318937 93.19855 77.26024 93.069417 C 77.201543 92.940283 77.107628 92.732887 77.048931 92.603754 C 76.994147 92.474621 76.900232 92.271138 76.845448 92.138091 C 76.790664 92.008958 76.700662 91.801562 76.645878 91.672429 C 76.591094 91.543295 76.505006 91.331986 76.450222 91.202853 C 76.399351 91.069806 76.313262 90.86241 76.262391 90.729364 C 76.211521 90.60023 76.129345 90.388921 76.078474 90.255875 C 76.027603 90.122828 75.945428 89.911519 75.89847 89.782386 C 75.847599 89.649339 75.769337 89.434117 75.722379 89.30107 C 75.675422 89.171937 75.601072 88.956715 75.554114 88.823668 C 75.507157 88.690622 75.432807 88.475399 75.389763 88.342353 C 75.342805 88.209306 75.272369 87.994084 75.229324 87.861038 C 75.18628 87.724078 75.115844 87.508856 75.072799 87.375809 C 75.029755 87.23885 74.963231 87.023627 74.9241 86.890581 C 74.884969 86.753621 74.818446 86.538399 74.779314 86.401439 C 74.740183 86.26448 74.677573 86.049257 74.638441 85.912298 C 74.603223 85.775338 74.544526 85.556203 74.505395 85.423156 C 74.470177 85.286196 74.41148 85.067061 74.376262 84.930101 C 74.341043 84.793142 74.28626 84.574006 74.254954 84.437047 C 74.219736 84.300087 74.164952 84.080952 74.133647 83.940079 C 74.102342 83.803119 74.051472 83.583984 74.020166 83.447024 C 73.988861 83.310065 73.941904 83.087016 73.910599 82.950056 C 73.883207 82.809184 73.836249 82.590048 73.808857 82.449175 C 73.781465 82.312216 73.738421 82.089167 73.711029 81.952208 C 73.683637 81.811335 73.644506 81.592199 73.617114 81.451327 C 73.593635 81.314367 73.554504 81.091319 73.531025 80.950446 C 73.507546 80.813486 73.472328 80.586524 73.448849 80.449565 C 73.42537 80.308692 73.394065 80.085643 73.370587 79.944771 C 73.351021 79.807811 73.319716 79.580849 73.30015 79.44389 C 73.280584 79.303017 73.253193 79.079968 73.233627 78.939096 C 73.217974 78.798223 73.190582 78.575174 73.17493 78.434302 C 73.155364 78.293429 73.131885 78.066467 73.116233 77.929508 C 73.104494 77.788635 73.081015 77.561673 73.065362 77.4208 C 73.053623 77.279928 73.034057 77.056879 73.022318 76.916006 C 73.010578 76.775133 72.991013 76.548172 72.983186 76.407299 C 72.971447 76.266426 72.955794 76.043378 72.947968 75.902505 C 72.940142 75.761632 72.924489 75.534671 72.916663 75.393798 C 72.908837 75.252925 72.901011 75.025963 72.893184 74.885091 C 72.889271 74.744218 72.881445 74.517256 72.873619 74.376383 C 72.869706 74.235511 72.865792 74.008549 72.861879 73.867676 C 72.857966 73.726803 72.854053 73.499842 72.854053 73.358969 C 72.854053 73.218096 72.85014 72.850262 72.85014 72.850262 " transform="matrix(0.998241, 0, 0, -0.998241, 2.188145, 155.495571)"/>
<path fill="none" stroke-width="0.3985" stroke-linecap="butt" stroke-linejoin="miter" stroke="rgb(0%, 0%, 0%)" stroke-opacity="1" stroke-dasharray="2.98883 2.98883" stroke-miterlimit="10" d="M 121.419939 72.850262 L 82.562535 101.991359 " transform="matrix(0.998241, 0, 0, -0.998241, 2.188145, 155.495571)"/>
<path fill="none" stroke-width="0.3985" stroke-linecap="butt" stroke-linejoin="miter" stroke="rgb(0%, 0%, 0%)" stroke-opacity="1" stroke-dasharray="2.98883 2.98883" stroke-miterlimit="10" d="M 121.419939 72.850262 L 82.562535 43.709165 " transform="matrix(0.998241, 0, 0, -0.998241, 2.188145, 155.495571)"/>
<path fill="none" stroke-width="0.3985" stroke-linecap="butt" stroke-linejoin="miter" stroke="rgb(0%, 0%, 0%)" stroke-opacity="1" stroke-dasharray="2.98883 2.98883" stroke-miterlimit="10" d="M 121.419939 72.850262 L 97.13504 114.912522 " transform="matrix(0.998241, 0, 0, -0.998241, 2.188145, 155.495571)"/>
<path fill-rule="nonzero" fill="rgb(0%, 0%, 0%)" fill-opacity="1" d="M 64.28125 82.773438 C 64.28125 81.949219 63.613281 81.28125 62.789062 81.28125 C 61.964844 81.28125 61.296875 81.949219 61.296875 82.773438 C 61.296875 83.597656 61.964844 84.265625 62.789062 84.265625 C 63.613281 84.265625 64.28125 83.597656 64.28125 82.773438 Z M 64.28125 82.773438 "/>
<path fill-rule="nonzero" fill="rgb(0%, 0%, 0%)" fill-opacity="1" d="M 86.097656 53.683594 C 86.097656 52.859375 85.429688 52.191406 84.605469 52.191406 C 83.785156 52.191406 83.117188 52.859375 83.117188 53.683594 C 83.117188 54.507812 83.785156 55.175781 84.605469 55.175781 C 85.429688 55.175781 86.097656 54.507812 86.097656 53.683594 Z M 86.097656 53.683594 "/>
<path fill-rule="nonzero" fill="rgb(0%, 0%, 0%)" fill-opacity="1" d="M 86.097656 111.863281 C 86.097656 111.039062 85.429688 110.371094 84.605469 110.371094 C 83.785156 110.371094 83.117188 111.039062 83.117188 111.863281 C 83.117188 112.6875 83.785156 113.355469 84.605469 113.355469 C 85.429688 113.355469 86.097656 112.6875 86.097656 111.863281 Z M 86.097656 111.863281 "/>
<path fill-rule="nonzero" fill="rgb(0%, 0%, 0%)" fill-opacity="1" d="M 100.644531 40.785156 C 100.644531 39.964844 99.976562 39.296875 99.152344 39.296875 C 98.328125 39.296875 97.660156 39.964844 97.660156 40.785156 C 97.660156 41.609375 98.328125 42.277344 99.152344 42.277344 C 99.976562 42.277344 100.644531 41.609375 100.644531 40.785156 Z M 100.644531 40.785156 "/>
<path fill-rule="nonzero" fill="rgb(0%, 0%, 0%)" fill-opacity="1" d="M 76.402344 82.773438 C 76.402344 81.949219 75.734375 81.28125 74.910156 81.28125 C 74.085938 81.28125 73.417969 81.949219 73.417969 82.773438 C 73.417969 83.597656 74.085938 84.265625 74.910156 84.265625 C 75.734375 84.265625 76.402344 83.597656 76.402344 82.773438 Z M 76.402344 82.773438 "/>
<path fill="none" stroke-width="0.3985" stroke-linecap="butt" stroke-linejoin="miter" stroke="rgb(0%, 0%, 0%)" stroke-opacity="1" stroke-miterlimit="10" d="M 79.162022 97.456038 L 83.697343 94.055526 L 87.097855 98.590847 " transform="matrix(0.998241, 0, 0, -0.998241, 2.188145, 155.495571)"/>
<path fill="none" stroke-width="0.3985" stroke-linecap="butt" stroke-linejoin="miter" stroke="rgb(0%, 0%, 0%)" stroke-opacity="1" stroke-miterlimit="10" d="M 127.086155 72.850262 C 127.086155 75.980768 124.550445 78.520391 121.419939 78.520391 C 120.42209 78.520391 119.443807 78.258211 118.582918 77.761243 " transform="matrix(0.998241, 0, 0, -0.998241, 2.188145, 155.495571)"/>
<g fill="rgb(0%, 0%, 0%)" fill-opacity="1">
<use xlink:href="#glyph-2-2" x="124.617437" y="71.542487"/>
</g>
<g fill="rgb(0%, 0%, 0%)" fill-opacity="1">
<use xlink:href="#glyph-3-0" x="128.582452" y="71.542487"/>
</g>
<path fill="none" stroke-width="0.398" stroke-linecap="butt" stroke-linejoin="miter" stroke="rgb(0%, 0%, 0%)" stroke-opacity="1" stroke-miterlimit="10" d="M -0.000250378 -0.00168912 L 8.878647 -0.00168912 " transform="matrix(0.998241, 0, 0, -0.998241, 124.617437, 72.97097)"/>
<g fill="rgb(0%, 0%, 0%)" fill-opacity="1">
<use xlink:href="#glyph-2-3" x="127.06812" y="78.887546"/>
</g>
<g fill="rgb(0%, 0%, 0%)" fill-opacity="1">
<use xlink:href="#glyph-4-0" x="186.915675" y="79.25989"/>
</g>
<g fill="rgb(0%, 0%, 0%)" fill-opacity="1">
<use xlink:href="#glyph-4-1" x="126.904408" y="10.01589"/>
</g>
</svg>
