<?xml version="1.0" encoding="UTF-8"?>
<svg xmlns="http://www.w3.org/2000/svg" xmlns:xlink="http://www.w3.org/1999/xlink" width="202.938pt" height="165.782pt" viewBox="0 0 202.938 165.782">
<defs>
<g>
<g id="glyph-0-0">
<path d="M 5.125 17.390625 C 5.140625 17.40625 5.234375 17.5 5.25 17.5 L 5.46875 17.5 C 5.5 17.5 5.578125 17.5 5.578125 17.40625 C 5.578125 17.375 5.546875 17.34375 5.53125 17.3125 C 5.171875 16.953125 4.640625 16.40625 4.015625 15.3125 C 2.953125 13.40625 2.546875 10.953125 2.546875 8.5625 C 2.546875 4.140625 3.796875 1.546875 5.546875 -0.21875 C 5.578125 -0.25 5.578125 -0.28125 5.578125 -0.296875 C 5.578125 -0.390625 5.5 -0.390625 5.390625 -0.390625 C 5.25 -0.390625 5.234375 -0.390625 5.140625 -0.3125 C 4.203125 0.5 3.140625 1.875 2.453125 3.984375 C 2.015625 5.296875 1.796875 6.890625 1.796875 8.546875 C 1.796875 10.90625 2.21875 13.578125 3.78125 15.890625 C 4.046875 16.265625 4.421875 16.6875 4.421875 16.6875 C 4.515625 16.8125 4.65625 16.96875 4.734375 17.046875 Z M 5.125 17.390625 "/>
</g>
<g id="glyph-0-1">
<path d="M 4.625 16.03125 L 2.484375 8.5625 L 1.09375 10.1875 L 1.25 10.328125 L 1.9375 9.53125 L 4.21875 17.515625 C 4.546875 17.515625 4.5625 17.515625 4.640625 17.28125 L 10.109375 0 C 10.15625 -0.15625 10.15625 -0.1875 10.15625 -0.203125 C 10.15625 -0.3125 10.078125 -0.390625 9.953125 -0.390625 C 9.796875 -0.390625 9.765625 -0.265625 9.71875 -0.140625 Z M 4.625 16.03125 "/>
</g>
<g id="glyph-0-2">
<path d="M 4.140625 8.546875 C 4.140625 5.6875 3.46875 2.65625 1.515625 0.421875 C 1.375 0.265625 1 -0.125 0.765625 -0.34375 C 0.703125 -0.390625 0.671875 -0.390625 0.546875 -0.390625 C 0.453125 -0.390625 0.359375 -0.390625 0.359375 -0.296875 C 0.359375 -0.265625 0.390625 -0.21875 0.421875 -0.203125 C 0.75 0.15625 1.296875 0.703125 1.90625 1.796875 C 2.984375 3.703125 3.390625 6.15625 3.390625 8.546875 C 3.390625 12.875 2.1875 15.5 0.390625 17.328125 C 0.375 17.34375 0.359375 17.375 0.359375 17.40625 C 0.359375 17.5 0.453125 17.5 0.546875 17.5 C 0.671875 17.5 0.703125 17.5 0.78125 17.421875 C 1.734375 16.609375 2.796875 15.234375 3.484375 13.125 C 3.921875 11.765625 4.140625 10.15625 4.140625 8.546875 Z M 4.140625 8.546875 "/>
</g>
<g id="glyph-1-0">
<path d="M 1.640625 -1.640625 C 2.09375 -1.640625 2.40625 -1.359375 2.40625 -0.875 C 2.40625 -0.359375 2.09375 -0.09375 1.640625 -0.09375 C 1.59375 -0.09375 1 -0.09375 0.75 -0.359375 C 0.953125 -0.375 1.015625 -0.53125 1.015625 -0.65625 C 1.015625 -0.84375 0.875 -0.953125 0.703125 -0.953125 C 0.546875 -0.953125 0.390625 -0.859375 0.390625 -0.640625 C 0.390625 -0.125 0.984375 0.109375 1.65625 0.109375 C 2.46875 0.109375 2.984375 -0.375 2.984375 -0.859375 C 2.984375 -1.265625 2.625 -1.625 2.046875 -1.75 C 2.640625 -1.9375 2.8125 -2.328125 2.8125 -2.59375 C 2.8125 -3 2.296875 -3.3125 1.671875 -3.3125 C 1.0625 -3.3125 0.578125 -3.046875 0.578125 -2.609375 C 0.578125 -2.375 0.765625 -2.3125 0.859375 -2.3125 C 1 -2.3125 1.140625 -2.421875 1.140625 -2.59375 C 1.140625 -2.703125 1.078125 -2.84375 0.90625 -2.875 C 1.109375 -3.109375 1.5625 -3.125 1.65625 -3.125 C 2.015625 -3.125 2.28125 -2.9375 2.28125 -2.59375 C 2.28125 -2.3125 2.09375 -1.859375 1.5625 -1.828125 C 1.4375 -1.828125 1.40625 -1.8125 1.28125 -1.8125 C 1.234375 -1.8125 1.171875 -1.796875 1.171875 -1.734375 C 1.171875 -1.640625 1.21875 -1.640625 1.3125 -1.640625 Z M 1.640625 -1.640625 "/>
</g>
<g id="glyph-2-0">
<path d="M 2.328125 -4.4375 C 2.328125 -4.625 2.328125 -4.625 2.125 -4.625 C 1.671875 -4.1875 1.046875 -4.1875 0.765625 -4.1875 L 0.765625 -3.9375 C 0.921875 -3.9375 1.390625 -3.9375 1.765625 -4.125 L 1.765625 -0.578125 C 1.765625 -0.34375 1.765625 -0.25 1.078125 -0.25 L 0.8125 -0.25 L 0.8125 0 C 0.9375 0 1.796875 -0.03125 2.046875 -0.03125 C 2.265625 -0.03125 3.140625 0 3.296875 0 L 3.296875 -0.25 L 3.03125 -0.25 C 2.328125 -0.25 2.328125 -0.34375 2.328125 -0.578125 Z M 2.328125 -4.4375 "/>
</g>
<g id="glyph-2-1">
<path d="M 1.90625 -2.328125 C 2.453125 -2.328125 2.84375 -1.953125 2.84375 -1.203125 C 2.84375 -0.34375 2.328125 -0.078125 1.9375 -0.078125 C 1.65625 -0.078125 1.03125 -0.15625 0.75 -0.578125 C 1.078125 -0.578125 1.15625 -0.8125 1.15625 -0.96875 C 1.15625 -1.1875 0.984375 -1.34375 0.765625 -1.34375 C 0.578125 -1.34375 0.375 -1.21875 0.375 -0.9375 C 0.375 -0.28125 1.09375 0.140625 1.9375 0.140625 C 2.90625 0.140625 3.578125 -0.515625 3.578125 -1.203125 C 3.578125 -1.75 3.140625 -2.296875 2.375 -2.453125 C 3.09375 -2.71875 3.359375 -3.234375 3.359375 -3.671875 C 3.359375 -4.21875 2.734375 -4.625 1.953125 -4.625 C 1.1875 -4.625 0.59375 -4.25 0.59375 -3.6875 C 0.59375 -3.453125 0.75 -3.328125 0.953125 -3.328125 C 1.171875 -3.328125 1.3125 -3.484375 1.3125 -3.671875 C 1.3125 -3.875 1.171875 -4.03125 0.953125 -4.046875 C 1.203125 -4.34375 1.671875 -4.421875 1.9375 -4.421875 C 2.25 -4.421875 2.6875 -4.265625 2.6875 -3.671875 C 2.6875 -3.375 2.59375 -3.046875 2.40625 -2.84375 C 2.1875 -2.578125 1.984375 -2.5625 1.640625 -2.53125 C 1.46875 -2.515625 1.453125 -2.515625 1.421875 -2.515625 C 1.40625 -2.515625 1.34375 -2.5 1.34375 -2.421875 C 1.34375 -2.328125 1.40625 -2.328125 1.53125 -2.328125 Z M 1.90625 -2.328125 "/>
</g>
<g id="glyph-2-2">
<path d="M 3.6875 -1.140625 L 3.6875 -1.390625 L 2.90625 -1.390625 L 2.90625 -4.5 C 2.90625 -4.640625 2.90625 -4.703125 2.765625 -4.703125 C 2.671875 -4.703125 2.640625 -4.703125 2.578125 -4.59375 L 0.265625 -1.390625 L 0.265625 -1.140625 L 2.328125 -1.140625 L 2.328125 -0.578125 C 2.328125 -0.328125 2.328125 -0.25 1.75 -0.25 L 1.5625 -0.25 L 1.5625 0 C 1.921875 -0.015625 2.359375 -0.03125 2.609375 -0.03125 C 2.875 -0.03125 3.3125 -0.015625 3.671875 0 L 3.671875 -0.25 L 3.484375 -0.25 C 2.90625 -0.25 2.90625 -0.328125 2.90625 -0.578125 L 2.90625 -1.140625 Z M 2.375 -3.9375 L 2.375 -1.390625 L 0.53125 -1.390625 Z M 2.375 -3.9375 "/>
</g>
<g id="glyph-3-0">
<path d="M 2.015625 -0.015625 C 2.015625 -0.671875 1.765625 -1.0625 1.390625 -1.0625 C 1.0625 -1.0625 0.859375 -0.8125 0.859375 -0.53125 C 0.859375 -0.265625 1.0625 0 1.390625 0 C 1.5 0 1.625 -0.046875 1.734375 -0.125 C 1.765625 -0.15625 1.765625 -0.15625 1.78125 -0.15625 C 1.796875 -0.15625 1.796875 -0.15625 1.796875 -0.015625 C 1.796875 0.734375 1.453125 1.328125 1.125 1.65625 C 1.015625 1.765625 1.015625 1.78125 1.015625 1.8125 C 1.015625 1.875 1.0625 1.921875 1.109375 1.921875 C 1.21875 1.921875 2.015625 1.15625 2.015625 -0.015625 Z M 2.015625 -0.015625 "/>
</g>
<g id="glyph-3-1">
<path d="M 1.859375 -2.296875 C 2.15625 -2.296875 2.890625 -2.3125 3.390625 -2.53125 C 4.078125 -2.828125 4.125 -3.40625 4.125 -3.546875 C 4.125 -3.984375 3.75 -4.40625 3.0625 -4.40625 C 1.953125 -4.40625 0.453125 -3.4375 0.453125 -1.6875 C 0.453125 -0.671875 1.046875 0.109375 2.015625 0.109375 C 3.4375 0.109375 4.28125 -0.953125 4.28125 -1.0625 C 4.28125 -1.125 4.21875 -1.1875 4.15625 -1.1875 C 4.109375 -1.1875 4.09375 -1.171875 4.03125 -1.09375 C 3.25 -0.109375 2.15625 -0.109375 2.046875 -0.109375 C 1.265625 -0.109375 1.171875 -0.953125 1.171875 -1.265625 C 1.171875 -1.390625 1.1875 -1.6875 1.328125 -2.296875 Z M 1.390625 -2.515625 C 1.78125 -4.03125 2.8125 -4.1875 3.0625 -4.1875 C 3.53125 -4.1875 3.796875 -3.890625 3.796875 -3.546875 C 3.796875 -2.515625 2.203125 -2.515625 1.796875 -2.515625 Z M 1.390625 -2.515625 "/>
</g>
<g id="glyph-3-2">
<path d="M 3.328125 -3 C 3.390625 -3.265625 3.609375 -4.1875 4.3125 -4.1875 C 4.359375 -4.1875 4.59375 -4.1875 4.8125 -4.046875 C 4.53125 -4 4.328125 -3.75 4.328125 -3.515625 C 4.328125 -3.359375 4.4375 -3.171875 4.703125 -3.171875 C 4.921875 -3.171875 5.25 -3.34375 5.25 -3.75 C 5.25 -4.265625 4.65625 -4.40625 4.3125 -4.40625 C 3.75 -4.40625 3.390625 -3.875 3.28125 -3.640625 C 3.03125 -4.296875 2.484375 -4.40625 2.203125 -4.40625 C 1.171875 -4.40625 0.59375 -3.109375 0.59375 -2.859375 C 0.59375 -2.765625 0.703125 -2.765625 0.71875 -2.765625 C 0.796875 -2.765625 0.828125 -2.78125 0.84375 -2.875 C 1.1875 -3.9375 1.84375 -4.1875 2.1875 -4.1875 C 2.375 -4.1875 2.71875 -4.09375 2.71875 -3.515625 C 2.71875 -3.203125 2.546875 -2.53125 2.1875 -1.140625 C 2.015625 -0.53125 1.671875 -0.109375 1.234375 -0.109375 C 1.171875 -0.109375 0.953125 -0.109375 0.734375 -0.234375 C 0.984375 -0.28125 1.203125 -0.5 1.203125 -0.78125 C 1.203125 -1.046875 0.984375 -1.125 0.84375 -1.125 C 0.53125 -1.125 0.28125 -0.859375 0.28125 -0.546875 C 0.28125 -0.09375 0.78125 0.109375 1.21875 0.109375 C 1.875 0.109375 2.234375 -0.59375 2.265625 -0.640625 C 2.390625 -0.28125 2.75 0.109375 3.34375 0.109375 C 4.375 0.109375 4.9375 -1.171875 4.9375 -1.421875 C 4.9375 -1.515625 4.84375 -1.515625 4.8125 -1.515625 C 4.734375 -1.515625 4.703125 -1.484375 4.6875 -1.40625 C 4.359375 -0.34375 3.6875 -0.109375 3.359375 -0.109375 C 2.96875 -0.109375 2.8125 -0.421875 2.8125 -0.765625 C 2.8125 -0.984375 2.875 -1.203125 2.984375 -1.640625 Z M 3.328125 -3 "/>
</g>
<g id="glyph-3-3">
<path d="M 4.84375 -3.796875 C 4.875 -3.9375 4.875 -3.953125 4.875 -4.015625 C 4.875 -4.203125 4.734375 -4.296875 4.59375 -4.296875 C 4.484375 -4.296875 4.328125 -4.234375 4.234375 -4.078125 C 4.21875 -4.03125 4.140625 -3.71875 4.09375 -3.546875 C 4.03125 -3.28125 3.96875 -3.015625 3.90625 -2.75 L 3.453125 -0.953125 C 3.40625 -0.8125 2.984375 -0.109375 2.328125 -0.109375 C 1.828125 -0.109375 1.71875 -0.546875 1.71875 -0.921875 C 1.71875 -1.375 1.875 -1.984375 2.21875 -2.859375 C 2.375 -3.28125 2.421875 -3.390625 2.421875 -3.578125 C 2.421875 -4.03125 2.09375 -4.40625 1.609375 -4.40625 C 0.65625 -4.40625 0.28125 -2.953125 0.28125 -2.859375 C 0.28125 -2.765625 0.390625 -2.765625 0.40625 -2.765625 C 0.5 -2.765625 0.515625 -2.78125 0.5625 -2.953125 C 0.84375 -3.875 1.234375 -4.1875 1.578125 -4.1875 C 1.65625 -4.1875 1.828125 -4.1875 1.828125 -3.859375 C 1.828125 -3.609375 1.71875 -3.359375 1.65625 -3.171875 C 1.25 -2.109375 1.078125 -1.546875 1.078125 -1.078125 C 1.078125 -0.1875 1.703125 0.109375 2.296875 0.109375 C 2.671875 0.109375 3.015625 -0.0625 3.296875 -0.34375 C 3.171875 0.171875 3.046875 0.671875 2.640625 1.1875 C 2.390625 1.53125 2.015625 1.828125 1.546875 1.828125 C 1.40625 1.828125 0.96875 1.796875 0.796875 1.40625 C 0.953125 1.40625 1.078125 1.40625 1.21875 1.28125 C 1.328125 1.1875 1.421875 1.0625 1.421875 0.875 C 1.421875 0.5625 1.15625 0.53125 1.0625 0.53125 C 0.828125 0.53125 0.5 0.6875 0.5 1.171875 C 0.5 1.671875 0.9375 2.046875 1.546875 2.046875 C 2.578125 2.046875 3.609375 1.140625 3.875 0.015625 Z M 4.84375 -3.796875 "/>
</g>
<g id="glyph-4-0">
<path d="M 5.1875 -1.578125 C 5.296875 -1.578125 5.46875 -1.578125 5.46875 -1.734375 C 5.46875 -1.921875 5.296875 -1.921875 5.1875 -1.921875 L 1.03125 -1.921875 C 0.921875 -1.921875 0.75 -1.921875 0.75 -1.75 C 0.75 -1.578125 0.90625 -1.578125 1.03125 -1.578125 Z M 5.1875 -1.578125 "/>
</g>
<g id="glyph-5-0">
<path d="M 3.484375 -4.921875 C 3.53125 -5.015625 3.53125 -5.03125 3.53125 -5.046875 C 3.53125 -5.15625 3.4375 -5.21875 3.359375 -5.21875 C 3.25 -5.21875 3.21875 -5.140625 3.171875 -5.046875 L 0.578125 1.4375 C 0.53125 1.53125 0.53125 1.546875 0.53125 1.5625 C 0.53125 1.671875 0.625 1.734375 0.703125 1.734375 C 0.828125 1.734375 0.859375 1.65625 0.890625 1.5625 Z M 3.484375 -4.921875 "/>
</g>
</g>
<clipPath id="clip-0">
<path clip-rule="nonzero" d="M 0.101562 28 L 202.773438 28 L 202.773438 138 L 0.101562 138 Z M 0.101562 28 "/>
</clipPath>
</defs>
<path fill="none" stroke-width="0.3985" stroke-linecap="butt" stroke-linejoin="miter" stroke="rgb(0%, 0%, 0%)" stroke-opacity="1" stroke-miterlimit="10" d="M 0.00155426 62.077783 L 192.28141 62.077783 " transform="matrix(0.998687, 0, 0, -0.998687, 2.291417, 163.375165)"/>
<path fill-rule="nonzero" fill="rgb(0%, 0%, 0%)" fill-opacity="1" d="M 196.308594 101.378906 L 193.125 99.789062 L 194.320312 101.378906 L 193.125 102.972656 "/>
<path fill="none" stroke-width="0.3985" stroke-linecap="butt" stroke-linejoin="miter" stroke="rgb(0%, 0%, 0%)" stroke-opacity="1" stroke-miterlimit="10" d="M 25.339517 0.000165157 L 25.339517 159.408728 " transform="matrix(0.998687, 0, 0, -0.998687, 2.291417, 163.375165)"/>
<path fill-rule="nonzero" fill="rgb(0%, 0%, 0%)" fill-opacity="1" d="M 27.597656 2.1875 L 26.007812 5.371094 L 27.597656 4.175781 L 29.191406 5.371094 "/>
<g clip-path="url(#clip-0)">
<path fill="none" stroke-width="0.79701" stroke-linecap="butt" stroke-linejoin="miter" stroke="rgb(0%, 0%, 100%)" stroke-opacity="1" stroke-miterlimit="10" d="M 8.446238 37.048819 C 8.446238 37.048819 9.803489 39.098386 10.323704 39.880663 C 10.843918 40.662941 11.680955 41.914584 12.201169 42.69295 C 12.721384 43.471316 13.55842 44.711226 14.078635 45.48568 C 14.598849 46.256224 15.431975 47.492222 15.9561 48.262765 C 16.476315 49.033308 17.30944 50.265395 17.833566 51.035938 C 18.35378 51.80257 19.186906 53.030745 19.70712 53.797377 C 20.231246 54.564009 21.064371 55.792184 21.584586 56.558816 C 22.1048 57.325448 22.941837 58.553623 23.462051 59.320255 C 23.982266 60.082975 24.819302 61.311151 25.339517 62.077783 C 25.859731 62.844414 26.696768 64.07259 27.216983 64.83531 C 27.737197 65.601942 28.574234 66.830117 29.094448 67.596749 C 29.614663 68.359469 30.451699 69.587645 30.971914 70.354277 C 31.492128 71.116997 32.325253 72.341261 32.849379 73.107893 C 33.369594 73.870613 34.202719 75.094877 34.726845 75.853686 C 35.247059 76.616407 36.080185 77.832848 36.600399 78.591657 C 37.124525 79.350466 37.95765 80.562996 38.477865 81.317893 C 38.998079 82.072791 39.835116 83.277498 40.35533 84.024573 C 40.875545 84.775559 41.712581 85.968532 42.232796 86.711696 C 42.75301 87.450948 43.590047 88.636098 44.110261 89.367527 C 44.630476 90.098956 45.467513 91.26455 45.987727 91.988156 C 46.507941 92.707851 47.344978 93.857799 47.865193 94.56576 C 48.385407 95.273721 49.218532 96.396289 49.742658 97.092516 C 50.262873 97.784831 51.095998 98.883931 51.620124 99.556689 C 52.140338 100.233359 52.973464 101.305079 53.493678 101.958281 C 54.017804 102.615394 54.850929 103.648 55.371144 104.281644 C 55.891358 104.915289 56.728395 105.912693 57.248609 106.518958 C 57.768824 107.129134 58.60586 108.083512 59.126075 108.662397 C 59.646289 109.241283 60.483326 110.148724 61.00354 110.70023 C 61.523755 111.247824 62.360791 112.104418 62.881006 112.620721 C 63.40122 113.137024 64.238257 113.938858 64.758471 114.419959 C 65.278686 114.897148 66.111811 115.640311 66.635937 116.082298 C 67.156151 116.524285 67.989277 117.200954 68.513403 117.603827 C 69.033617 118.0067 69.866742 118.616876 70.386957 118.972813 C 70.911083 119.33266 71.744208 119.872432 72.264422 120.185342 C 72.784637 120.498253 73.621674 120.963708 74.141888 121.229683 C 74.662102 121.495657 75.499139 121.882884 76.019354 122.101922 C 76.539568 122.317048 77.376605 122.626048 77.896819 122.794237 C 78.417034 122.958516 79.25407 123.185376 79.774285 123.302718 C 80.294499 123.416148 81.131536 123.560869 81.65175 123.623451 C 82.171965 123.686033 83.00509 123.744704 83.529216 123.756438 C 84.04943 123.768173 84.882556 123.740793 85.406682 123.701679 C 85.926896 123.658654 86.760021 123.549135 87.280236 123.455262 C 87.804362 123.357477 88.637487 123.165819 89.157701 123.021098 C 89.677916 122.872465 90.514953 122.598668 91.035167 122.403099 C 91.555381 122.203618 92.392418 121.847682 92.912633 121.601264 C 93.432847 121.358758 94.269884 120.924595 94.790098 120.631241 C 95.310313 120.337887 96.147349 119.829406 96.667564 119.493027 C 97.187778 119.156648 98.024815 118.577763 98.545029 118.198358 C 99.065244 117.818954 99.898369 117.173575 100.422495 116.755056 C 100.942709 116.336538 101.775835 115.628577 102.29996 115.174856 C 102.820175 114.721135 103.6533 113.958415 104.173515 113.469492 C 104.69764 112.98448 105.530766 112.174823 106.05098 111.65852 C 106.571195 111.142217 107.408231 110.289534 107.928446 109.745852 C 108.44866 109.20608 109.285697 108.314284 109.805911 107.751044 C 110.326126 107.191716 111.163163 106.268629 111.683377 105.689744 C 112.203591 105.110858 113.040628 104.168214 113.560843 103.577595 C 114.081057 102.986975 114.918094 102.024774 115.438308 101.426332 C 115.958523 100.82789 116.791648 99.857866 117.315774 99.251601 C 117.835988 98.649248 118.669114 97.675312 119.193239 97.072959 C 119.713454 96.466694 120.546579 95.49667 121.066794 94.898228 C 121.590919 94.295874 122.424045 93.333673 122.944259 92.743054 C 123.464474 92.148523 124.30151 91.201967 124.821725 90.619171 C 125.341939 90.036374 126.178976 89.113287 126.69919 88.542225 C 127.219405 87.975073 128.056441 87.075455 128.576656 86.523949 C 129.09687 85.972444 129.933907 85.100204 130.454121 84.568256 C 130.974336 84.036307 131.811373 83.195359 132.331587 82.686879 C 132.851801 82.174487 133.684927 81.372653 134.209053 80.883729 C 134.729267 80.394806 135.562392 79.632086 136.086518 79.170542 C 136.606733 78.705087 137.439858 77.985392 137.960072 77.547317 C 138.484198 77.109241 139.317324 76.42866 139.837538 76.017965 C 140.357752 75.607269 141.194789 74.973624 141.715004 74.590308 C 142.235218 74.206992 143.072255 73.612462 143.592469 73.256526 C 144.112684 72.900589 144.94972 72.352995 145.469935 72.020527 C 145.990149 71.691971 146.827186 71.187402 147.3474 70.886225 C 147.867615 70.581137 148.704652 70.119593 149.224866 69.841885 C 149.74508 69.564177 150.578206 69.141747 151.102332 68.891418 C 151.622546 68.641089 152.455671 68.257773 152.979797 68.030913 C 153.500012 67.804053 154.333137 67.459851 154.853351 67.252547 C 155.377477 67.049155 156.210603 66.740155 156.730817 66.55632 C 157.251031 66.372485 158.088068 66.098688 158.608283 65.93441 C 159.128497 65.774043 159.965534 65.527626 160.485748 65.382904 C 161.005963 65.238183 161.842999 65.023057 162.363214 64.897892 C 162.883428 64.768817 163.720465 64.58107 164.240679 64.471551 C 164.760894 64.358121 165.59793 64.193843 166.118145 64.096058 C 166.638359 64.002185 167.471485 63.857463 167.99561 63.775324 C 168.515825 63.689274 169.34895 63.568021 169.873076 63.493704 C 170.39329 63.4233 171.226416 63.317692 171.74663 63.25511 C 172.270756 63.196439 173.103881 63.102566 173.624096 63.051718 C 174.14431 63.00087 174.981347 62.922642 175.501561 62.879617 C 176.021776 62.836592 176.858813 62.770098 177.379027 62.734895 C 177.899241 62.695782 178.736278 62.641022 179.256493 62.609731 C 179.776707 62.57844 180.613744 62.535415 181.133958 62.508035 C 181.654173 62.484567 182.491209 62.445453 183.011424 62.425896 C 183.531638 62.402428 184.364764 62.371137 184.888889 62.355491 C 185.409104 62.339845 186.242229 62.312466 186.766355 62.29682 C 187.286569 62.285086 188.119695 62.265529 188.639909 62.253795 C 189.164035 62.242061 189.99716 62.226415 190.517375 62.214681 C 191.037589 62.206858 191.874626 62.191213 192.39484 62.18339 C 192.915055 62.179479 194.272306 62.159922 194.272306 62.159922 " transform="matrix(0.998687, 0, 0, -0.998687, 2.291417, 163.375165)"/>
</g>
<path fill-rule="nonzero" fill="rgb(0%, 0%, 0%)" fill-opacity="1" d="M 88.085938 39.757812 C 88.085938 38.660156 87.195312 37.769531 86.097656 37.769531 C 84.996094 37.769531 84.105469 38.660156 84.105469 39.757812 C 84.105469 40.855469 84.996094 41.75 86.097656 41.75 C 87.195312 41.75 88.085938 40.855469 88.085938 39.757812 Z M 88.085938 39.757812 "/>
<g fill="rgb(0%, 0%, 0%)" fill-opacity="1">
<use xlink:href="#glyph-0-0" x="89.610594" y="18.733366"/>
</g>
<g fill="rgb(0%, 0%, 0%)" fill-opacity="1">
<use xlink:href="#glyph-1-0" x="98.316146" y="26.016788"/>
</g>
<g fill="rgb(0%, 0%, 0%)" fill-opacity="1">
<use xlink:href="#glyph-0-1" x="96.173963" y="18.285954"/>
</g>
<path fill="none" stroke-width="0.398" stroke-linecap="butt" stroke-linejoin="miter" stroke="rgb(0%, 0%, 0%)" stroke-opacity="1" stroke-miterlimit="10" d="M 0.00112255 0.000279855 L 6.361037 0.000279855 " transform="matrix(0.998687, 0, 0, -0.998687, 106.123879, 18.086217)"/>
<g fill="rgb(0%, 0%, 0%)" fill-opacity="1">
<use xlink:href="#glyph-2-0" x="107.318308" y="25.859995"/>
</g>
<path fill="none" stroke-width="0.398" stroke-linecap="butt" stroke-linejoin="miter" stroke="rgb(0%, 0%, 0%)" stroke-opacity="1" stroke-miterlimit="10" d="M -0.00190453 0.00105293 L 3.972064 0.00105293 " transform="matrix(0.998687, 0, 0, -0.998687, 107.318308, 27.290114)"/>
<g fill="rgb(0%, 0%, 0%)" fill-opacity="1">
<use xlink:href="#glyph-2-1" x="107.318308" y="33.208332"/>
</g>
<g fill="rgb(0%, 0%, 0%)" fill-opacity="1">
<use xlink:href="#glyph-3-0" x="112.477524" y="29.777843"/>
</g>
<g fill="rgb(0%, 0%, 0%)" fill-opacity="1">
<use xlink:href="#glyph-1-0" x="119.663075" y="26.016788"/>
</g>
<g fill="rgb(0%, 0%, 0%)" fill-opacity="1">
<use xlink:href="#glyph-0-1" x="117.521891" y="18.285954"/>
</g>
<path fill="none" stroke-width="0.398" stroke-linecap="butt" stroke-linejoin="miter" stroke="rgb(0%, 0%, 0%)" stroke-opacity="1" stroke-miterlimit="10" d="M 0.000850536 0.000279855 L 6.360765 0.000279855 " transform="matrix(0.998687, 0, 0, -0.998687, 127.471807, 18.086217)"/>
<g fill="rgb(0%, 0%, 0%)" fill-opacity="1">
<use xlink:href="#glyph-2-0" x="128.665237" y="25.859995"/>
</g>
<path fill="none" stroke-width="0.398" stroke-linecap="butt" stroke-linejoin="miter" stroke="rgb(0%, 0%, 0%)" stroke-opacity="1" stroke-miterlimit="10" d="M -0.00117654 0.00105293 L 3.972792 0.00105293 " transform="matrix(0.998687, 0, 0, -0.998687, 128.665237, 27.290114)"/>
<g fill="rgb(0%, 0%, 0%)" fill-opacity="1">
<use xlink:href="#glyph-2-1" x="128.665237" y="33.208332"/>
</g>
<g fill="rgb(0%, 0%, 0%)" fill-opacity="1">
<use xlink:href="#glyph-3-1" x="133.825452" y="29.777843"/>
</g>
<g fill="rgb(0%, 0%, 0%)" fill-opacity="1">
<use xlink:href="#glyph-4-0" x="138.45836" y="26.166591"/>
</g>
<g fill="rgb(0%, 0%, 0%)" fill-opacity="1">
<use xlink:href="#glyph-2-0" x="144.676183" y="26.166591"/>
</g>
<g fill="rgb(0%, 0%, 0%)" fill-opacity="1">
<use xlink:href="#glyph-5-0" x="148.642967" y="26.166591"/>
</g>
<g fill="rgb(0%, 0%, 0%)" fill-opacity="1">
<use xlink:href="#glyph-2-1" x="152.718608" y="26.166591"/>
</g>
<g fill="rgb(0%, 0%, 0%)" fill-opacity="1">
<use xlink:href="#glyph-0-2" x="157.182738" y="18.733366"/>
</g>
<path fill-rule="nonzero" fill="rgb(0%, 0%, 0%)" fill-opacity="1" d="M 29.589844 101.378906 C 29.589844 100.28125 28.695312 99.390625 27.597656 99.390625 C 26.5 99.390625 25.609375 100.28125 25.609375 101.378906 C 25.609375 102.476562 26.5 103.371094 27.597656 103.371094 C 28.695312 103.371094 29.589844 102.476562 29.589844 101.378906 Z M 29.589844 101.378906 "/>
<path fill-rule="nonzero" fill="rgb(0%, 0%, 0%)" fill-opacity="1" d="M 122.429688 65.398438 C 122.429688 64.300781 121.539062 63.410156 120.441406 63.410156 C 119.339844 63.410156 118.449219 64.300781 118.449219 65.398438 C 118.449219 66.5 119.339844 67.390625 120.441406 67.390625 C 121.539062 67.390625 122.429688 66.5 122.429688 65.398438 Z M 122.429688 65.398438 "/>
<g fill="rgb(0%, 0%, 0%)" fill-opacity="1">
<use xlink:href="#glyph-0-0" x="123.953433" y="44.374648"/>
</g>
<g fill="rgb(0%, 0%, 0%)" fill-opacity="1">
<use xlink:href="#glyph-1-0" x="132.658986" y="51.658071"/>
</g>
<g fill="rgb(0%, 0%, 0%)" fill-opacity="1">
<use xlink:href="#glyph-0-1" x="130.517801" y="43.926238"/>
</g>
<path fill="none" stroke-width="0.398" stroke-linecap="butt" stroke-linejoin="miter" stroke="rgb(0%, 0%, 0%)" stroke-opacity="1" stroke-miterlimit="10" d="M -0.0018775 0.000937949 L 6.361949 0.000937949 " transform="matrix(0.998687, 0, 0, -0.998687, 140.466719, 43.727499)"/>
<g fill="rgb(0%, 0%, 0%)" fill-opacity="1">
<use xlink:href="#glyph-2-2" x="141.661148" y="51.501277"/>
</g>
<path fill="none" stroke-width="0.398" stroke-linecap="butt" stroke-linejoin="miter" stroke="rgb(0%, 0%, 0%)" stroke-opacity="1" stroke-miterlimit="10" d="M -0.000993187 0.00171102 L 3.969064 0.00171102 " transform="matrix(0.998687, 0, 0, -0.998687, 141.661148, 52.931396)"/>
<g fill="rgb(0%, 0%, 0%)" fill-opacity="1">
<use xlink:href="#glyph-2-1" x="141.661148" y="58.849614"/>
</g>
<g fill="rgb(0%, 0%, 0%)" fill-opacity="1">
<use xlink:href="#glyph-3-0" x="146.821363" y="55.418126"/>
</g>
<g fill="rgb(0%, 0%, 0%)" fill-opacity="1">
<use xlink:href="#glyph-1-0" x="154.006914" y="51.658071"/>
</g>
<g fill="rgb(0%, 0%, 0%)" fill-opacity="1">
<use xlink:href="#glyph-0-1" x="151.864731" y="43.926238"/>
</g>
<path fill="none" stroke-width="0.398" stroke-linecap="butt" stroke-linejoin="miter" stroke="rgb(0%, 0%, 0%)" stroke-opacity="1" stroke-miterlimit="10" d="M 0.00176188 0.000937949 L 6.361677 0.000937949 " transform="matrix(0.998687, 0, 0, -0.998687, 161.814647, 43.727499)"/>
<g fill="rgb(0%, 0%, 0%)" fill-opacity="1">
<use xlink:href="#glyph-2-2" x="163.009076" y="51.501277"/>
</g>
<path fill="none" stroke-width="0.398" stroke-linecap="butt" stroke-linejoin="miter" stroke="rgb(0%, 0%, 0%)" stroke-opacity="1" stroke-miterlimit="10" d="M -0.0012652 0.00171102 L 3.972704 0.00171102 " transform="matrix(0.998687, 0, 0, -0.998687, 163.009076, 52.931396)"/>
<g fill="rgb(0%, 0%, 0%)" fill-opacity="1">
<use xlink:href="#glyph-2-1" x="163.009076" y="58.849614"/>
</g>
<g fill="rgb(0%, 0%, 0%)" fill-opacity="1">
<use xlink:href="#glyph-3-1" x="168.168292" y="55.418126"/>
</g>
<g fill="rgb(0%, 0%, 0%)" fill-opacity="1">
<use xlink:href="#glyph-4-0" x="172.8012" y="51.807874"/>
</g>
<g fill="rgb(0%, 0%, 0%)" fill-opacity="1">
<use xlink:href="#glyph-2-2" x="179.020022" y="51.807874"/>
</g>
<g fill="rgb(0%, 0%, 0%)" fill-opacity="1">
<use xlink:href="#glyph-5-0" x="182.985807" y="51.807874"/>
</g>
<g fill="rgb(0%, 0%, 0%)" fill-opacity="1">
<use xlink:href="#glyph-2-1" x="187.062446" y="51.807874"/>
</g>
<g fill="rgb(0%, 0%, 0%)" fill-opacity="1">
<use xlink:href="#glyph-0-2" x="191.525577" y="44.374648"/>
</g>
<path fill="none" stroke-width="0.3985" stroke-linecap="butt" stroke-linejoin="miter" stroke="rgb(0%, 0%, 0%)" stroke-opacity="1" stroke-dasharray="2.98883 2.98883" stroke-miterlimit="10" d="M 83.916443 62.077783 L 83.916443 123.779907 L 25.339517 123.779907 " transform="matrix(0.998687, 0, 0, -0.998687, 2.291417, 163.375165)"/>
<path fill="none" stroke-width="0.3985" stroke-linecap="butt" stroke-linejoin="miter" stroke="rgb(0%, 0%, 0%)" stroke-opacity="1" stroke-dasharray="2.98883 2.98883" stroke-miterlimit="10" d="M 118.305355 62.077783 L 118.305355 98.105565 L 25.339517 98.105565 " transform="matrix(0.998687, 0, 0, -0.998687, 2.291417, 163.375165)"/>
<g fill="rgb(0%, 0%, 0%)" fill-opacity="1">
<use xlink:href="#glyph-3-2" x="187.10539" y="97.865309"/>
</g>
<g fill="rgb(0%, 0%, 0%)" fill-opacity="1">
<use xlink:href="#glyph-3-3" x="31.112517" y="9.987866"/>
</g>
</svg>
