<?xml version="1.0" encoding="UTF-8"?>
<svg xmlns="http://www.w3.org/2000/svg" xmlns:xlink="http://www.w3.org/1999/xlink" width="198.652pt" height="167.27pt" viewBox="0 0 198.652 167.27">
<defs>
<g>
<g id="glyph-0-0">
<path d="M 4.828125 -3.78125 C 4.859375 -3.921875 4.859375 -3.9375 4.859375 -4.015625 C 4.859375 -4.1875 4.71875 -4.28125 4.578125 -4.28125 C 4.46875 -4.28125 4.3125 -4.21875 4.234375 -4.0625 C 4.203125 -4.015625 4.125 -3.703125 4.09375 -3.53125 C 4.015625 -3.28125 3.953125 -3 3.890625 -2.734375 L 3.4375 -0.953125 C 3.40625 -0.796875 2.96875 -0.109375 2.328125 -0.109375 C 1.8125 -0.109375 1.703125 -0.546875 1.703125 -0.90625 C 1.703125 -1.375 1.875 -1.984375 2.21875 -2.859375 C 2.375 -3.265625 2.40625 -3.375 2.40625 -3.578125 C 2.40625 -4.015625 2.09375 -4.390625 1.59375 -4.390625 C 0.65625 -4.390625 0.28125 -2.953125 0.28125 -2.859375 C 0.28125 -2.765625 0.390625 -2.765625 0.40625 -2.765625 C 0.5 -2.765625 0.515625 -2.78125 0.5625 -2.9375 C 0.828125 -3.875 1.234375 -4.171875 1.5625 -4.171875 C 1.640625 -4.171875 1.8125 -4.171875 1.8125 -3.84375 C 1.8125 -3.609375 1.71875 -3.34375 1.640625 -3.15625 C 1.25 -2.109375 1.078125 -1.53125 1.078125 -1.078125 C 1.078125 -0.1875 1.703125 0.109375 2.28125 0.109375 C 2.671875 0.109375 3 -0.0625 3.28125 -0.34375 C 3.15625 0.171875 3.03125 0.671875 2.640625 1.1875 C 2.375 1.53125 2 1.8125 1.546875 1.8125 C 1.40625 1.8125 0.96875 1.78125 0.796875 1.40625 C 0.953125 1.40625 1.078125 1.40625 1.21875 1.28125 C 1.3125 1.1875 1.421875 1.0625 1.421875 0.875 C 1.421875 0.5625 1.15625 0.53125 1.046875 0.53125 C 0.828125 0.53125 0.5 0.6875 0.5 1.171875 C 0.5 1.671875 0.9375 2.03125 1.546875 2.03125 C 2.5625 2.03125 3.59375 1.125 3.875 0.015625 Z M 4.828125 -3.78125 "/>
</g>
<g id="glyph-0-1">
<path d="M 3.3125 -3 C 3.375 -3.25 3.609375 -4.171875 4.296875 -4.171875 C 4.34375 -4.171875 4.578125 -4.171875 4.796875 -4.03125 C 4.515625 -3.984375 4.3125 -3.734375 4.3125 -3.5 C 4.3125 -3.34375 4.421875 -3.15625 4.6875 -3.15625 C 4.90625 -3.15625 5.234375 -3.328125 5.234375 -3.734375 C 5.234375 -4.25 4.640625 -4.390625 4.3125 -4.390625 C 3.734375 -4.390625 3.390625 -3.859375 3.265625 -3.625 C 3.015625 -4.28125 2.484375 -4.390625 2.1875 -4.390625 C 1.15625 -4.390625 0.59375 -3.109375 0.59375 -2.859375 C 0.59375 -2.765625 0.6875 -2.765625 0.71875 -2.765625 C 0.796875 -2.765625 0.828125 -2.78125 0.84375 -2.875 C 1.1875 -3.921875 1.828125 -4.171875 2.171875 -4.171875 C 2.359375 -4.171875 2.703125 -4.078125 2.703125 -3.5 C 2.703125 -3.1875 2.546875 -2.53125 2.171875 -1.140625 C 2.015625 -0.53125 1.671875 -0.109375 1.234375 -0.109375 C 1.171875 -0.109375 0.9375 -0.109375 0.734375 -0.234375 C 0.984375 -0.28125 1.203125 -0.5 1.203125 -0.78125 C 1.203125 -1.046875 0.984375 -1.125 0.828125 -1.125 C 0.53125 -1.125 0.28125 -0.859375 0.28125 -0.546875 C 0.28125 -0.09375 0.78125 0.109375 1.21875 0.109375 C 1.875 0.109375 2.234375 -0.578125 2.265625 -0.640625 C 2.375 -0.28125 2.734375 0.109375 3.328125 0.109375 C 4.359375 0.109375 4.921875 -1.171875 4.921875 -1.421875 C 4.921875 -1.515625 4.828125 -1.515625 4.796875 -1.515625 C 4.71875 -1.515625 4.6875 -1.484375 4.671875 -1.40625 C 4.34375 -0.34375 3.671875 -0.109375 3.359375 -0.109375 C 2.96875 -0.109375 2.8125 -0.421875 2.8125 -0.765625 C 2.8125 -0.984375 2.875 -1.203125 2.96875 -1.640625 Z M 3.3125 -3 "/>
</g>
<g id="glyph-0-2">
<path d="M 7.34375 -4.328125 C 7.34375 -5.921875 6.296875 -7 4.8125 -7 C 2.671875 -7 0.484375 -4.75 0.484375 -2.4375 C 0.484375 -0.78125 1.59375 0.21875 3.03125 0.21875 C 5.125 0.21875 7.34375 -1.953125 7.34375 -4.328125 Z M 3.078125 -0.046875 C 2.109375 -0.046875 1.40625 -0.84375 1.40625 -2.15625 C 1.40625 -2.59375 1.546875 -4.03125 2.3125 -5.203125 C 3 -6.234375 3.96875 -6.75 4.75 -6.75 C 5.5625 -6.75 6.453125 -6.1875 6.453125 -4.71875 C 6.453125 -4 6.1875 -2.453125 5.203125 -1.234375 C 4.734375 -0.625 3.921875 -0.046875 3.078125 -0.046875 Z M 3.078125 -0.046875 "/>
</g>
<g id="glyph-0-3">
<path d="M 1.78125 -1.140625 C 1.375 -0.46875 0.984375 -0.34375 0.5625 -0.3125 C 0.4375 -0.296875 0.34375 -0.296875 0.34375 -0.109375 C 0.34375 -0.046875 0.390625 0 0.46875 0 C 0.75 0 1.046875 -0.03125 1.328125 -0.03125 C 1.65625 -0.03125 2 0 2.328125 0 C 2.375 0 2.515625 0 2.515625 -0.1875 C 2.515625 -0.296875 2.421875 -0.3125 2.34375 -0.3125 C 2.125 -0.328125 1.890625 -0.40625 1.890625 -0.65625 C 1.890625 -0.78125 1.9375 -0.890625 2.03125 -1.015625 L 2.78125 -2.296875 L 5.265625 -2.296875 C 5.28125 -2.078125 5.421875 -0.734375 5.421875 -0.640625 C 5.421875 -0.34375 4.90625 -0.3125 4.71875 -0.3125 C 4.578125 -0.3125 4.46875 -0.3125 4.46875 -0.109375 C 4.46875 0 4.59375 0 4.609375 0 C 5.015625 0 5.453125 -0.03125 5.859375 -0.03125 C 6.109375 -0.03125 6.734375 0 6.96875 0 C 7.03125 0 7.15625 0 7.15625 -0.203125 C 7.15625 -0.3125 7.046875 -0.3125 6.921875 -0.3125 C 6.3125 -0.3125 6.3125 -0.375 6.28125 -0.671875 L 5.671875 -6.859375 C 5.65625 -7.0625 5.65625 -7.109375 5.484375 -7.109375 C 5.328125 -7.109375 5.28125 -7.03125 5.234375 -6.9375 Z M 2.96875 -2.59375 L 4.921875 -5.875 L 5.234375 -2.59375 Z M 2.96875 -2.59375 "/>
</g>
<g id="glyph-0-4">
<path d="M 1.59375 -0.78125 C 1.484375 -0.390625 1.46875 -0.3125 0.6875 -0.3125 C 0.515625 -0.3125 0.421875 -0.3125 0.421875 -0.109375 C 0.421875 0 0.5 0 0.6875 0 L 4.234375 0 C 5.796875 0 6.96875 -1.171875 6.96875 -2.140625 C 6.96875 -2.859375 6.390625 -3.4375 5.421875 -3.546875 C 6.453125 -3.734375 7.5 -4.46875 7.5 -5.40625 C 7.5 -6.140625 6.84375 -6.78125 5.65625 -6.78125 L 2.328125 -6.78125 C 2.140625 -6.78125 2.03125 -6.78125 2.03125 -6.578125 C 2.03125 -6.46875 2.125 -6.46875 2.3125 -6.46875 C 2.328125 -6.46875 2.515625 -6.46875 2.6875 -6.453125 C 2.875 -6.421875 2.953125 -6.421875 2.953125 -6.296875 C 2.953125 -6.25 2.953125 -6.21875 2.921875 -6.109375 Z M 3.078125 -3.625 L 3.703125 -6.09375 C 3.796875 -6.4375 3.8125 -6.46875 4.234375 -6.46875 L 5.515625 -6.46875 C 6.390625 -6.46875 6.59375 -5.890625 6.59375 -5.453125 C 6.59375 -4.578125 5.75 -3.625 4.53125 -3.625 Z M 2.640625 -0.3125 C 2.5 -0.3125 2.484375 -0.3125 2.421875 -0.3125 C 2.328125 -0.328125 2.296875 -0.34375 2.296875 -0.421875 C 2.296875 -0.453125 2.296875 -0.46875 2.34375 -0.640625 L 3.03125 -3.40625 L 4.90625 -3.40625 C 5.859375 -3.40625 6.046875 -2.671875 6.046875 -2.25 C 6.046875 -1.265625 5.15625 -0.3125 3.984375 -0.3125 Z M 2.640625 -0.3125 "/>
</g>
<g id="glyph-0-5">
<path d="M 7.546875 -6.890625 C 7.546875 -6.921875 7.515625 -7 7.4375 -7 C 7.40625 -7 7.390625 -6.984375 7.28125 -6.875 L 6.59375 -6.109375 C 6.5 -6.25 6.046875 -7 4.9375 -7 C 2.734375 -7 0.5 -4.796875 0.5 -2.5 C 0.5 -0.859375 1.671875 0.21875 3.1875 0.21875 C 4.046875 0.21875 4.796875 -0.171875 5.328125 -0.640625 C 6.25 -1.453125 6.421875 -2.34375 6.421875 -2.375 C 6.421875 -2.484375 6.3125 -2.484375 6.296875 -2.484375 C 6.234375 -2.484375 6.1875 -2.453125 6.171875 -2.375 C 6.078125 -2.09375 5.859375 -1.390625 5.171875 -0.8125 C 4.484375 -0.265625 3.859375 -0.09375 3.34375 -0.09375 C 2.453125 -0.09375 1.40625 -0.609375 1.40625 -2.15625 C 1.40625 -2.71875 1.609375 -4.328125 2.59375 -5.484375 C 3.203125 -6.1875 4.140625 -6.6875 5.015625 -6.6875 C 6.03125 -6.6875 6.625 -5.921875 6.625 -4.765625 C 6.625 -4.375 6.59375 -4.359375 6.59375 -4.265625 C 6.59375 -4.171875 6.703125 -4.171875 6.734375 -4.171875 C 6.859375 -4.171875 6.859375 -4.1875 6.921875 -4.359375 Z M 7.546875 -6.890625 "/>
</g>
<g id="glyph-1-0">
<path d="M 6.8125 -3.25 C 6.96875 -3.25 7.15625 -3.25 7.15625 -3.4375 C 7.15625 -3.640625 6.96875 -3.640625 6.828125 -3.640625 L 0.890625 -3.640625 C 0.75 -3.640625 0.5625 -3.640625 0.5625 -3.4375 C 0.5625 -3.25 0.75 -3.25 0.890625 -3.25 Z M 6.828125 -1.3125 C 6.96875 -1.3125 7.15625 -1.3125 7.15625 -1.515625 C 7.15625 -1.71875 6.96875 -1.71875 6.8125 -1.71875 L 0.890625 -1.71875 C 0.75 -1.71875 0.5625 -1.71875 0.5625 -1.515625 C 0.5625 -1.3125 0.75 -1.3125 0.890625 -1.3125 Z M 6.828125 -1.3125 "/>
</g>
<g id="glyph-1-1">
<path d="M 2.921875 -6.34375 C 2.921875 -6.59375 2.921875 -6.609375 2.6875 -6.609375 C 2.078125 -5.96875 1.203125 -5.96875 0.890625 -5.96875 L 0.890625 -5.671875 C 1.078125 -5.671875 1.671875 -5.671875 2.1875 -5.921875 L 2.1875 -0.78125 C 2.1875 -0.421875 2.15625 -0.3125 1.265625 -0.3125 L 0.9375 -0.3125 L 0.9375 0 C 1.296875 -0.03125 2.15625 -0.03125 2.546875 -0.03125 C 2.953125 -0.03125 3.8125 -0.03125 4.15625 0 L 4.15625 -0.3125 L 3.84375 -0.3125 C 2.953125 -0.3125 2.921875 -0.421875 2.921875 -0.78125 Z M 2.921875 -6.34375 "/>
</g>
<g id="glyph-2-0">
<path d="M 2.328125 -4.40625 C 2.328125 -4.59375 2.3125 -4.609375 2.109375 -4.609375 C 1.671875 -4.171875 1.046875 -4.15625 0.75 -4.15625 L 0.75 -3.90625 C 0.921875 -3.90625 1.375 -3.90625 1.765625 -4.109375 L 1.765625 -0.5625 C 1.765625 -0.34375 1.765625 -0.25 1.0625 -0.25 L 0.8125 -0.25 L 0.8125 0 C 0.921875 0 1.78125 -0.03125 2.046875 -0.03125 C 2.25 -0.03125 3.125 0 3.28125 0 L 3.28125 -0.25 L 3.015625 -0.25 C 2.328125 -0.25 2.328125 -0.34375 2.328125 -0.5625 Z M 2.328125 -4.40625 "/>
</g>
<g id="glyph-2-1">
<path d="M 3.5 -1.265625 L 3.265625 -1.265625 C 3.25 -1.109375 3.171875 -0.703125 3.09375 -0.625 C 3.03125 -0.59375 2.5 -0.59375 2.40625 -0.59375 L 1.125 -0.59375 C 1.859375 -1.234375 2.09375 -1.421875 2.515625 -1.75 C 3.03125 -2.171875 3.5 -2.59375 3.5 -3.25 C 3.5 -4.09375 2.765625 -4.609375 1.875 -4.609375 C 1.015625 -4.609375 0.4375 -4 0.4375 -3.359375 C 0.4375 -3.015625 0.734375 -2.96875 0.8125 -2.96875 C 0.96875 -2.96875 1.171875 -3.09375 1.171875 -3.34375 C 1.171875 -3.46875 1.125 -3.71875 0.765625 -3.71875 C 0.984375 -4.203125 1.453125 -4.359375 1.78125 -4.359375 C 2.46875 -4.359375 2.828125 -3.8125 2.828125 -3.25 C 2.828125 -2.65625 2.40625 -2.171875 2.171875 -1.921875 L 0.5 -0.265625 C 0.4375 -0.203125 0.4375 -0.1875 0.4375 0 L 3.296875 0 Z M 3.5 -1.265625 "/>
</g>
<g id="glyph-3-0">
<path d="M 6.53125 -2.28125 C 6.703125 -2.28125 6.890625 -2.28125 6.890625 -2.484375 C 6.890625 -2.671875 6.703125 -2.671875 6.53125 -2.671875 L 1.171875 -2.671875 C 1 -2.671875 0.828125 -2.671875 0.828125 -2.484375 C 0.828125 -2.28125 1 -2.28125 1.171875 -2.28125 Z M 6.53125 -2.28125 "/>
</g>
</g>
<clipPath id="clip-0">
<path clip-rule="nonzero" d="M 30.015625 91 L 31 91 L 31 151 L 30.015625 151 Z M 30.015625 91 "/>
</clipPath>
<clipPath id="clip-1">
<path clip-rule="nonzero" d="M 30.710938 150.96875 L 149.742188 91.453125 L 149.742188 150.96875 L 30.710938 91.453125 Z M 30.710938 150.96875 "/>
</clipPath>
<clipPath id="clip-2">
<path clip-rule="nonzero" d="M 33 91 L 33.984375 91 L 33.984375 151 L 33 151 Z M 33 91 "/>
</clipPath>
<clipPath id="clip-3">
<path clip-rule="nonzero" d="M 30.710938 150.96875 L 149.742188 91.453125 L 149.742188 150.96875 L 30.710938 91.453125 Z M 30.710938 150.96875 "/>
</clipPath>
<clipPath id="clip-4">
<path clip-rule="nonzero" d="M 36 91 L 36.960938 91 L 36.960938 151 L 36 151 Z M 36 91 "/>
</clipPath>
<clipPath id="clip-5">
<path clip-rule="nonzero" d="M 30.710938 150.96875 L 149.742188 91.453125 L 149.742188 150.96875 L 30.710938 91.453125 Z M 30.710938 150.96875 "/>
</clipPath>
<clipPath id="clip-6">
<path clip-rule="nonzero" d="M 39 91 L 39.9375 91 L 39.9375 151 L 39 151 Z M 39 91 "/>
</clipPath>
<clipPath id="clip-7">
<path clip-rule="nonzero" d="M 30.710938 150.96875 L 149.742188 91.453125 L 149.742188 150.96875 L 30.710938 91.453125 Z M 30.710938 150.96875 "/>
</clipPath>
<clipPath id="clip-8">
<path clip-rule="nonzero" d="M 42 91 L 42.910156 91 L 42.910156 151 L 42 151 Z M 42 91 "/>
</clipPath>
<clipPath id="clip-9">
<path clip-rule="nonzero" d="M 30.710938 150.96875 L 149.742188 91.453125 L 149.742188 150.96875 L 30.710938 91.453125 Z M 30.710938 150.96875 "/>
</clipPath>
<clipPath id="clip-10">
<path clip-rule="nonzero" d="M 45 91 L 45.886719 91 L 45.886719 151 L 45 151 Z M 45 91 "/>
</clipPath>
<clipPath id="clip-11">
<path clip-rule="nonzero" d="M 30.710938 150.96875 L 149.742188 91.453125 L 149.742188 150.96875 L 30.710938 91.453125 Z M 30.710938 150.96875 "/>
</clipPath>
<clipPath id="clip-12">
<path clip-rule="nonzero" d="M 48 91 L 48.863281 91 L 48.863281 151 L 48 151 Z M 48 91 "/>
</clipPath>
<clipPath id="clip-13">
<path clip-rule="nonzero" d="M 30.710938 150.96875 L 149.742188 91.453125 L 149.742188 150.96875 L 30.710938 91.453125 Z M 30.710938 150.96875 "/>
</clipPath>
<clipPath id="clip-14">
<path clip-rule="nonzero" d="M 51 91 L 51.839844 91 L 51.839844 151 L 51 151 Z M 51 91 "/>
</clipPath>
<clipPath id="clip-15">
<path clip-rule="nonzero" d="M 30.710938 150.96875 L 149.742188 91.453125 L 149.742188 150.96875 L 30.710938 91.453125 Z M 30.710938 150.96875 "/>
</clipPath>
<clipPath id="clip-16">
<path clip-rule="nonzero" d="M 54 91 L 54.816406 91 L 54.816406 151 L 54 151 Z M 54 91 "/>
</clipPath>
<clipPath id="clip-17">
<path clip-rule="nonzero" d="M 30.710938 150.96875 L 149.742188 91.453125 L 149.742188 150.96875 L 30.710938 91.453125 Z M 30.710938 150.96875 "/>
</clipPath>
<clipPath id="clip-18">
<path clip-rule="nonzero" d="M 57 91 L 57.792969 91 L 57.792969 151 L 57 151 Z M 57 91 "/>
</clipPath>
<clipPath id="clip-19">
<path clip-rule="nonzero" d="M 30.710938 150.96875 L 149.742188 91.453125 L 149.742188 150.96875 L 30.710938 91.453125 Z M 30.710938 150.96875 "/>
</clipPath>
<clipPath id="clip-20">
<path clip-rule="nonzero" d="M 60 91 L 60.765625 91 L 60.765625 151 L 60 151 Z M 60 91 "/>
</clipPath>
<clipPath id="clip-21">
<path clip-rule="nonzero" d="M 30.710938 150.96875 L 149.742188 91.453125 L 149.742188 150.96875 L 30.710938 91.453125 Z M 30.710938 150.96875 "/>
</clipPath>
<clipPath id="clip-22">
<path clip-rule="nonzero" d="M 63 91 L 63.742188 91 L 63.742188 151 L 63 151 Z M 63 91 "/>
</clipPath>
<clipPath id="clip-23">
<path clip-rule="nonzero" d="M 30.710938 150.96875 L 149.742188 91.453125 L 149.742188 150.96875 L 30.710938 91.453125 Z M 30.710938 150.96875 "/>
</clipPath>
<clipPath id="clip-24">
<path clip-rule="nonzero" d="M 66 91 L 66.71875 91 L 66.71875 151 L 66 151 Z M 66 91 "/>
</clipPath>
<clipPath id="clip-25">
<path clip-rule="nonzero" d="M 30.710938 150.96875 L 149.742188 91.453125 L 149.742188 150.96875 L 30.710938 91.453125 Z M 30.710938 150.96875 "/>
</clipPath>
<clipPath id="clip-26">
<path clip-rule="nonzero" d="M 69 91 L 69.695312 91 L 69.695312 151 L 69 151 Z M 69 91 "/>
</clipPath>
<clipPath id="clip-27">
<path clip-rule="nonzero" d="M 30.710938 150.96875 L 149.742188 91.453125 L 149.742188 150.96875 L 30.710938 91.453125 Z M 30.710938 150.96875 "/>
</clipPath>
<clipPath id="clip-28">
<path clip-rule="nonzero" d="M 71.679688 91 L 72.671875 91 L 72.671875 151 L 71.679688 151 Z M 71.679688 91 "/>
</clipPath>
<clipPath id="clip-29">
<path clip-rule="nonzero" d="M 30.710938 150.96875 L 149.742188 91.453125 L 149.742188 150.96875 L 30.710938 91.453125 Z M 30.710938 150.96875 "/>
</clipPath>
<clipPath id="clip-30">
<path clip-rule="nonzero" d="M 74.65625 91 L 75.644531 91 L 75.644531 151 L 74.65625 151 Z M 74.65625 91 "/>
</clipPath>
<clipPath id="clip-31">
<path clip-rule="nonzero" d="M 30.710938 150.96875 L 149.742188 91.453125 L 149.742188 150.96875 L 30.710938 91.453125 Z M 30.710938 150.96875 "/>
</clipPath>
<clipPath id="clip-32">
<path clip-rule="nonzero" d="M 77.628906 91 L 78.621094 91 L 78.621094 151 L 77.628906 151 Z M 77.628906 91 "/>
</clipPath>
<clipPath id="clip-33">
<path clip-rule="nonzero" d="M 30.710938 150.96875 L 149.742188 91.453125 L 149.742188 150.96875 L 30.710938 91.453125 Z M 30.710938 150.96875 "/>
</clipPath>
<clipPath id="clip-34">
<path clip-rule="nonzero" d="M 80.605469 91 L 81.597656 91 L 81.597656 151 L 80.605469 151 Z M 80.605469 91 "/>
</clipPath>
<clipPath id="clip-35">
<path clip-rule="nonzero" d="M 30.710938 150.96875 L 149.742188 91.453125 L 149.742188 150.96875 L 30.710938 91.453125 Z M 30.710938 150.96875 "/>
</clipPath>
<clipPath id="clip-36">
<path clip-rule="nonzero" d="M 83.582031 91 L 84.574219 91 L 84.574219 151 L 83.582031 151 Z M 83.582031 91 "/>
</clipPath>
<clipPath id="clip-37">
<path clip-rule="nonzero" d="M 30.710938 150.96875 L 149.742188 91.453125 L 149.742188 150.96875 L 30.710938 91.453125 Z M 30.710938 150.96875 "/>
</clipPath>
<clipPath id="clip-38">
<path clip-rule="nonzero" d="M 86.558594 91 L 87.550781 91 L 87.550781 151 L 86.558594 151 Z M 86.558594 91 "/>
</clipPath>
<clipPath id="clip-39">
<path clip-rule="nonzero" d="M 30.710938 150.96875 L 149.742188 91.453125 L 149.742188 150.96875 L 30.710938 91.453125 Z M 30.710938 150.96875 "/>
</clipPath>
<clipPath id="clip-40">
<path clip-rule="nonzero" d="M 89.535156 91 L 90.527344 91 L 90.527344 151 L 89.535156 151 Z M 89.535156 91 "/>
</clipPath>
<clipPath id="clip-41">
<path clip-rule="nonzero" d="M 30.710938 150.96875 L 149.742188 91.453125 L 149.742188 150.96875 L 30.710938 91.453125 Z M 30.710938 150.96875 "/>
</clipPath>
<clipPath id="clip-42">
<path clip-rule="nonzero" d="M 92.507812 91 L 93.5 91 L 93.5 151 L 92.507812 151 Z M 92.507812 91 "/>
</clipPath>
<clipPath id="clip-43">
<path clip-rule="nonzero" d="M 30.710938 150.96875 L 149.742188 91.453125 L 149.742188 150.96875 L 30.710938 91.453125 Z M 30.710938 150.96875 "/>
</clipPath>
<clipPath id="clip-44">
<path clip-rule="nonzero" d="M 95.484375 91 L 96.476562 91 L 96.476562 151 L 95.484375 151 Z M 95.484375 91 "/>
</clipPath>
<clipPath id="clip-45">
<path clip-rule="nonzero" d="M 30.710938 150.96875 L 149.742188 91.453125 L 149.742188 150.96875 L 30.710938 91.453125 Z M 30.710938 150.96875 "/>
</clipPath>
<clipPath id="clip-46">
<path clip-rule="nonzero" d="M 98.460938 91 L 99.453125 91 L 99.453125 151 L 98.460938 151 Z M 98.460938 91 "/>
</clipPath>
<clipPath id="clip-47">
<path clip-rule="nonzero" d="M 30.710938 150.96875 L 149.742188 91.453125 L 149.742188 150.96875 L 30.710938 91.453125 Z M 30.710938 150.96875 "/>
</clipPath>
<clipPath id="clip-48">
<path clip-rule="nonzero" d="M 101.4375 91 L 102.429688 91 L 102.429688 151 L 101.4375 151 Z M 101.4375 91 "/>
</clipPath>
<clipPath id="clip-49">
<path clip-rule="nonzero" d="M 30.710938 150.96875 L 149.742188 91.453125 L 149.742188 150.96875 L 30.710938 91.453125 Z M 30.710938 150.96875 "/>
</clipPath>
<clipPath id="clip-50">
<path clip-rule="nonzero" d="M 104.414062 91 L 105.40625 91 L 105.40625 151 L 104.414062 151 Z M 104.414062 91 "/>
</clipPath>
<clipPath id="clip-51">
<path clip-rule="nonzero" d="M 30.710938 150.96875 L 149.742188 91.453125 L 149.742188 150.96875 L 30.710938 91.453125 Z M 30.710938 150.96875 "/>
</clipPath>
<clipPath id="clip-52">
<path clip-rule="nonzero" d="M 107.390625 91 L 108.378906 91 L 108.378906 151 L 107.390625 151 Z M 107.390625 91 "/>
</clipPath>
<clipPath id="clip-53">
<path clip-rule="nonzero" d="M 30.710938 150.96875 L 149.742188 91.453125 L 149.742188 150.96875 L 30.710938 91.453125 Z M 30.710938 150.96875 "/>
</clipPath>
<clipPath id="clip-54">
<path clip-rule="nonzero" d="M 110.363281 91 L 111.355469 91 L 111.355469 151 L 110.363281 151 Z M 110.363281 91 "/>
</clipPath>
<clipPath id="clip-55">
<path clip-rule="nonzero" d="M 30.710938 150.96875 L 149.742188 91.453125 L 149.742188 150.96875 L 30.710938 91.453125 Z M 30.710938 150.96875 "/>
</clipPath>
<clipPath id="clip-56">
<path clip-rule="nonzero" d="M 113.339844 91 L 114.332031 91 L 114.332031 151 L 113.339844 151 Z M 113.339844 91 "/>
</clipPath>
<clipPath id="clip-57">
<path clip-rule="nonzero" d="M 30.710938 150.96875 L 149.742188 91.453125 L 149.742188 150.96875 L 30.710938 91.453125 Z M 30.710938 150.96875 "/>
</clipPath>
<clipPath id="clip-58">
<path clip-rule="nonzero" d="M 116.316406 91 L 117.308594 91 L 117.308594 151 L 116.316406 151 Z M 116.316406 91 "/>
</clipPath>
<clipPath id="clip-59">
<path clip-rule="nonzero" d="M 30.710938 150.96875 L 149.742188 91.453125 L 149.742188 150.96875 L 30.710938 91.453125 Z M 30.710938 150.96875 "/>
</clipPath>
<clipPath id="clip-60">
<path clip-rule="nonzero" d="M 119.292969 91 L 120 91 L 120 151 L 119.292969 151 Z M 119.292969 91 "/>
</clipPath>
<clipPath id="clip-61">
<path clip-rule="nonzero" d="M 30.710938 150.96875 L 149.742188 91.453125 L 149.742188 150.96875 L 30.710938 91.453125 Z M 30.710938 150.96875 "/>
</clipPath>
<clipPath id="clip-62">
<path clip-rule="nonzero" d="M 122.269531 91 L 123 91 L 123 151 L 122.269531 151 Z M 122.269531 91 "/>
</clipPath>
<clipPath id="clip-63">
<path clip-rule="nonzero" d="M 30.710938 150.96875 L 149.742188 91.453125 L 149.742188 150.96875 L 30.710938 91.453125 Z M 30.710938 150.96875 "/>
</clipPath>
<clipPath id="clip-64">
<path clip-rule="nonzero" d="M 125.242188 91 L 126 91 L 126 151 L 125.242188 151 Z M 125.242188 91 "/>
</clipPath>
<clipPath id="clip-65">
<path clip-rule="nonzero" d="M 30.710938 150.96875 L 149.742188 91.453125 L 149.742188 150.96875 L 30.710938 91.453125 Z M 30.710938 150.96875 "/>
</clipPath>
<clipPath id="clip-66">
<path clip-rule="nonzero" d="M 128.21875 91 L 129 91 L 129 151 L 128.21875 151 Z M 128.21875 91 "/>
</clipPath>
<clipPath id="clip-67">
<path clip-rule="nonzero" d="M 30.710938 150.96875 L 149.742188 91.453125 L 149.742188 150.96875 L 30.710938 91.453125 Z M 30.710938 150.96875 "/>
</clipPath>
<clipPath id="clip-68">
<path clip-rule="nonzero" d="M 131.195312 91 L 132 91 L 132 151 L 131.195312 151 Z M 131.195312 91 "/>
</clipPath>
<clipPath id="clip-69">
<path clip-rule="nonzero" d="M 30.710938 150.96875 L 149.742188 91.453125 L 149.742188 150.96875 L 30.710938 91.453125 Z M 30.710938 150.96875 "/>
</clipPath>
<clipPath id="clip-70">
<path clip-rule="nonzero" d="M 134.171875 91 L 135 91 L 135 151 L 134.171875 151 Z M 134.171875 91 "/>
</clipPath>
<clipPath id="clip-71">
<path clip-rule="nonzero" d="M 30.710938 150.96875 L 149.742188 91.453125 L 149.742188 150.96875 L 30.710938 91.453125 Z M 30.710938 150.96875 "/>
</clipPath>
<clipPath id="clip-72">
<path clip-rule="nonzero" d="M 137.148438 91 L 138 91 L 138 151 L 137.148438 151 Z M 137.148438 91 "/>
</clipPath>
<clipPath id="clip-73">
<path clip-rule="nonzero" d="M 30.710938 150.96875 L 149.742188 91.453125 L 149.742188 150.96875 L 30.710938 91.453125 Z M 30.710938 150.96875 "/>
</clipPath>
<clipPath id="clip-74">
<path clip-rule="nonzero" d="M 140.121094 91 L 141 91 L 141 151 L 140.121094 151 Z M 140.121094 91 "/>
</clipPath>
<clipPath id="clip-75">
<path clip-rule="nonzero" d="M 30.710938 150.96875 L 149.742188 91.453125 L 149.742188 150.96875 L 30.710938 91.453125 Z M 30.710938 150.96875 "/>
</clipPath>
<clipPath id="clip-76">
<path clip-rule="nonzero" d="M 143.097656 91 L 144 91 L 144 151 L 143.097656 151 Z M 143.097656 91 "/>
</clipPath>
<clipPath id="clip-77">
<path clip-rule="nonzero" d="M 30.710938 150.96875 L 149.742188 91.453125 L 149.742188 150.96875 L 30.710938 91.453125 Z M 30.710938 150.96875 "/>
</clipPath>
<clipPath id="clip-78">
<path clip-rule="nonzero" d="M 146.074219 91 L 147 91 L 147 151 L 146.074219 151 Z M 146.074219 91 "/>
</clipPath>
<clipPath id="clip-79">
<path clip-rule="nonzero" d="M 30.710938 150.96875 L 149.742188 91.453125 L 149.742188 150.96875 L 30.710938 91.453125 Z M 30.710938 150.96875 "/>
</clipPath>
<clipPath id="clip-80">
<path clip-rule="nonzero" d="M 149.050781 91 L 150 91 L 150 151 L 149.050781 151 Z M 149.050781 91 "/>
</clipPath>
<clipPath id="clip-81">
<path clip-rule="nonzero" d="M 30.710938 150.96875 L 149.742188 91.453125 L 149.742188 150.96875 L 30.710938 91.453125 Z M 30.710938 150.96875 "/>
</clipPath>
</defs>
<path fill="none" stroke-width="0.3985" stroke-linecap="butt" stroke-linejoin="miter" stroke="rgb(0%, 0%, 0%)" stroke-opacity="1" stroke-miterlimit="10" d="M 0.000582352 11.956392 L 192.277477 11.956392 " transform="matrix(0.995655, 0, 0, -0.995655, 2.440826, 162.873189)"/>
<path fill-rule="nonzero" fill="rgb(0%, 0%, 0%)" fill-opacity="1" d="M 195.867188 150.96875 L 192.695312 149.382812 L 193.882812 150.96875 L 192.695312 152.558594 "/>
<path fill="none" stroke-width="0.3985" stroke-linecap="butt" stroke-linejoin="miter" stroke="rgb(0%, 0%, 0%)" stroke-opacity="1" stroke-miterlimit="10" d="M 28.393488 -0.00181933 L 28.393488 159.401765 " transform="matrix(0.995655, 0, 0, -0.995655, 2.440826, 162.873189)"/>
<path fill-rule="nonzero" fill="rgb(0%, 0%, 0%)" fill-opacity="1" d="M 30.710938 2.179688 L 29.125 5.355469 L 30.710938 4.164062 L 32.296875 5.355469 "/>
<g clip-path="url(#clip-0)">
<g clip-path="url(#clip-1)">
<path fill="none" stroke-width="0.3985" stroke-linecap="butt" stroke-linejoin="miter" stroke="rgb(59.999084%, 59.999084%, 59.999084%)" stroke-opacity="1" stroke-miterlimit="10" d="M 0.497099 0.000204161 L 0.497099 99.628425 " transform="matrix(0.995655, 0, 0, -0.995655, 30.016779, 166.543172)"/>
</g>
</g>
<g clip-path="url(#clip-2)">
<g clip-path="url(#clip-3)">
<path fill="none" stroke-width="0.3985" stroke-linecap="butt" stroke-linejoin="miter" stroke="rgb(59.999084%, 59.999084%, 59.999084%)" stroke-opacity="1" stroke-miterlimit="10" d="M 0.497822 0.000204161 L 0.497822 99.628425 " transform="matrix(0.995655, 0, 0, -0.995655, 32.992622, 166.543172)"/>
</g>
</g>
<g clip-path="url(#clip-4)">
<g clip-path="url(#clip-5)">
<path fill="none" stroke-width="0.3985" stroke-linecap="butt" stroke-linejoin="miter" stroke="rgb(59.999084%, 59.999084%, 59.999084%)" stroke-opacity="1" stroke-miterlimit="10" d="M 0.498545 0.000204161 L 0.498545 99.628425 " transform="matrix(0.995655, 0, 0, -0.995655, 35.968465, 166.543172)"/>
</g>
</g>
<g clip-path="url(#clip-6)">
<g clip-path="url(#clip-7)">
<path fill="none" stroke-width="0.3985" stroke-linecap="butt" stroke-linejoin="miter" stroke="rgb(59.999084%, 59.999084%, 59.999084%)" stroke-opacity="1" stroke-miterlimit="10" d="M 0.499268 0.000204161 L 0.499268 99.628425 " transform="matrix(0.995655, 0, 0, -0.995655, 38.944308, 166.543172)"/>
</g>
</g>
<g clip-path="url(#clip-8)">
<g clip-path="url(#clip-9)">
<path fill="none" stroke-width="0.3985" stroke-linecap="butt" stroke-linejoin="miter" stroke="rgb(59.999084%, 59.999084%, 59.999084%)" stroke-opacity="1" stroke-miterlimit="10" d="M 0.499991 0.000204161 L 0.499991 99.628425 " transform="matrix(0.995655, 0, 0, -0.995655, 41.920151, 166.543172)"/>
</g>
</g>
<g clip-path="url(#clip-10)">
<g clip-path="url(#clip-11)">
<path fill="none" stroke-width="0.3985" stroke-linecap="butt" stroke-linejoin="miter" stroke="rgb(59.999084%, 59.999084%, 59.999084%)" stroke-opacity="1" stroke-miterlimit="10" d="M 0.49679 0.000204161 L 0.49679 99.628425 " transform="matrix(0.995655, 0, 0, -0.995655, 44.895994, 166.543172)"/>
</g>
</g>
<g clip-path="url(#clip-12)">
<g clip-path="url(#clip-13)">
<path fill="none" stroke-width="0.3985" stroke-linecap="butt" stroke-linejoin="miter" stroke="rgb(59.999084%, 59.999084%, 59.999084%)" stroke-opacity="1" stroke-miterlimit="10" d="M 0.497513 0.000204161 L 0.497513 99.628425 " transform="matrix(0.995655, 0, 0, -0.995655, 47.871836, 166.543172)"/>
</g>
</g>
<g clip-path="url(#clip-14)">
<g clip-path="url(#clip-15)">
<path fill="none" stroke-width="0.3985" stroke-linecap="butt" stroke-linejoin="miter" stroke="rgb(59.999084%, 59.999084%, 59.999084%)" stroke-opacity="1" stroke-miterlimit="10" d="M 0.498236 0.000204161 L 0.498236 99.628425 " transform="matrix(0.995655, 0, 0, -0.995655, 50.847679, 166.543172)"/>
</g>
</g>
<g clip-path="url(#clip-16)">
<g clip-path="url(#clip-17)">
<path fill="none" stroke-width="0.3985" stroke-linecap="butt" stroke-linejoin="miter" stroke="rgb(59.999084%, 59.999084%, 59.999084%)" stroke-opacity="1" stroke-miterlimit="10" d="M 0.498959 0.000204161 L 0.498959 99.628425 " transform="matrix(0.995655, 0, 0, -0.995655, 53.823522, 166.543172)"/>
</g>
</g>
<g clip-path="url(#clip-18)">
<g clip-path="url(#clip-19)">
<path fill="none" stroke-width="0.3985" stroke-linecap="butt" stroke-linejoin="miter" stroke="rgb(59.999084%, 59.999084%, 59.999084%)" stroke-opacity="1" stroke-miterlimit="10" d="M 0.499681 0.000204161 L 0.499681 99.628425 " transform="matrix(0.995655, 0, 0, -0.995655, 56.799365, 166.543172)"/>
</g>
</g>
<g clip-path="url(#clip-20)">
<g clip-path="url(#clip-21)">
<path fill="none" stroke-width="0.3985" stroke-linecap="butt" stroke-linejoin="miter" stroke="rgb(59.999084%, 59.999084%, 59.999084%)" stroke-opacity="1" stroke-miterlimit="10" d="M 0.496481 0.000204161 L 0.496481 99.628425 " transform="matrix(0.995655, 0, 0, -0.995655, 59.775208, 166.543172)"/>
</g>
</g>
<g clip-path="url(#clip-22)">
<g clip-path="url(#clip-23)">
<path fill="none" stroke-width="0.3985" stroke-linecap="butt" stroke-linejoin="miter" stroke="rgb(59.999084%, 59.999084%, 59.999084%)" stroke-opacity="1" stroke-miterlimit="10" d="M 0.497204 0.000204161 L 0.497204 99.628425 " transform="matrix(0.995655, 0, 0, -0.995655, 62.75105, 166.543172)"/>
</g>
</g>
<g clip-path="url(#clip-24)">
<g clip-path="url(#clip-25)">
<path fill="none" stroke-width="0.3985" stroke-linecap="butt" stroke-linejoin="miter" stroke="rgb(59.999084%, 59.999084%, 59.999084%)" stroke-opacity="1" stroke-miterlimit="10" d="M 0.497927 0.000204161 L 0.497927 99.628425 " transform="matrix(0.995655, 0, 0, -0.995655, 65.726893, 166.543172)"/>
</g>
</g>
<g clip-path="url(#clip-26)">
<g clip-path="url(#clip-27)">
<path fill="none" stroke-width="0.3985" stroke-linecap="butt" stroke-linejoin="miter" stroke="rgb(59.999084%, 59.999084%, 59.999084%)" stroke-opacity="1" stroke-miterlimit="10" d="M 0.498649 0.000204161 L 0.498649 99.628425 " transform="matrix(0.995655, 0, 0, -0.995655, 68.702736, 166.543172)"/>
</g>
</g>
<g clip-path="url(#clip-28)">
<g clip-path="url(#clip-29)">
<path fill="none" stroke-width="0.3985" stroke-linecap="butt" stroke-linejoin="miter" stroke="rgb(59.999084%, 59.999084%, 59.999084%)" stroke-opacity="1" stroke-miterlimit="10" d="M 0.499372 0.000204161 L 0.499372 99.628425 " transform="matrix(0.995655, 0, 0, -0.995655, 71.678579, 166.543172)"/>
</g>
</g>
<g clip-path="url(#clip-30)">
<g clip-path="url(#clip-31)">
<path fill="none" stroke-width="0.3985" stroke-linecap="butt" stroke-linejoin="miter" stroke="rgb(59.999084%, 59.999084%, 59.999084%)" stroke-opacity="1" stroke-miterlimit="10" d="M 0.500095 0.000204161 L 0.500095 99.628425 " transform="matrix(0.995655, 0, 0, -0.995655, 74.654422, 166.543172)"/>
</g>
</g>
<g clip-path="url(#clip-32)">
<g clip-path="url(#clip-33)">
<path fill="none" stroke-width="0.3985" stroke-linecap="butt" stroke-linejoin="miter" stroke="rgb(59.999084%, 59.999084%, 59.999084%)" stroke-opacity="1" stroke-miterlimit="10" d="M 0.496895 0.000204161 L 0.496895 99.628425 " transform="matrix(0.995655, 0, 0, -0.995655, 77.630265, 166.543172)"/>
</g>
</g>
<g clip-path="url(#clip-34)">
<g clip-path="url(#clip-35)">
<path fill="none" stroke-width="0.3985" stroke-linecap="butt" stroke-linejoin="miter" stroke="rgb(59.999084%, 59.999084%, 59.999084%)" stroke-opacity="1" stroke-miterlimit="10" d="M 0.497617 0.000204161 L 0.497617 99.628425 " transform="matrix(0.995655, 0, 0, -0.995655, 80.606107, 166.543172)"/>
</g>
</g>
<g clip-path="url(#clip-36)">
<g clip-path="url(#clip-37)">
<path fill="none" stroke-width="0.3985" stroke-linecap="butt" stroke-linejoin="miter" stroke="rgb(59.999084%, 59.999084%, 59.999084%)" stroke-opacity="1" stroke-miterlimit="10" d="M 0.49834 0.000204161 L 0.49834 99.628425 " transform="matrix(0.995655, 0, 0, -0.995655, 83.58195, 166.543172)"/>
</g>
</g>
<g clip-path="url(#clip-38)">
<g clip-path="url(#clip-39)">
<path fill="none" stroke-width="0.3985" stroke-linecap="butt" stroke-linejoin="miter" stroke="rgb(59.999084%, 59.999084%, 59.999084%)" stroke-opacity="1" stroke-miterlimit="10" d="M 0.499063 0.000204161 L 0.499063 99.628425 " transform="matrix(0.995655, 0, 0, -0.995655, 86.557793, 166.543172)"/>
</g>
</g>
<g clip-path="url(#clip-40)">
<g clip-path="url(#clip-41)">
<path fill="none" stroke-width="0.3985" stroke-linecap="butt" stroke-linejoin="miter" stroke="rgb(59.999084%, 59.999084%, 59.999084%)" stroke-opacity="1" stroke-miterlimit="10" d="M 0.499786 0.000204161 L 0.499786 99.628425 " transform="matrix(0.995655, 0, 0, -0.995655, 89.533636, 166.543172)"/>
</g>
</g>
<g clip-path="url(#clip-42)">
<g clip-path="url(#clip-43)">
<path fill="none" stroke-width="0.3985" stroke-linecap="butt" stroke-linejoin="miter" stroke="rgb(59.999084%, 59.999084%, 59.999084%)" stroke-opacity="1" stroke-miterlimit="10" d="M 0.496585 0.000204161 L 0.496585 99.628425 " transform="matrix(0.995655, 0, 0, -0.995655, 92.509479, 166.543172)"/>
</g>
</g>
<g clip-path="url(#clip-44)">
<g clip-path="url(#clip-45)">
<path fill="none" stroke-width="0.3985" stroke-linecap="butt" stroke-linejoin="miter" stroke="rgb(59.999084%, 59.999084%, 59.999084%)" stroke-opacity="1" stroke-miterlimit="10" d="M 0.497308 0.000204161 L 0.497308 99.628425 " transform="matrix(0.995655, 0, 0, -0.995655, 95.485321, 166.543172)"/>
</g>
</g>
<g clip-path="url(#clip-46)">
<g clip-path="url(#clip-47)">
<path fill="none" stroke-width="0.3985" stroke-linecap="butt" stroke-linejoin="miter" stroke="rgb(59.999084%, 59.999084%, 59.999084%)" stroke-opacity="1" stroke-miterlimit="10" d="M 0.498031 0.000204161 L 0.498031 99.628425 " transform="matrix(0.995655, 0, 0, -0.995655, 98.461164, 166.543172)"/>
</g>
</g>
<g clip-path="url(#clip-48)">
<g clip-path="url(#clip-49)">
<path fill="none" stroke-width="0.3985" stroke-linecap="butt" stroke-linejoin="miter" stroke="rgb(59.999084%, 59.999084%, 59.999084%)" stroke-opacity="1" stroke-miterlimit="10" d="M 0.498754 0.000204161 L 0.498754 99.628425 " transform="matrix(0.995655, 0, 0, -0.995655, 101.437007, 166.543172)"/>
</g>
</g>
<g clip-path="url(#clip-50)">
<g clip-path="url(#clip-51)">
<path fill="none" stroke-width="0.3985" stroke-linecap="butt" stroke-linejoin="miter" stroke="rgb(59.999084%, 59.999084%, 59.999084%)" stroke-opacity="1" stroke-miterlimit="10" d="M 0.499477 0.000204161 L 0.499477 99.628425 " transform="matrix(0.995655, 0, 0, -0.995655, 104.41285, 166.543172)"/>
</g>
</g>
<g clip-path="url(#clip-52)">
<g clip-path="url(#clip-53)">
<path fill="none" stroke-width="0.3985" stroke-linecap="butt" stroke-linejoin="miter" stroke="rgb(59.999084%, 59.999084%, 59.999084%)" stroke-opacity="1" stroke-miterlimit="10" d="M 0.496276 0.000204161 L 0.496276 99.628425 " transform="matrix(0.995655, 0, 0, -0.995655, 107.388693, 166.543172)"/>
</g>
</g>
<g clip-path="url(#clip-54)">
<g clip-path="url(#clip-55)">
<path fill="none" stroke-width="0.3985" stroke-linecap="butt" stroke-linejoin="miter" stroke="rgb(59.999084%, 59.999084%, 59.999084%)" stroke-opacity="1" stroke-miterlimit="10" d="M 0.496999 0.000204161 L 0.496999 99.628425 " transform="matrix(0.995655, 0, 0, -0.995655, 110.364536, 166.543172)"/>
</g>
</g>
<g clip-path="url(#clip-56)">
<g clip-path="url(#clip-57)">
<path fill="none" stroke-width="0.3985" stroke-linecap="butt" stroke-linejoin="miter" stroke="rgb(59.999084%, 59.999084%, 59.999084%)" stroke-opacity="1" stroke-miterlimit="10" d="M 0.497722 0.000204161 L 0.497722 99.628425 " transform="matrix(0.995655, 0, 0, -0.995655, 113.340378, 166.543172)"/>
</g>
</g>
<g clip-path="url(#clip-58)">
<g clip-path="url(#clip-59)">
<path fill="none" stroke-width="0.3985" stroke-linecap="butt" stroke-linejoin="miter" stroke="rgb(59.999084%, 59.999084%, 59.999084%)" stroke-opacity="1" stroke-miterlimit="10" d="M 0.498445 0.000204161 L 0.498445 99.628425 " transform="matrix(0.995655, 0, 0, -0.995655, 116.316221, 166.543172)"/>
</g>
</g>
<g clip-path="url(#clip-60)">
<g clip-path="url(#clip-61)">
<path fill="none" stroke-width="0.3985" stroke-linecap="butt" stroke-linejoin="miter" stroke="rgb(59.999084%, 59.999084%, 59.999084%)" stroke-opacity="1" stroke-miterlimit="10" d="M 0.499167 0.000204161 L 0.499167 99.628425 " transform="matrix(0.995655, 0, 0, -0.995655, 119.292064, 166.543172)"/>
</g>
</g>
<g clip-path="url(#clip-62)">
<g clip-path="url(#clip-63)">
<path fill="none" stroke-width="0.3985" stroke-linecap="butt" stroke-linejoin="miter" stroke="rgb(59.999084%, 59.999084%, 59.999084%)" stroke-opacity="1" stroke-miterlimit="10" d="M 0.49989 0.000204161 L 0.49989 99.628425 " transform="matrix(0.995655, 0, 0, -0.995655, 122.267907, 166.543172)"/>
</g>
</g>
<g clip-path="url(#clip-64)">
<g clip-path="url(#clip-65)">
<path fill="none" stroke-width="0.3985" stroke-linecap="butt" stroke-linejoin="miter" stroke="rgb(59.999084%, 59.999084%, 59.999084%)" stroke-opacity="1" stroke-miterlimit="10" d="M 0.49669 0.000204161 L 0.49669 99.628425 " transform="matrix(0.995655, 0, 0, -0.995655, 125.24375, 166.543172)"/>
</g>
</g>
<g clip-path="url(#clip-66)">
<g clip-path="url(#clip-67)">
<path fill="none" stroke-width="0.3985" stroke-linecap="butt" stroke-linejoin="miter" stroke="rgb(59.999084%, 59.999084%, 59.999084%)" stroke-opacity="1" stroke-miterlimit="10" d="M 0.497413 0.000204161 L 0.497413 99.628425 " transform="matrix(0.995655, 0, 0, -0.995655, 128.219593, 166.543172)"/>
</g>
</g>
<g clip-path="url(#clip-68)">
<g clip-path="url(#clip-69)">
<path fill="none" stroke-width="0.3985" stroke-linecap="butt" stroke-linejoin="miter" stroke="rgb(59.999084%, 59.999084%, 59.999084%)" stroke-opacity="1" stroke-miterlimit="10" d="M 0.498135 0.000204161 L 0.498135 99.628425 " transform="matrix(0.995655, 0, 0, -0.995655, 131.195435, 166.543172)"/>
</g>
</g>
<g clip-path="url(#clip-70)">
<g clip-path="url(#clip-71)">
<path fill="none" stroke-width="0.3985" stroke-linecap="butt" stroke-linejoin="miter" stroke="rgb(59.999084%, 59.999084%, 59.999084%)" stroke-opacity="1" stroke-miterlimit="10" d="M 0.498858 0.000204161 L 0.498858 99.628425 " transform="matrix(0.995655, 0, 0, -0.995655, 134.171278, 166.543172)"/>
</g>
</g>
<g clip-path="url(#clip-72)">
<g clip-path="url(#clip-73)">
<path fill="none" stroke-width="0.3985" stroke-linecap="butt" stroke-linejoin="miter" stroke="rgb(59.999084%, 59.999084%, 59.999084%)" stroke-opacity="1" stroke-miterlimit="10" d="M 0.499581 0.000204161 L 0.499581 99.628425 " transform="matrix(0.995655, 0, 0, -0.995655, 137.147121, 166.543172)"/>
</g>
</g>
<g clip-path="url(#clip-74)">
<g clip-path="url(#clip-75)">
<path fill="none" stroke-width="0.3985" stroke-linecap="butt" stroke-linejoin="miter" stroke="rgb(59.999084%, 59.999084%, 59.999084%)" stroke-opacity="1" stroke-miterlimit="10" d="M 0.496381 0.000204161 L 0.496381 99.628425 " transform="matrix(0.995655, 0, 0, -0.995655, 140.122964, 166.543172)"/>
</g>
</g>
<g clip-path="url(#clip-76)">
<g clip-path="url(#clip-77)">
<path fill="none" stroke-width="0.3985" stroke-linecap="butt" stroke-linejoin="miter" stroke="rgb(59.999084%, 59.999084%, 59.999084%)" stroke-opacity="1" stroke-miterlimit="10" d="M 0.497103 0.000204161 L 0.497103 99.628425 " transform="matrix(0.995655, 0, 0, -0.995655, 143.098807, 166.543172)"/>
</g>
</g>
<g clip-path="url(#clip-78)">
<g clip-path="url(#clip-79)">
<path fill="none" stroke-width="0.3985" stroke-linecap="butt" stroke-linejoin="miter" stroke="rgb(59.999084%, 59.999084%, 59.999084%)" stroke-opacity="1" stroke-miterlimit="10" d="M 0.497826 0.000204161 L 0.497826 99.628425 " transform="matrix(0.995655, 0, 0, -0.995655, 146.074649, 166.543172)"/>
</g>
</g>
<g clip-path="url(#clip-80)">
<g clip-path="url(#clip-81)">
<path fill="none" stroke-width="0.3985" stroke-linecap="butt" stroke-linejoin="miter" stroke="rgb(59.999084%, 59.999084%, 59.999084%)" stroke-opacity="1" stroke-miterlimit="10" d="M 0.498549 0.000204161 L 0.498549 99.628425 " transform="matrix(0.995655, 0, 0, -0.995655, 149.050492, 166.543172)"/>
</g>
</g>
<path fill="none" stroke-width="0.79701" stroke-linecap="butt" stroke-linejoin="miter" stroke="rgb(0%, 0%, 0%)" stroke-opacity="1" stroke-miterlimit="10" d="M 28.393488 11.956392 L 147.944214 71.731755 " transform="matrix(0.995655, 0, 0, -0.995655, 2.440826, 162.873189)"/>
<g fill="rgb(0%, 0%, 0%)" fill-opacity="1">
<use xlink:href="#glyph-0-0" x="110.709321" y="96.236007"/>
</g>
<g fill="rgb(0%, 0%, 0%)" fill-opacity="1">
<use xlink:href="#glyph-1-0" x="118.68352" y="96.236007"/>
</g>
<g fill="rgb(0%, 0%, 0%)" fill-opacity="1">
<use xlink:href="#glyph-2-0" x="130.344628" y="92.330053"/>
</g>
<path fill="none" stroke-width="0.398" stroke-linecap="butt" stroke-linejoin="miter" stroke="rgb(0%, 0%, 0%)" stroke-opacity="1" stroke-miterlimit="10" d="M -0.000882286 0.0019328 L 3.969495 0.0019328 " transform="matrix(0.995655, 0, 0, -0.995655, 130.344628, 93.755831)"/>
<g fill="rgb(0%, 0%, 0%)" fill-opacity="1">
<use xlink:href="#glyph-2-1" x="130.344628" y="99.656081"/>
</g>
<g fill="rgb(0%, 0%, 0%)" fill-opacity="1">
<use xlink:href="#glyph-0-1" x="135.488181" y="96.236007"/>
</g>
<path fill="none" stroke-width="0.79701" stroke-linecap="butt" stroke-linejoin="miter" stroke="rgb(0%, 0%, 0%)" stroke-opacity="1" stroke-miterlimit="10" d="M 28.393488 71.731755 L 147.944214 11.956392 " transform="matrix(0.995655, 0, 0, -0.995655, 2.440826, 162.873189)"/>
<g fill="rgb(0%, 0%, 0%)" fill-opacity="1">
<use xlink:href="#glyph-0-0" x="102.167599" y="131.943173"/>
</g>
<g fill="rgb(0%, 0%, 0%)" fill-opacity="1">
<use xlink:href="#glyph-1-0" x="110.141798" y="131.943173"/>
</g>
<g fill="rgb(0%, 0%, 0%)" fill-opacity="1">
<use xlink:href="#glyph-1-1" x="120.604728" y="131.943173"/>
</g>
<g fill="rgb(0%, 0%, 0%)" fill-opacity="1">
<use xlink:href="#glyph-3-0" x="127.775839" y="131.943173"/>
</g>
<g fill="rgb(0%, 0%, 0%)" fill-opacity="1">
<use xlink:href="#glyph-2-0" x="138.886351" y="128.038215"/>
</g>
<path fill="none" stroke-width="0.398" stroke-linecap="butt" stroke-linejoin="miter" stroke="rgb(0%, 0%, 0%)" stroke-opacity="1" stroke-miterlimit="10" d="M 0.000369702 -0.000854427 L 3.970747 -0.000854427 " transform="matrix(0.995655, 0, 0, -0.995655, 138.886351, 129.463993)"/>
<g fill="rgb(0%, 0%, 0%)" fill-opacity="1">
<use xlink:href="#glyph-2-1" x="138.886351" y="135.364243"/>
</g>
<g fill="rgb(0%, 0%, 0%)" fill-opacity="1">
<use xlink:href="#glyph-0-1" x="144.029903" y="131.943173"/>
</g>
<path fill="none" stroke-width="0.79701" stroke-linecap="butt" stroke-linejoin="miter" stroke="rgb(0%, 0%, 0%)" stroke-opacity="1" stroke-miterlimit="10" d="M 28.393488 11.956392 L 28.393488 71.731755 " transform="matrix(0.995655, 0, 0, -0.995655, 2.440826, 162.873189)"/>
<path fill="none" stroke-width="0.79701" stroke-linecap="butt" stroke-linejoin="miter" stroke="rgb(0%, 0%, 0%)" stroke-opacity="1" stroke-miterlimit="10" d="M 147.944214 11.956392 L 147.944214 71.731755 " transform="matrix(0.995655, 0, 0, -0.995655, 2.440826, 162.873189)"/>
<path fill-rule="nonzero" fill="rgb(0%, 0%, 0%)" fill-opacity="1" d="M 32.199219 150.96875 C 32.199219 150.148438 31.53125 149.480469 30.710938 149.480469 C 29.890625 149.480469 29.222656 150.148438 29.222656 150.96875 C 29.222656 151.792969 29.890625 152.457031 30.710938 152.457031 C 31.53125 152.457031 32.199219 151.792969 32.199219 150.96875 Z M 32.199219 150.96875 "/>
<path fill-rule="nonzero" fill="rgb(0%, 0%, 0%)" fill-opacity="1" d="M 32.199219 91.453125 C 32.199219 90.632812 31.53125 89.964844 30.710938 89.964844 C 29.890625 89.964844 29.222656 90.632812 29.222656 91.453125 C 29.222656 92.277344 29.890625 92.941406 30.710938 92.941406 C 31.53125 92.941406 32.199219 92.277344 32.199219 91.453125 Z M 32.199219 91.453125 "/>
<path fill-rule="nonzero" fill="rgb(0%, 0%, 0%)" fill-opacity="1" d="M 151.230469 150.96875 C 151.230469 150.148438 150.566406 149.480469 149.742188 149.480469 C 148.921875 149.480469 148.253906 150.148438 148.253906 150.96875 C 148.253906 151.792969 148.921875 152.457031 149.742188 152.457031 C 150.566406 152.457031 151.230469 151.792969 151.230469 150.96875 Z M 151.230469 150.96875 "/>
<path fill-rule="nonzero" fill="rgb(0%, 0%, 0%)" fill-opacity="1" d="M 151.230469 91.453125 C 151.230469 90.632812 150.566406 89.964844 149.742188 89.964844 C 148.921875 89.964844 148.253906 90.632812 148.253906 91.453125 C 148.253906 92.277344 148.921875 92.941406 149.742188 92.941406 C 150.566406 92.941406 151.230469 92.277344 151.230469 91.453125 Z M 151.230469 91.453125 "/>
<path fill-rule="nonzero" fill="rgb(0%, 0%, 0%)" fill-opacity="1" d="M 91.714844 121.210938 C 91.714844 120.390625 91.046875 119.722656 90.226562 119.722656 C 89.40625 119.722656 88.738281 120.390625 88.738281 121.210938 C 88.738281 122.035156 89.40625 122.699219 90.226562 122.699219 C 91.046875 122.699219 91.714844 122.035156 91.714844 121.210938 Z M 91.714844 121.210938 "/>
<path fill="none" stroke-width="0.3985" stroke-linecap="butt" stroke-linejoin="miter" stroke="rgb(0%, 0%, 0%)" stroke-opacity="1" stroke-dasharray="2.98883 2.98883" stroke-miterlimit="10" d="M 28.393488 11.956392 L 147.944214 11.956392 L 147.944214 131.507118 L 28.393488 131.507118 Z M 28.393488 11.956392 " transform="matrix(0.995655, 0, 0, -0.995655, 2.440826, 162.873189)"/>
<g fill="rgb(0%, 0%, 0%)" fill-opacity="1">
<use xlink:href="#glyph-0-2" x="19.36397" y="161.253258"/>
</g>
<g fill="rgb(0%, 0%, 0%)" fill-opacity="1">
<use xlink:href="#glyph-0-3" x="146.021213" y="161.253258"/>
</g>
<g fill="rgb(0%, 0%, 0%)" fill-opacity="1">
<use xlink:href="#glyph-0-4" x="145.730481" y="28.4359"/>
</g>
<g fill="rgb(0%, 0%, 0%)" fill-opacity="1">
<use xlink:href="#glyph-0-5" x="19.406784" y="35.328818"/>
</g>
<g fill="rgb(0%, 0%, 0%)" fill-opacity="1">
<use xlink:href="#glyph-0-1" x="186.691718" y="147.466427"/>
</g>
<g fill="rgb(0%, 0%, 0%)" fill-opacity="1">
<use xlink:href="#glyph-0-0" x="34.215157" y="9.957543"/>
</g>
</svg>
