<?xml version="1.0" encoding="UTF-8"?>
<svg xmlns="http://www.w3.org/2000/svg" xmlns:xlink="http://www.w3.org/1999/xlink" width="146.116pt" height="89.423pt" viewBox="0 0 146.116 89.423">
<defs>
<clipPath id="clip-0">
<path clip-rule="nonzero" d="M 0.0273438 0 L 145.207031 0 L 145.207031 88.851562 L 0.0273438 88.851562 Z M 0.0273438 0 "/>
</clipPath>
<clipPath id="clip-1">
<path clip-rule="nonzero" d="M 112 0 L 145.207031 0 L 145.207031 53 L 112 53 Z M 112 0 "/>
</clipPath>
</defs>
<g clip-path="url(#clip-0)">
<path fill="none" stroke-width="0.3985" stroke-linecap="butt" stroke-linejoin="miter" stroke="rgb(69.999695%, 69.999695%, 69.999695%)" stroke-opacity="1" stroke-miterlimit="10" d="M -42.519133 -42.519123 L 85.040856 -28.346228 L 99.213751 42.518248 L -28.346238 28.345353 Z M -42.519133 -42.519123 " transform="matrix(0.993589, 0, 0, -0.993589, 44.453569, 44.425346)"/>
</g>
<path fill="none" stroke-width="0.3985" stroke-linecap="butt" stroke-linejoin="miter" stroke="rgb(0%, 0%, 0%)" stroke-opacity="1" stroke-miterlimit="10" d="M 11.337869 19.841616 C 11.337869 32.367231 6.26236 42.518248 -0.000447346 42.518248 C -6.263255 42.518248 -11.338764 32.367231 -11.338764 19.841616 C -11.338764 7.319932 -6.263255 -2.835017 -0.000447346 -2.835017 C 6.26236 -2.835017 11.337869 7.319932 11.337869 19.841616 Z M 11.337869 19.841616 " transform="matrix(0.993589, 0, 0, -0.993589, 44.453569, 44.425346)"/>
<g clip-path="url(#clip-1)">
<path fill="none" stroke-width="0.3985" stroke-linecap="butt" stroke-linejoin="miter" stroke="rgb(0%, 0%, 0%)" stroke-opacity="1" stroke-miterlimit="10" d="M 96.379172 19.841616 C 96.379172 32.367231 91.303663 42.518248 85.040856 42.518248 C 78.778048 42.518248 73.702539 32.367231 73.702539 19.841616 C 73.702539 7.319932 78.778048 -2.835017 85.040856 -2.835017 C 91.303663 -2.835017 96.379172 7.319932 96.379172 19.841616 Z M 96.379172 19.841616 " transform="matrix(0.993589, 0, 0, -0.993589, 44.453569, 44.425346)"/>
</g>
<path fill="none" stroke-width="0.3985" stroke-linecap="butt" stroke-linejoin="miter" stroke="rgb(0%, 0%, 0%)" stroke-opacity="1" stroke-miterlimit="10" d="M -0.000447346 42.518248 L 85.040856 42.518248 " transform="matrix(0.993589, 0, 0, -0.993589, 44.453569, 44.425346)"/>
<path fill="none" stroke-width="0.3985" stroke-linecap="butt" stroke-linejoin="miter" stroke="rgb(0%, 0%, 0%)" stroke-opacity="1" stroke-miterlimit="10" d="M -0.000447346 -2.835017 L 85.040856 -2.835017 " transform="matrix(0.993589, 0, 0, -0.993589, 44.453569, 44.425346)"/>
<path fill="none" stroke-width="0.3985" stroke-linecap="butt" stroke-linejoin="miter" stroke="rgb(0%, 0%, 0%)" stroke-opacity="1" stroke-miterlimit="10" d="M 34.014501 -2.835017 L 42.518238 -14.173333 L 51.025907 -2.835017 Z M 34.014501 -2.835017 " transform="matrix(0.993589, 0, 0, -0.993589, 44.453569, 44.425346)"/>
<path fill="none" stroke-width="0.3985" stroke-linecap="butt" stroke-linejoin="miter" stroke="rgb(0%, 0%, 0%)" stroke-opacity="1" stroke-miterlimit="10" d="M 36.84908 -5.669596 L 32.819339 -13.73301 " transform="matrix(0.993589, 0, 0, -0.993589, 44.453569, 44.425346)"/>
<path fill-rule="nonzero" fill="rgb(0%, 0%, 0%)" fill-opacity="1" stroke-width="0.3985" stroke-linecap="butt" stroke-linejoin="miter" stroke="rgb(0%, 0%, 0%)" stroke-opacity="1" stroke-miterlimit="10" d="M 5.101878 0.0000812827 L 0.644591 1.679393 L 2.103949 0.000161731 L 0.644501 -1.678991 Z M 5.101878 0.0000812827 " transform="matrix(-0.444293, 0.888646, 0.888646, 0.444293, 77.954158, 56.286512)"/>
<path fill="none" stroke-width="0.3985" stroke-linecap="butt" stroke-linejoin="miter" stroke="rgb(0%, 0%, 0%)" stroke-opacity="1" stroke-miterlimit="10" d="M 42.518238 -8.504175 L 42.518238 -16.178375 " transform="matrix(0.993589, 0, 0, -0.993589, 44.453569, 44.425346)"/>
<path fill-rule="nonzero" fill="rgb(0%, 0%, 0%)" fill-opacity="1" stroke-width="0.3985" stroke-linecap="butt" stroke-linejoin="miter" stroke="rgb(0%, 0%, 0%)" stroke-opacity="1" stroke-miterlimit="10" d="M 5.103051 -0.00196158 L 0.644782 1.67677 L 2.107283 -0.00196158 L 0.644782 -1.676761 Z M 5.103051 -0.00196158 " transform="matrix(0, 0.993589, 0.993589, 0, 86.701168, 58.50779)"/>
<path fill="none" stroke-width="0.3985" stroke-linecap="butt" stroke-linejoin="miter" stroke="rgb(0%, 0%, 0%)" stroke-opacity="1" stroke-miterlimit="10" d="M 48.191328 -5.669596 L 52.221069 -13.73301 " transform="matrix(0.993589, 0, 0, -0.993589, 44.453569, 44.425346)"/>
<path fill-rule="nonzero" fill="rgb(0%, 0%, 0%)" fill-opacity="1" stroke-width="0.3985" stroke-linecap="butt" stroke-linejoin="miter" stroke="rgb(0%, 0%, 0%)" stroke-opacity="1" stroke-miterlimit="10" d="M 5.101882 -0.0000738575 L 0.644505 1.678999 L 2.103952 -0.000154306 L 0.644595 -1.679386 Z M 5.101882 -0.0000738575 " transform="matrix(0.444293, 0.888646, 0.888646, -0.444293, 95.448178, 56.286512)"/>
</svg>
