<?xml version="1.0" encoding="UTF-8"?>
<svg xmlns="http://www.w3.org/2000/svg" xmlns:xlink="http://www.w3.org/1999/xlink" width="115.346pt" height="132.357pt" viewBox="0 0 115.346 132.357">
<defs>
<clipPath id="clip-0">
<path clip-rule="nonzero" d="M 0 72 L 114.695312 72 L 114.695312 127 L 0 127 Z M 0 72 "/>
</clipPath>
<clipPath id="clip-1">
<path clip-rule="nonzero" d="M 30 0.0546875 L 59 0.0546875 L 59 85 L 30 85 Z M 30 0.0546875 "/>
</clipPath>
<clipPath id="clip-2">
<path clip-rule="nonzero" d="M 0 0.0546875 L 114.695312 0.0546875 L 114.695312 131.664062 L 0 131.664062 Z M 0 0.0546875 "/>
</clipPath>
<clipPath id="clip-3">
<path clip-rule="nonzero" d="M 41 0.0546875 L 90 0.0546875 L 90 131.664062 L 41 131.664062 Z M 41 0.0546875 "/>
</clipPath>
</defs>
<g clip-path="url(#clip-0)">
<path fill="none" stroke-width="0.3985" stroke-linecap="butt" stroke-linejoin="miter" stroke="rgb(0%, 0%, 0%)" stroke-opacity="1" stroke-dasharray="2.98883 2.98883" stroke-miterlimit="10" d="M -51.028606 -25.517411 L -17.008679 17.011426 L 59.536157 8.506444 " transform="matrix(0.994362, 0, 0, -0.994362, 53.119816, 95.458485)"/>
</g>
<g clip-path="url(#clip-1)">
<path fill="none" stroke-width="0.3985" stroke-linecap="butt" stroke-linejoin="miter" stroke="rgb(0%, 0%, 0%)" stroke-opacity="1" stroke-dasharray="2.98883 2.98883" stroke-miterlimit="10" d="M 0.00128491 93.556262 L -17.008679 17.011426 " transform="matrix(0.994362, 0, 0, -0.994362, 53.119816, 95.458485)"/>
</g>
<g clip-path="url(#clip-2)">
<path fill="none" stroke-width="0.79701" stroke-linecap="butt" stroke-linejoin="miter" stroke="rgb(0%, 0%, 0%)" stroke-opacity="1" stroke-miterlimit="10" d="M 0.00128491 93.556262 L -51.028606 -25.517411 L 25.51623 -34.018465 L 59.536157 8.506444 L 0.00128491 93.556262 " transform="matrix(0.994362, 0, 0, -0.994362, 53.119816, 95.458485)"/>
</g>
<g clip-path="url(#clip-3)">
<path fill="none" stroke-width="0.79701" stroke-linecap="butt" stroke-linejoin="miter" stroke="rgb(0%, 0%, 0%)" stroke-opacity="1" stroke-miterlimit="10" d="M 0.00128491 93.556262 L 25.51623 -34.018465 " transform="matrix(0.994362, 0, 0, -0.994362, 53.119816, 95.458485)"/>
</g>
<path fill="none" stroke-width="0.79701" stroke-linecap="butt" stroke-linejoin="miter" stroke="rgb(0%, 0%, 0%)" stroke-opacity="1" stroke-miterlimit="10" d="M 27.637565 27.637743 C 27.637565 42.903497 15.263111 55.274023 0.00128491 55.274023 C -15.26447 55.274023 -27.638924 42.903497 -27.638924 27.637743 C -27.638924 12.371988 -15.26447 0.00146248 0.00128491 0.00146248 C 15.263111 0.00146248 27.637565 12.371988 27.637565 27.637743 Z M 27.637565 27.637743 " transform="matrix(0.994362, 0, 0, -0.994362, 53.119816, 95.458485)"/>
<path fill="none" stroke-width="0.3985" stroke-linecap="butt" stroke-linejoin="miter" stroke="rgb(0%, 0%, 0%)" stroke-opacity="1" stroke-dasharray="2.98883 2.98883" stroke-miterlimit="10" d="M 27.637565 27.637743 C 27.637565 32.336107 15.263111 36.142724 0.00128491 36.142724 C -15.26447 36.142724 -27.638924 32.336107 -27.638924 27.637743 C -27.638924 22.939379 -15.26447 19.132761 0.00128491 19.132761 C 15.263111 19.132761 27.637565 22.939379 27.637565 27.637743 Z M 27.637565 27.637743 " transform="matrix(0.994362, 0, 0, -0.994362, 53.119816, 95.458485)"/>
</svg>
