<?xml version="1.0" encoding="UTF-8"?>
<svg xmlns="http://www.w3.org/2000/svg" xmlns:xlink="http://www.w3.org/1999/xlink" width="204.628pt" height="161.788pt" viewBox="0 0 204.628 161.788">
<defs>
<g>
<g id="glyph-0-0">
<path d="M 2.25 -3.140625 L 3.9375 -3.140625 C 5.125 -3.140625 6.203125 -3.9375 6.203125 -4.9375 C 6.203125 -5.90625 5.21875 -6.78125 3.859375 -6.78125 L 0.34375 -6.78125 L 0.34375 -6.484375 L 0.59375 -6.484375 C 1.34375 -6.484375 1.375 -6.375 1.375 -6.015625 L 1.375 -0.78125 C 1.375 -0.421875 1.34375 -0.3125 0.59375 -0.3125 L 0.34375 -0.3125 L 0.34375 0 C 0.703125 -0.03125 1.4375 -0.03125 1.8125 -0.03125 C 2.1875 -0.03125 2.9375 -0.03125 3.28125 0 L 3.28125 -0.3125 L 3.046875 -0.3125 C 2.28125 -0.3125 2.25 -0.421875 2.25 -0.78125 Z M 2.21875 -3.40625 L 2.21875 -6.078125 C 2.21875 -6.40625 2.25 -6.484375 2.71875 -6.484375 L 3.59375 -6.484375 C 5.171875 -6.484375 5.171875 -5.421875 5.171875 -4.9375 C 5.171875 -4.46875 5.171875 -3.40625 3.59375 -3.40625 Z M 2.21875 -3.40625 "/>
</g>
<g id="glyph-0-1">
<path d="M 3.203125 -0.15625 C 2.65625 -0.359375 1.546875 -1.078125 1.546875 -3.375 C 1.546875 -5.953125 2.9375 -6.75 3.859375 -6.75 C 4.8125 -6.75 6.171875 -5.90625 6.171875 -3.375 C 6.171875 -2.59375 6.046875 -1.1875 5 -0.421875 C 4.78125 -0.96875 4.46875 -1.46875 3.875 -1.46875 C 3.375 -1.46875 3.0625 -1.046875 3.0625 -0.640625 C 3.0625 -0.375 3.1875 -0.171875 3.203125 -0.15625 Z M 4.734375 -0.265625 C 4.40625 -0.0625 4.078125 -0.03125 3.859375 -0.03125 C 3.359375 -0.03125 3.28125 -0.484375 3.28125 -0.640625 C 3.28125 -0.921875 3.484375 -1.25 3.875 -1.25 C 4.40625 -1.25 4.625 -0.828125 4.734375 -0.265625 Z M 5.140625 -0.0625 C 6.3125 -0.59375 7.171875 -1.875 7.171875 -3.375 C 7.171875 -5.390625 5.671875 -7 3.859375 -7 C 2.078125 -7 0.5625 -5.421875 0.5625 -3.375 C 0.5625 -1.359375 2.0625 0.21875 3.859375 0.21875 C 4.171875 0.21875 4.515625 0.15625 4.8125 0.0625 C 4.953125 1.015625 5.09375 1.921875 6.015625 1.921875 C 7.03125 1.921875 7.21875 0.609375 7.21875 0.09375 C 7.21875 0 7.21875 -0.109375 7.109375 -0.109375 C 7.03125 -0.109375 7.015625 -0.03125 7 0.0625 C 6.953125 0.609375 6.53125 0.90625 6.109375 0.90625 C 5.640625 0.90625 5.390625 0.5625 5.140625 -0.0625 Z M 5.140625 -0.0625 "/>
</g>
<g id="glyph-0-2">
<path d="M 1.34375 -0.78125 C 1.34375 -0.421875 1.328125 -0.3125 0.5625 -0.3125 L 0.328125 -0.3125 L 0.328125 0 L 6.0625 0 L 6.484375 -2.5625 L 6.234375 -2.5625 C 5.984375 -1.03125 5.75 -0.3125 4.046875 -0.3125 L 2.71875 -0.3125 C 2.25 -0.3125 2.234375 -0.375 2.234375 -0.703125 L 2.234375 -3.359375 L 3.125 -3.359375 C 4.09375 -3.359375 4.203125 -3.046875 4.203125 -2.203125 L 4.453125 -2.203125 L 4.453125 -4.828125 L 4.203125 -4.828125 C 4.203125 -3.96875 4.09375 -3.671875 3.125 -3.671875 L 2.234375 -3.671875 L 2.234375 -6.046875 C 2.234375 -6.375 2.25 -6.453125 2.71875 -6.453125 L 4 -6.453125 C 5.53125 -6.453125 5.796875 -5.90625 5.953125 -4.515625 L 6.203125 -4.515625 L 5.921875 -6.75 L 0.328125 -6.75 L 0.328125 -6.453125 L 0.5625 -6.453125 C 1.328125 -6.453125 1.34375 -6.34375 1.34375 -5.984375 Z M 1.34375 -0.78125 "/>
</g>
<g id="glyph-0-3">
<path d="M 5.78125 -6.75 L 0.328125 -6.75 L 0.328125 -6.453125 L 0.5625 -6.453125 C 1.328125 -6.453125 1.34375 -6.34375 1.34375 -5.984375 L 1.34375 -0.78125 C 1.34375 -0.421875 1.328125 -0.3125 0.5625 -0.3125 L 0.328125 -0.3125 L 0.328125 0 C 0.671875 -0.03125 1.453125 -0.03125 1.84375 -0.03125 C 2.25 -0.03125 3.15625 -0.03125 3.515625 0 L 3.515625 -0.3125 L 3.1875 -0.3125 C 2.234375 -0.3125 2.234375 -0.4375 2.234375 -0.78125 L 2.234375 -3.234375 L 3.09375 -3.234375 C 4.046875 -3.234375 4.140625 -2.90625 4.140625 -2.0625 L 4.390625 -2.0625 L 4.390625 -4.703125 L 4.140625 -4.703125 C 4.140625 -3.859375 4.046875 -3.53125 3.09375 -3.53125 L 2.234375 -3.53125 L 2.234375 -6.046875 C 2.234375 -6.375 2.25 -6.453125 2.71875 -6.453125 L 3.921875 -6.453125 C 5.40625 -6.453125 5.65625 -5.890625 5.8125 -4.515625 L 6.0625 -4.515625 Z M 5.78125 -6.75 "/>
</g>
<g id="glyph-0-4">
<path d="M 3.953125 -6.921875 C 3.90625 -7.046875 3.890625 -7.109375 3.734375 -7.109375 C 3.5625 -7.109375 3.53125 -7.0625 3.484375 -6.921875 L 1.4375 -0.96875 C 1.25 -0.46875 0.859375 -0.3125 0.3125 -0.3125 L 0.3125 0 C 0.546875 -0.015625 0.96875 -0.03125 1.328125 -0.03125 C 1.640625 -0.03125 2.15625 -0.015625 2.46875 0 L 2.46875 -0.3125 C 1.984375 -0.3125 1.734375 -0.5625 1.734375 -0.8125 C 1.734375 -0.84375 1.734375 -0.9375 1.75 -0.96875 L 2.203125 -2.265625 L 4.65625 -2.265625 L 5.1875 -0.75 C 5.203125 -0.703125 5.21875 -0.640625 5.21875 -0.609375 C 5.21875 -0.3125 4.65625 -0.3125 4.390625 -0.3125 L 4.390625 0 C 4.75 -0.03125 5.453125 -0.03125 5.828125 -0.03125 C 6.25 -0.03125 6.703125 -0.015625 7.125 0 L 7.125 -0.3125 L 6.953125 -0.3125 C 6.34375 -0.3125 6.21875 -0.375 6.109375 -0.703125 Z M 3.421875 -5.796875 L 4.546875 -2.578125 L 2.3125 -2.578125 Z M 3.421875 -5.796875 "/>
</g>
<g id="glyph-0-5">
<path d="M 2.203125 -3.640625 L 2.203125 -6.078125 C 2.203125 -6.40625 2.21875 -6.484375 2.6875 -6.484375 L 3.921875 -6.484375 C 4.890625 -6.484375 5.234375 -5.640625 5.234375 -5.109375 C 5.234375 -4.46875 4.75 -3.640625 3.640625 -3.640625 Z M 4.546875 -3.546875 C 5.515625 -3.734375 6.203125 -4.375 6.203125 -5.109375 C 6.203125 -5.96875 5.28125 -6.78125 4 -6.78125 L 0.359375 -6.78125 L 0.359375 -6.484375 L 0.59375 -6.484375 C 1.359375 -6.484375 1.375 -6.375 1.375 -6.015625 L 1.375 -0.78125 C 1.375 -0.421875 1.359375 -0.3125 0.59375 -0.3125 L 0.359375 -0.3125 L 0.359375 0 L 4.25 0 C 5.578125 0 6.46875 -0.890625 6.46875 -1.8125 C 6.46875 -2.6875 5.65625 -3.421875 4.546875 -3.546875 Z M 3.9375 -0.3125 L 2.6875 -0.3125 C 2.21875 -0.3125 2.203125 -0.375 2.203125 -0.703125 L 2.203125 -3.421875 L 4.078125 -3.421875 C 5.0625 -3.421875 5.46875 -2.5 5.46875 -1.828125 C 5.46875 -1.125 4.953125 -0.3125 3.9375 -0.3125 Z M 3.9375 -0.3125 "/>
</g>
<g id="glyph-0-6">
<path d="M 2.859375 -2.328125 C 3.15625 -2.71875 3.53125 -3.203125 3.765625 -3.453125 C 4.078125 -3.8125 4.484375 -3.96875 4.953125 -3.96875 L 4.953125 -4.28125 C 4.6875 -4.265625 4.390625 -4.25 4.140625 -4.25 C 3.828125 -4.25 3.3125 -4.265625 3.1875 -4.28125 L 3.1875 -3.96875 C 3.390625 -3.953125 3.46875 -3.828125 3.46875 -3.671875 C 3.46875 -3.515625 3.375 -3.375 3.3125 -3.3125 L 2.703125 -2.546875 L 1.921875 -3.546875 C 1.84375 -3.640625 1.84375 -3.671875 1.84375 -3.734375 C 1.84375 -3.875 1.984375 -3.96875 2.1875 -3.96875 L 2.1875 -4.28125 C 1.921875 -4.265625 1.265625 -4.25 1.109375 -4.25 C 0.90625 -4.25 0.4375 -4.265625 0.171875 -4.28125 L 0.171875 -3.96875 C 0.859375 -3.96875 0.875 -3.96875 1.34375 -3.375 L 2.328125 -2.09375 L 1.390625 -0.90625 C 0.921875 -0.328125 0.328125 -0.3125 0.125 -0.3125 L 0.125 0 C 0.375 -0.015625 0.6875 -0.03125 0.9375 -0.03125 C 1.234375 -0.03125 1.65625 -0.015625 1.890625 0 L 1.890625 -0.3125 C 1.671875 -0.34375 1.59375 -0.46875 1.59375 -0.609375 C 1.59375 -0.828125 1.890625 -1.15625 2.5 -1.875 L 3.25 -0.890625 C 3.328125 -0.78125 3.453125 -0.609375 3.453125 -0.5625 C 3.453125 -0.46875 3.375 -0.3125 3.09375 -0.3125 L 3.09375 0 C 3.40625 -0.015625 3.953125 -0.03125 4.171875 -0.03125 C 4.4375 -0.03125 4.828125 -0.015625 5.125 0 L 5.125 -0.3125 C 4.59375 -0.3125 4.40625 -0.328125 4.1875 -0.609375 Z M 2.859375 -2.328125 "/>
</g>
<g id="glyph-0-7">
<path d="M 4.125 -3.34375 C 4.375 -3.96875 4.890625 -3.96875 5.046875 -3.96875 L 5.046875 -4.28125 C 4.8125 -4.265625 4.53125 -4.25 4.296875 -4.25 C 4.125 -4.25 3.65625 -4.265625 3.4375 -4.28125 L 3.4375 -3.96875 C 3.75 -3.96875 3.90625 -3.796875 3.90625 -3.546875 C 3.90625 -3.453125 3.890625 -3.421875 3.84375 -3.3125 L 2.84375 -0.859375 L 1.734375 -3.53125 C 1.703125 -3.640625 1.671875 -3.671875 1.671875 -3.71875 C 1.671875 -3.96875 2.046875 -3.96875 2.234375 -3.96875 L 2.234375 -4.28125 C 1.984375 -4.265625 1.328125 -4.25 1.15625 -4.25 C 0.890625 -4.25 0.484375 -4.265625 0.1875 -4.28125 L 0.1875 -3.96875 C 0.671875 -3.96875 0.859375 -3.96875 1 -3.625 L 2.484375 0 C 2.4375 0.125 2.296875 0.453125 2.234375 0.59375 C 2.015625 1.140625 1.734375 1.8125 1.109375 1.8125 C 1.046875 1.8125 0.828125 1.8125 0.640625 1.640625 C 0.9375 1.59375 1.03125 1.375 1.03125 1.21875 C 1.03125 0.96875 0.828125 0.8125 0.609375 0.8125 C 0.40625 0.8125 0.1875 0.9375 0.1875 1.234375 C 0.1875 1.671875 0.609375 2.03125 1.109375 2.03125 C 1.734375 2.03125 2.140625 1.46875 2.375 0.90625 Z M 4.125 -3.34375 "/>
</g>
<g id="glyph-1-0">
<path d="M 7.578125 -6.015625 C 7.671875 -6.375 7.6875 -6.484375 8.421875 -6.484375 C 8.671875 -6.484375 8.75 -6.484375 8.75 -6.671875 C 8.75 -6.78125 8.640625 -6.78125 8.609375 -6.78125 C 8.34375 -6.78125 7.625 -6.75 7.34375 -6.75 C 7.0625 -6.75 6.34375 -6.78125 6.0625 -6.78125 C 5.984375 -6.78125 5.875 -6.78125 5.875 -6.59375 C 5.875 -6.484375 5.96875 -6.484375 6.15625 -6.484375 C 6.171875 -6.484375 6.359375 -6.484375 6.53125 -6.453125 C 6.703125 -6.4375 6.796875 -6.421875 6.796875 -6.296875 C 6.796875 -6.265625 6.78125 -6.234375 6.75 -6.109375 L 6.15625 -3.6875 L 3.125 -3.6875 L 3.71875 -6.015625 C 3.8125 -6.375 3.828125 -6.484375 4.546875 -6.484375 C 4.8125 -6.484375 4.890625 -6.484375 4.890625 -6.671875 C 4.890625 -6.78125 4.78125 -6.78125 4.75 -6.78125 C 4.46875 -6.78125 3.75 -6.75 3.484375 -6.75 C 3.1875 -6.75 2.484375 -6.78125 2.203125 -6.78125 C 2.109375 -6.78125 2 -6.78125 2 -6.59375 C 2 -6.484375 2.09375 -6.484375 2.28125 -6.484375 C 2.3125 -6.484375 2.5 -6.484375 2.65625 -6.453125 C 2.84375 -6.4375 2.9375 -6.421875 2.9375 -6.296875 C 2.9375 -6.265625 2.921875 -6.234375 2.890625 -6.109375 L 1.5625 -0.78125 C 1.453125 -0.390625 1.4375 -0.3125 0.65625 -0.3125 C 0.484375 -0.3125 0.390625 -0.3125 0.390625 -0.109375 C 0.390625 0 0.5 0 0.53125 0 C 0.8125 0 1.515625 -0.03125 1.78125 -0.03125 C 2 -0.03125 2.21875 -0.015625 2.421875 -0.015625 C 2.640625 -0.015625 2.859375 0 3.078125 0 C 3.15625 0 3.265625 0 3.265625 -0.203125 C 3.265625 -0.3125 3.1875 -0.3125 2.984375 -0.3125 C 2.625 -0.3125 2.34375 -0.3125 2.34375 -0.484375 C 2.34375 -0.546875 2.359375 -0.59375 2.375 -0.65625 L 3.046875 -3.375 L 6.078125 -3.375 C 5.671875 -1.734375 5.4375 -0.78125 5.390625 -0.640625 C 5.296875 -0.3125 5.109375 -0.3125 4.484375 -0.3125 C 4.34375 -0.3125 4.25 -0.3125 4.25 -0.109375 C 4.25 0 4.375 0 4.390625 0 C 4.671875 0 5.375 -0.03125 5.65625 -0.03125 C 5.859375 -0.03125 6.078125 -0.015625 6.296875 -0.015625 C 6.515625 -0.015625 6.734375 0 6.9375 0 C 7.015625 0 7.140625 0 7.140625 -0.203125 C 7.140625 -0.3125 7.046875 -0.3125 6.859375 -0.3125 C 6.484375 -0.3125 6.21875 -0.3125 6.21875 -0.484375 C 6.21875 -0.546875 6.234375 -0.59375 6.234375 -0.65625 Z M 7.578125 -6.015625 "/>
</g>
<g id="glyph-1-1">
<path d="M 4.8125 -4.078125 L 3.984375 -6.0625 C 3.953125 -6.140625 3.9375 -6.1875 3.9375 -6.1875 C 3.9375 -6.25 4.109375 -6.4375 4.515625 -6.484375 C 4.625 -6.484375 4.71875 -6.5 4.71875 -6.671875 C 4.71875 -6.78125 4.59375 -6.78125 4.578125 -6.78125 C 4.15625 -6.78125 3.734375 -6.75 3.3125 -6.75 C 3.078125 -6.75 2.453125 -6.78125 2.203125 -6.78125 C 2.140625 -6.78125 2.03125 -6.78125 2.03125 -6.59375 C 2.03125 -6.484375 2.125 -6.484375 2.25 -6.484375 C 2.859375 -6.484375 2.90625 -6.375 3 -6.15625 L 4.171875 -3.390625 L 2.078125 -1.140625 L 1.953125 -1.03125 C 1.453125 -0.5 1 -0.34375 0.484375 -0.3125 C 0.359375 -0.296875 0.265625 -0.296875 0.265625 -0.109375 C 0.265625 -0.09375 0.265625 0 0.390625 0 C 0.703125 0 1.03125 -0.03125 1.328125 -0.03125 C 1.703125 -0.03125 2.09375 0 2.4375 0 C 2.5 0 2.625 0 2.625 -0.203125 C 2.625 -0.296875 2.53125 -0.3125 2.5 -0.3125 C 2.421875 -0.3125 2.109375 -0.34375 2.109375 -0.609375 C 2.109375 -0.78125 2.25 -0.9375 2.375 -1.0625 L 3.390625 -2.140625 L 4.28125 -3.109375 L 5.28125 -0.734375 C 5.328125 -0.625 5.34375 -0.609375 5.34375 -0.59375 C 5.34375 -0.515625 5.140625 -0.34375 4.765625 -0.3125 C 4.65625 -0.296875 4.5625 -0.28125 4.5625 -0.125 C 4.5625 0 4.671875 0 4.703125 0 C 4.984375 0 5.6875 -0.03125 5.96875 -0.03125 C 6.21875 -0.03125 6.8125 0 7.0625 0 C 7.140625 0 7.25 0 7.25 -0.1875 C 7.25 -0.3125 7.15625 -0.3125 7.078125 -0.3125 C 6.40625 -0.3125 6.390625 -0.34375 6.21875 -0.75 C 5.828125 -1.671875 5.171875 -3.21875 4.9375 -3.8125 C 5.609375 -4.515625 6.65625 -5.6875 6.96875 -5.96875 C 7.265625 -6.21875 7.640625 -6.453125 8.234375 -6.484375 C 8.375 -6.484375 8.453125 -6.484375 8.453125 -6.671875 C 8.453125 -6.6875 8.453125 -6.78125 8.328125 -6.78125 C 8.03125 -6.78125 7.703125 -6.75 7.390625 -6.75 C 7.03125 -6.75 6.640625 -6.78125 6.296875 -6.78125 C 6.234375 -6.78125 6.109375 -6.78125 6.109375 -6.59375 C 6.109375 -6.515625 6.15625 -6.484375 6.21875 -6.484375 C 6.3125 -6.46875 6.625 -6.453125 6.625 -6.171875 C 6.625 -6.03125 6.515625 -5.90625 6.421875 -5.8125 Z M 4.8125 -4.078125 "/>
</g>
<g id="glyph-1-2">
<path d="M 4.515625 -4.96875 C 4.515625 -5.625 4.34375 -7 3.328125 -7 C 1.953125 -7 0.421875 -4.203125 0.421875 -1.921875 C 0.421875 -1 0.703125 0.109375 1.609375 0.109375 C 3.015625 0.109375 4.515625 -2.75 4.515625 -4.96875 Z M 1.46875 -3.609375 C 1.640625 -4.25 1.84375 -5.03125 2.234375 -5.75 C 2.5 -6.234375 2.875 -6.78125 3.3125 -6.78125 C 3.8125 -6.78125 3.859375 -6.15625 3.859375 -5.578125 C 3.859375 -5.09375 3.78125 -4.59375 3.546875 -3.609375 Z M 3.453125 -3.296875 C 3.34375 -2.828125 3.140625 -1.984375 2.765625 -1.265625 C 2.421875 -0.59375 2.03125 -0.109375 1.609375 -0.109375 C 1.28125 -0.109375 1.078125 -0.390625 1.078125 -1.328125 C 1.078125 -1.734375 1.140625 -2.3125 1.390625 -3.296875 Z M 3.453125 -3.296875 "/>
</g>
<g id="glyph-2-0">
<path d="M 2.328125 -4.4375 C 2.328125 -4.625 2.328125 -4.625 2.125 -4.625 C 1.671875 -4.1875 1.046875 -4.1875 0.765625 -4.1875 L 0.765625 -3.9375 C 0.921875 -3.9375 1.390625 -3.9375 1.765625 -4.125 L 1.765625 -0.578125 C 1.765625 -0.34375 1.765625 -0.25 1.078125 -0.25 L 0.8125 -0.25 L 0.8125 0 C 0.9375 0 1.796875 -0.03125 2.046875 -0.03125 C 2.265625 -0.03125 3.140625 0 3.296875 0 L 3.296875 -0.25 L 3.03125 -0.25 C 2.328125 -0.25 2.328125 -0.34375 2.328125 -0.578125 Z M 2.328125 -4.4375 "/>
</g>
<g id="glyph-2-1">
<path d="M 3.515625 -1.265625 L 3.28125 -1.265625 C 3.265625 -1.109375 3.1875 -0.703125 3.09375 -0.640625 C 3.046875 -0.59375 2.515625 -0.59375 2.40625 -0.59375 L 1.125 -0.59375 C 1.859375 -1.234375 2.109375 -1.4375 2.515625 -1.765625 C 3.03125 -2.171875 3.515625 -2.609375 3.515625 -3.265625 C 3.515625 -4.109375 2.78125 -4.625 1.890625 -4.625 C 1.03125 -4.625 0.4375 -4.015625 0.4375 -3.375 C 0.4375 -3.03125 0.734375 -2.984375 0.8125 -2.984375 C 0.96875 -2.984375 1.171875 -3.109375 1.171875 -3.359375 C 1.171875 -3.484375 1.125 -3.734375 0.765625 -3.734375 C 0.984375 -4.21875 1.453125 -4.375 1.78125 -4.375 C 2.484375 -4.375 2.84375 -3.828125 2.84375 -3.265625 C 2.84375 -2.65625 2.40625 -2.1875 2.1875 -1.9375 L 0.515625 -0.265625 C 0.4375 -0.203125 0.4375 -0.1875 0.4375 0 L 3.3125 0 Z M 3.515625 -1.265625 "/>
</g>
<g id="glyph-2-2">
<path d="M 1.90625 -2.328125 C 2.453125 -2.328125 2.84375 -1.953125 2.84375 -1.203125 C 2.84375 -0.34375 2.328125 -0.078125 1.9375 -0.078125 C 1.65625 -0.078125 1.03125 -0.15625 0.75 -0.578125 C 1.078125 -0.578125 1.15625 -0.8125 1.15625 -0.96875 C 1.15625 -1.1875 0.984375 -1.34375 0.765625 -1.34375 C 0.578125 -1.34375 0.375 -1.21875 0.375 -0.9375 C 0.375 -0.28125 1.09375 0.140625 1.9375 0.140625 C 2.90625 0.140625 3.578125 -0.515625 3.578125 -1.203125 C 3.578125 -1.75 3.140625 -2.296875 2.375 -2.453125 C 3.09375 -2.71875 3.359375 -3.234375 3.359375 -3.671875 C 3.359375 -4.21875 2.734375 -4.625 1.953125 -4.625 C 1.1875 -4.625 0.59375 -4.25 0.59375 -3.6875 C 0.59375 -3.453125 0.75 -3.328125 0.953125 -3.328125 C 1.171875 -3.328125 1.3125 -3.484375 1.3125 -3.671875 C 1.3125 -3.875 1.171875 -4.03125 0.953125 -4.046875 C 1.203125 -4.34375 1.671875 -4.421875 1.9375 -4.421875 C 2.25 -4.421875 2.6875 -4.265625 2.6875 -3.671875 C 2.6875 -3.375 2.59375 -3.046875 2.40625 -2.84375 C 2.1875 -2.578125 1.984375 -2.5625 1.640625 -2.53125 C 1.46875 -2.515625 1.453125 -2.515625 1.421875 -2.515625 C 1.40625 -2.515625 1.34375 -2.5 1.34375 -2.421875 C 1.34375 -2.328125 1.40625 -2.328125 1.53125 -2.328125 Z M 1.90625 -2.328125 "/>
</g>
<g id="glyph-2-3">
<path d="M 3.6875 -1.140625 L 3.6875 -1.390625 L 2.90625 -1.390625 L 2.90625 -4.5 C 2.90625 -4.640625 2.90625 -4.703125 2.765625 -4.703125 C 2.671875 -4.703125 2.640625 -4.703125 2.578125 -4.59375 L 0.265625 -1.390625 L 0.265625 -1.140625 L 2.328125 -1.140625 L 2.328125 -0.578125 C 2.328125 -0.328125 2.328125 -0.25 1.75 -0.25 L 1.5625 -0.25 L 1.5625 0 C 1.921875 -0.015625 2.359375 -0.03125 2.609375 -0.03125 C 2.875 -0.03125 3.3125 -0.015625 3.671875 0 L 3.671875 -0.25 L 3.484375 -0.25 C 2.90625 -0.25 2.90625 -0.328125 2.90625 -0.578125 L 2.90625 -1.140625 Z M 2.375 -3.9375 L 2.375 -1.390625 L 0.53125 -1.390625 Z M 2.375 -3.9375 "/>
</g>
</g>
<clipPath id="clip-0">
<path clip-rule="nonzero" d="M 200 79 L 204.257812 79 L 204.257812 83 L 200 83 Z M 200 79 "/>
</clipPath>
<clipPath id="clip-1">
<path clip-rule="nonzero" d="M 82 2 L 84 2 L 84 161.535156 L 82 161.535156 Z M 82 2 "/>
</clipPath>
<clipPath id="clip-2">
<path clip-rule="nonzero" d="M 81 0.0390625 L 85 0.0390625 L 85 4 L 81 4 Z M 81 0.0390625 "/>
</clipPath>
</defs>
<path fill="none" stroke-width="0.3985" stroke-linecap="butt" stroke-linejoin="miter" stroke="rgb(0%, 0%, 0%)" stroke-opacity="1" stroke-miterlimit="10" d="M 0.000973328 72.849128 L 192.275663 72.849128 " transform="matrix(0.998185, 0, 0, -0.998185, 10.14356, 153.505996)"/>
<g clip-path="url(#clip-0)">
<path fill-rule="nonzero" fill="rgb(0%, 0%, 0%)" fill-opacity="1" d="M 204.058594 80.789062 L 200.878906 79.195312 L 202.070312 80.789062 L 200.878906 82.378906 "/>
</g>
<g clip-path="url(#clip-1)">
<path fill="none" stroke-width="0.3985" stroke-linecap="butt" stroke-linejoin="miter" stroke="rgb(0%, 0%, 0%)" stroke-opacity="1" stroke-miterlimit="10" d="M 72.851921 -7.844176 L 72.851921 151.55445 " transform="matrix(0.998185, 0, 0, -0.998185, 10.14356, 153.505996)"/>
</g>
<g clip-path="url(#clip-2)">
<path fill-rule="nonzero" fill="rgb(0%, 0%, 0%)" fill-opacity="1" d="M 82.863281 0.238281 L 81.269531 3.421875 L 82.863281 2.226562 L 84.453125 3.421875 "/>
</g>
<path fill="none" stroke-width="0.3985" stroke-linecap="butt" stroke-linejoin="miter" stroke="rgb(0%, 0%, 0%)" stroke-opacity="1" stroke-miterlimit="10" d="M 24.283318 72.849128 L 25.265569 82.562066 L 26.243907 86.514551 L 27.226158 89.500438 L 28.20841 91.977589 L 29.190661 94.122106 L 30.168999 96.027908 L 31.15125 97.749783 L 32.133501 99.32295 L 33.111839 100.774803 L 34.09409 102.120996 L 35.076341 103.377182 L 36.058592 104.551187 L 37.03693 105.658666 L 38.019181 106.695704 L 39.001432 107.677955 L 39.97977 108.605419 L 40.962021 109.48201 L 41.944273 110.315554 L 42.926524 111.102137 L 43.904862 111.849587 L 44.887113 112.557904 L 45.869364 113.231 L 46.847702 113.87279 L 47.829953 114.475446 L 48.812204 115.050709 L 49.794455 115.594665 L 50.772793 116.111227 L 51.755044 116.596482 L 52.737295 117.058258 L 53.715633 117.488727 L 54.697884 117.899628 L 55.680136 118.283137 L 56.658473 118.639252 L 57.640725 118.9758 L 58.622976 119.288868 L 59.605227 119.578456 L 60.583565 119.844564 L 61.565816 120.087192 L 62.548067 120.314166 L 63.526405 120.513747 L 64.508656 120.697675 L 65.490907 120.858122 L 66.473159 120.999003 L 67.451496 121.116403 L 68.433748 121.21815 L 69.415999 121.296417 L 70.394337 121.355118 L 71.376588 121.394251 L 72.358839 121.413818 L 73.34109 121.413818 L 74.319428 121.394251 L 75.301679 121.355118 L 76.28393 121.296417 L 77.262268 121.21815 L 78.244519 121.116403 L 79.22677 120.999003 L 80.205108 120.858122 L 81.187359 120.697675 L 82.169611 120.51766 L 83.151862 120.314166 L 84.1302 120.091105 L 85.112451 119.844564 L 86.094702 119.578456 L 87.07304 119.288868 L 88.055291 118.9758 L 89.037542 118.643165 L 90.019793 118.283137 L 90.998131 117.899628 L 91.980382 117.49264 L 92.962633 117.058258 L 93.940971 116.600396 L 94.923222 116.111227 L 95.905474 115.598578 L 96.887725 115.054622 L 97.866063 114.479359 L 98.848314 113.87279 L 99.830565 113.234914 L 100.808903 112.561817 L 101.791154 111.853501 L 102.773405 111.106051 L 103.755656 110.319467 L 104.733994 109.485923 L 105.716245 108.609332 L 106.698497 107.681868 L 107.676834 106.699617 L 108.659086 105.662579 L 109.641337 104.559014 L 110.619675 103.381095 L 111.601926 102.128823 L 112.584177 100.78263 L 113.566428 99.330777 L 114.544766 97.757609 L 115.527017 96.035735 L 116.509268 94.129933 L 117.487606 91.985416 L 118.469857 89.512178 L 119.452108 86.530204 L 120.43436 82.585546 L 121.412697 73.506571 " transform="matrix(0.998185, 0, 0, -0.998185, 10.14356, 153.505996)"/>
<path fill="none" stroke-width="0.3985" stroke-linecap="butt" stroke-linejoin="miter" stroke="rgb(0%, 0%, 0%)" stroke-opacity="1" stroke-miterlimit="10" d="M 24.283318 72.849128 L 25.265569 63.140104 L 26.243907 59.183706 L 27.226158 56.201732 L 28.20841 53.72458 L 29.190661 51.580064 L 30.168999 49.674262 L 31.15125 47.952387 L 32.133501 46.37922 L 33.111839 44.927367 L 34.09409 43.581174 L 35.076341 42.324988 L 36.058592 41.150983 L 37.03693 40.043504 L 38.019181 39.006466 L 39.001432 38.024215 L 39.97977 37.096751 L 40.962021 36.22016 L 41.944273 35.386616 L 42.926524 34.600033 L 43.904862 33.852583 L 44.887113 33.140353 L 45.869364 32.467256 L 46.847702 31.82938 L 47.829953 31.22281 L 48.812204 30.651461 L 49.794455 30.107505 L 50.772793 29.590943 L 51.755044 29.105687 L 52.737295 28.643912 L 53.715633 28.213443 L 54.697884 27.802541 L 55.680136 27.419033 L 56.658473 27.062918 L 57.640725 26.72637 L 58.622976 26.413302 L 59.605227 26.123714 L 60.583565 25.857606 L 61.565816 25.611065 L 62.548067 25.388004 L 63.526405 25.188423 L 64.508656 25.004495 L 65.490907 24.844048 L 66.473159 24.703167 L 67.451496 24.585767 L 68.433748 24.48402 L 69.415999 24.405753 L 70.394337 24.347052 L 71.376588 24.307919 L 72.358839 24.284439 L 73.34109 24.284439 L 74.319428 24.304005 L 75.301679 24.347052 L 76.28393 24.405753 L 77.262268 24.48402 L 78.244519 24.585767 L 79.22677 24.703167 L 80.205108 24.844048 L 81.187359 25.004495 L 82.169611 25.184509 L 83.151862 25.388004 L 84.1302 25.611065 L 85.112451 25.857606 L 86.094702 26.123714 L 87.07304 26.413302 L 88.055291 26.72637 L 89.037542 27.059005 L 90.019793 27.419033 L 90.998131 27.802541 L 91.980382 28.20953 L 92.962633 28.643912 L 93.940971 29.101774 L 94.923222 29.590943 L 95.905474 30.103592 L 96.887725 30.647548 L 97.866063 31.22281 L 98.848314 31.82938 L 99.830565 32.467256 L 100.808903 33.140353 L 101.791154 33.848669 L 102.773405 34.596119 L 103.755656 35.382703 L 104.733994 36.216247 L 105.716245 37.092837 L 106.698497 38.020302 L 107.676834 39.002553 L 108.659086 40.039591 L 109.641337 41.143156 L 110.619675 42.321075 L 111.601926 43.573347 L 112.584177 44.91954 L 113.566428 46.371393 L 114.544766 47.944561 L 115.527017 49.666435 L 116.509268 51.572237 L 117.487606 53.71284 L 118.469857 56.189992 L 119.452108 59.171965 L 120.43436 63.116624 L 121.412697 72.195599 " transform="matrix(0.998185, 0, 0, -0.998185, 10.14356, 153.505996)"/>
<path fill="none" stroke-width="0.3985" stroke-linecap="butt" stroke-linejoin="miter" stroke="rgb(0%, 0%, 0%)" stroke-opacity="1" stroke-miterlimit="10" d="M 72.851921 72.849128 L 73.830259 82.562066 L 74.81251 86.514551 L 75.794761 89.500438 L 76.777013 91.977589 L 77.75535 94.122106 L 78.737602 96.027908 L 79.719853 97.749783 L 80.698191 99.32295 L 81.680442 100.774803 L 82.662693 102.120996 L 83.644944 103.377182 L 84.623282 104.551187 L 85.605533 105.654752 L 86.587784 106.695704 L 87.566122 107.677955 L 88.548373 108.605419 L 89.530624 109.48201 L 90.508962 110.315554 L 91.491213 111.102137 L 92.473465 111.849587 L 93.455716 112.557904 L 94.434054 113.231 L 95.416305 113.87279 L 96.398556 114.475446 L 97.376894 115.050709 L 98.359145 115.594665 L 99.341396 116.111227 L 100.323647 116.596482 L 101.301985 117.058258 L 102.284236 117.488727 L 103.266487 117.899628 L 104.244825 118.279224 L 105.227076 118.639252 L 106.209328 118.9758 L 107.191579 119.288868 L 108.169917 119.578456 L 109.152168 119.844564 L 110.134419 120.087192 L 111.112757 120.314166 L 112.095008 120.513747 L 113.077259 120.697675 L 114.055597 120.858122 L 115.037848 120.999003 L 116.020099 121.116403 L 117.002351 121.21815 L 117.980688 121.296417 L 118.96294 121.355118 L 119.945191 121.394251 L 120.923529 121.413818 L 121.90578 121.413818 L 122.888031 121.394251 L 123.870282 121.355118 L 124.84862 121.296417 L 125.830871 121.21815 L 126.813122 121.116403 L 127.79146 120.999003 L 128.773711 120.858122 L 129.755962 120.697675 L 130.738214 120.51766 L 131.716551 120.314166 L 132.698803 120.091105 L 133.681054 119.844564 L 134.659392 119.578456 L 135.641643 119.288868 L 136.623894 118.9758 L 137.602232 118.643165 L 138.584483 118.283137 L 139.566734 117.899628 L 140.548985 117.49264 L 141.527323 117.058258 L 142.509574 116.600396 L 143.491825 116.111227 L 144.470163 115.598578 L 145.452414 115.054622 L 146.434666 114.479359 L 147.416917 113.87279 L 148.395255 113.234914 L 149.377506 112.561817 L 150.359757 111.853501 L 151.338095 111.106051 L 152.320346 110.319467 L 153.302597 109.485923 L 154.280935 108.609332 L 155.263186 107.681868 L 156.245437 106.70353 L 157.227689 105.662579 L 158.206026 104.559014 L 159.188278 103.381095 L 160.170529 102.128823 L 161.148867 100.78263 L 162.131118 99.330777 L 163.113369 97.757609 L 164.09562 96.035735 L 165.073958 94.129933 L 166.056209 91.989329 L 167.03846 89.516091 L 168.016798 86.534118 L 168.999049 82.585546 L 169.9813 73.537878 " transform="matrix(0.998185, 0, 0, -0.998185, 10.14356, 153.505996)"/>
<path fill="none" stroke-width="0.3985" stroke-linecap="butt" stroke-linejoin="miter" stroke="rgb(0%, 0%, 0%)" stroke-opacity="1" stroke-miterlimit="10" d="M 72.851921 72.849128 L 73.830259 63.140104 L 74.81251 59.183706 L 75.794761 56.201732 L 76.777013 53.72458 L 77.75535 51.580064 L 78.737602 49.674262 L 79.719853 47.952387 L 80.698191 46.37922 L 81.680442 44.927367 L 82.662693 43.581174 L 83.644944 42.324988 L 84.623282 41.150983 L 85.605533 40.043504 L 86.587784 39.006466 L 87.566122 38.024215 L 88.548373 37.096751 L 89.530624 36.22016 L 90.508962 35.386616 L 91.491213 34.600033 L 92.473465 33.852583 L 93.455716 33.140353 L 94.434054 32.467256 L 95.416305 31.82938 L 96.398556 31.22281 L 97.376894 30.651461 L 98.359145 30.107505 L 99.341396 29.590943 L 100.323647 29.105687 L 101.301985 28.643912 L 102.284236 28.213443 L 103.266487 27.802541 L 104.244825 27.419033 L 105.227076 27.062918 L 106.209328 26.72637 L 107.191579 26.413302 L 108.169917 26.123714 L 109.152168 25.857606 L 110.134419 25.611065 L 111.112757 25.388004 L 112.095008 25.188423 L 113.077259 25.004495 L 114.055597 24.844048 L 115.037848 24.703167 L 116.020099 24.585767 L 117.002351 24.48402 L 117.980688 24.405753 L 118.96294 24.347052 L 119.945191 24.307919 L 120.923529 24.284439 L 121.90578 24.284439 L 122.888031 24.304005 L 123.870282 24.347052 L 124.84862 24.405753 L 125.830871 24.48402 L 126.813122 24.585767 L 127.79146 24.703167 L 128.773711 24.844048 L 129.755962 25.004495 L 130.738214 25.184509 L 131.716551 25.388004 L 132.698803 25.611065 L 133.681054 25.857606 L 134.659392 26.123714 L 135.641643 26.413302 L 136.623894 26.72637 L 137.602232 27.059005 L 138.584483 27.419033 L 139.566734 27.802541 L 140.548985 28.20953 L 141.527323 28.643912 L 142.509574 29.101774 L 143.491825 29.590943 L 144.470163 30.103592 L 145.452414 30.647548 L 146.434666 31.22281 L 147.416917 31.825467 L 148.395255 32.467256 L 149.377506 33.140353 L 150.359757 33.848669 L 151.338095 34.596119 L 152.320346 35.382703 L 153.302597 36.216247 L 154.280935 37.092837 L 155.263186 38.020302 L 156.245437 38.99864 L 157.227689 40.039591 L 158.206026 41.143156 L 159.188278 42.317161 L 160.170529 43.573347 L 161.148867 44.91954 L 162.131118 46.371393 L 163.113369 47.944561 L 164.09562 49.666435 L 165.073958 51.572237 L 166.056209 53.71284 L 167.03846 56.186078 L 168.016798 59.168052 L 168.999049 63.11271 L 169.9813 72.160378 " transform="matrix(0.998185, 0, 0, -0.998185, 10.14356, 153.505996)"/>
<path fill="none" stroke-width="0.3985" stroke-linecap="butt" stroke-linejoin="miter" stroke="rgb(0%, 0%, 0%)" stroke-opacity="1" stroke-dasharray="2.98883 2.98883" stroke-miterlimit="10" d="M 38.852725 72.849128 L 39.541475 79.650533 L 40.226311 82.417272 L 40.915061 84.507002 L 41.599898 86.236703 L 42.288647 87.73943 L 42.973484 89.073883 L 43.662234 90.279195 L 44.34707 91.38276 L 45.03582 92.396318 L 45.720657 93.339436 L 46.409406 94.21994 L 47.094243 95.041743 L 47.782993 95.812674 L 48.467829 96.540557 L 49.156579 97.229307 L 49.841415 97.878923 L 50.530165 98.493319 L 51.215002 99.076409 L 51.903752 99.628191 L 52.588588 100.148667 L 53.273425 100.645663 L 53.962174 101.119178 L 54.647011 101.5653 L 55.335761 101.987942 L 56.020597 102.391017 L 56.709347 102.770612 L 57.394184 103.130641 L 58.082933 103.471102 L 58.76777 103.79591 L 59.45652 104.097238 L 60.141356 104.382913 L 60.830106 104.652934 L 61.514942 104.903389 L 62.203692 105.13819 L 62.888529 105.357338 L 63.577279 105.556918 L 64.262115 105.744759 L 64.950865 105.916947 L 65.635701 106.073481 L 66.324451 106.214361 L 67.009288 106.343502 L 67.698037 106.456989 L 68.382874 106.554823 L 69.071624 106.637003 L 69.75646 106.707444 L 70.44521 106.762231 L 71.130047 106.805278 L 71.818796 106.832671 L 72.503633 106.844411 L 73.192383 106.844411 L 73.877219 106.832671 L 74.565969 106.805278 L 75.250805 106.762231 L 75.939555 106.707444 L 76.624392 106.637003 L 77.313142 106.554823 L 77.997978 106.456989 L 78.686728 106.343502 L 79.371564 106.218275 L 80.056401 106.073481 L 80.745151 105.916947 L 81.429987 105.748673 L 82.118737 105.560832 L 82.803574 105.357338 L 83.492323 105.13819 L 84.17716 104.903389 L 84.86591 104.652934 L 85.550746 104.386826 L 86.239496 104.101152 L 86.924332 103.79591 L 87.613082 103.475016 L 88.297919 103.134554 L 88.986669 102.774526 L 89.671505 102.394931 L 90.360255 101.991855 L 91.045091 101.569213 L 91.733841 101.123091 L 92.418678 100.649576 L 93.107427 100.156494 L 93.792264 99.632105 L 94.481014 99.080322 L 95.16585 98.497233 L 95.8546 97.882837 L 96.539437 97.237134 L 97.228186 96.548384 L 97.913023 95.8205 L 98.601773 95.04957 L 99.286609 94.227766 L 99.975359 93.347262 L 100.660195 92.408058 L 101.348945 91.390587 L 102.033782 90.290935 L 102.722532 89.085623 L 103.407368 87.755083 L 104.096118 86.25627 L 104.780954 84.522655 L 105.465791 82.440752 L 106.154541 79.68184 L 106.839377 73.530051 " transform="matrix(0.998185, 0, 0, -0.998185, 10.14356, 153.505996)"/>
<path fill="none" stroke-width="0.3985" stroke-linecap="butt" stroke-linejoin="miter" stroke="rgb(0%, 0%, 0%)" stroke-opacity="1" stroke-dasharray="2.98883 2.98883" stroke-miterlimit="10" d="M 38.852725 72.849128 L 39.541475 66.051637 L 40.226311 63.284898 L 40.915061 61.195168 L 41.599898 59.461553 L 42.288647 57.96274 L 42.973484 56.628287 L 43.662234 55.422975 L 44.34707 54.31941 L 45.03582 53.305852 L 45.720657 52.362734 L 46.409406 51.48223 L 47.094243 50.660426 L 47.782993 49.885583 L 48.467829 49.157699 L 49.156579 48.472863 L 49.841415 47.823247 L 50.530165 47.208851 L 51.215002 46.625761 L 51.903752 46.073979 L 52.588588 45.553503 L 53.273425 45.056507 L 53.962174 44.582992 L 54.647011 44.13687 L 55.335761 43.714228 L 56.020597 43.311153 L 56.709347 42.931558 L 57.394184 42.571529 L 58.082933 42.227154 L 58.76777 41.90626 L 59.45652 41.604931 L 60.141356 41.319257 L 60.830106 41.049236 L 61.514942 40.798781 L 62.203692 40.56398 L 62.888529 40.344832 L 63.577279 40.145251 L 64.262115 39.957411 L 64.950865 39.785223 L 65.635701 39.628689 L 66.324451 39.487808 L 67.009288 39.358668 L 67.698037 39.245181 L 68.382874 39.147347 L 69.071624 39.065166 L 69.75646 38.994726 L 70.44521 38.939939 L 71.130047 38.896892 L 71.818796 38.869499 L 72.503633 38.853846 L 73.192383 38.853846 L 73.877219 38.869499 L 74.565969 38.896892 L 75.250805 38.939939 L 75.939555 38.994726 L 76.624392 39.065166 L 77.313142 39.147347 L 77.997978 39.245181 L 78.686728 39.358668 L 79.371564 39.483895 L 80.056401 39.624776 L 80.745151 39.78131 L 81.429987 39.953497 L 82.118737 40.141338 L 82.803574 40.344832 L 83.492323 40.56398 L 84.17716 40.794868 L 84.86591 41.049236 L 85.550746 41.315343 L 86.239496 41.601018 L 86.924332 41.902346 L 87.613082 42.227154 L 88.297919 42.567616 L 88.986669 42.927644 L 89.671505 43.307239 L 90.360255 43.710314 L 91.045091 44.132956 L 91.733841 44.579078 L 92.418678 45.048681 L 93.107427 45.545676 L 93.792264 46.070065 L 94.481014 46.621848 L 95.16585 47.204937 L 95.8546 47.81542 L 96.539437 48.465036 L 97.228186 49.153786 L 97.913023 49.881669 L 98.601773 50.6526 L 99.286609 51.474403 L 99.975359 52.354908 L 100.660195 53.294112 L 101.348945 54.311583 L 102.033782 55.411235 L 102.722532 56.616547 L 103.407368 57.947087 L 104.096118 59.4459 L 104.780954 61.175601 L 105.465791 63.261418 L 106.154541 66.02033 L 106.839377 72.172118 " transform="matrix(0.998185, 0, 0, -0.998185, 10.14356, 153.505996)"/>
<path fill-rule="nonzero" fill="rgb(100%, 100%, 100%)" fill-opacity="1" d="M 69.265625 94.410156 L 82.664062 94.410156 L 82.664062 80.984375 L 69.265625 80.984375 Z M 69.265625 94.410156 "/>
<g fill="rgb(0%, 0%, 0%)" fill-opacity="1">
<use xlink:href="#glyph-0-0" x="72.580054" y="91.097451"/>
</g>
<path fill-rule="nonzero" fill="rgb(100%, 100%, 100%)" fill-opacity="1" d="M 131.539062 96.34375 L 145.902344 96.34375 L 145.902344 80.984375 L 131.539062 80.984375 Z M 131.539062 96.34375 "/>
<g fill="rgb(0%, 0%, 0%)" fill-opacity="1">
<use xlink:href="#glyph-0-1" x="134.852847" y="91.097451"/>
</g>
<g fill="rgb(0%, 0%, 0%)" fill-opacity="1">
<use xlink:href="#glyph-0-2" x="87.123615" y="19.100337"/>
</g>
<g fill="rgb(0%, 0%, 0%)" fill-opacity="1">
<use xlink:href="#glyph-0-3" x="188.179902" y="62.731019"/>
</g>
<path fill-rule="nonzero" fill="rgb(0%, 0%, 100%)" fill-opacity="1" d="M 58.855469 58.972656 C 58.855469 57.875 57.964844 56.984375 56.867188 56.984375 C 55.769531 56.984375 54.878906 57.875 54.878906 58.972656 C 54.878906 60.074219 55.769531 60.964844 56.867188 60.964844 C 57.964844 60.964844 58.855469 60.074219 58.855469 58.972656 Z M 58.855469 58.972656 "/>
<g fill="rgb(0%, 0%, 100%)" fill-opacity="1">
<use xlink:href="#glyph-1-0" x="52.32887" y="55.462233"/>
</g>
<path fill-rule="nonzero" fill="rgb(100%, 0%, 0%)" fill-opacity="1" d="M 121.988281 111.949219 C 121.988281 110.851562 121.097656 109.960938 120 109.960938 C 118.902344 109.960938 118.011719 110.851562 118.011719 111.949219 C 118.011719 113.046875 118.902344 113.9375 120 113.9375 C 121.097656 113.9375 121.988281 113.046875 121.988281 111.949219 Z M 121.988281 111.949219 "/>
<g fill="rgb(100%, 0%, 0%)" fill-opacity="1">
<use xlink:href="#glyph-1-1" x="113.647397" y="122.258802"/>
</g>
<g fill="rgb(100%, 0%, 0%)" fill-opacity="1">
<use xlink:href="#glyph-2-0" x="121.886419" y="123.75009"/>
</g>
<path fill-rule="nonzero" fill="rgb(100%, 0%, 0%)" fill-opacity="1" d="M 47.714844 49.625 C 47.714844 48.527344 46.824219 47.636719 45.726562 47.636719 C 44.625 47.636719 43.738281 48.527344 43.738281 49.625 C 43.738281 50.722656 44.625 51.613281 45.726562 51.613281 C 46.824219 51.613281 47.714844 50.722656 47.714844 49.625 Z M 47.714844 49.625 "/>
<g fill="rgb(100%, 0%, 0%)" fill-opacity="1">
<use xlink:href="#glyph-1-1" x="39.37442" y="44.62194"/>
</g>
<g fill="rgb(100%, 0%, 0%)" fill-opacity="1">
<use xlink:href="#glyph-2-1" x="47.613442" y="46.113229"/>
</g>
<path fill-rule="nonzero" fill="rgb(100%, 0%, 0%)" fill-opacity="1" d="M 96.195312 49.625 C 96.195312 48.527344 95.304688 47.636719 94.203125 47.636719 C 93.105469 47.636719 92.214844 48.527344 92.214844 49.625 C 92.214844 50.722656 93.105469 51.613281 94.203125 51.613281 C 95.304688 51.613281 96.195312 50.722656 96.195312 49.625 Z M 96.195312 49.625 "/>
<g fill="rgb(100%, 0%, 0%)" fill-opacity="1">
<use xlink:href="#glyph-1-1" x="87.853289" y="44.62194"/>
</g>
<g fill="rgb(100%, 0%, 0%)" fill-opacity="1">
<use xlink:href="#glyph-2-2" x="96.092311" y="46.113229"/>
</g>
<path fill-rule="nonzero" fill="rgb(100%, 0%, 0%)" fill-opacity="1" d="M 170.46875 111.949219 C 170.46875 110.851562 169.578125 109.960938 168.476562 109.960938 C 167.378906 109.960938 166.488281 110.851562 166.488281 111.949219 C 166.488281 113.046875 167.378906 113.9375 168.476562 113.9375 C 169.578125 113.9375 170.46875 113.046875 170.46875 111.949219 Z M 170.46875 111.949219 "/>
<g fill="rgb(100%, 0%, 0%)" fill-opacity="1">
<use xlink:href="#glyph-1-1" x="162.126265" y="122.258802"/>
</g>
<g fill="rgb(100%, 0%, 0%)" fill-opacity="1">
<use xlink:href="#glyph-2-3" x="170.365287" y="123.75009"/>
</g>
<path fill="none" stroke-width="0.3985" stroke-linecap="butt" stroke-linejoin="miter" stroke="rgb(0%, 0%, 0%)" stroke-opacity="1" stroke-dasharray="2.98883 2.98883" stroke-miterlimit="10" d="M 110.056152 41.632325 L 35.64769 104.069845 " transform="matrix(0.998185, 0, 0, -0.998185, 10.14356, 153.505996)"/>
<path fill="none" stroke-width="0.3985" stroke-linecap="butt" stroke-linejoin="miter" stroke="rgb(0%, 0%, 0%)" stroke-opacity="1" stroke-dasharray="2.98883 2.98883" stroke-miterlimit="10" d="M 84.21238 104.069845 L 158.620842 41.632325 " transform="matrix(0.998185, 0, 0, -0.998185, 10.14356, 153.505996)"/>
<path fill="none" stroke-width="0.79701" stroke-linecap="butt" stroke-linejoin="miter" stroke="rgb(0%, 0%, 100%)" stroke-opacity="1" stroke-miterlimit="10" d="M 72.851921 72.849128 L 46.808568 94.705195 " transform="matrix(0.998185, 0, 0, -0.998185, 10.14356, 153.505996)"/>
<path fill="none" stroke-width="0.3985" stroke-linecap="butt" stroke-linejoin="miter" stroke="rgb(0%, 0%, 0%)" stroke-opacity="1" stroke-miterlimit="10" d="M 87.02608 72.849128 C 87.02608 80.679744 80.678624 87.023287 72.851921 87.023287 C 68.660722 87.023287 64.684757 85.168358 61.992371 81.95941 " transform="matrix(0.998185, 0, 0, -0.998185, 10.14356, 153.505996)"/>
<g fill="rgb(0%, 0%, 0%)" fill-opacity="1">
<use xlink:href="#glyph-1-2" x="86.195303" y="68.288915"/>
</g>
<path fill="none" stroke-width="0.79701" stroke-linecap="butt" stroke-linejoin="miter" stroke="rgb(0%, 50%, 0%)" stroke-opacity="1" stroke-miterlimit="10" d="M 24.514206 68.13354 L 69.102931 121.272937 " transform="matrix(0.998185, 0, 0, -0.998185, 10.14356, 153.505996)"/>
<path fill-rule="nonzero" fill="rgb(0%, 50%, 0%)" fill-opacity="1" d="M 36.601562 85.496094 C 36.601562 84.394531 35.710938 83.507812 34.613281 83.507812 C 33.515625 83.507812 32.625 84.394531 32.625 85.496094 C 32.625 86.59375 33.515625 87.484375 34.613281 87.484375 C 35.710938 87.484375 36.601562 86.59375 36.601562 85.496094 Z M 36.601562 85.496094 "/>
<g fill="rgb(0%, 50%, 0%)" fill-opacity="1">
<use xlink:href="#glyph-0-4" x="23.640024" y="81.98302"/>
</g>
<path fill-rule="nonzero" fill="rgb(0%, 50%, 0%)" fill-opacity="1" d="M 81.109375 32.453125 C 81.109375 31.355469 80.21875 30.464844 79.121094 30.464844 C 78.023438 30.464844 77.132812 31.355469 77.132812 32.453125 C 77.132812 33.550781 78.023438 34.441406 79.121094 34.441406 C 80.21875 34.441406 81.109375 33.550781 81.109375 32.453125 Z M 81.109375 32.453125 "/>
<g fill="rgb(0%, 50%, 0%)" fill-opacity="1">
<use xlink:href="#glyph-0-5" x="75.597569" y="28.941446"/>
</g>
<path fill="none" stroke-width="0.3985" stroke-linecap="butt" stroke-linejoin="miter" stroke="rgb(100%, 0%, 0%)" stroke-opacity="1" stroke-miterlimit="10" d="M 43.165238 90.361375 L 47.505145 86.718045 L 51.152388 91.057952 " transform="matrix(0.998185, 0, 0, -0.998185, 10.14356, 153.505996)"/>
<g fill="rgb(0%, 0%, 0%)" fill-opacity="1">
<use xlink:href="#glyph-0-6" x="195.295965" y="77.27458"/>
</g>
<g fill="rgb(0%, 0%, 0%)" fill-opacity="1">
<use xlink:href="#glyph-0-7" x="86.374976" y="8.035452"/>
</g>
</svg>
