<?xml version="1.0" encoding="UTF-8"?>
<svg xmlns="http://www.w3.org/2000/svg" xmlns:xlink="http://www.w3.org/1999/xlink" width="234.151pt" height="165.776pt" viewBox="0 0 234.151 165.776">
<defs>
<g>
<g id="glyph-0-0">
<path d="M 2.921875 -6.34375 C 2.921875 -6.59375 2.921875 -6.609375 2.6875 -6.609375 C 2.078125 -5.96875 1.203125 -5.96875 0.890625 -5.96875 L 0.890625 -5.671875 C 1.078125 -5.671875 1.671875 -5.671875 2.1875 -5.921875 L 2.1875 -0.78125 C 2.1875 -0.421875 2.15625 -0.3125 1.265625 -0.3125 L 0.9375 -0.3125 L 0.9375 0 C 1.296875 -0.03125 2.15625 -0.03125 2.546875 -0.03125 C 2.953125 -0.03125 3.8125 -0.03125 4.15625 0 L 4.15625 -0.3125 L 3.84375 -0.3125 C 2.953125 -0.3125 2.921875 -0.421875 2.921875 -0.78125 Z M 2.921875 -6.34375 "/>
</g>
<g id="glyph-0-1">
<path d="M 3.28125 2.375 C 3.28125 2.34375 3.28125 2.328125 3.109375 2.15625 C 1.875 0.90625 1.5625 -0.96875 1.5625 -2.484375 C 1.5625 -4.203125 1.9375 -5.9375 3.15625 -7.171875 C 3.28125 -7.296875 3.28125 -7.3125 3.28125 -7.34375 C 3.28125 -7.40625 3.25 -7.4375 3.1875 -7.4375 C 3.078125 -7.4375 2.1875 -6.765625 1.609375 -5.5 C 1.09375 -4.421875 0.984375 -3.3125 0.984375 -2.484375 C 0.984375 -1.703125 1.09375 -0.5 1.640625 0.609375 C 2.234375 1.828125 3.078125 2.484375 3.1875 2.484375 C 3.25 2.484375 3.28125 2.453125 3.28125 2.375 Z M 3.28125 2.375 "/>
</g>
<g id="glyph-0-2">
<path d="M 2.875 -2.484375 C 2.875 -3.25 2.765625 -4.453125 2.21875 -5.578125 C 1.625 -6.796875 0.765625 -7.4375 0.671875 -7.4375 C 0.609375 -7.4375 0.5625 -7.40625 0.5625 -7.34375 C 0.5625 -7.3125 0.5625 -7.296875 0.75 -7.109375 C 1.71875 -6.125 2.296875 -4.546875 2.296875 -2.484375 C 2.296875 -0.78125 1.921875 0.96875 0.6875 2.21875 C 0.5625 2.328125 0.5625 2.34375 0.5625 2.375 C 0.5625 2.4375 0.609375 2.484375 0.671875 2.484375 C 0.765625 2.484375 1.65625 1.8125 2.25 0.546875 C 2.75 -0.546875 2.875 -1.640625 2.875 -2.484375 Z M 2.875 -2.484375 "/>
</g>
<g id="glyph-1-0">
<path d="M 1.859375 -2.296875 C 2.140625 -2.296875 2.875 -2.3125 3.375 -2.515625 C 4.0625 -2.8125 4.125 -3.40625 4.125 -3.546875 C 4.125 -3.984375 3.734375 -4.390625 3.0625 -4.390625 C 1.953125 -4.390625 0.453125 -3.421875 0.453125 -1.6875 C 0.453125 -0.671875 1.046875 0.109375 2.015625 0.109375 C 3.4375 0.109375 4.265625 -0.9375 4.265625 -1.0625 C 4.265625 -1.125 4.203125 -1.1875 4.140625 -1.1875 C 4.09375 -1.1875 4.078125 -1.171875 4.015625 -1.09375 C 3.234375 -0.109375 2.15625 -0.109375 2.03125 -0.109375 C 1.265625 -0.109375 1.171875 -0.9375 1.171875 -1.265625 C 1.171875 -1.375 1.1875 -1.6875 1.328125 -2.296875 Z M 1.390625 -2.515625 C 1.78125 -4.015625 2.796875 -4.171875 3.0625 -4.171875 C 3.515625 -4.171875 3.796875 -3.875 3.796875 -3.546875 C 3.796875 -2.515625 2.203125 -2.515625 1.796875 -2.515625 Z M 1.390625 -2.515625 "/>
</g>
<g id="glyph-1-1">
<path d="M 2.84375 -6.78125 C 2.84375 -6.78125 2.84375 -6.890625 2.71875 -6.890625 C 2.484375 -6.890625 1.765625 -6.8125 1.515625 -6.78125 C 1.421875 -6.78125 1.3125 -6.765625 1.3125 -6.59375 C 1.3125 -6.46875 1.40625 -6.46875 1.5625 -6.46875 C 2.03125 -6.46875 2.046875 -6.40625 2.046875 -6.296875 L 2.03125 -6.109375 L 0.578125 -0.390625 C 0.546875 -0.25 0.546875 -0.234375 0.546875 -0.171875 C 0.546875 0.0625 0.75 0.109375 0.828125 0.109375 C 0.984375 0.109375 1.15625 -0.015625 1.203125 -0.15625 L 1.390625 -0.90625 L 1.609375 -1.796875 C 1.671875 -2.015625 1.71875 -2.234375 1.78125 -2.453125 C 1.796875 -2.515625 1.875 -2.84375 1.890625 -2.90625 C 1.921875 -3 2.21875 -3.546875 2.5625 -3.8125 C 2.78125 -3.984375 3.078125 -4.171875 3.515625 -4.171875 C 3.9375 -4.171875 4.046875 -3.828125 4.046875 -3.46875 C 4.046875 -2.9375 3.671875 -1.859375 3.4375 -1.25 C 3.359375 -1.015625 3.296875 -0.90625 3.296875 -0.703125 C 3.296875 -0.234375 3.65625 0.109375 4.125 0.109375 C 5.046875 0.109375 5.421875 -1.34375 5.421875 -1.421875 C 5.421875 -1.515625 5.328125 -1.515625 5.296875 -1.515625 C 5.203125 -1.515625 5.203125 -1.484375 5.15625 -1.34375 C 5 -0.8125 4.6875 -0.109375 4.140625 -0.109375 C 3.96875 -0.109375 3.90625 -0.203125 3.90625 -0.4375 C 3.90625 -0.6875 3.984375 -0.921875 4.078125 -1.140625 C 4.234375 -1.5625 4.6875 -2.75 4.6875 -3.328125 C 4.6875 -3.96875 4.28125 -4.390625 3.546875 -4.390625 C 2.921875 -4.390625 2.4375 -4.078125 2.078125 -3.625 Z M 2.84375 -6.78125 "/>
</g>
<g id="glyph-1-2">
<path d="M 2.046875 -3.96875 L 2.96875 -3.96875 C 3.171875 -3.96875 3.28125 -3.96875 3.28125 -4.171875 C 3.28125 -4.28125 3.171875 -4.28125 3 -4.28125 L 2.125 -4.28125 C 2.484375 -5.6875 2.53125 -5.890625 2.53125 -5.9375 C 2.53125 -6.109375 2.40625 -6.21875 2.25 -6.21875 C 2.21875 -6.21875 1.9375 -6.203125 1.84375 -5.859375 L 1.453125 -4.28125 L 0.53125 -4.28125 C 0.328125 -4.28125 0.234375 -4.28125 0.234375 -4.09375 C 0.234375 -3.96875 0.3125 -3.96875 0.5 -3.96875 L 1.375 -3.96875 C 0.671875 -1.15625 0.625 -0.984375 0.625 -0.796875 C 0.625 -0.265625 1 0.109375 1.53125 0.109375 C 2.546875 0.109375 3.109375 -1.34375 3.109375 -1.421875 C 3.109375 -1.515625 3.03125 -1.515625 3 -1.515625 C 2.90625 -1.515625 2.890625 -1.484375 2.84375 -1.375 C 2.421875 -0.34375 1.890625 -0.109375 1.5625 -0.109375 C 1.34375 -0.109375 1.25 -0.234375 1.25 -0.5625 C 1.25 -0.796875 1.265625 -0.875 1.3125 -1.046875 Z M 2.046875 -3.96875 "/>
</g>
<g id="glyph-1-3">
<path d="M 4.828125 -3.78125 C 4.859375 -3.921875 4.859375 -3.9375 4.859375 -4.015625 C 4.859375 -4.1875 4.71875 -4.28125 4.578125 -4.28125 C 4.46875 -4.28125 4.3125 -4.21875 4.234375 -4.0625 C 4.203125 -4.015625 4.125 -3.703125 4.09375 -3.53125 C 4.015625 -3.28125 3.953125 -3 3.890625 -2.734375 L 3.4375 -0.953125 C 3.40625 -0.796875 2.96875 -0.109375 2.328125 -0.109375 C 1.8125 -0.109375 1.703125 -0.546875 1.703125 -0.90625 C 1.703125 -1.375 1.875 -1.984375 2.21875 -2.859375 C 2.375 -3.265625 2.40625 -3.375 2.40625 -3.578125 C 2.40625 -4.015625 2.09375 -4.390625 1.59375 -4.390625 C 0.65625 -4.390625 0.28125 -2.953125 0.28125 -2.859375 C 0.28125 -2.765625 0.390625 -2.765625 0.40625 -2.765625 C 0.5 -2.765625 0.515625 -2.78125 0.5625 -2.9375 C 0.828125 -3.875 1.234375 -4.171875 1.5625 -4.171875 C 1.640625 -4.171875 1.8125 -4.171875 1.8125 -3.84375 C 1.8125 -3.609375 1.71875 -3.34375 1.640625 -3.15625 C 1.25 -2.109375 1.078125 -1.53125 1.078125 -1.078125 C 1.078125 -0.1875 1.703125 0.109375 2.28125 0.109375 C 2.671875 0.109375 3 -0.0625 3.28125 -0.34375 C 3.15625 0.171875 3.03125 0.671875 2.640625 1.1875 C 2.375 1.53125 2 1.8125 1.546875 1.8125 C 1.40625 1.8125 0.96875 1.78125 0.796875 1.40625 C 0.953125 1.40625 1.078125 1.40625 1.21875 1.28125 C 1.3125 1.1875 1.421875 1.0625 1.421875 0.875 C 1.421875 0.5625 1.15625 0.53125 1.046875 0.53125 C 0.828125 0.53125 0.5 0.6875 0.5 1.171875 C 0.5 1.671875 0.9375 2.03125 1.546875 2.03125 C 2.5625 2.03125 3.59375 1.125 3.875 0.015625 Z M 4.828125 -3.78125 "/>
</g>
<g id="glyph-2-0">
<path d="M 2.328125 -4.421875 C 2.328125 -4.609375 2.3125 -4.609375 2.125 -4.609375 C 1.671875 -4.171875 1.046875 -4.171875 0.765625 -4.171875 L 0.765625 -3.921875 C 0.921875 -3.921875 1.390625 -3.921875 1.765625 -4.109375 L 1.765625 -0.5625 C 1.765625 -0.34375 1.765625 -0.25 1.078125 -0.25 L 0.8125 -0.25 L 0.8125 0 C 0.9375 0 1.78125 -0.03125 2.046875 -0.03125 C 2.265625 -0.03125 3.140625 0 3.28125 0 L 3.28125 -0.25 L 3.03125 -0.25 C 2.328125 -0.25 2.328125 -0.34375 2.328125 -0.5625 Z M 2.328125 -4.421875 "/>
</g>
<g id="glyph-2-1">
<path d="M 1.4375 -4.828125 L 0.390625 -4.75 L 0.390625 -4.5 C 0.859375 -4.5 0.90625 -4.453125 0.90625 -4.109375 L 0.90625 -0.546875 C 0.90625 -0.25 0.84375 -0.25 0.390625 -0.25 L 0.390625 0 C 0.40625 0 0.890625 -0.03125 1.171875 -0.03125 C 1.4375 -0.03125 1.6875 -0.015625 1.953125 0 L 1.953125 -0.25 C 1.5 -0.25 1.4375 -0.25 1.4375 -0.546875 Z M 1.4375 -4.828125 "/>
</g>
<g id="glyph-2-2">
<path d="M 3.671875 -1.484375 C 3.671875 -2.34375 2.9375 -3.09375 1.96875 -3.09375 C 1.015625 -3.09375 0.265625 -2.34375 0.265625 -1.484375 C 0.265625 -0.625 1.03125 0.0625 1.96875 0.0625 C 2.90625 0.0625 3.671875 -0.625 3.671875 -1.484375 Z M 1.96875 -0.15625 C 1.71875 -0.15625 1.34375 -0.234375 1.109375 -0.578125 C 0.921875 -0.859375 0.90625 -1.21875 0.90625 -1.546875 C 0.90625 -1.84375 0.90625 -2.25 1.15625 -2.546875 C 1.328125 -2.75 1.625 -2.90625 1.96875 -2.90625 C 2.390625 -2.90625 2.671875 -2.71875 2.828125 -2.5 C 3.03125 -2.21875 3.046875 -1.875 3.046875 -1.546875 C 3.046875 -1.203125 3.03125 -0.84375 2.828125 -0.5625 C 2.640625 -0.296875 2.3125 -0.15625 1.96875 -0.15625 Z M 1.96875 -0.15625 "/>
</g>
<g id="glyph-2-3">
<path d="M 1 -1.234375 C 1.109375 -1.171875 1.359375 -1.015625 1.765625 -1.015625 C 2.46875 -1.015625 3 -1.5 3 -2.046875 C 3 -2.3125 2.875 -2.53125 2.703125 -2.71875 C 3.015625 -2.9375 3.28125 -2.9375 3.40625 -2.9375 C 3.375 -2.90625 3.34375 -2.890625 3.34375 -2.78125 C 3.34375 -2.640625 3.453125 -2.546875 3.5625 -2.546875 C 3.671875 -2.546875 3.796875 -2.625 3.796875 -2.78125 C 3.796875 -2.9375 3.65625 -3.140625 3.375 -3.140625 C 3.28125 -3.140625 2.90625 -3.109375 2.578125 -2.8125 C 2.359375 -2.96875 2.078125 -3.0625 1.765625 -3.0625 C 1.046875 -3.0625 0.53125 -2.59375 0.53125 -2.046875 C 0.53125 -1.765625 0.671875 -1.515625 0.859375 -1.34375 C 0.8125 -1.28125 0.65625 -1.046875 0.65625 -0.78125 C 0.65625 -0.6875 0.671875 -0.359375 0.953125 -0.15625 C 0.625 -0.0625 0.265625 0.171875 0.265625 0.53125 C 0.265625 1.046875 1.03125 1.421875 1.96875 1.421875 C 2.859375 1.421875 3.671875 1.078125 3.671875 0.515625 C 3.671875 0.3125 3.59375 -0.0625 3.21875 -0.265625 C 2.796875 -0.484375 2.390625 -0.484375 1.71875 -0.484375 C 1.5625 -0.484375 1.3125 -0.484375 1.265625 -0.5 C 1.03125 -0.546875 0.90625 -0.75 0.90625 -0.953125 C 0.90625 -1.125 0.953125 -1.1875 1 -1.234375 Z M 1.765625 -1.234375 C 1.078125 -1.234375 1.078125 -1.890625 1.078125 -2.046875 C 1.078125 -2.15625 1.078125 -2.4375 1.21875 -2.609375 C 1.328125 -2.734375 1.515625 -2.859375 1.765625 -2.859375 C 2.4375 -2.859375 2.4375 -2.1875 2.4375 -2.046875 C 2.4375 -1.9375 2.4375 -1.65625 2.296875 -1.46875 C 2.203125 -1.359375 2.015625 -1.234375 1.765625 -1.234375 Z M 1.765625 -0.015625 C 2.390625 -0.015625 3.25 -0.015625 3.25 0.53125 C 3.25 0.890625 2.703125 1.21875 1.96875 1.21875 C 1.25 1.21875 0.703125 0.890625 0.703125 0.53125 C 0.703125 0.28125 0.921875 -0.015625 1.359375 -0.015625 Z M 1.765625 -0.015625 "/>
</g>
<g id="glyph-3-0">
<path d="M 1.5625 -1.578125 C 1.75 -1.578125 2.296875 -1.59375 2.671875 -1.734375 C 3.1875 -1.90625 3.28125 -2.25 3.28125 -2.453125 C 3.28125 -2.84375 2.90625 -3.0625 2.421875 -3.0625 C 1.59375 -3.0625 0.46875 -2.421875 0.46875 -1.234375 C 0.46875 -0.53125 0.90625 0.0625 1.71875 0.0625 C 2.890625 0.0625 3.4375 -0.625 3.4375 -0.71875 C 3.4375 -0.765625 3.375 -0.828125 3.328125 -0.828125 C 3.28125 -0.828125 3.265625 -0.828125 3.21875 -0.765625 C 2.671875 -0.125 1.859375 -0.125 1.734375 -0.125 C 1.3125 -0.125 1.03125 -0.40625 1.03125 -0.96875 C 1.03125 -1.0625 1.03125 -1.203125 1.125 -1.578125 Z M 1.171875 -1.78125 C 1.453125 -2.78125 2.234375 -2.875 2.421875 -2.875 C 2.734375 -2.875 2.984375 -2.71875 2.984375 -2.453125 C 2.984375 -1.78125 1.8125 -1.78125 1.515625 -1.78125 Z M 1.171875 -1.78125 "/>
</g>
<g id="glyph-3-1">
<path d="M 0.84375 -0.4375 C 0.828125 -0.34375 0.78125 -0.171875 0.78125 -0.15625 C 0.78125 0 0.90625 0.0625 1.015625 0.0625 C 1.140625 0.0625 1.25 -0.015625 1.28125 -0.078125 C 1.328125 -0.140625 1.375 -0.375 1.40625 -0.515625 C 1.453125 -0.640625 1.515625 -0.96875 1.5625 -1.140625 C 1.609375 -1.296875 1.640625 -1.453125 1.6875 -1.609375 C 1.765625 -1.890625 1.765625 -1.953125 1.96875 -2.234375 C 2.171875 -2.515625 2.5 -2.875 3.015625 -2.875 C 3.421875 -2.875 3.421875 -2.515625 3.421875 -2.390625 C 3.421875 -1.96875 3.125 -1.203125 3.015625 -0.90625 C 2.9375 -0.703125 2.90625 -0.640625 2.90625 -0.53125 C 2.90625 -0.15625 3.21875 0.0625 3.578125 0.0625 C 4.265625 0.0625 4.578125 -0.890625 4.578125 -1 C 4.578125 -1.078125 4.484375 -1.078125 4.46875 -1.078125 C 4.359375 -1.078125 4.359375 -1.046875 4.328125 -0.96875 C 4.171875 -0.40625 3.875 -0.125 3.59375 -0.125 C 3.453125 -0.125 3.421875 -0.21875 3.421875 -0.375 C 3.421875 -0.53125 3.453125 -0.625 3.578125 -0.9375 C 3.671875 -1.140625 3.953125 -1.890625 3.953125 -2.28125 C 3.953125 -2.953125 3.40625 -3.0625 3.046875 -3.0625 C 2.46875 -3.0625 2.078125 -2.71875 1.875 -2.4375 C 1.828125 -2.90625 1.40625 -3.0625 1.125 -3.0625 C 0.828125 -3.0625 0.671875 -2.84375 0.578125 -2.6875 C 0.421875 -2.4375 0.328125 -2.03125 0.328125 -2 C 0.328125 -1.90625 0.421875 -1.90625 0.4375 -1.90625 C 0.546875 -1.90625 0.546875 -1.9375 0.59375 -2.125 C 0.703125 -2.53125 0.828125 -2.875 1.109375 -2.875 C 1.28125 -2.875 1.328125 -2.71875 1.328125 -2.53125 C 1.328125 -2.40625 1.265625 -2.140625 1.21875 -1.953125 C 1.171875 -1.765625 1.109375 -1.484375 1.078125 -1.328125 Z M 0.84375 -0.4375 "/>
</g>
<g id="glyph-4-0">
<path d="M 6.53125 -2.28125 C 6.703125 -2.28125 6.890625 -2.28125 6.890625 -2.484375 C 6.890625 -2.671875 6.703125 -2.671875 6.53125 -2.671875 L 1.171875 -2.671875 C 1 -2.671875 0.828125 -2.671875 0.828125 -2.484375 C 0.828125 -2.28125 1 -2.28125 1.171875 -2.28125 Z M 6.53125 -2.28125 "/>
</g>
</g>
</defs>
<path fill="none" stroke-width="0.19925" stroke-linecap="butt" stroke-linejoin="miter" stroke="rgb(50%, 50%, 50%)" stroke-opacity="1" stroke-miterlimit="10" d="M 32.380551 105.472071 L 32.380551 109.721799 M 88.01514 105.472071 L 88.01514 109.721799 " transform="matrix(0.996387, 0, 0, -0.996387, 37.552838, 163.180869)"/>
<path fill="none" stroke-width="0.19925" stroke-linecap="butt" stroke-linejoin="miter" stroke="rgb(50%, 50%, 50%)" stroke-opacity="1" stroke-miterlimit="10" d="M -2.126929 127.387183 L 2.12672 127.387183 M -2.126929 80.698978 L 2.12672 80.698978 " transform="matrix(0.996387, 0, 0, -0.996387, 37.552838, 163.180869)"/>
<path fill="none" stroke-width="0.3985" stroke-linecap="butt" stroke-linejoin="miter" stroke="rgb(0%, 0%, 0%)" stroke-opacity="1" stroke-miterlimit="10" d="M 0.00185574 107.596935 L 192.278538 107.596935 " transform="matrix(0.996387, 0, 0, -0.996387, 37.552838, 163.180869)"/>
<path fill-rule="nonzero" fill="rgb(0%, 0%, 0%)" fill-opacity="1" d="M 231.125 55.972656 L 227.945312 54.386719 L 229.136719 55.972656 L 227.945312 57.5625 "/>
<path fill="none" stroke-width="0.3985" stroke-linecap="butt" stroke-linejoin="miter" stroke="rgb(0%, 0%, 0%)" stroke-opacity="1" stroke-miterlimit="10" d="M 0.00185574 0.00118565 L 0.00185574 159.40128 " transform="matrix(0.996387, 0, 0, -0.996387, 37.552838, 163.180869)"/>
<path fill-rule="nonzero" fill="rgb(0%, 0%, 0%)" fill-opacity="1" d="M 37.554688 2.367188 L 35.964844 5.546875 L 37.554688 4.355469 L 39.140625 5.546875 "/>
<g fill="rgb(0%, 0%, 0%)" fill-opacity="1">
<use xlink:href="#glyph-0-0" x="67.33286" y="67.996993"/>
</g>
<g fill="rgb(0%, 0%, 0%)" fill-opacity="1">
<use xlink:href="#glyph-1-0" x="122.937246" y="65.873692"/>
</g>
<g fill="rgb(0%, 0%, 0%)" fill-opacity="1">
<use xlink:href="#glyph-2-0" x="26.7799" y="34.828258"/>
</g>
<path fill="none" stroke-width="0.398" stroke-linecap="butt" stroke-linejoin="miter" stroke="rgb(0%, 0%, 0%)" stroke-opacity="1" stroke-miterlimit="10" d="M 0.00135521 0.0011827 L 3.972734 0.0011827 " transform="matrix(0.996387, 0, 0, -0.996387, 26.7799, 36.255085)"/>
<g fill="rgb(0%, 0%, 0%)" fill-opacity="1">
<use xlink:href="#glyph-3-0" x="26.874556" y="42.159675"/>
</g>
<g fill="rgb(0%, 0%, 0%)" fill-opacity="1">
<use xlink:href="#glyph-4-0" x="5.293805" y="85.691834"/>
</g>
<g fill="rgb(0%, 0%, 0%)" fill-opacity="1">
<use xlink:href="#glyph-2-1" x="14.205493" y="81.262892"/>
<use xlink:href="#glyph-2-2" x="16.452688" y="81.262892"/>
<use xlink:href="#glyph-2-3" x="20.409252" y="81.262892"/>
</g>
<g fill="rgb(0%, 0%, 0%)" fill-opacity="1">
<use xlink:href="#glyph-3-1" x="25.829346" y="81.262892"/>
</g>
<path fill="none" stroke-width="0.398" stroke-linecap="butt" stroke-linejoin="miter" stroke="rgb(0%, 0%, 0%)" stroke-opacity="1" stroke-miterlimit="10" d="M 0.00154403 -0.00110843 L 16.592734 -0.00110843 " transform="matrix(0.996387, 0, 0, -0.996387, 14.205493, 83.209833)"/>
<g fill="rgb(0%, 0%, 0%)" fill-opacity="1">
<use xlink:href="#glyph-3-1" x="20.01742" y="89.114424"/>
</g>
<path fill="none" stroke-width="0.79701" stroke-linecap="butt" stroke-linejoin="miter" stroke="rgb(0%, 0%, 100%)" stroke-opacity="1" stroke-miterlimit="10" d="M 16.189243 33.014988 C 16.189243 33.014988 17.251675 44.109758 17.659398 47.814549 C 18.071042 51.51542 18.725751 56.706047 19.133474 59.701243 C 19.541197 62.692519 20.195906 66.934406 20.603629 69.384664 C 21.011352 71.838843 21.669981 75.343693 22.077704 77.378388 C 22.485427 79.409162 23.140136 82.337711 23.547859 84.03917 C 23.955582 85.74455 24.610292 88.21049 25.021935 89.645362 C 25.429658 91.084153 26.084367 93.177654 26.49209 94.404744 C 26.899813 95.627913 27.554522 97.415621 27.962245 98.466292 C 28.373889 99.513042 29.028598 101.053765 29.436321 101.95938 C 29.844044 102.861076 30.498753 104.194016 30.906476 104.974179 C 31.314199 105.758261 31.968908 106.914783 32.380551 107.596935 C 32.788274 108.279087 33.442983 109.290554 33.850706 109.886457 C 34.258429 110.48236 34.913138 111.368373 35.320861 111.889788 C 35.732505 112.411203 36.387214 113.191365 36.794937 113.650054 C 37.20266 114.108742 37.857369 114.794814 38.265092 115.202537 C 38.672815 115.61026 39.327524 116.217925 39.739167 116.574682 C 40.14689 116.93536 40.801599 117.472457 41.209322 117.79001 C 41.617045 118.111484 42.271754 118.589775 42.679477 118.872044 C 43.091121 119.154314 43.74583 119.581639 44.153553 119.832546 C 44.561276 120.087373 45.215985 120.467653 45.623708 120.691116 C 46.031431 120.9185 46.690061 121.255656 47.097784 121.455597 C 47.505507 121.659459 48.160216 121.96133 48.567939 122.141669 C 48.975662 122.318088 49.630371 122.592517 50.042014 122.753254 C 50.449737 122.913991 51.104446 123.157056 51.512169 123.298191 C 51.919892 123.443247 52.574601 123.658869 52.982324 123.788243 C 53.393968 123.917617 54.048677 124.113637 54.4564 124.227329 C 54.864123 124.344942 55.518832 124.51744 55.926555 124.619371 C 56.334278 124.725222 56.988987 124.882038 57.40063 124.972208 C 57.808353 125.066298 58.463062 125.203512 58.870785 125.285841 C 59.278508 125.37209 59.933217 125.493623 60.34094 125.568111 C 60.752584 125.642599 61.407293 125.75237 61.815016 125.819017 C 62.222739 125.885664 62.877448 125.983675 63.285171 126.042481 C 63.692894 126.101287 64.351524 126.191457 64.759247 126.242422 C 65.16697 126.293387 65.821679 126.371796 66.229402 126.418841 C 66.637125 126.465886 67.291834 126.536453 67.703477 126.575657 C 68.1112 126.618782 68.765909 126.677588 69.173632 126.712872 C 69.581355 126.748155 70.236064 126.803041 70.643787 126.834404 C 71.055431 126.865768 71.71014 126.912813 72.117863 126.940256 C 72.525586 126.967698 73.180295 127.006903 73.588018 127.030425 C 73.995741 127.053948 74.65045 127.089231 75.062093 127.108833 C 75.469816 127.132356 76.124525 127.159799 76.532248 127.17548 C 76.939971 127.195082 77.59468 127.218605 78.002403 127.234287 C 78.414047 127.246048 79.068756 127.26565 79.476479 127.277411 C 79.884202 127.289172 80.538911 127.308774 80.946634 127.316615 C 81.354357 127.324456 82.009066 127.336217 82.42071 127.344058 C 82.828433 127.351899 83.483142 127.35974 83.890865 127.367581 C 84.298588 127.371501 84.953297 127.375421 85.36102 127.379342 C 85.772663 127.383262 86.427372 127.387183 86.835095 127.387183 C 87.242818 127.387183 87.897527 127.391103 88.30525 127.391103 C 88.712973 127.387183 89.371603 127.387183 89.779326 127.387183 C 90.187049 127.383262 90.841758 127.379342 91.249481 127.375421 C 91.657204 127.375421 92.311913 127.367581 92.723556 127.36366 C 93.131279 127.35974 93.785988 127.351899 94.193711 127.344058 C 94.601434 127.340138 95.256143 127.332297 95.663866 127.324456 C 96.07551 127.316615 96.730219 127.304854 97.137942 127.300934 C 97.545665 127.293093 98.200374 127.277411 98.608097 127.26957 C 99.01582 127.261729 99.670529 127.249968 100.082173 127.238207 C 100.489896 127.230366 101.144605 127.214684 101.552328 127.206844 C 101.960051 127.195082 102.61476 127.179401 103.022483 127.16764 C 103.434126 127.159799 104.088835 127.140197 104.496558 127.128435 C 104.904281 127.116674 105.55899 127.100993 105.966713 127.089231 C 106.374436 127.07747 107.029145 127.057868 107.440789 127.046107 C 107.848512 127.030425 108.503221 127.010823 108.910944 126.999062 C 109.318667 126.987301 109.973376 126.963778 110.381099 126.952017 C 110.792742 126.940256 111.447451 126.916733 111.855174 126.904972 C 112.262897 126.88929 112.917606 126.869688 113.325329 126.854006 C 113.733052 126.842245 114.391682 126.818723 114.799405 126.803041 C 115.207128 126.787359 115.861837 126.763837 116.26956 126.752076 C 116.677283 126.736394 117.331992 126.712872 117.743635 126.69719 C 118.151358 126.681508 118.806068 126.657986 119.213791 126.642304 C 119.621514 126.626622 120.276223 126.6031 120.683946 126.587418 C 121.095589 126.571737 121.750298 126.548214 122.158021 126.532533 C 122.565744 126.516851 123.220453 126.493328 123.628176 126.473726 C 124.035899 126.458045 124.690608 126.434522 125.102252 126.418841 C 125.509975 126.403159 126.164684 126.375716 126.572407 126.360034 C 126.98013 126.344353 127.634839 126.31691 128.042562 126.301228 C 128.454205 126.285546 129.108914 126.258104 129.516637 126.242422 C 129.92436 126.22674 130.579069 126.199297 130.986792 126.183616 C 131.394515 126.167934 132.049224 126.140491 132.460868 126.12481 C 132.868591 126.109128 133.5233 126.081685 133.931023 126.066003 C 134.338746 126.046401 134.993455 126.022879 135.401178 126.003277 C 135.812821 125.987595 136.467531 125.960152 136.875254 125.944471 C 137.282977 125.928789 137.937686 125.901346 138.345409 125.881744 C 138.753132 125.866062 139.411761 125.838619 139.819484 125.822938 C 140.227207 125.807256 140.881916 125.779813 141.289639 125.764131 C 141.697362 125.744529 142.352071 125.717087 142.763715 125.701405 C 143.171438 125.685723 143.826147 125.65828 144.23387 125.638678 C 144.641593 125.622997 145.296302 125.595554 145.704025 125.579872 C 146.115668 125.56419 146.770377 125.536748 147.1781 125.517145 C 147.585823 125.501464 148.240532 125.474021 148.648255 125.458339 C 149.055978 125.442658 149.710687 125.415215 150.122331 125.395613 C 150.530054 125.379931 151.184763 125.352488 151.592486 125.336806 C 152.000209 125.321125 152.654918 125.293682 153.062641 125.27408 C 153.474284 125.258398 154.128994 125.230955 154.536717 125.215274 C 154.94444 125.199592 155.599149 125.172149 156.006872 125.156467 C 156.414595 125.136865 157.069304 125.113343 157.480947 125.093741 C 157.88867 125.078059 158.543379 125.050616 158.951102 125.034935 C 159.358825 125.019253 160.013534 124.99181 160.421257 124.976128 C 160.832901 124.956526 161.895333 124.913402 161.895333 124.913402 " transform="matrix(0.996387, 0, 0, -0.996387, 37.552838, 163.180869)"/>
<g fill="rgb(0%, 0%, 0%)" fill-opacity="1">
<use xlink:href="#glyph-1-1" x="128.755151" y="30.267794"/>
</g>
<g fill="rgb(0%, 0%, 0%)" fill-opacity="1">
<use xlink:href="#glyph-0-1" x="134.474414" y="30.267794"/>
</g>
<g fill="rgb(0%, 0%, 0%)" fill-opacity="1">
<use xlink:href="#glyph-1-2" x="138.335414" y="30.267794"/>
</g>
<g fill="rgb(0%, 0%, 0%)" fill-opacity="1">
<use xlink:href="#glyph-0-2" x="141.919419" y="30.267794"/>
</g>
<path fill="none" stroke-width="0.3985" stroke-linecap="butt" stroke-linejoin="miter" stroke="rgb(0%, 0%, 0%)" stroke-opacity="1" stroke-dasharray="2.98883 2.98883" stroke-miterlimit="10" d="M 88.01514 127.387183 L 0.00185574 127.387183 " transform="matrix(0.996387, 0, 0, -0.996387, 37.552838, 163.180869)"/>
<path fill="none" stroke-width="0.3985" stroke-linecap="butt" stroke-linejoin="miter" stroke="rgb(0%, 0%, 0%)" stroke-opacity="1" stroke-dasharray="2.98883 2.98883" stroke-miterlimit="10" d="M 88.01514 127.387183 L 88.01514 107.596935 " transform="matrix(0.996387, 0, 0, -0.996387, 37.552838, 163.180869)"/>
<path fill="none" stroke-width="0.3985" stroke-linecap="butt" stroke-linejoin="miter" stroke="rgb(100%, 0%, 0%)" stroke-opacity="1" stroke-dasharray="2.98883 2.98883" stroke-miterlimit="10" d="M 0.32333 80.698978 L 194.274028 80.698978 " transform="matrix(0.996387, 0, 0, -0.996387, 37.552838, 163.180869)"/>
<g fill="rgb(0%, 0%, 0%)" fill-opacity="1">
<use xlink:href="#glyph-1-2" x="224.028702" y="52.467301"/>
</g>
<g fill="rgb(0%, 0%, 0%)" fill-opacity="1">
<use xlink:href="#glyph-1-3" x="41.060122" y="10.152728"/>
</g>
</svg>
