<?xml version="1.0" encoding="UTF-8"?>
<svg xmlns="http://www.w3.org/2000/svg" xmlns:xlink="http://www.w3.org/1999/xlink" width="242.309pt" height="116.635pt" viewBox="0 0 242.309 116.635">
<defs>
<g>
<g id="glyph-0-0">
<path d="M 3.3125 -3 C 3.375 -3.265625 3.609375 -4.171875 4.296875 -4.171875 C 4.359375 -4.171875 4.59375 -4.171875 4.796875 -4.046875 C 4.515625 -4 4.328125 -3.75 4.328125 -3.515625 C 4.328125 -3.34375 4.4375 -3.15625 4.703125 -3.15625 C 4.921875 -3.15625 5.234375 -3.34375 5.234375 -3.734375 C 5.234375 -4.25 4.65625 -4.390625 4.3125 -4.390625 C 3.734375 -4.390625 3.390625 -3.859375 3.265625 -3.640625 C 3.015625 -4.296875 2.484375 -4.390625 2.203125 -4.390625 C 1.15625 -4.390625 0.59375 -3.109375 0.59375 -2.859375 C 0.59375 -2.765625 0.703125 -2.765625 0.71875 -2.765625 C 0.796875 -2.765625 0.828125 -2.78125 0.84375 -2.875 C 1.1875 -3.921875 1.84375 -4.171875 2.171875 -4.171875 C 2.359375 -4.171875 2.71875 -4.078125 2.71875 -3.515625 C 2.71875 -3.203125 2.546875 -2.53125 2.171875 -1.140625 C 2.015625 -0.53125 1.671875 -0.109375 1.234375 -0.109375 C 1.171875 -0.109375 0.9375 -0.109375 0.734375 -0.234375 C 0.984375 -0.28125 1.203125 -0.5 1.203125 -0.78125 C 1.203125 -1.046875 0.984375 -1.125 0.828125 -1.125 C 0.53125 -1.125 0.28125 -0.859375 0.28125 -0.546875 C 0.28125 -0.09375 0.78125 0.109375 1.21875 0.109375 C 1.875 0.109375 2.234375 -0.59375 2.265625 -0.640625 C 2.390625 -0.28125 2.75 0.109375 3.34375 0.109375 C 4.359375 0.109375 4.921875 -1.171875 4.921875 -1.421875 C 4.921875 -1.515625 4.84375 -1.515625 4.8125 -1.515625 C 4.71875 -1.515625 4.703125 -1.484375 4.6875 -1.40625 C 4.359375 -0.34375 3.671875 -0.109375 3.359375 -0.109375 C 2.96875 -0.109375 2.8125 -0.421875 2.8125 -0.765625 C 2.8125 -0.984375 2.875 -1.203125 2.984375 -1.640625 Z M 3.3125 -3 "/>
</g>
<g id="glyph-0-1">
<path d="M 0.453125 1.21875 C 0.375 1.546875 0.34375 1.625 -0.09375 1.625 C -0.203125 1.625 -0.3125 1.625 -0.3125 1.8125 C -0.3125 1.890625 -0.265625 1.921875 -0.1875 1.921875 C 0.078125 1.921875 0.375 1.890625 0.640625 1.890625 C 0.96875 1.890625 1.3125 1.921875 1.625 1.921875 C 1.671875 1.921875 1.8125 1.921875 1.8125 1.734375 C 1.8125 1.625 1.703125 1.625 1.5625 1.625 C 1.078125 1.625 1.078125 1.546875 1.078125 1.453125 C 1.078125 1.34375 1.484375 -0.28125 1.5625 -0.53125 C 1.6875 -0.234375 1.96875 0.109375 2.46875 0.109375 C 3.625 0.109375 4.875 -1.34375 4.875 -2.796875 C 4.875 -3.734375 4.296875 -4.390625 3.546875 -4.390625 C 3.046875 -4.390625 2.578125 -4.03125 2.25 -3.640625 C 2.140625 -4.1875 1.71875 -4.390625 1.34375 -4.390625 C 0.890625 -4.390625 0.703125 -4 0.609375 -3.828125 C 0.4375 -3.484375 0.3125 -2.890625 0.3125 -2.859375 C 0.3125 -2.765625 0.40625 -2.765625 0.421875 -2.765625 C 0.53125 -2.765625 0.53125 -2.765625 0.59375 -2.984375 C 0.765625 -3.703125 0.96875 -4.171875 1.328125 -4.171875 C 1.484375 -4.171875 1.625 -4.09375 1.625 -3.71875 C 1.625 -3.484375 1.59375 -3.375 1.5625 -3.203125 Z M 2.203125 -3.09375 C 2.265625 -3.375 2.53125 -3.640625 2.71875 -3.796875 C 3.0625 -4.109375 3.34375 -4.171875 3.515625 -4.171875 C 3.921875 -4.171875 4.15625 -3.828125 4.15625 -3.234375 C 4.15625 -2.65625 3.828125 -1.515625 3.640625 -1.140625 C 3.3125 -0.4375 2.828125 -0.109375 2.46875 -0.109375 C 1.8125 -0.109375 1.671875 -0.9375 1.671875 -1 C 1.671875 -1.015625 1.671875 -1.03125 1.703125 -1.15625 Z M 2.203125 -3.09375 "/>
</g>
<g id="glyph-0-2">
<path d="M 4.734375 -2.34375 C 4.734375 -3.90625 3.8125 -4.390625 3.078125 -4.390625 C 1.71875 -4.390625 0.40625 -2.96875 0.40625 -1.5625 C 0.40625 -0.640625 1 0.109375 2.015625 0.109375 C 2.640625 0.109375 3.359375 -0.125 4.109375 -0.71875 C 4.25 -0.203125 4.578125 0.109375 5.015625 0.109375 C 5.546875 0.109375 5.859375 -0.4375 5.859375 -0.59375 C 5.859375 -0.671875 5.796875 -0.703125 5.734375 -0.703125 C 5.671875 -0.703125 5.640625 -0.671875 5.609375 -0.59375 C 5.421875 -0.109375 5.0625 -0.109375 5.046875 -0.109375 C 4.734375 -0.109375 4.734375 -0.890625 4.734375 -1.125 C 4.734375 -1.328125 4.734375 -1.34375 4.84375 -1.46875 C 5.78125 -2.640625 5.984375 -3.796875 5.984375 -3.8125 C 5.984375 -3.828125 5.96875 -3.90625 5.859375 -3.90625 C 5.765625 -3.90625 5.765625 -3.875 5.71875 -3.703125 C 5.53125 -3.078125 5.203125 -2.3125 4.734375 -1.734375 Z M 4.078125 -0.984375 C 3.203125 -0.21875 2.4375 -0.109375 2.03125 -0.109375 C 1.4375 -0.109375 1.140625 -0.5625 1.140625 -1.1875 C 1.140625 -1.671875 1.40625 -2.75 1.71875 -3.265625 C 2.1875 -3.984375 2.71875 -4.171875 3.078125 -4.171875 C 4.046875 -4.171875 4.046875 -2.875 4.046875 -2.09375 C 4.046875 -1.734375 4.046875 -1.15625 4.078125 -0.984375 Z M 4.078125 -0.984375 "/>
</g>
<g id="glyph-0-3">
<path d="M 5.71875 -5.65625 C 5.71875 -6.40625 5.171875 -7.015625 4.359375 -7.015625 C 3.78125 -7.015625 3.515625 -6.859375 3.15625 -6.59375 C 2.609375 -6.203125 2.0625 -5.234375 1.875 -4.484375 L 0.296875 1.828125 C 0.28125 1.875 0.34375 1.921875 0.421875 1.921875 C 0.5 1.921875 0.53125 1.90625 0.53125 1.875 L 1.234375 -0.859375 C 1.421875 -0.265625 1.859375 0.09375 2.578125 0.09375 C 3.3125 0.09375 4.046875 -0.25 4.5 -0.6875 C 4.984375 -1.140625 5.296875 -1.78125 5.296875 -2.515625 C 5.296875 -3.234375 4.921875 -3.75 4.578125 -4 C 5.140625 -4.328125 5.71875 -4.9375 5.71875 -5.65625 Z M 3.921875 -4 C 3.796875 -3.953125 3.6875 -3.9375 3.453125 -3.9375 C 3.3125 -3.9375 3.109375 -3.921875 3.015625 -3.96875 C 3.03125 -4.078125 3.390625 -4.046875 3.5 -4.046875 C 3.703125 -4.046875 3.796875 -4.046875 3.921875 -4 Z M 5.15625 -5.890625 C 5.15625 -5.1875 4.78125 -4.46875 4.265625 -4.15625 C 4 -4.265625 3.796875 -4.28125 3.5 -4.28125 C 3.296875 -4.28125 2.734375 -4.296875 2.734375 -3.96875 C 2.71875 -3.6875 3.234375 -3.71875 3.421875 -3.71875 C 3.78125 -3.71875 3.9375 -3.734375 4.234375 -3.84375 C 4.609375 -3.484375 4.65625 -3.1875 4.671875 -2.71875 C 4.6875 -2.140625 4.453125 -1.40625 4.171875 -1.015625 C 3.78125 -0.484375 3.125 -0.125 2.546875 -0.125 C 1.796875 -0.125 1.421875 -0.703125 1.421875 -1.40625 C 1.421875 -1.5 1.421875 -1.65625 1.46875 -1.84375 L 2.109375 -4.359375 C 2.328125 -5.203125 3.046875 -6.78125 4.234375 -6.78125 C 4.8125 -6.78125 5.15625 -6.484375 5.15625 -5.890625 Z M 5.15625 -5.890625 "/>
</g>
<g id="glyph-0-4">
<path d="M 2.640625 -3.703125 L 3.75 -3.703125 C 3.421875 -2.234375 3.34375 -1.8125 3.34375 -1.140625 C 3.34375 -1 3.34375 -0.71875 3.421875 -0.390625 C 3.515625 0.046875 3.625 0.109375 3.78125 0.109375 C 3.96875 0.109375 4.1875 -0.0625 4.1875 -0.265625 C 4.1875 -0.328125 4.1875 -0.34375 4.125 -0.484375 C 3.828125 -1.203125 3.828125 -1.84375 3.828125 -2.125 C 3.828125 -2.65625 3.90625 -3.1875 4.015625 -3.703125 L 5.140625 -3.703125 C 5.28125 -3.703125 5.640625 -3.703125 5.640625 -4.046875 C 5.640625 -4.28125 5.421875 -4.28125 5.234375 -4.28125 L 1.90625 -4.28125 C 1.6875 -4.28125 1.3125 -4.28125 0.875 -3.8125 C 0.53125 -3.421875 0.265625 -2.96875 0.265625 -2.921875 C 0.265625 -2.90625 0.265625 -2.828125 0.390625 -2.828125 C 0.46875 -2.828125 0.484375 -2.859375 0.546875 -2.9375 C 1.03125 -3.703125 1.609375 -3.703125 1.8125 -3.703125 L 2.375 -3.703125 C 2.0625 -2.5 1.515625 -1.296875 1.109375 -0.390625 C 1.03125 -0.25 1.03125 -0.234375 1.03125 -0.15625 C 1.03125 0.03125 1.1875 0.109375 1.3125 0.109375 C 1.609375 0.109375 1.6875 -0.171875 1.8125 -0.53125 C 1.953125 -1 1.953125 -1.015625 2.078125 -1.515625 Z M 2.640625 -3.703125 "/>
</g>
<g id="glyph-1-0">
<path d="M 3.859375 8.5 L 2.109375 4.625 C 2.046875 4.46875 2 4.46875 1.96875 4.46875 C 1.953125 4.46875 1.90625 4.46875 1.796875 4.546875 L 0.859375 5.265625 C 0.71875 5.359375 0.71875 5.390625 0.71875 5.421875 C 0.71875 5.46875 0.75 5.53125 0.828125 5.53125 C 0.890625 5.53125 1.046875 5.390625 1.15625 5.3125 C 1.21875 5.265625 1.375 5.15625 1.484375 5.078125 L 3.4375 9.375 C 3.515625 9.546875 3.5625 9.546875 3.640625 9.546875 C 3.796875 9.546875 3.828125 9.484375 3.890625 9.34375 L 8.40625 0 C 8.484375 -0.140625 8.484375 -0.171875 8.484375 -0.203125 C 8.484375 -0.296875 8.390625 -0.390625 8.28125 -0.390625 C 8.203125 -0.390625 8.125 -0.34375 8.046875 -0.1875 Z M 3.859375 8.5 "/>
</g>
<g id="glyph-2-0">
<path d="M 1.265625 -0.765625 L 2.3125 -1.78125 C 3.859375 -3.15625 4.46875 -3.703125 4.46875 -4.6875 C 4.46875 -5.828125 3.5625 -6.625 2.359375 -6.625 C 1.234375 -6.625 0.5 -5.703125 0.5 -4.8125 C 0.5 -4.265625 1 -4.265625 1.03125 -4.265625 C 1.1875 -4.265625 1.546875 -4.375 1.546875 -4.796875 C 1.546875 -5.046875 1.359375 -5.3125 1.015625 -5.3125 C 0.9375 -5.3125 0.921875 -5.3125 0.890625 -5.296875 C 1.109375 -5.9375 1.65625 -6.3125 2.21875 -6.3125 C 3.125 -6.3125 3.5625 -5.5 3.5625 -4.6875 C 3.5625 -3.890625 3.0625 -3.109375 2.515625 -2.5 L 0.609375 -0.375 C 0.5 -0.265625 0.5 -0.234375 0.5 0 L 4.1875 0 L 4.46875 -1.734375 L 4.21875 -1.734375 C 4.15625 -1.4375 4.09375 -1 4 -0.84375 C 3.921875 -0.765625 3.265625 -0.765625 3.046875 -0.765625 Z M 1.265625 -0.765625 "/>
</g>
<g id="glyph-2-1">
<path d="M 4.578125 -3.1875 C 4.578125 -3.96875 4.515625 -4.765625 4.171875 -5.5 C 3.71875 -6.453125 2.90625 -6.625 2.484375 -6.625 C 1.890625 -6.625 1.15625 -6.359375 0.75 -5.4375 C 0.4375 -4.75 0.390625 -3.96875 0.390625 -3.1875 C 0.390625 -2.4375 0.421875 -1.546875 0.828125 -0.78125 C 1.265625 0.015625 1.984375 0.21875 2.46875 0.21875 C 3.015625 0.21875 3.765625 0.015625 4.203125 -0.9375 C 4.515625 -1.625 4.578125 -2.390625 4.578125 -3.1875 Z M 2.46875 0 C 2.09375 0 1.5 -0.25 1.328125 -1.203125 C 1.21875 -1.796875 1.21875 -2.71875 1.21875 -3.296875 C 1.21875 -3.9375 1.21875 -4.59375 1.296875 -5.125 C 1.484375 -6.3125 2.21875 -6.40625 2.46875 -6.40625 C 2.796875 -6.40625 3.453125 -6.21875 3.640625 -5.234375 C 3.75 -4.6875 3.75 -3.921875 3.75 -3.296875 C 3.75 -2.546875 3.75 -1.875 3.640625 -1.25 C 3.484375 -0.296875 2.921875 0 2.46875 0 Z M 2.46875 0 "/>
</g>
<g id="glyph-3-0">
<path d="M 2.15625 -2.53125 L 2.984375 -2.53125 C 2.890625 -2.109375 2.734375 -1.46875 2.734375 -0.921875 C 2.734375 -0.640625 2.765625 -0.453125 2.8125 -0.3125 C 2.921875 0.046875 3.015625 0.0625 3.125 0.0625 C 3.28125 0.0625 3.453125 -0.078125 3.453125 -0.25 C 3.453125 -0.296875 3.4375 -0.328125 3.390625 -0.390625 C 3.265625 -0.65625 3.140625 -1.046875 3.140625 -1.625 C 3.140625 -1.75 3.140625 -2.03125 3.234375 -2.53125 L 4.109375 -2.53125 C 4.234375 -2.53125 4.28125 -2.53125 4.359375 -2.578125 C 4.453125 -2.65625 4.484375 -2.765625 4.484375 -2.796875 C 4.484375 -3 4.296875 -3 4.171875 -3 L 1.5625 -3 C 1.265625 -3 1.078125 -2.9375 0.765625 -2.640625 C 0.578125 -2.484375 0.3125 -2.109375 0.3125 -2.046875 C 0.3125 -1.953125 0.40625 -1.953125 0.4375 -1.953125 C 0.5 -1.953125 0.515625 -1.96875 0.5625 -2.03125 C 0.90625 -2.53125 1.34375 -2.53125 1.5 -2.53125 L 1.921875 -2.53125 C 1.703125 -1.765625 1.328125 -0.9375 1.125 -0.515625 C 1.078125 -0.4375 1.015625 -0.28125 0.984375 -0.25 C 0.984375 -0.234375 0.96875 -0.203125 0.96875 -0.15625 C 0.96875 -0.046875 1.046875 0.0625 1.203125 0.0625 C 1.484375 0.0625 1.5625 -0.25 1.734375 -0.875 Z M 2.15625 -2.53125 "/>
</g>
<g id="glyph-4-0">
<path d="M 3.671875 -1.140625 L 3.671875 -1.390625 L 2.90625 -1.390625 L 2.90625 -4.484375 C 2.90625 -4.640625 2.90625 -4.6875 2.75 -4.6875 C 2.671875 -4.6875 2.640625 -4.6875 2.578125 -4.59375 L 0.265625 -1.390625 L 0.265625 -1.140625 L 2.3125 -1.140625 L 2.3125 -0.5625 C 2.3125 -0.328125 2.3125 -0.25 1.75 -0.25 L 1.5625 -0.25 L 1.5625 0 C 1.90625 -0.015625 2.359375 -0.03125 2.609375 -0.03125 C 2.859375 -0.03125 3.3125 -0.015625 3.65625 0 L 3.65625 -0.25 L 3.46875 -0.25 C 2.90625 -0.25 2.90625 -0.328125 2.90625 -0.5625 L 2.90625 -1.140625 Z M 2.359375 -3.9375 L 2.359375 -1.390625 L 0.53125 -1.390625 Z M 2.359375 -3.9375 "/>
</g>
<g id="glyph-4-1">
<path d="M 2.328125 -4.421875 C 2.328125 -4.609375 2.3125 -4.609375 2.125 -4.609375 C 1.671875 -4.171875 1.046875 -4.171875 0.765625 -4.171875 L 0.765625 -3.921875 C 0.921875 -3.921875 1.390625 -3.921875 1.765625 -4.109375 L 1.765625 -0.5625 C 1.765625 -0.34375 1.765625 -0.25 1.078125 -0.25 L 0.8125 -0.25 L 0.8125 0 C 0.9375 0 1.78125 -0.03125 2.046875 -0.03125 C 2.265625 -0.03125 3.140625 0 3.28125 0 L 3.28125 -0.25 L 3.03125 -0.25 C 2.328125 -0.25 2.328125 -0.34375 2.328125 -0.5625 Z M 2.328125 -4.421875 "/>
</g>
<g id="glyph-4-2">
<path d="M 3.515625 -1.265625 L 3.28125 -1.265625 C 3.25 -1.109375 3.1875 -0.703125 3.09375 -0.625 C 3.03125 -0.59375 2.5 -0.59375 2.40625 -0.59375 L 1.125 -0.59375 C 1.859375 -1.234375 2.09375 -1.4375 2.515625 -1.765625 C 3.03125 -2.171875 3.515625 -2.59375 3.515625 -3.265625 C 3.515625 -4.109375 2.78125 -4.609375 1.890625 -4.609375 C 1.015625 -4.609375 0.4375 -4.015625 0.4375 -3.375 C 0.4375 -3.015625 0.734375 -2.984375 0.8125 -2.984375 C 0.96875 -2.984375 1.171875 -3.09375 1.171875 -3.34375 C 1.171875 -3.484375 1.125 -3.71875 0.765625 -3.71875 C 0.984375 -4.21875 1.453125 -4.359375 1.78125 -4.359375 C 2.46875 -4.359375 2.84375 -3.828125 2.84375 -3.265625 C 2.84375 -2.65625 2.40625 -2.171875 2.1875 -1.921875 L 0.5 -0.265625 C 0.4375 -0.203125 0.4375 -0.1875 0.4375 0 L 3.296875 0 Z M 3.515625 -1.265625 "/>
</g>
<g id="glyph-4-3">
<path d="M 1.890625 -2.328125 C 2.4375 -2.328125 2.828125 -1.953125 2.828125 -1.203125 C 2.828125 -0.34375 2.328125 -0.078125 1.921875 -0.078125 C 1.640625 -0.078125 1.03125 -0.15625 0.75 -0.5625 C 1.078125 -0.578125 1.140625 -0.8125 1.140625 -0.953125 C 1.140625 -1.1875 0.984375 -1.34375 0.765625 -1.34375 C 0.5625 -1.34375 0.375 -1.21875 0.375 -0.9375 C 0.375 -0.28125 1.09375 0.140625 1.9375 0.140625 C 2.90625 0.140625 3.578125 -0.5 3.578125 -1.203125 C 3.578125 -1.75 3.125 -2.28125 2.359375 -2.453125 C 3.09375 -2.71875 3.359375 -3.234375 3.359375 -3.65625 C 3.359375 -4.203125 2.71875 -4.609375 1.953125 -4.609375 C 1.1875 -4.609375 0.59375 -4.234375 0.59375 -3.6875 C 0.59375 -3.453125 0.75 -3.3125 0.953125 -3.3125 C 1.171875 -3.3125 1.3125 -3.484375 1.3125 -3.671875 C 1.3125 -3.875 1.171875 -4.015625 0.953125 -4.03125 C 1.203125 -4.34375 1.671875 -4.421875 1.9375 -4.421875 C 2.25 -4.421875 2.6875 -4.265625 2.6875 -3.65625 C 2.6875 -3.359375 2.59375 -3.046875 2.40625 -2.828125 C 2.171875 -2.5625 1.984375 -2.546875 1.640625 -2.53125 C 1.453125 -2.515625 1.453125 -2.515625 1.40625 -2.515625 C 1.390625 -2.515625 1.34375 -2.5 1.34375 -2.421875 C 1.34375 -2.328125 1.40625 -2.328125 1.515625 -2.328125 Z M 1.890625 -2.328125 "/>
</g>
<g id="glyph-4-4">
<path d="M 3.71875 -4.203125 C 3.796875 -4.28125 3.796875 -4.296875 3.796875 -4.484375 L 1.96875 -4.484375 C 1.6875 -4.484375 1.609375 -4.484375 1.359375 -4.5 C 1 -4.53125 0.984375 -4.578125 0.96875 -4.703125 L 0.734375 -4.703125 L 0.484375 -3.21875 L 0.71875 -3.21875 C 0.734375 -3.3125 0.8125 -3.78125 0.921875 -3.84375 C 0.96875 -3.890625 1.53125 -3.890625 1.640625 -3.890625 L 3.15625 -3.890625 C 2.9375 -3.59375 2.578125 -3.15625 2.4375 -2.96875 C 1.515625 -1.765625 1.4375 -0.671875 1.4375 -0.25 C 1.4375 -0.1875 1.4375 0.140625 1.765625 0.140625 C 2.09375 0.140625 2.09375 -0.171875 2.09375 -0.265625 L 2.09375 -0.546875 C 2.09375 -1.890625 2.375 -2.515625 2.671875 -2.890625 Z M 3.71875 -4.203125 "/>
</g>
</g>
<clipPath id="clip-0">
<path clip-rule="nonzero" d="M 10 9 L 229 9 L 229 116.269531 L 10 116.269531 Z M 10 9 "/>
</clipPath>
</defs>
<path fill="none" stroke-width="0.3985" stroke-linecap="butt" stroke-linejoin="miter" stroke="rgb(0%, 0%, 0%)" stroke-opacity="1" stroke-miterlimit="10" d="M -9.355825 0.000054379 L 210.04347 0.000054379 " transform="matrix(0.99688, 0, 0, -0.99688, 22.080544, 64.351617)"/>
<path fill-rule="nonzero" fill="rgb(0%, 0%, 0%)" fill-opacity="1" d="M 233.453125 64.351562 L 230.277344 62.761719 L 231.46875 64.351562 L 230.277344 65.941406 "/>
<g fill="rgb(0%, 0%, 0%)" fill-opacity="1">
<use xlink:href="#glyph-0-0" x="230.613955" y="72.136255"/>
</g>
<path fill="none" stroke-width="0.3985" stroke-linecap="butt" stroke-linejoin="miter" stroke="rgb(0%, 0%, 0%)" stroke-opacity="1" stroke-miterlimit="10" d="M 0.0014918 -49.88996 L 0.0014918 54.133777 " transform="matrix(0.99688, 0, 0, -0.99688, 22.080544, 64.351617)"/>
<path fill-rule="nonzero" fill="rgb(0%, 0%, 0%)" fill-opacity="1" d="M 22.082031 8.398438 L 20.492188 11.578125 L 22.082031 10.386719 L 23.667969 11.578125 "/>
<g fill="rgb(0%, 0%, 0%)" fill-opacity="1">
<use xlink:href="#glyph-0-1" x="13.575161" y="9.573042"/>
</g>
<g clip-path="url(#clip-0)">
<path fill="none" stroke-width="0.79701" stroke-linecap="butt" stroke-linejoin="miter" stroke="rgb(0%, 0%, 0%)" stroke-opacity="1" stroke-miterlimit="10" d="M 0.0014918 31.183273 C 0.0014918 31.183273 1.427816 32.582168 1.980321 33.095488 C 2.528908 33.608808 3.406646 34.40034 3.959151 34.874476 C 4.507737 35.35253 5.385475 36.081366 5.93798 36.516316 C 6.486567 36.951267 7.364305 37.617408 7.91681 38.009255 C 8.465396 38.405021 9.343135 39.004548 9.895639 39.353292 C 10.444226 39.702036 11.321964 40.23103 11.874469 40.536671 C 12.423055 40.838394 13.300794 41.292937 13.853298 41.551556 C 14.401885 41.814094 15.279623 42.194186 15.832128 42.405783 C 16.380714 42.621299 17.258453 42.923022 17.810957 43.087598 C 18.359544 43.252174 19.237282 43.479445 19.789787 43.593081 C 20.338373 43.710635 21.216112 43.859537 21.768617 43.93007 C 22.317203 43.996684 23.194941 44.063298 23.747446 44.08289 C 24.296032 44.102483 25.173771 44.090727 25.726276 44.059379 C 26.274862 44.03195 27.1526 43.941825 27.705105 43.863456 C 28.253692 43.781168 29.13143 43.612673 29.683935 43.483364 C 30.232521 43.357973 31.110259 43.111109 31.662764 42.934777 C 32.211351 42.758446 33.089089 42.433213 33.641594 42.20986 C 34.19018 41.986507 35.067918 41.586822 35.620423 41.316447 C 36.16901 41.046073 37.046748 40.571937 37.599253 40.258459 C 38.147839 39.941063 39.025577 39.396395 39.578082 39.035895 C 40.126669 38.671477 41.004407 38.056277 41.556912 37.652674 C 42.105498 37.249071 42.983236 36.571175 43.535741 36.124469 C 44.084328 35.681681 44.962066 34.933253 45.514571 34.447362 C 46.063157 33.961471 46.940895 33.154265 47.4934 32.633108 C 48.041987 32.111951 48.919725 31.24205 49.47223 30.685627 C 50.020816 30.129203 50.898554 29.204443 51.451059 28.616672 C 51.999646 28.024983 52.877384 27.053201 53.429889 26.430164 C 53.978475 25.811045 54.856214 24.788323 55.408718 24.137856 C 55.957305 23.491308 56.835043 22.425483 57.387548 21.747587 C 57.936134 21.073609 58.813873 19.972518 59.366377 19.275029 C 59.914964 18.577541 60.792702 17.437265 61.345207 16.720184 C 61.893793 16.003103 62.771532 14.83148 63.324036 14.098725 C 63.872623 13.362052 64.750361 12.170836 65.302866 11.422407 C 65.851452 10.67006 66.729191 9.459251 67.281696 8.695149 C 67.830282 7.934965 68.70802 6.704564 69.260525 5.936543 C 69.809111 5.168522 70.68685 3.926366 71.239355 3.154426 C 71.787941 2.378568 72.665679 1.132493 73.218184 0.356636 C 73.766771 -0.419222 74.644509 -1.665297 75.197014 -2.437237 C 75.7456 -3.213095 76.623338 -4.455251 77.175843 -5.22719 C 77.72443 -5.99913 78.602168 -7.229531 79.154673 -7.993633 C 79.703259 -8.753817 80.580997 -9.972463 81.133502 -10.72481 C 81.682089 -11.477157 82.559827 -12.67621 83.112332 -13.416802 C 83.660918 -14.157393 84.538656 -15.332936 85.091161 -16.053935 C 85.639748 -16.778853 86.517486 -17.923047 87.069991 -18.628372 C 87.618577 -19.329779 88.496315 -20.442626 89.04882 -21.124441 C 89.597407 -21.806255 90.475145 -22.879917 91.02765 -23.538221 C 91.576236 -24.192606 92.453974 -25.227083 93.006479 -25.854039 C 93.555066 -26.480995 94.432804 -27.46845 94.985309 -28.067977 C 95.533895 -28.667504 96.411633 -29.6001 96.964138 -30.168279 C 97.512725 -30.73254 98.390463 -31.614196 98.942968 -32.147109 C 99.491554 -32.676103 100.369293 -33.498982 100.921797 -33.99271 C 101.470384 -34.490356 102.348122 -35.254459 102.900627 -35.709002 C 103.449213 -36.163545 104.326952 -36.861033 104.879456 -37.276392 C 105.428043 -37.69175 106.305781 -38.322624 106.858286 -38.694879 C 107.406872 -39.067134 108.284611 -39.631395 108.837115 -39.960547 C 109.385702 -40.289698 110.26344 -40.779508 110.815945 -41.061638 C 111.364531 -41.343768 112.24227 -41.759126 112.794775 -41.998153 C 113.343361 -42.233262 114.221099 -42.578087 114.773604 -42.766174 C 115.32219 -42.954261 116.199929 -43.220717 116.752434 -43.361782 C 117.30102 -43.502847 118.178758 -43.690934 118.731263 -43.781059 C 119.279849 -43.875102 120.157588 -43.98482 120.710093 -44.027923 C 121.258679 -44.071026 122.136417 -44.098455 122.688922 -44.094537 C 123.237509 -44.0867 124.115247 -44.039678 124.667752 -43.98482 C 125.216338 -43.929961 126.094076 -43.800651 126.646581 -43.698771 C 127.195168 -43.592972 128.072906 -43.385293 128.625411 -43.232473 C 129.173997 -43.079652 130.051735 -42.797522 130.60424 -42.59768 C 131.152827 -42.397838 132.030565 -42.037338 132.58307 -41.786556 C 133.131656 -41.539692 134.009394 -41.104741 134.561899 -40.810855 C 135.110486 -40.51697 135.988224 -40.011487 136.540729 -39.670579 C 137.089315 -39.333591 137.967053 -38.749738 138.519558 -38.369646 C 139.068145 -37.985635 139.945883 -37.339087 140.498388 -36.915892 C 141.046974 -36.488778 141.924712 -35.775616 142.477217 -35.309318 C 143.025804 -34.843019 143.903542 -34.067161 144.456047 -33.561678 C 145.004633 -33.060113 145.882372 -32.22156 146.434876 -31.684729 C 146.983463 -31.143979 147.861201 -30.246649 148.413706 -29.674551 C 148.962292 -29.098536 149.840031 -28.154183 150.392535 -27.54682 C 150.941122 -26.939456 151.81886 -25.944164 152.371365 -25.309371 C 152.919951 -24.67066 153.79769 -23.628346 154.350194 -22.966123 C 154.898781 -22.303901 155.776519 -21.218484 156.329024 -20.532751 C 156.87761 -19.847018 157.755349 -18.726334 158.307854 -18.01709 C 158.85644 -17.307847 159.734178 -16.155815 160.286683 -15.426979 C 160.835269 -14.702061 161.713008 -13.518682 162.265513 -12.77809 C 162.814099 -12.03358 163.691837 -10.830609 164.244342 -10.074343 C 164.792928 -9.318078 165.670667 -8.095514 166.223172 -7.331411 C 166.771758 -6.567309 167.649496 -5.332989 168.202001 -4.56105 C 168.750588 -3.78911 169.628326 -2.543035 170.180831 -1.767178 C 170.729417 -0.99132 171.607155 0.254755 172.15966 1.026695 C 172.708247 1.802553 173.585985 3.048627 174.13849 3.820567 C 174.687076 4.596425 175.564814 5.834663 176.117319 6.602684 C 176.665906 7.370705 177.543644 8.593269 178.096149 9.353453 C 178.644735 10.109718 179.522473 11.320527 180.074978 12.065037 C 180.623565 12.813465 181.501303 14.000763 182.053808 14.733518 C 182.602394 15.462354 183.480132 16.626141 184.032637 17.339303 C 184.581224 18.052465 185.458962 19.180986 186.011467 19.874556 C 186.560053 20.568126 187.437791 21.66138 187.990296 22.331439 C 188.538883 23.001499 189.416621 24.055568 189.969126 24.698198 C 190.517712 25.340828 191.395451 26.351794 191.947955 26.966995 C 192.496542 27.578277 193.37428 28.538303 193.926785 29.122155 C 194.475371 29.706008 195.905614 31.16368 195.905614 31.16368 " transform="matrix(0.99688, 0, 0, -0.99688, 22.080544, 64.351617)"/>
</g>
<path fill="none" stroke-width="0.3985" stroke-linecap="butt" stroke-linejoin="miter" stroke="rgb(0%, 0%, 0%)" stroke-opacity="1" stroke-dasharray="2.98883 2.98883" stroke-miterlimit="10" d="M 0.0014918 44.090727 L 24.476282 44.090727 L 24.476282 0.000054379 " transform="matrix(0.99688, 0, 0, -0.99688, 22.080544, 64.351617)"/>
<g fill="rgb(0%, 0%, 0%)" fill-opacity="1">
<use xlink:href="#glyph-1-0" x="5.329964" y="16.028839"/>
</g>
<path fill="none" stroke-width="0.398" stroke-linecap="butt" stroke-linejoin="miter" stroke="rgb(0%, 0%, 0%)" stroke-opacity="1" stroke-miterlimit="10" d="M -0.00059743 -0.00157634 L 4.979783 -0.00157634 " transform="matrix(0.99688, 0, 0, -0.99688, 13.606064, 15.83046)"/>
<g fill="rgb(0%, 0%, 0%)" fill-opacity="1">
<use xlink:href="#glyph-2-0" x="13.606064" y="24.24413"/>
</g>
<g fill="rgb(0%, 0%, 0%)" fill-opacity="1">
<use xlink:href="#glyph-3-0" x="44.03484" y="70.85327"/>
</g>
<path fill="none" stroke-width="0.398" stroke-linecap="butt" stroke-linejoin="miter" stroke="rgb(0%, 0%, 0%)" stroke-opacity="1" stroke-miterlimit="10" d="M 0.000317368 -0.00044845 L 4.910166 -0.00044845 " transform="matrix(0.99688, 0, 0, -0.99688, 44.03484, 72.280803)"/>
<g fill="rgb(0%, 0%, 0%)" fill-opacity="1">
<use xlink:href="#glyph-4-0" x="44.502377" y="78.189313"/>
</g>
<path fill="none" stroke-width="0.3985" stroke-linecap="butt" stroke-linejoin="miter" stroke="rgb(0%, 0%, 0%)" stroke-opacity="1" stroke-dasharray="2.98883 2.98883" stroke-miterlimit="10" d="M 0.0014918 15.591664 L 187.089047 15.591664 " transform="matrix(0.99688, 0, 0, -0.99688, 22.080544, 64.351617)"/>
<g fill="rgb(0%, 0%, 0%)" fill-opacity="1">
<use xlink:href="#glyph-4-1" x="13.421641" y="47.381723"/>
</g>
<path fill="none" stroke-width="0.398" stroke-linecap="butt" stroke-linejoin="miter" stroke="rgb(0%, 0%, 0%)" stroke-opacity="1" stroke-miterlimit="10" d="M 0.000234278 0.000663619 L 3.969649 0.000663619 " transform="matrix(0.99688, 0, 0, -0.99688, 13.421641, 48.809255)"/>
<g fill="rgb(0%, 0%, 0%)" fill-opacity="1">
<use xlink:href="#glyph-4-2" x="13.421641" y="54.717765"/>
</g>
<path fill="none" stroke-width="0.3985" stroke-linecap="butt" stroke-linejoin="miter" stroke="rgb(0%, 0%, 0%)" stroke-opacity="1" stroke-dasharray="2.98883 2.98883" stroke-miterlimit="10" d="M 63.923563 15.591664 L 63.923563 0.000054379 " transform="matrix(0.99688, 0, 0, -0.99688, 22.080544, 64.351617)"/>
<g fill="rgb(0%, 0%, 0%)" fill-opacity="1">
<use xlink:href="#glyph-0-2" x="82.608128" y="72.136255"/>
</g>
<path fill="none" stroke-width="0.3985" stroke-linecap="butt" stroke-linejoin="miter" stroke="rgb(0%, 0%, 0%)" stroke-opacity="1" stroke-dasharray="2.98883 2.98883" stroke-miterlimit="10" d="M 180.854755 15.591664 L 180.854755 0.000054379 " transform="matrix(0.99688, 0, 0, -0.99688, 22.080544, 64.351617)"/>
<g fill="rgb(0%, 0%, 0%)" fill-opacity="1">
<use xlink:href="#glyph-0-3" x="199.296959" y="74.757054"/>
</g>
<g fill="rgb(0%, 0%, 0%)" fill-opacity="1">
<use xlink:href="#glyph-4-3" x="90.701799" y="72.340616"/>
</g>
<g fill="rgb(0%, 0%, 0%)" fill-opacity="1">
<use xlink:href="#glyph-3-0" x="94.661408" y="72.340616"/>
</g>
<path fill="none" stroke-width="0.398" stroke-linecap="butt" stroke-linejoin="miter" stroke="rgb(0%, 0%, 0%)" stroke-opacity="1" stroke-miterlimit="10" d="M 0.00132983 -0.00138716 L 8.880593 -0.00138716 " transform="matrix(0.99688, 0, 0, -0.99688, 90.701799, 73.768148)"/>
<g fill="rgb(0%, 0%, 0%)" fill-opacity="1">
<use xlink:href="#glyph-4-0" x="93.149141" y="79.675661"/>
</g>
<g fill="rgb(0%, 0%, 0%)" fill-opacity="1">
<use xlink:href="#glyph-4-4" x="188.616383" y="72.340616"/>
</g>
<g fill="rgb(0%, 0%, 0%)" fill-opacity="1">
<use xlink:href="#glyph-3-0" x="192.574995" y="72.340616"/>
</g>
<path fill="none" stroke-width="0.398" stroke-linecap="butt" stroke-linejoin="miter" stroke="rgb(0%, 0%, 0%)" stroke-opacity="1" stroke-miterlimit="10" d="M 0.00080664 -0.00138716 L 8.880069 -0.00138716 " transform="matrix(0.99688, 0, 0, -0.99688, 188.616383, 73.768148)"/>
<g fill="rgb(0%, 0%, 0%)" fill-opacity="1">
<use xlink:href="#glyph-4-0" x="191.063725" y="79.675661"/>
</g>
<g fill="rgb(0%, 0%, 0%)" fill-opacity="1">
<use xlink:href="#glyph-2-0" x="220.796678" y="74.260607"/>
</g>
<g fill="rgb(0%, 0%, 0%)" fill-opacity="1">
<use xlink:href="#glyph-0-4" x="225.763136" y="74.260607"/>
</g>
<g fill="rgb(0%, 0%, 0%)" fill-opacity="1">
<use xlink:href="#glyph-2-1" x="13.606064" y="74.260607"/>
</g>
</svg>
