<?xml version="1.0" encoding="UTF-8"?>
<svg xmlns="http://www.w3.org/2000/svg" xmlns:xlink="http://www.w3.org/1999/xlink" width="208.554pt" height="110.929pt" viewBox="0 0 208.554 110.929">
<defs>
<clipPath id="clip-0">
<path clip-rule="nonzero" d="M 0 0.0820312 L 34 0.0820312 L 34 88 L 0 88 Z M 0 0.0820312 "/>
</clipPath>
<clipPath id="clip-1">
<path clip-rule="nonzero" d="M 11 0.0820312 L 40 0.0820312 L 40 93 L 11 93 Z M 11 0.0820312 "/>
</clipPath>
<clipPath id="clip-2">
<path clip-rule="nonzero" d="M 11 0.0820312 L 57 0.0820312 L 57 80 L 11 80 Z M 11 0.0820312 "/>
</clipPath>
<clipPath id="clip-3">
<path clip-rule="nonzero" d="M 83 0.0820312 L 208.109375 0.0820312 L 208.109375 110.773438 L 83 110.773438 Z M 83 0.0820312 "/>
</clipPath>
</defs>
<path fill="none" stroke-width="0.3985" stroke-linecap="butt" stroke-linejoin="miter" stroke="rgb(0%, 0%, 0%)" stroke-opacity="1" stroke-dasharray="2.98883 2.98883" stroke-miterlimit="10" d="M -84.191092 -15.306011 L -79.086449 12.757782 L -51.022655 10.205461 L -40.821198 -7.652961 " transform="matrix(0.997866, 0, 0, -0.997866, 86.394243, 61.01962)"/>
<path fill="none" stroke-width="0.3985" stroke-linecap="butt" stroke-linejoin="miter" stroke="rgb(0%, 0%, 0%)" stroke-opacity="1" stroke-dasharray="2.98883 2.98883" stroke-miterlimit="10" d="M -63.780348 51.023033 L -79.086449 12.757782 " transform="matrix(0.997866, 0, 0, -0.997866, 86.394243, 61.01962)"/>
<path fill="none" stroke-width="0.3985" stroke-linecap="butt" stroke-linejoin="miter" stroke="rgb(0%, 0%, 0%)" stroke-opacity="1" stroke-dasharray="2.98883 2.98883" stroke-miterlimit="10" d="M -63.780348 51.023033 L -51.022655 10.205461 " transform="matrix(0.997866, 0, 0, -0.997866, 86.394243, 61.01962)"/>
<path fill="none" stroke-width="0.79701" stroke-linecap="butt" stroke-linejoin="miter" stroke="rgb(0%, 0%, 0%)" stroke-opacity="1" stroke-miterlimit="10" d="M -84.191092 -15.306011 L -58.675705 -20.410654 L -40.821198 -7.652961 " transform="matrix(0.997866, 0, 0, -0.997866, 86.394243, 61.01962)"/>
<g clip-path="url(#clip-0)">
<path fill="none" stroke-width="0.79701" stroke-linecap="butt" stroke-linejoin="miter" stroke="rgb(0%, 0%, 0%)" stroke-opacity="1" stroke-miterlimit="10" d="M -63.780348 51.023033 L -84.191092 -15.306011 " transform="matrix(0.997866, 0, 0, -0.997866, 86.394243, 61.01962)"/>
</g>
<g clip-path="url(#clip-1)">
<path fill="none" stroke-width="0.79701" stroke-linecap="butt" stroke-linejoin="miter" stroke="rgb(0%, 0%, 0%)" stroke-opacity="1" stroke-miterlimit="10" d="M -63.780348 51.023033 L -58.675705 -20.410654 " transform="matrix(0.997866, 0, 0, -0.997866, 86.394243, 61.01962)"/>
</g>
<g clip-path="url(#clip-2)">
<path fill="none" stroke-width="0.79701" stroke-linecap="butt" stroke-linejoin="miter" stroke="rgb(0%, 0%, 0%)" stroke-opacity="1" stroke-miterlimit="10" d="M -63.780348 51.023033 L -40.821198 -7.652961 " transform="matrix(0.997866, 0, 0, -0.997866, 86.394243, 61.01962)"/>
</g>
<path fill="none" stroke-width="0.3985" stroke-linecap="butt" stroke-linejoin="miter" stroke="rgb(0%, 0%, 0%)" stroke-opacity="1" stroke-dasharray="2.98883 2.98883" stroke-miterlimit="10" d="M 63.780926 20.410833 L 44.368407 6.306516 L 51.782666 -16.511709 L 75.775272 -16.511709 L 83.189531 6.306516 Z M 63.780926 20.410833 " transform="matrix(0.997866, 0, 0, -0.997866, 86.394243, 61.01962)"/>
<g clip-path="url(#clip-3)">
<path fill="none" stroke-width="0.79701" stroke-linecap="butt" stroke-linejoin="miter" stroke="rgb(0%, 0%, 0%)" stroke-opacity="1" stroke-miterlimit="10" d="M 63.780926 20.410833 L 63.780926 58.676083 L 44.368407 6.306516 L 7.974337 18.132533 L 51.782666 -16.511709 L 29.289353 -47.472309 L 75.775272 -16.511709 L 98.268584 -47.472309 L 83.189531 6.306516 L 119.583601 18.132533 Z M 63.780926 20.410833 " transform="matrix(0.997866, 0, 0, -0.997866, 86.394243, 61.01962)"/>
</g>
</svg>
